<?xml version="1.0" encoding="utf-8"?>
<!-- Generator: Adobe Illustrator 18.0.0, SVG Export Plug-In . SVG Version: 6.00 Build 0)  -->
<!DOCTYPE svg PUBLIC "-//W3C//DTD SVG 1.1//EN" "http://www.w3.org/Graphics/SVG/1.1/DTD/svg11.dtd">
<svg version="1.1" id="Layer_1" xmlns="http://www.w3.org/2000/svg" xmlns:xlink="http://www.w3.org/1999/xlink" x="0px" y="0px"
	 viewBox="0 0 180 180" enable-background="new 0 0 180 180" xml:space="preserve">
<rect fill="#81C341" width="180" height="180"/>
<path fill="#FFFFFF" d="M131.3,39.9H79.6c15.3,12.4,24.9,30.1,24.9,49.7c0,20.1-10,38.1-26,50.6h52.8c4.8,0,8.7-3.9,8.7-8.7V48.6
	C140,43.8,136.1,39.9,131.3,39.9 M64,140.1H48.7c-4.8,0-8.7-3.9-8.7-8.7V48.6c0-4.8,3.9-8.7,8.7-8.7h16.9
	c18.6,10.8,30.8,29,30.8,49.7C96.5,110.8,83.5,129.4,64,140.1"/>
</svg>
