<?xml version="1.0" encoding="utf-8"?>
<!-- Generator: Adobe Illustrator 18.0.0, SVG Export Plug-In . SVG Version: 6.00 Build 0)  -->
<!DOCTYPE svg PUBLIC "-//W3C//DTD SVG 1.1//EN" "http://www.w3.org/Graphics/SVG/1.1/DTD/svg11.dtd">
<svg version="1.1" id="Layer_1" xmlns="http://www.w3.org/2000/svg" xmlns:xlink="http://www.w3.org/1999/xlink" x="0px" y="0px"
	 viewBox="0 0 2048 1536" enable-background="new 0 0 2048 1536" xml:space="preserve">
<rect y="0" fill="#81C341" width="2048" height="1536"/>
<path fill="#FFFFFF" d="M1147.8,617.7H992.9c45.8,37.3,74.6,90.2,74.6,149c0,60.2-30.1,114.4-77.9,151.7h158.3
	c14.5,0,26.2-11.7,26.2-26.2V643.9C1174,629.4,1162.2,617.7,1147.8,617.7 M946.1,918.3h-45.9c-14.5,0-26.2-11.7-26.2-26.2V643.9
	c0-14.5,11.7-26.2,26.2-26.2h50.8c55.8,32.4,92.5,87.1,92.5,149C1043.5,830.3,1004.6,886.3,946.1,918.3"/>
</svg>
