<?xml version="1.0" encoding="utf-8"?>
<!-- Generator: Adobe Illustrator 18.0.0, SVG Export Plug-In . SVG Version: 6.00 Build 0)  -->
<!DOCTYPE svg PUBLIC "-//W3C//DTD SVG 1.1//EN" "http://www.w3.org/Graphics/SVG/1.1/DTD/svg11.dtd">
<svg version="1.1" id="Layer_1" xmlns="http://www.w3.org/2000/svg" xmlns:xlink="http://www.w3.org/1999/xlink" x="0px" y="0px"
	 viewBox="0 0 128 128" enable-background="new 0 0 128 128" xml:space="preserve">
<path fill="#0E3451" d="M120,128H8c-4.4,0-8-3.6-8-8V8c0-4.4,3.6-8,8-8h112c4.4,0,8,3.6,8,8v112C128,124.4,124.4,128,120,128z"/>
<g>
	<path fill="#FFFFFF" d="M15.3,69.5h5.5V53.5h-4.5v-2.8c2.4-0.5,4.1-1.1,5.6-2h3.3v20.8H30v3.6H15.3V69.5z"/>
	<path fill="#FFFFFF" d="M32.9,60.8c0-8.3,3.2-12.6,8.3-12.6c5.1,0,8.3,4.3,8.3,12.6c0,8.3-3.2,12.8-8.3,12.8
		C36.1,73.6,32.9,69.1,32.9,60.8z M45.3,60.8c0-6.9-1.7-9.1-4.1-9.1c-2.3,0-4.1,2.2-4.1,9.1c0,6.9,1.7,9.3,4.1,9.3
		C43.6,70.1,45.3,67.7,45.3,60.8z"/>
	<path fill="#FFFFFF" d="M54.3,54.3h3.6l0.3,2.6h0.2c1.6-1.7,3.4-3,5.8-3c2.8,0,4.3,1.3,5.2,3.4c1.8-1.9,3.7-3.4,6.1-3.4
		c4,0,5.8,2.7,5.8,7.5v11.8h-4.5V61.9c0-3.1-0.9-4.3-2.9-4.3c-1.2,0-2.5,0.8-4,2.3v13.2h-4.4V61.9c0-3.1-0.9-4.3-2.9-4.3
		c-1.2,0-2.5,0.8-4,2.3v13.2h-4.4V54.3z"/>
	<path fill="#FFFFFF" d="M86.1,48.5c0-1.5,1.2-2.5,2.7-2.5c1.6,0,2.7,1,2.7,2.5c0,1.5-1.2,2.5-2.7,2.5C87.2,51,86.1,49.9,86.1,48.5z
		 M86.6,54.3H91v18.9h-4.4V54.3z"/>
	<path fill="#FFFFFF" d="M96.5,54.3h3.6l0.3,2.5h0.2c1.7-1.7,3.6-3,6.2-3c4,0,5.8,2.7,5.8,7.5v11.8h-4.4V61.9c0-3.1-0.9-4.3-3-4.3
		c-1.7,0-2.7,0.8-4.3,2.3v13.2h-4.4V54.3z"/>
</g>
</svg>
