<?xml version="1.0" encoding="utf-8"?>
<!-- Generator: Adobe Illustrator 18.0.0, SVG Export Plug-In . SVG Version: 6.00 Build 0)  -->
<!DOCTYPE svg PUBLIC "-//W3C//DTD SVG 1.1//EN" "http://www.w3.org/Graphics/SVG/1.1/DTD/svg11.dtd">
<svg version="1.1" id="Layer_1" xmlns="http://www.w3.org/2000/svg" xmlns:xlink="http://www.w3.org/1999/xlink" x="0px" y="0px"
	 viewBox="0 0 128 128" enable-background="new 0 0 128 128" xml:space="preserve">
<path fill="#0E3451" d="M120,128H8c-4.4,0-8-3.6-8-8V8c0-4.4,3.6-8,8-8h112c4.4,0,8,3.6,8,8v112C128,124.4,124.4,128,120,128z"/>
<g>
	<path fill="#FFFFFF" d="M39.3,69.5h5.5V53.5h-4.5v-2.8c2.4-0.5,4.1-1.1,5.6-2h3.3v20.8H54v3.6H39.3V69.5z"/>
	<path fill="#FFFFFF" d="M58.2,46h4.4v7l-0.2,3.6c1.6-1.5,3.5-2.8,6-2.8c4,0,5.8,2.7,5.8,7.5v11.8h-4.4V61.9c0-3.1-0.9-4.3-3-4.3
		c-1.7,0-2.7,0.8-4.3,2.3v13.2h-4.4V46z"/>
	<path fill="#FFFFFF" d="M79.6,54.3h3.6l0.3,3.3h0.2c1.3-2.5,3.3-3.8,5.3-3.8c1,0,1.6,0.1,2.2,0.4L90.4,58c-0.7-0.2-1.2-0.3-2-0.3
		c-1.5,0-3.3,1-4.5,3.9v11.5h-4.4V54.3z"/>
</g>
</svg>
