<?xml version="1.0" encoding="utf-8"?>
<!-- Generator: Adobe Illustrator 18.0.0, SVG Export Plug-In . SVG Version: 6.00 Build 0)  -->
<!DOCTYPE svg PUBLIC "-//W3C//DTD SVG 1.1//EN" "http://www.w3.org/Graphics/SVG/1.1/DTD/svg11.dtd">
<svg version="1.1" id="Layer_1" xmlns="http://www.w3.org/2000/svg" xmlns:xlink="http://www.w3.org/1999/xlink" x="0px" y="0px"
	 viewBox="0 0 128 128" enable-background="new 0 0 128 128" xml:space="preserve">
<g>
	<path fill="#285884" d="M120,128H8c-4.4,0-8-3.6-8-8V8c0-4.4,3.6-8,8-8h112c4.4,0,8,3.6,8,8v112C128,124.4,124.4,128,120,128z"/>
</g>
<path fill="#FFFFFF" d="M89.2,83.8c-2.4-3.3-12.4-16.2-14.7-19.5c0-0.1-0.1-0.2-0.2-0.2c2.5-3.2,12.6-16.1,14.7-19.5
	c0.7-1.1,1.2-2.3,0.7-3.6c-0.8-2.5-3.8-3.6-6-2.1c-0.4,0.3-0.8,0.6-1.2,0.9c-0.8,0.6-13.7,10.6-17.1,12.9c-0.5,0.4-1,0.8-1.5,1.1
	C60.9,51.2,47.8,41,44.3,38.9c-3.6-2.6-8.1,1.9-5.5,5.5c0.3,0.4,14.5,19.2,14.8,19.7c-2.5,3.2-12.6,16.1-14.7,19.5
	c-0.7,1.1-1.2,2.3-0.7,3.6c0.8,2.5,3.8,3.6,6,2.1c0.4-0.3,15-11.5,18.4-13.8c0.5-0.4,1-0.8,1.5-1.1c3.1,2.5,16.2,12.6,19.7,14.8
	C87.3,91.7,91.7,87.4,89.2,83.8z"/>
</svg>
