<?xml version="1.0" encoding="utf-8"?>
<!-- Generator: Adobe Illustrator 18.0.0, SVG Export Plug-In . SVG Version: 6.00 Build 0)  -->
<!DOCTYPE svg PUBLIC "-//W3C//DTD SVG 1.1//EN" "http://www.w3.org/Graphics/SVG/1.1/DTD/svg11.dtd">
<svg version="1.1" id="Layer_1" xmlns="http://www.w3.org/2000/svg" xmlns:xlink="http://www.w3.org/1999/xlink" x="0px" y="0px"
	 viewBox="0 0 90 110" enable-background="new 0 0 90 110" xml:space="preserve">
<g>
	<g>
		<path fill="#0F3551" d="M28.6,75.1c3.2,3.6,7.6,7,15.1,7c7.3,0,12.7-4.8,12.7-12c0-7.5-5.5-12.6-19-12.6v-3.3
			c12.6,0,17.1-5.3,17.1-11.9c0-6.1-4.4-10.2-11-10.2c-5,0-9.4,2.6-12.5,6l-2.2-2.6c3.8-3.7,8.5-6.7,14.8-6.7
			c8.5,0,14.9,4.8,14.9,13.1c0,7.2-4.4,11.4-10.4,13.5v0.3c6.7,1.5,12.4,6.5,12.4,14.2c0,9.5-7.3,15.5-16.6,15.5
			c-8.7,0-13.8-4-17.3-7.7L28.6,75.1z"/>
	</g>
</g>
<rect fill-rule="evenodd" clip-rule="evenodd" fill="none" width="90" height="110"/>
</svg>
