<?xml version="1.0" encoding="utf-8"?>
<!-- Generator: Adobe Illustrator 18.0.0, SVG Export Plug-In . SVG Version: 6.00 Build 0)  -->
<!DOCTYPE svg PUBLIC "-//W3C//DTD SVG 1.1//EN" "http://www.w3.org/Graphics/SVG/1.1/DTD/svg11.dtd">
<svg version="1.1" id="Layer_1" xmlns="http://www.w3.org/2000/svg" xmlns:xlink="http://www.w3.org/1999/xlink" x="0px" y="0px"
	 viewBox="0 0 90 110" enable-background="new 0 0 90 110" xml:space="preserve">
<g>
	<g>
		<path fill="#0F3551" d="M28.3,75.4c3.2,3.3,7.5,6.7,14.9,6.7c7.3,0,13.6-5.9,13.6-14.7s-5.2-14.1-13.3-14.1
			c-4.2,0-6.9,1.5-10.2,3.7l-2.6-1.6l2-25.5h25.2v3.3H36.1l-1.7,19.7c2.8-1.7,5.7-2.9,9.7-2.9c9.2,0,16.6,5.3,16.6,17.2
			c0,11.6-8.6,18.2-17.4,18.2c-8.7,0-13.7-3.8-17.2-7.3L28.3,75.4z"/>
	</g>
</g>
<rect fill-rule="evenodd" clip-rule="evenodd" fill="none" width="90" height="110"/>
</svg>
