<?xml version="1.0" encoding="utf-8"?>
<!-- Generator: Adobe Illustrator 18.0.0, SVG Export Plug-In . SVG Version: 6.00 Build 0)  -->
<!DOCTYPE svg PUBLIC "-//W3C//DTD SVG 1.1//EN" "http://www.w3.org/Graphics/SVG/1.1/DTD/svg11.dtd">
<svg version="1.1" id="Layer_1" xmlns="http://www.w3.org/2000/svg" xmlns:xlink="http://www.w3.org/1999/xlink" x="0px" y="0px"
	 viewBox="0 0 90 110" enable-background="new 0 0 90 110" xml:space="preserve">
<g>
	<g>
		<path fill="#0F3551" d="M57.7,36.7c-2.4-3-5.7-4.5-9.2-4.5c-8.6,0-16,6.8-16.2,26.9c3.8-4.6,8.7-7.6,13.7-7.6
			c9.6,0,15.2,5.9,15.2,16.9c0,9.9-6.8,17.1-14.9,17.1c-10.9,0-17.8-9.2-17.8-25.8c0-22.9,9.6-30.8,20.1-30.8
			c5.1,0,8.7,2.1,11.5,5.3L57.7,36.7z M57.3,68.3c0-7.9-3.5-13.7-11.8-13.7c-3.8,0-8.8,2.2-13.2,8.2c0.7,11.5,5.1,19.3,14,19.3
			C52.6,82.2,57.3,76.1,57.3,68.3z"/>
	</g>
</g>
<rect fill-rule="evenodd" clip-rule="evenodd" fill="none" width="90" height="110"/>
</svg>
