<?xml version="1.0" encoding="utf-8"?>
<!-- Generator: Adobe Illustrator 18.0.0, SVG Export Plug-In . SVG Version: 6.00 Build 0)  -->
<!DOCTYPE svg PUBLIC "-//W3C//DTD SVG 1.1//EN" "http://www.w3.org/Graphics/SVG/1.1/DTD/svg11.dtd">
<svg version="1.1" id="Layer_1" xmlns="http://www.w3.org/2000/svg" xmlns:xlink="http://www.w3.org/1999/xlink" x="0px" y="0px"
	 viewBox="0 0 352 192" enable-background="new 0 0 352 192" xml:space="preserve">
<rect fill="#0F3551" width="352" height="192"/>
<g>
	<g>
		<path fill="#FFFFFF" d="M280.2,88.7h-36c-2.6,0-4.7-2.2-4.7-4.9V53.7c0-2.7,2.1-4.9,4.7-4.9h36c2.6,0,4.7,2.2,4.7,4.9v30.2
			C284.9,86.5,282.8,88.7,280.2,88.7z M244.2,50.4c-1.7,0-3.1,1.5-3.1,3.3v30.2c0,1.8,1.4,3.3,3.1,3.3h36c1.7,0,3.1-1.5,3.1-3.3
			V53.7c0-1.8-1.4-3.3-3.1-3.3H244.2z M310,86.8c-0.4,0-0.8-0.1-1.1-0.4l0,0c-1-0.5-4.7-2.4-19.7-10l-0.4-0.2V61.3l0.4-0.2
			c15-7.6,18.7-9.5,19.7-10l0,0c1.5-1,3.3,0.2,3.3,1.9v31.6C312.2,85.8,311.2,86.8,310,86.8z M309.5,85L309.5,85l0.2,0.1
			c0.2,0.1,0.2,0.1,0.3,0.1c0.3,0,0.6-0.3,0.6-0.6V53c0-0.3-0.3-0.6-0.6-0.6c-0.1,0-0.2,0-0.3,0.1l-0.2,0.1
			c-1.7,0.9-16.4,8.3-19.1,9.7v12.9C293.1,76.6,307.8,84.1,309.5,85z"/>
	</g>
	<g>
		<circle fill="#FFFFFF" cx="262.2" cy="68.8" r="8.2"/>
		<path fill="#FFFFFF" d="M262.2,78.6c-5.4,0-9.8-4.4-9.8-9.8s4.4-9.8,9.8-9.8s9.8,4.4,9.8,9.8S267.6,78.6,262.2,78.6z M262.2,62.2
			c-3.6,0-6.6,3-6.6,6.6c0,3.6,3,6.6,6.6,6.6s6.6-3,6.6-6.6C268.8,65.1,265.8,62.2,262.2,62.2z"/>
	</g>
</g>
<g>
	<g>
		<path fill="#FFFFFF" d="M33.7,121h0.9v12.6h-0.9V121z"/>
		<path fill="#FFFFFF" d="M38,124.4h0.7l0.1,1.4h0.1c0.9-0.9,1.9-1.7,3.2-1.7c1.9,0,2.8,1.2,2.8,3.5v5.9H44v-5.8
			c0-2-0.6-2.9-2.1-2.9c-1.1,0-1.9,0.6-3,1.7v6.9H38V124.4z"/>
		<path fill="#FFFFFF" d="M47.6,132c0.8,0.7,1.6,1.2,2.9,1.2c1.4,0,2.2-0.8,2.2-1.8c0-1.2-1.2-1.7-2.2-2c-1.4-0.5-2.9-1.1-2.9-2.6
			c0-1.3,1.1-2.5,3-2.5c1,0,2,0.4,2.6,1l-0.5,0.6c-0.6-0.5-1.3-0.8-2.2-0.8c-1.4,0-2.1,0.8-2.1,1.7c0,1,1.1,1.5,2.2,1.9
			c1.4,0.5,3,1,3,2.8c0,1.4-1.1,2.6-3.1,2.6c-1.4,0-2.6-0.6-3.4-1.3L47.6,132z"/>
		<path fill="#FFFFFF" d="M59.5,124.2c2.2,0,3.5,1.6,3.5,4.3c0,0.2,0,0.5,0,0.7h-6.6c0,2.3,1.4,4,3.5,4c1,0,1.8-0.3,2.5-0.8l0.3,0.7
			c-0.7,0.4-1.6,0.9-2.9,0.9c-2.4,0-4.3-1.8-4.3-4.8S57.4,124.2,59.5,124.2z M62.2,128.5c0-2.4-1.1-3.6-2.7-3.6
			c-1.6,0-3,1.4-3.2,3.6H62.2z"/>
		<path fill="#FFFFFF" d="M65.6,124.4h0.7l0.1,1.4h0.1c0.8-0.9,1.9-1.7,2.9-1.7c1.5,0,2.2,0.7,2.6,1.9c1.1-1.2,2.1-1.9,3.1-1.9
			c1.8,0,2.8,1.2,2.8,3.5v5.9H77v-5.8c0-2-0.7-2.9-2.1-2.9c-0.9,0-1.7,0.6-2.8,1.7v6.9h-0.8v-5.8c0-2-0.7-2.9-2.1-2.9
			c-0.8,0-1.7,0.6-2.8,1.7v6.9h-0.8L65.6,124.4L65.6,124.4z"/>
		<path fill="#FFFFFF" d="M80.8,121.5c0-0.5,0.3-0.8,0.8-0.8c0.4,0,0.8,0.3,0.8,0.8c0,0.4-0.3,0.7-0.8,0.7
			C81.1,122.2,80.8,121.9,80.8,121.5z M81.1,124.4h0.8v9.2h-0.8V124.4z"/>
		<path fill="#FFFFFF" d="M85.3,124.4H86l0.1,1.4h0.1c0.9-0.9,1.9-1.7,3.2-1.7c1.9,0,2.8,1.2,2.8,3.5v5.9h-0.8v-5.8
			c0-2-0.6-2.9-2.1-2.9c-1.1,0-1.9,0.6-3,1.7v6.9h-0.8v-9H85.3z"/>
		<path fill="#FFFFFF" d="M100.7,127.9c0-1.4-0.4-2.9-2.2-2.9c-1.2,0-2.3,0.6-2.9,1.1l-0.4-0.6c0.7-0.5,1.9-1.2,3.4-1.2
			c2.2,0,2.9,1.6,2.9,3.6v5.9h-0.7l-0.1-1.2l0,0c-0.9,0.7-2.1,1.4-3.3,1.4c-1.5,0-2.7-0.8-2.7-2.5
			C94.8,129.3,96.6,128.3,100.7,127.9z M97.6,133.1c1.1,0,2-0.5,3.1-1.5v-3.1c-3.8,0.4-5.1,1.3-5.1,2.8
			C95.7,132.6,96.5,133.1,97.6,133.1z"/>
		<path fill="#FFFFFF" d="M104.9,125.2h-1.4v-0.7l1.5-0.1l0.1-2.7h0.7v2.7h2.7v0.7h-2.7v6c0,1.2,0.3,2,1.6,2c0.3,0,0.8-0.1,1.2-0.3
			l0.2,0.7c-0.5,0.2-1.1,0.3-1.5,0.3c-1.8,0-2.3-1.1-2.3-2.8L104.9,125.2L104.9,125.2z"/>
		<path fill="#FFFFFF" d="M110.5,121.5c0-0.5,0.3-0.8,0.8-0.8c0.4,0,0.8,0.3,0.8,0.8c0,0.4-0.3,0.7-0.8,0.7
			C110.9,122.2,110.5,121.9,110.5,121.5z M110.9,124.4h0.8v9.2h-0.8V124.4z"/>
		<path fill="#FFFFFF" d="M118.5,124.2c2.2,0,4.1,1.8,4.1,4.9c0,3.1-1.9,4.8-4.1,4.8s-4.1-1.8-4.1-4.8
			C114.4,126,116.3,124.2,118.5,124.2z M118.5,133.1c1.9,0,3.3-1.7,3.3-4.1c0-2.4-1.4-4.1-3.3-4.1s-3.2,1.7-3.2,4.1
			C115.3,131.5,116.7,133.1,118.5,133.1z"/>
		<path fill="#FFFFFF" d="M125.5,124.4h0.7l0.1,1.4h0.1c0.9-0.9,1.9-1.7,3.2-1.7c1.9,0,2.8,1.2,2.8,3.5v5.9h-0.8v-5.8
			c0-2-0.6-2.9-2.1-2.9c-1.1,0-1.9,0.6-3,1.7v6.9h-0.8v-9H125.5z"/>
		<path fill="#FFFFFF" d="M139.9,121h2.9c3.9,0,5.8,2.5,5.8,6.3s-1.9,6.4-5.7,6.4H140V121H139.9z M142.7,132.9
			c3.4,0,4.9-2.3,4.9-5.6c0-3.3-1.5-5.5-4.9-5.5h-1.9V133h1.9V132.9z"/>
		<path fill="#FFFFFF" d="M156.6,127.9c0-1.4-0.4-2.9-2.2-2.9c-1.2,0-2.3,0.6-2.9,1.1l-0.4-0.6c0.7-0.5,1.9-1.2,3.4-1.2
			c2.2,0,2.9,1.6,2.9,3.6v5.9h-0.7l-0.1-1.2l0,0c-0.9,0.7-2.1,1.4-3.3,1.4c-1.5,0-2.7-0.8-2.7-2.5
			C150.6,129.3,152.5,128.3,156.6,127.9z M153.4,133.1c1.1,0,2-0.5,3.1-1.5v-3.1c-3.8,0.4-5.1,1.3-5.1,2.8
			C151.5,132.6,152.4,133.1,153.4,133.1z"/>
		<path fill="#FFFFFF" d="M160.8,125.2h-1.4v-0.7l1.5-0.1l0.1-2.7h0.7v2.7h2.7v0.7h-2.7v6c0,1.2,0.3,2,1.6,2c0.3,0,0.8-0.1,1.2-0.3
			l0.2,0.7c-0.5,0.2-1.1,0.3-1.5,0.3c-1.8,0-2.3-1.1-2.3-2.8v-5.8H160.8z"/>
		<path fill="#FFFFFF" d="M169.6,124.2c2.2,0,3.5,1.6,3.5,4.3c0,0.2,0,0.5,0,0.7h-6.6c0,2.3,1.4,4,3.5,4c1,0,1.8-0.3,2.5-0.8
			l0.3,0.7c-0.7,0.4-1.6,0.9-2.9,0.9c-2.4,0-4.3-1.8-4.3-4.8S167.6,124.2,169.6,124.2z M172.4,128.5c0-2.4-1.1-3.6-2.7-3.6
			c-1.6,0-3,1.4-3.2,3.6H172.4z"/>
		<path fill="#FFFFFF" d="M175.9,124.8c0.4,0,0.8,0.3,0.8,0.9c0,0.5-0.4,0.9-0.8,0.9c-0.4,0-0.8-0.3-0.8-0.9
			C175.1,125.1,175.5,124.8,175.9,124.8z M175.9,132.1c0.4,0,0.8,0.3,0.8,0.9c0,0.5-0.4,0.9-0.8,0.9c-0.4,0-0.8-0.3-0.8-0.9
			C175.1,132.5,175.5,132.1,175.9,132.1z"/>
		<path fill="#FFFFFF" d="M33.3,154.9c0-7.2,2.8-11,7.3-11c4.4,0,7.3,3.8,7.3,11s-2.8,11.2-7.3,11.2C36.1,166,33.3,162.1,33.3,154.9
			z M44.1,154.9c0-6-1.5-8-3.6-8c-2,0-3.6,1.9-3.6,8c0,6,1.5,8.2,3.6,8.2C42.6,163,44.1,160.9,44.1,154.9z"/>
		<path fill="#FFFFFF" d="M63.2,148.6c-0.8-0.9-2.1-1.6-3.4-1.6c-2.7,0-4.9,2-5,7.9c1.2-1.6,3.1-2.5,4.6-2.5c3.7,0,6.2,2.2,6.2,6.6
			c0,4.3-3.1,7-6.7,7c-4.2,0-7.8-3.3-7.8-10.4c0-8.3,4-11.7,8.4-11.7c2.6,0,4.4,1.1,5.7,2.4L63.2,148.6z M62,159
			c0-2.5-1.2-3.8-3.4-3.8c-1.2,0-2.6,0.7-3.8,2.5c0.4,3.8,1.9,5.4,4,5.4C60.6,163.1,62,161.6,62,159z"/>
		<path fill="#FFFFFF" d="M77.2,143.7h4.3l4,10.8l1.4,4.2H87l1.4-4.2l3.9-10.8h4.3v22H93v-10c0-2,0.3-5,0.5-7h-0.1l-1.8,5l-3.8,10
			H86l-3.8-10l-1.7-5h-0.1c0.2,2,0.5,4.9,0.5,7v10h-3.6v-22H77.2z"/>
		<path fill="#FFFFFF" d="M110.7,155.1c0-1.7-0.8-3.2-3-3.2c-1.6,0-3.2,0.7-4.6,1.6l-1.4-2.6c1.8-1.1,4.1-2.2,6.8-2.2
			c4.1,0,6.1,2.5,6.1,7.1v9.8h-3.2l-0.3-1.8H111c-1.5,1.2-3.2,2.2-5.1,2.2c-2.9,0-4.9-1.9-4.9-4.8
			C100.9,157.7,103.9,155.8,110.7,155.1z M107.1,163c1.3,0,2.4-0.7,3.6-1.8v-3.7c-4.5,0.6-5.9,1.7-5.9,3.4
			C104.7,162.4,105.7,163,107.1,163z"/>
		<path fill="#FFFFFF" d="M119.2,149.1h3.2l0.3,2.9h0.1c1.2-2.2,2.9-3.3,4.7-3.3c0.8,0,1.4,0.1,1.9,0.3l-0.7,3.4
			c-0.6-0.2-1-0.3-1.7-0.3c-1.3,0-2.9,0.9-3.9,3.4v10.1h-3.9V149.1z"/>
		<path fill="#FFFFFF" d="M138.1,163.4c5.9-5.7,9.7-9.5,9.7-12.8c0-2.3-1.2-3.7-3.5-3.7c-1.6,0-3,1.1-4.2,2.4l-2.2-2.2
			c1.9-2.1,3.9-3.3,6.8-3.3c4.1,0,6.8,2.6,6.8,6.6c0,3.8-3.5,7.7-7.8,12.2c1.1-0.1,2.5-0.2,3.6-0.2h5.2v3.3h-14.4L138.1,163.4
			L138.1,163.4z"/>
		<path fill="#FFFFFF" d="M155.2,154.9c0-7.2,2.8-11,7.3-11c4.4,0,7.3,3.8,7.3,11s-2.8,11.2-7.3,11.2
			C158,166,155.2,162.1,155.2,154.9z M166,154.9c0-6-1.5-8-3.6-8c-2,0-3.6,1.9-3.6,8c0,6,1.5,8.2,3.6,8.2
			C164.5,163,166,160.9,166,154.9z"/>
		<path fill="#FFFFFF" d="M172.6,162.5h4.8v-14h-3.9V146c2.1-0.4,3.6-0.9,4.9-1.7h2.9v18.2h4.2v3.2h-12.9V162.5z"/>
		<path fill="#FFFFFF" d="M190.3,160.6c1.3,1.2,2.9,2.3,5,2.3c2.4,0,4.1-1.5,4.1-4.1s-1.6-4-3.9-4c-1.4,0-2.2,0.4-3.4,1.2l-1.8-1.2
			l0.6-10.5h11.4v3.3h-8.1l-0.4,5.2c0.9-0.4,1.7-0.7,2.8-0.7c3.7,0,6.7,2.1,6.7,6.7c0,4.7-3.6,7.4-7.5,7.4c-3.5,0-5.7-1.4-7.3-3
			L190.3,160.6z"/>
		<path fill="#FFFFFF" d="M222.2,162.5h4.8v-14h-4V146c2.1-0.4,3.6-0.9,4.9-1.7h2.9v18.2h4.2v3.2h-12.9v-3.2H222.2z"/>
		<path fill="#FFFFFF" d="M239.9,160.6c1.3,1.2,2.9,2.3,5,2.3c2.4,0,4.1-1.5,4.1-4.1s-1.6-4-3.9-4c-1.4,0-2.2,0.4-3.4,1.2l-1.8-1.2
			l0.6-10.5h11.4v3.3h-8.1l-0.4,5.2c0.9-0.4,1.7-0.7,2.8-0.7c3.7,0,6.7,2.1,6.7,6.7c0,4.7-3.6,7.4-7.5,7.4c-3.5,0-5.7-1.4-7.3-3
			L239.9,160.6z"/>
		<path fill="#FFFFFF" d="M258.7,149.3c1.4,0,2.5,1.1,2.5,2.6s-1.1,2.6-2.5,2.6s-2.5-1.1-2.5-2.6
			C256.1,150.4,257.3,149.3,258.7,149.3z M258.7,160.8c1.4,0,2.5,1.1,2.5,2.6s-1.1,2.6-2.5,2.6s-2.5-1.1-2.5-2.6
			S257.3,160.8,258.7,160.8z"/>
		<path fill="#FFFFFF" d="M266.1,160.5c1.3,1.3,2.9,2.4,5.1,2.4c2.3,0,3.9-1.2,3.9-3.2c0-2.2-1.4-3.6-6.3-3.6v-2.8
			c4.2,0,5.6-1.4,5.6-3.4c0-1.8-1.2-2.9-3.2-2.9c-1.7,0-3,0.8-4.3,2l-2-2.4c1.8-1.6,3.9-2.7,6.4-2.7c4.1,0,6.9,2,6.9,5.6
			c0,2.4-1.4,4-3.7,4.9v0.1c2.5,0.7,4.4,2.5,4.4,5.3c0,3.9-3.4,6.2-7.5,6.2c-3.5,0-5.7-1.3-7.3-3L266.1,160.5z"/>
		<path fill="#FFFFFF" d="M282.2,154.9c0-7.2,2.8-11,7.3-11c4.4,0,7.3,3.8,7.3,11s-2.8,11.2-7.3,11.2
			C285,166,282.2,162.1,282.2,154.9z M293,154.9c0-6-1.5-8-3.6-8c-2,0-3.6,1.9-3.6,8c0,6,1.5,8.2,3.6,8.2
			C291.5,163,293,160.9,293,154.9z"/>
	</g>
</g>
<g>
	<path fill="#FFFFFF" d="M33.1,31.3H34v5.5h6.8v-5.5h0.9v12.6h-0.9v-6.3H34v6.3h-0.9V31.3z"/>
	<path fill="#FFFFFF" d="M48.6,34.5c2.2,0,4.1,1.8,4.1,4.9c0,3.1-1.9,4.8-4.1,4.8c-2.2,0-4.1-1.8-4.1-4.8
		C44.4,36.3,46.4,34.5,48.6,34.5z M48.6,43.4c1.9,0,3.3-1.7,3.3-4.1c0-2.4-1.4-4.1-3.3-4.1s-3.2,1.7-3.2,4.1
		C45.3,41.8,46.7,43.4,48.6,43.4z"/>
	<path fill="#FFFFFF" d="M55.4,34.7h0.8v5.8c0,2,0.6,2.9,2.1,2.9c1.1,0,1.9-0.6,3-1.9v-6.8h0.8v9.2h-0.7l-0.1-1.5h0
		c-0.9,1.1-1.9,1.8-3.1,1.8c-1.9,0-2.8-1.2-2.8-3.5V34.7z"/>
	<path fill="#FFFFFF" d="M65.5,34.7h0.7l0.1,1.7h0.1c0.6-1.1,1.5-1.9,2.6-1.9c0.3,0,0.6,0,0.9,0.2l-0.2,0.8
		c-0.3-0.1-0.5-0.2-0.8-0.2c-0.8,0-1.8,0.6-2.5,2.4v6.3h-0.8V34.7z"/>
	<path fill="#FFFFFF" d="M71.4,42.3c0.8,0.7,1.6,1.2,2.9,1.2c1.4,0,2.2-0.8,2.2-1.8c0-1.2-1.2-1.7-2.2-2c-1.4-0.5-2.9-1.1-2.9-2.6
		c0-1.3,1.1-2.5,3-2.5c1,0,2,0.4,2.6,1l-0.5,0.6c-0.6-0.5-1.3-0.8-2.2-0.8c-1.4,0-2.1,0.8-2.1,1.7c0,1,1.1,1.5,2.2,1.9
		c1.4,0.5,3,1,3,2.8c0,1.4-1.1,2.6-3.1,2.6c-1.4,0-2.6-0.6-3.4-1.3L71.4,42.3z"/>
	<path fill="#FFFFFF" d="M80.1,35.1c0.4,0,0.8,0.3,0.8,0.9c0,0.5-0.4,0.9-0.8,0.9c-0.4,0-0.8-0.3-0.8-0.9
		C79.3,35.4,79.7,35.1,80.1,35.1z M80.1,42.4c0.4,0,0.8,0.3,0.8,0.9c0,0.5-0.4,0.9-0.8,0.9c-0.4,0-0.8-0.3-0.8-0.9
		C79.3,42.8,79.7,42.4,80.1,42.4z"/>
	<path fill="#FFFFFF" d="M35.5,83.3h8.2V59.3H37v-4.1c3.6-0.7,6.2-1.6,8.5-3h5v31.2h7.2v5.4H35.5V83.3z"/>
	<path fill="#FFFFFF" d="M63.7,83.3h8.2V59.3h-6.7v-4.1c3.6-0.7,6.2-1.6,8.5-3h5v31.2h7.2v5.4H63.7V83.3z"/>
	<path fill="#FFFFFF" d="M110.5,59.6c-1.3-1.6-3.6-2.8-5.8-2.8c-4.6,0-8.4,3.4-8.6,13.5c2.1-2.7,5.3-4.3,7.9-4.3
		c6.3,0,10.7,3.7,10.7,11.3c0,7.3-5.2,12-11.5,12c-7.2,0-13.3-5.6-13.3-17.9c0-14.2,6.9-20.1,14.4-20.1c4.4,0,7.6,1.8,9.8,4.1
		L110.5,59.6z M108.5,77.4c0-4.3-2.1-6.5-5.8-6.5c-2.1,0-4.5,1.2-6.6,4.2c0.7,6.5,3.3,9.3,6.9,9.3C106.1,84.4,108.5,81.9,108.5,77.4
		z"/>
	<path fill="#FFFFFF" d="M124,60.8c2.4,0,4.3,1.9,4.3,4.5c0,2.6-1.8,4.5-4.3,4.5s-4.3-1.9-4.3-4.5C119.7,62.7,121.6,60.8,124,60.8z
		 M124,80.5c2.4,0,4.3,1.9,4.3,4.5s-1.8,4.5-4.3,4.5s-4.3-1.9-4.3-4.5S121.6,80.5,124,80.5z"/>
	<path fill="#FFFFFF" d="M158.9,79.3h-4.6v9.4h-6.2v-9.4h-16.2v-4.5l14.5-22.7h7.9v22.1h4.6V79.3z M148.1,74.2v-8.3
		c0-2.1,0.2-5.5,0.3-7.6h-0.2c-0.9,1.9-2,3.7-3,5.7l-6.7,10.2H148.1z"/>
	<path fill="#FFFFFF" d="M163.3,70.3c0-12.4,4.8-18.8,12.4-18.8s12.4,6.5,12.4,18.8c0,12.4-4.8,19.2-12.4,19.2
		S163.3,82.6,163.3,70.3z M181.8,70.3c0-10.4-2.5-13.7-6.1-13.7c-3.5,0-6.1,3.3-6.1,13.7s2.6,14,6.1,14
		C179.3,84.3,181.8,80.6,181.8,70.3z"/>
</g>
</svg>
