<?xml version="1.0" encoding="utf-8"?>
<!-- Generator: Adobe Illustrator 18.0.0, SVG Export Plug-In . SVG Version: 6.00 Build 0)  -->
<!DOCTYPE svg PUBLIC "-//W3C//DTD SVG 1.1//EN" "http://www.w3.org/Graphics/SVG/1.1/DTD/svg11.dtd">
<svg version="1.1" id="Layer_1" xmlns="http://www.w3.org/2000/svg" xmlns:xlink="http://www.w3.org/1999/xlink" x="0px" y="0px"
	 viewBox="0 0 128 128" enable-background="new 0 0 128 128" xml:space="preserve">
<path fill="#285884" d="M120,3.2c2.6,0,4.8,2.2,4.8,4.8v112c0,2.6-2.2,4.8-4.8,4.8H8c-2.6,0-4.8-2.2-4.8-4.8V8
	c0-2.6,2.2-4.8,4.8-4.8H120 M120,0H8C3.6,0,0,3.6,0,8v112c0,4.4,3.6,8,8,8h112c4.4,0,8-3.6,8-8V8C128,3.6,124.4,0,120,0L120,0z"/>
<g>
	<circle fill="#ED1C24" cx="64" cy="64" r="32"/>
</g>
<path fill="#FFFFFF" d="M80.6,77c-1.6-2.2-8.1-10.7-9.7-12.9c0-0.1-0.1-0.1-0.1-0.2c1.6-2.1,8.3-10.6,9.7-12.9
	c0.5-0.8,0.8-1.5,0.5-2.4c-0.5-1.6-2.5-2.3-3.9-1.4c-0.3,0.2-0.5,0.4-0.8,0.6c-0.5,0.4-9,7-11.3,8.5c-0.3,0.2-0.6,0.5-1,0.7
	c-2-1.6-10.7-8.3-13-9.7c-2.4-1.7-5.3,1.2-3.6,3.6c0.2,0.3,9.5,12.7,9.8,13c-1.6,2.1-8.3,10.6-9.7,12.9c-0.5,0.8-0.8,1.5-0.5,2.4
	c0.5,1.6,2.5,2.3,3.9,1.4c0.3-0.2,9.9-7.6,12.1-9.1c0.3-0.2,0.6-0.5,1-0.7c2,1.6,10.7,8.3,13,9.7C79.3,82.2,82.2,79.4,80.6,77z"/>
</svg>
