<?xml version="1.0" encoding="utf-8"?>
<!-- Generator: Adobe Illustrator 18.0.0, SVG Export Plug-In . SVG Version: 6.00 Build 0)  -->
<!DOCTYPE svg PUBLIC "-//W3C//DTD SVG 1.1//EN" "http://www.w3.org/Graphics/SVG/1.1/DTD/svg11.dtd">
<svg version="1.1" id="Layer_1" xmlns="http://www.w3.org/2000/svg" xmlns:xlink="http://www.w3.org/1999/xlink" x="0px" y="0px"
	 viewBox="0 0 128 128" enable-background="new 0 0 128 128" xml:space="preserve">
<path fill="#285884" d="M120,3.2c2.6,0,4.8,2.2,4.8,4.8v112c0,2.6-2.2,4.8-4.8,4.8H8c-2.6,0-4.8-2.2-4.8-4.8V8
	c0-2.6,2.2-4.8,4.8-4.8L120,3.2 M120,0H8C3.6,0,0,3.6,0,8v112c0,4.4,3.6,8,8,8h112c4.4,0,8-3.6,8-8V8C128,3.6,124.4,0,120,0L120,0z"
	/>
<g>
	<path fill="#285884" d="M64,36.8C79,36.8,91.2,49,91.2,64S79,91.2,64,91.2S36.8,79,36.8,64S49,36.8,64,36.8 M64,32
		c-17.7,0-32,14.3-32,32s14.3,32,32,32c17.7,0,32-14.3,32-32S81.7,32,64,32L64,32z"/>
</g>
</svg>
