<?xml version="1.0" encoding="utf-8"?>
<!-- Generator: Adobe Illustrator 18.0.0, SVG Export Plug-In . SVG Version: 6.00 Build 0)  -->
<!DOCTYPE svg PUBLIC "-//W3C//DTD SVG 1.1//EN" "http://www.w3.org/Graphics/SVG/1.1/DTD/svg11.dtd">
<svg version="1.1" id="Layer_1" xmlns="http://www.w3.org/2000/svg" xmlns:xlink="http://www.w3.org/1999/xlink" x="0px" y="0px"
	 viewBox="0 0 128 128" enable-background="new 0 0 128 128" xml:space="preserve">
<path fill="#0E3451" d="M8,0l112,0c4.4,0,8,3.6,8,8v112c0,4.4-3.6,8-8,8H8c-4.4,0-8-3.6-8-8L0,8C0,3.6,3.6,0,8,0z"/>
<path fill="#FFFFFF" d="M95.7,37.1c1.7,0,3,1.4,3,3l0,47.8c0,1.7-1.4,3-3,3s-3-1.4-3-3l0-47.8C92.6,38.4,94,37.1,95.7,37.1z"/>
<g>
	<g>
		<path fill="#FFFFFF" d="M84.1,38.1L84.1,38.1c2.5,0,4.3,2.1,4.3,5l0,41.8c0,3-1.8,5-4.3,5c-0.8,0-1.6-0.2-2.5-0.7L42,67.7
			c-2.1-1.3-2.4-2.9-2.4-3.7c0-0.8,0.3-2.4,2.4-3.8l0.1-0.1l39.5-21.5C82.5,38.3,83.3,38.1,84.1,38.1z"/>
	</g>
</g>
</svg>
