<?xml version="1.0" encoding="utf-8"?>
<!-- Generator: Adobe Illustrator 18.0.0, SVG Export Plug-In . SVG Version: 6.00 Build 0)  -->
<!DOCTYPE svg PUBLIC "-//W3C//DTD SVG 1.1//EN" "http://www.w3.org/Graphics/SVG/1.1/DTD/svg11.dtd">
<svg version="1.1" id="Layer_1" xmlns="http://www.w3.org/2000/svg" xmlns:xlink="http://www.w3.org/1999/xlink" x="0px" y="0px"
	 viewBox="0 0 128 128" enable-background="new 0 0 128 128" xml:space="preserve">
<path fill="#0E3451" d="M120,128H8c-4.4,0-8-3.6-8-8V8c0-4.4,3.6-8,8-8h112c4.4,0,8,3.6,8,8v112C128,124.4,124.4,128,120,128z"/>
<path fill="#FFFFFF" d="M32.3,90.9c-1.7,0-3-1.4-3-3V40.1c0-1.7,1.4-3,3-3s3,1.4,3,3v47.8C35.4,89.6,34,90.9,32.3,90.9z"/>
<g>
	<g>
		<path fill="#FFFFFF" d="M43.9,89.9L43.9,89.9c-2.5,0-4.3-2.1-4.3-5l0-41.8c0-3,1.8-5,4.3-5c0.8,0,1.6,0.2,2.5,0.7L86,60.3
			c2.1,1.3,2.4,2.9,2.4,3.7c0,0.8-0.3,2.4-2.4,3.8l-0.1,0.1L46.3,89.3C45.5,89.7,44.7,89.9,43.9,89.9z"/>
	</g>
</g>
</svg>
