<?xml version="1.0" encoding="utf-8"?>
<!-- Generator: Adobe Illustrator 18.0.0, SVG Export Plug-In . SVG Version: 6.00 Build 0)  -->
<!DOCTYPE svg PUBLIC "-//W3C//DTD SVG 1.1//EN" "http://www.w3.org/Graphics/SVG/1.1/DTD/svg11.dtd">
<svg version="1.1" id="Layer_1" xmlns="http://www.w3.org/2000/svg" xmlns:xlink="http://www.w3.org/1999/xlink" x="0px" y="0px"
	 viewBox="0 0 128 128" enable-background="new 0 0 128 128" xml:space="preserve">
<g>
	<path fill="#285884" d="M120,128H8c-4.4,0-8-3.6-8-8V8c0-4.4,3.6-8,8-8h112c4.4,0,8,3.6,8,8v112C128,124.4,124.4,128,120,128z"/>
</g>
<g>
	<circle fill="#1D9AD5" cx="64" cy="64" r="32"/>
</g>
<g>
	<g>
		<path fill="#FFFFFF" d="M84.6,74.2l-4.3-2.8l3.5-2.3c0.2-0.1,0.4-0.3,0.5-0.5c0.4-0.7,0.2-1.5-0.5-1.9c-0.4-0.2-0.8-0.2-1.2-0.1
			L76.7,69L69,64l7.7-5l5.8,2.3c0.4,0.2,0.8,0.2,1.2-0.1c0.7-0.4,0.9-1.2,0.5-1.9c-0.1-0.2-0.3-0.4-0.5-0.5l-3.4-2.2l4.3-2.8
			c0.7-0.4,0.9-1.3,0.5-2c-0.4-0.7-1.3-0.9-2-0.5l-4.6,2.3l-0.2-4.1c0-0.2,0-0.5-0.2-0.7c-0.4-0.7-1.2-0.9-1.9-0.5
			c-0.4,0.2-0.6,0.6-0.6,1l-0.9,6.2l-8.2,4.1L66,50.6l4.9-3.9c0.3-0.2,0.6-0.6,0.6-1.1c0-0.8-0.6-1.4-1.4-1.4
			c-0.2,0-0.5,0.1-0.7,0.2l-3.7,1.9l-0.3-5.2c0-0.8-0.6-1.4-1.4-1.4c-0.8,0-1.4,0.6-1.4,1.4l-0.3,5.2l-3.7-1.9
			c-0.2-0.1-0.4-0.2-0.7-0.2c-0.8,0-1.4,0.6-1.4,1.4c0,0.4,0.2,0.8,0.6,1.1l4.9,3.9l-0.5,9.1l-8.2-4.1l-0.9-6.2c0-0.4-0.3-0.8-0.6-1
			c-0.7-0.4-1.5-0.2-1.9,0.5c-0.1,0.2-0.2,0.4-0.2,0.7l-0.2,4.1l-4.6-2.3c-0.7-0.4-1.6-0.2-2,0.5c-0.4,0.7-0.2,1.6,0.5,2l4.3,2.8
			l-3.5,2.3c-0.2,0.1-0.4,0.3-0.5,0.5c-0.4,0.7-0.2,1.5,0.5,1.9c0.4,0.2,0.8,0.2,1.2,0.1l5.9-2.3l7.7,5l-7.7,5l-5.8-2.3
			c-0.4-0.2-0.8-0.2-1.2,0.1c-0.7,0.4-0.9,1.2-0.5,1.9c0.1,0.2,0.3,0.4,0.5,0.5l3.4,2.2l-4.3,2.8c-0.7,0.4-0.9,1.3-0.5,2
			c0.4,0.7,1.3,0.9,2,0.5l4.6-2.3l0.2,4.1c0,0.2,0,0.5,0.2,0.7c0.4,0.7,1.2,0.9,1.9,0.5c0.4-0.2,0.6-0.6,0.6-1l0.9-6.2l8.2-4.1
			l0.5,9.1l-4.9,3.9c-0.3,0.2-0.6,0.6-0.6,1.1c0,0.8,0.6,1.4,1.4,1.4c0.2,0,0.5-0.1,0.7-0.2l3.7-1.9l0.3,5.2c0,0.8,0.6,1.4,1.4,1.4
			s1.4-0.6,1.4-1.4l0.3-5.2l3.7,1.9c0.2,0.1,0.4,0.2,0.7,0.2c0.8,0,1.4-0.6,1.4-1.4c0-0.4-0.2-0.8-0.6-1.1L66,77.4l0.5-9.1l8.2,4.1
			l0.9,6.2c0.1,0.4,0.3,0.8,0.6,1c0.7,0.4,1.5,0.2,1.9-0.5c0.1-0.2,0.2-0.4,0.2-0.7l0.2-4.1l4.6,2.3c0.7,0.4,1.6,0.2,2-0.5
			C85.5,75.5,85.3,74.6,84.6,74.2z"/>
	</g>
</g>
</svg>
