<?xml version="1.0" encoding="utf-8"?>
<!-- Generator: Adobe Illustrator 18.0.0, SVG Export Plug-In . SVG Version: 6.00 Build 0)  -->
<!DOCTYPE svg PUBLIC "-//W3C//DTD SVG 1.1//EN" "http://www.w3.org/Graphics/SVG/1.1/DTD/svg11.dtd">
<svg version="1.1" id="Layer_1" xmlns="http://www.w3.org/2000/svg" xmlns:xlink="http://www.w3.org/1999/xlink" x="0px" y="0px"
	 viewBox="0 0 294 138" enable-background="new 0 0 294 138" xml:space="preserve">
<g>
	<g opacity="0.3">
		<path fill="#0E3451" d="M286,0H8C3.6,0,0,3.6,0,8v122c0,4.4,3.6,8,8,8h278c4.4,0,8-3.6,8-8V8C294,3.6,290.4,0,286,0z"/>
	</g>
	<g>
		<g>
			<path fill="#FFFFFF" d="M27.5,37.5h4.9l4.5,12.4l1.7,4.8h0.2l1.7-4.8l4.4-12.4h4.9v25.1h-4.2V51.1c0-2.3,0.3-5.7,0.6-8H46l-2,5.7
				l-4.3,11.4h-2l-4.3-11.4l-2-5.7H31c0.2,2.3,0.5,5.6,0.5,8v11.5h-4.1V37.5z"/>
			<path fill="#FFFFFF" d="M63.4,43.3c4.7,0,9,3.6,9,9.9c0,6.3-4.3,9.9-9,9.9c-4.7,0-8.9-3.6-8.9-9.9C54.5,46.9,58.7,43.3,63.4,43.3
				z M63.4,59.4c2.8,0,4.5-2.5,4.5-6.3c0-3.8-1.7-6.3-4.5-6.3c-2.8,0-4.4,2.5-4.4,6.3C59,56.9,60.6,59.4,63.4,59.4z"/>
			<path fill="#FFFFFF" d="M76.6,43.7H81V55c0,3.1,0.9,4.3,2.9,4.3c1.7,0,2.8-0.8,4.2-2.6V43.7h4.4v18.9h-3.6l-0.3-2.8h-0.1
				c-1.7,2-3.5,3.2-6.1,3.2c-4,0-5.8-2.7-5.8-7.5V43.7z"/>
			<path fill="#FFFFFF" d="M98.3,57.6c1.7,1.3,3.3,2.1,5.2,2.1c2,0,3-1,3-2.3c0-1.6-2-2.3-4-3c-2.5-0.9-5.3-2.3-5.3-5.5
				c0-3.3,2.7-5.6,6.9-5.6c2.6,0,4.7,1.1,6.3,2.3l-2,2.7c-1.3-1-2.6-1.6-4.1-1.6c-1.9,0-2.8,0.9-2.8,2.1c0,1.5,1.9,2.1,3.9,2.8
				c2.6,1,5.4,2.2,5.4,5.7c0,3.2-2.6,5.8-7.3,5.8c-2.6,0-5.3-1.1-7.1-2.6L98.3,57.6z"/>
			<path fill="#FFFFFF" d="M122.3,43.3c5.1,0,7.8,3.7,7.8,8.9c0,0.8-0.1,1.6-0.2,2.1h-12c0.4,3.4,2.5,5.3,5.6,5.3
				c1.6,0,3-0.5,4.4-1.4l1.5,2.8c-1.8,1.2-4.1,2-6.5,2c-5.2,0-9.3-3.6-9.3-9.9C113.6,47,117.8,43.3,122.3,43.3z M126.2,51.5
				c0-3-1.3-4.8-3.8-4.8c-2.2,0-4.1,1.7-4.5,4.8H126.2z"/>
			<path fill="#FFFFFF" d="M143.3,37.5h15.1v3.8h-10.6v6.4h9v3.8h-9v7.4h11v3.8h-15.5V37.5z"/>
			<path fill="#FFFFFF" d="M163,43.7h3.6l0.3,2.6h0.2c1.6-1.7,3.4-3,5.8-3c2.8,0,4.3,1.3,5.2,3.4c1.8-1.9,3.7-3.4,6.1-3.4
				c4,0,5.8,2.7,5.8,7.5v11.8h-4.5V51.3c0-3.1-0.9-4.3-2.9-4.3c-1.2,0-2.5,0.8-4,2.3v13.2h-4.4V51.3c0-3.1-0.9-4.3-2.9-4.3
				c-1.2,0-2.5,0.8-4,2.3v13.2H163V43.7z"/>
			<path fill="#FFFFFF" d="M195.3,35.5h4.4v7l-0.1,3.1c1.6-1.4,3.5-2.3,5.5-2.3c4.7,0,7.5,3.8,7.5,9.6c0,6.5-3.9,10.2-8.1,10.2
				c-1.7,0-3.6-0.8-5.1-2.4h-0.1l-0.4,1.9h-3.5V35.5z M203.6,59.4c2.5,0,4.4-2.2,4.4-6.5c0-3.8-1.2-6-4.1-6c-1.4,0-2.7,0.7-4.1,2.1
				v8.8C201.1,59,202.4,59.4,203.6,59.4z"/>
			<path fill="#FFFFFF" d="M217.1,43.7h3.6l0.3,3.3h0.2c1.3-2.5,3.3-3.8,5.3-3.8c1,0,1.6,0.1,2.2,0.4l-0.8,3.8
				c-0.7-0.2-1.2-0.3-2-0.3c-1.5,0-3.3,1-4.5,3.9v11.5h-4.4V43.7z"/>
			<path fill="#FFFFFF" d="M233.8,66.8c2,0,3.1-1.3,3.8-3.2l0.3-1.2l-7.4-18.6h4.5l3.3,9.3c0.5,1.7,1.1,3.5,1.7,5.3h0.2
				c0.5-1.7,1-3.6,1.4-5.3l2.8-9.3h4.3l-6.8,19.7c-1.6,4.3-3.5,6.9-7.6,6.9c-1,0-1.8-0.2-2.5-0.4l0.8-3.5
				C232.8,66.6,233.4,66.8,233.8,66.8z"/>
			<path fill="#FFFFFF" d="M259.1,43.3c4.7,0,9,3.6,9,9.9c0,6.3-4.3,9.9-9,9.9c-4.7,0-8.9-3.6-8.9-9.9
				C250.1,46.9,254.4,43.3,259.1,43.3z M259.1,59.4c2.8,0,4.5-2.5,4.5-6.3c0-3.8-1.7-6.3-4.5-6.3c-2.8,0-4.4,2.5-4.4,6.3
				C254.7,56.9,256.3,59.4,259.1,59.4z"/>
			<path fill="#FFFFFF" d="M39.3,74.3H46c7.7,0,12.3,4.1,12.3,12.4c0,8.3-4.6,12.7-12,12.7h-6.9V74.3z M45.7,95.8c5.1,0,8-2.9,8-9.1
				c0-6.1-2.9-8.8-8-8.8h-1.9v17.9H45.7z"/>
			<path fill="#FFFFFF" d="M70.5,80.1c5.1,0,7.8,3.7,7.8,8.9c0,0.8-0.1,1.6-0.2,2.1h-12c0.4,3.4,2.5,5.3,5.6,5.3
				c1.6,0,3-0.5,4.4-1.4l1.5,2.8c-1.8,1.2-4.1,2-6.5,2c-5.2,0-9.3-3.6-9.3-9.9C61.8,83.8,66.1,80.1,70.5,80.1z M74.5,88.3
				c0-3-1.3-4.8-3.8-4.8c-2.2,0-4.1,1.7-4.5,4.8H74.5z"/>
			<path fill="#FFFFFF" d="M79.9,80.5h4.5l3,9.8c0.5,1.8,1.1,3.8,1.6,5.7h0.2c0.5-1.9,1.1-3.8,1.6-5.7l3-9.8H98l-6.4,18.9h-5.1
				L79.9,80.5z"/>
			<path fill="#FFFFFF" d="M108.3,80.1c5.1,0,7.8,3.7,7.8,8.9c0,0.8-0.1,1.6-0.2,2.1h-12c0.4,3.4,2.5,5.3,5.6,5.3
				c1.6,0,3-0.5,4.4-1.4l1.5,2.8c-1.8,1.2-4.1,2-6.5,2c-5.2,0-9.3-3.6-9.3-9.9C99.6,83.8,103.9,80.1,108.3,80.1z M112.2,88.3
				c0-3-1.3-4.8-3.8-4.8c-2.2,0-4.1,1.7-4.5,4.8H112.2z"/>
			<path fill="#FFFFFF" d="M120.4,72.3h4.4v22.5c0,1.1,0.5,1.5,1,1.5c0.2,0,0.3,0,0.7-0.1l0.6,3.3c-0.5,0.2-1.3,0.4-2.3,0.4
				c-3.1,0-4.3-2-4.3-5.3V72.3z"/>
			<path fill="#FFFFFF" d="M138.3,80.1c4.7,0,9,3.6,9,9.9c0,6.3-4.3,9.9-9,9.9c-4.7,0-8.9-3.6-8.9-9.9
				C129.4,83.7,133.6,80.1,138.3,80.1z M138.3,96.2c2.8,0,4.5-2.5,4.5-6.3c0-3.8-1.7-6.3-4.5-6.3c-2.8,0-4.4,2.5-4.4,6.3
				C133.9,93.7,135.6,96.2,138.3,96.2z"/>
			<path fill="#FFFFFF" d="M156.1,100.9v5.9h-4.4V80.5h3.6l0.3,2h0.2c1.6-1.3,3.6-2.5,5.7-2.5c4.7,0,7.4,3.8,7.4,9.6
				c0,6.5-3.9,10.2-8.1,10.2c-1.7,0-3.3-0.8-4.8-2.1L156.1,100.9z M159.9,96.2c2.5,0,4.4-2.2,4.4-6.5c0-3.8-1.2-6-4.1-6
				c-1.4,0-2.7,0.7-4.1,2.1v8.8C157.5,95.8,158.8,96.2,159.9,96.2z"/>
			<path fill="#FFFFFF" d="M173.4,80.5h3.6l0.3,2.6h0.2c1.6-1.7,3.4-3,5.8-3c2.8,0,4.3,1.3,5.2,3.4c1.8-1.9,3.7-3.4,6.1-3.4
				c4,0,5.8,2.7,5.8,7.5v11.8h-4.5V88.1c0-3.1-0.9-4.3-2.9-4.3c-1.2,0-2.5,0.8-4,2.3v13.2h-4.4V88.1c0-3.1-0.9-4.3-2.9-4.3
				c-1.2,0-2.5,0.8-4,2.3v13.2h-4.4V80.5z"/>
			<path fill="#FFFFFF" d="M213.3,80.1c5.1,0,7.8,3.7,7.8,8.9c0,0.8-0.1,1.6-0.2,2.1h-12c0.4,3.4,2.5,5.3,5.6,5.3
				c1.6,0,3-0.5,4.4-1.4l1.5,2.8c-1.8,1.2-4.1,2-6.5,2c-5.2,0-9.3-3.6-9.3-9.9C204.6,83.8,208.9,80.1,213.3,80.1z M217.3,88.3
				c0-3-1.3-4.8-3.8-4.8c-2.2,0-4.1,1.7-4.5,4.8H217.3z"/>
			<path fill="#FFFFFF" d="M225.4,80.5h3.6l0.3,2.5h0.2c1.7-1.7,3.6-3,6.2-3c4,0,5.8,2.7,5.8,7.5v11.8h-4.4V88.1
				c0-3.1-0.9-4.3-3-4.3c-1.7,0-2.7,0.8-4.3,2.3v13.2h-4.4V80.5z"/>
			<path fill="#FFFFFF" d="M247.4,84h-2.7v-3.3l2.9-0.2l0.5-5.1h3.7v5.1h4.8V84h-4.8v9c0,2.2,0.8,3.3,2.7,3.3c0.7,0,1.4-0.2,2-0.4
				l0.8,3.3c-1,0.3-2.3,0.7-3.8,0.7c-4.4,0-6-2.8-6-6.8V84z"/>
		</g>
	</g>
	<g>
		<path fill="#52879F" d="M286,3.2c2.6,0,4.8,2.2,4.8,4.8v122c0,2.6-2.2,4.8-4.8,4.8H8c-2.6,0-4.8-2.2-4.8-4.8V8
			c0-2.6,2.2-4.8,4.8-4.8H286 M286,0H8C3.6,0,0,3.6,0,8v122c0,4.4,3.6,8,8,8h278c4.4,0,8-3.6,8-8V8C294,3.6,290.4,0,286,0L286,0z"/>
	</g>
</g>
</svg>
