<?xml version="1.0" encoding="utf-8"?>
<!-- Generator: Adobe Illustrator 18.0.0, SVG Export Plug-In . SVG Version: 6.00 Build 0)  -->
<!DOCTYPE svg PUBLIC "-//W3C//DTD SVG 1.1//EN" "http://www.w3.org/Graphics/SVG/1.1/DTD/svg11.dtd">
<svg version="1.1" id="Layer_1" xmlns="http://www.w3.org/2000/svg" xmlns:xlink="http://www.w3.org/1999/xlink" x="0px" y="0px"
	 viewBox="0 0 128 128" enable-background="new 0 0 128 128" xml:space="preserve">
<path fill="#5288A0" d="M120,128H8c-4.4,0-8-3.6-8-8V8c0-4.4,3.6-8,8-8h112c4.4,0,8,3.6,8,8v112C128,124.4,124.4,128,120,128z"/>
<g>
	<path fill="#FFFFFF" d="M64,110.2c-25.5,0-46.2-20.7-46.2-46.2S38.5,17.8,64,17.8s46.2,20.7,46.2,46.2S89.5,110.2,64,110.2z M64,21
		c-23.7,0-43,19.3-43,43s19.3,43,43,43s43-19.3,43-43S87.7,21,64,21z"/>
	<g>
		<path fill="#FFFFFF" d="M61.1,91.5c1.7,0,3.1-1.4,3.1-3.1s-1.4-3.1-3.1-3.1c-11.8,0-21.4-9.6-21.4-21.4s9.6-21.4,21.4-21.4
			S82.4,52.2,82.4,64c0,1.7,1.4,3.1,3.1,3.1c1.7,0,3.1-1.4,3.1-3.1c0-15.1-12.3-27.5-27.5-27.5c-15.1,0-27.5,12.3-27.5,27.5
			S45.9,91.5,61.1,91.5z"/>
		<g>
			<path fill="#FFFFFF" d="M84.7,73.1"/>
			<path fill="#FFFFFF" d="M95.1,61.4c2.1,0,3.3,2.4,2,4.1l-8.8,11.7c-1,1.4-2.2,1.6-2.8,1.6c-0.6,0-1.8-0.2-2.8-1.6l-8.9-11.8
				c-1.3-1.7-0.1-4.1,2-4.1L95.1,61.4z"/>
		</g>
	</g>
</g>
</svg>
