<?xml version="1.0" encoding="utf-8"?>
<!-- Generator: Adobe Illustrator 18.0.0, SVG Export Plug-In . SVG Version: 6.00 Build 0)  -->
<!DOCTYPE svg PUBLIC "-//W3C//DTD SVG 1.1//EN" "http://www.w3.org/Graphics/SVG/1.1/DTD/svg11.dtd">
<svg version="1.1" id="Layer_1" xmlns="http://www.w3.org/2000/svg" xmlns:xlink="http://www.w3.org/1999/xlink" x="0px" y="0px"
	 viewBox="0 0 294 165" enable-background="new 0 0 294 165" xml:space="preserve">
<g opacity="0.3" enable-background="new    ">
	<path fill="#0F3551" d="M286,27H8c-4.4,0-8,3.6-8,8v122c0,4.4,3.6,8,8,8h278c4.4,0,8-3.6,8-8V35C294,30.6,290.4,27,286,27z"/>
</g>
<g>
	<g>
		<path fill="#FFFFFF" d="M33.6,139.2c0.6,0.7,1.5,1.1,2.4,1.1c2,0,3.7-1.6,3.8-6.1c-0.9,1.1-2.2,1.8-3.4,1.8
			c-2.5,0-4.1-1.5-4.1-4.4c0-2.7,1.9-4.6,4.2-4.6c2.8,0,4.9,2.3,4.9,6.9c0,5.7-2.6,8-5.4,8c-1.5,0-2.7-0.6-3.4-1.5L33.6,139.2z
			 M39.7,132.8c-0.2-2.8-1.3-4.3-3.2-4.3c-1.4,0-2.5,1.3-2.5,3.1c0,1.9,0.9,3,2.6,3C37.6,134.7,38.7,134.1,39.7,132.8z"/>
		<path fill="#FFFFFF" d="M46.2,134.1L46.2,134.1c-1.1-0.8-2-1.9-2-3.4c0-2.2,1.7-3.7,4.1-3.7c2.5,0,4,1.6,4,3.8
			c0,1.5-1.1,2.8-2,3.4v0.1c1.3,0.7,2.5,1.7,2.5,3.7c0,2.1-1.8,3.8-4.6,3.8c-2.7,0-4.7-1.7-4.7-3.9
			C43.5,136.1,44.9,134.8,46.2,134.1z M48.2,140.5c1.7,0,2.8-1,2.8-2.5c0-1.8-1.8-2.5-3.9-3.3c-1.1,0.8-2,1.8-2,3.1
			C45.2,139.4,46.5,140.5,48.2,140.5z M50.7,130.9c0-1.4-0.9-2.5-2.5-2.5c-1.3,0-2.3,0.9-2.3,2.3c0,1.7,1.6,2.4,3.3,3.1
			C50.2,133,50.7,132,50.7,130.9z"/>
		<path fill="#FFFFFF" d="M61.7,128.9h-7.1v-1.6h9.2v1.1c-3.4,4.3-4.1,7.6-4.3,13.1h-1.9C57.8,136.2,58.9,132.8,61.7,128.9z"/>
		<path fill="#FFFFFF" d="M73,129.7c-0.6-0.7-1.5-1.1-2.4-1.1c-2,0-3.7,1.5-3.8,6.1c0.9-1.1,2.2-1.8,3.3-1.8c2.5,0,4.1,1.5,4.1,4.4
			c0,2.7-1.9,4.6-4.2,4.6c-2.8,0-4.9-2.3-4.9-6.9c0-5.7,2.6-8,5.4-8c1.5,0,2.6,0.6,3.4,1.5L73,129.7z M72.6,137.3c0-1.9-0.9-3-2.6-3
			c-0.9,0-2,0.5-3,1.9c0.2,2.8,1.3,4.3,3.1,4.3C71.5,140.4,72.6,139.2,72.6,137.3z"/>
		<path fill="#FFFFFF" d="M76.9,138.7c0.9,0.9,1.9,1.6,3.6,1.6s3.1-1.3,3.1-3.3s-1.2-3.1-3-3.1c-1,0-1.6,0.3-2.4,0.9l-1-0.6l0.5-6.9
			h7.1v1.6h-5.5l-0.4,4.2c0.7-0.4,1.3-0.6,2.2-0.6c2.4,0,4.4,1.4,4.4,4.5s-2.3,4.8-4.8,4.8c-2.3,0-3.7-1-4.7-1.9L76.9,138.7z"/>
		<path fill="#FFFFFF" d="M97.6,137.7h-1.9v3.9H94v-3.9h-6.4v-1.2l6.1-9.1h2.1v8.9h1.9L97.6,137.7L97.6,137.7z M93.9,136.2V132
			c0-0.8,0.1-2,0.1-2.8l0,0c-0.4,0.7-0.8,1.3-1.2,2l-3.3,4.9L93.9,136.2L93.9,136.2z"/>
		<path fill="#FFFFFF" d="M99.7,138.6c0.9,0.9,2,1.7,3.7,1.7s3-1,3-2.6c0-1.7-1.2-2.8-4.6-2.8v-1.4c3,0,4.1-1.2,4.1-2.7
			c0-1.4-0.9-2.3-2.5-2.3c-1.2,0-2.2,0.6-3,1.5l-1-1.2c1.1-1,2.4-1.8,4.1-1.8c2.5,0,4.3,1.3,4.3,3.6c0,1.7-1.1,2.8-2.6,3.4v0.1
			c1.7,0.4,3.1,1.7,3.1,3.6c0,2.5-2.1,4.1-4.7,4.1c-2.3,0-3.7-1-4.7-2L99.7,138.6z"/>
		<path fill="#FFFFFF" d="M110.1,140.5c4.3-4.3,6.7-6.9,6.7-9.2c0-1.6-0.9-2.8-2.7-2.8c-1.2,0-2.2,0.8-3,1.7l-1.1-1.1
			c1.2-1.3,2.5-2.2,4.3-2.2c2.6,0,4.3,1.7,4.3,4.2c0,2.7-2.4,5.4-5.8,8.9c0.8-0.1,1.7-0.1,2.4-0.1h4.1v1.6h-9.2
			C110.1,141.5,110.1,140.5,110.1,140.5z"/>
		<path fill="#FFFFFF" d="M121.9,140.1h3.3v-10.5h-2.6v-1.2c1.3-0.2,2.2-0.6,3-1.1h1.4v12.8h3v1.5h-8.1V140.1z"/>
		<path fill="#FFFFFF" d="M131.3,135.3h5.2v1.4h-5.2V135.3z"/>
		<path fill="#FFFFFF" d="M137.9,140.1h3.3v-10.5h-2.6v-1.2c1.3-0.2,2.2-0.6,3-1.1h1.4v12.8h3v1.5h-8.1L137.9,140.1L137.9,140.1z"/>
		<path fill="#FFFFFF" d="M147.3,135.3h5.2v1.4h-5.2V135.3z"/>
		<path fill="#FFFFFF" d="M153.8,140.1h3.3v-10.5h-2.6v-1.2c1.3-0.2,2.2-0.6,3-1.1h1.4v12.8h3v1.5h-8.1L153.8,140.1L153.8,140.1z"/>
	</g>
</g>
<path fill="#52879F" d="M286,30.2c2.6,0,4.8,2.2,4.8,4.8v122c0,2.6-2.2,4.8-4.8,4.8H8c-2.6,0-4.8-2.2-4.8-4.8V35
	c0-2.6,2.2-4.8,4.8-4.8H286 M286,27H8c-4.4,0-8,3.6-8,8v122c0,4.4,3.6,8,8,8h278c4.4,0,8-3.6,8-8V35C294,30.6,290.4,27,286,27
	L286,27z"/>
<g>
	<g>
		<path fill="#FFFFFF" d="M34.8,66.9c1,1.8,2.4,2.7,3.9,2.7c2.3,0,3.6-1.3,3.6-4.8V47.9h4.5v17.2c0,4.6-2.3,8.3-7.5,8.3
			c-3.5,0-5.9-1.5-7.5-4.3L34.8,66.9z"/>
		<path fill="#FFFFFF" d="M62.3,60.9c0-2-0.9-3.7-3.4-3.7c-1.9,0-3.6,0.8-5.3,1.8l-1.6-3c2.1-1.3,4.7-2.5,7.7-2.5c4.7,0,7,2.9,7,8.1
			V73h-3.6l-0.3-2.1h-0.1c-1.7,1.4-3.6,2.5-5.8,2.5c-3.3,0-5.6-2.2-5.6-5.5C51.2,63.9,54.6,61.8,62.3,60.9z M58.2,70
			c1.5,0,2.7-0.8,4.1-2.1v-4.2c-5.1,0.7-6.8,2-6.8,3.9C55.5,69.3,56.7,70,58.2,70z"/>
		<path fill="#FFFFFF" d="M72.1,54.1h3.6l0.3,2.5h0.2c1.7-1.7,3.6-3,6.2-3c4,0,5.8,2.7,5.8,7.5V73h-4.4V61.7c0-3.1-0.9-4.3-3-4.3
			c-1.7,0-2.7,0.8-4.3,2.3V73h-4.4V54.1z"/>
		<path fill="#FFFFFF" d="M101,53.7c5.1,0,7.8,3.7,7.8,8.9c0,0.8-0.1,1.6-0.2,2.1h-12c0.4,3.4,2.5,5.3,5.6,5.3c1.6,0,3-0.5,4.4-1.4
			l1.5,2.8c-1.8,1.2-4.1,2-6.5,2c-5.2,0-9.3-3.6-9.3-9.9C92.4,57.4,96.6,53.7,101,53.7z M105,61.9c0-3-1.3-4.8-3.8-4.8
			c-2.2,0-4.1,1.7-4.5,4.8H105z"/>
		<path fill="#FFFFFF" d="M34,84.7h6.7c7.7,0,12.3,4.1,12.3,12.4c0,8.3-4.6,12.7-12,12.7H34V84.7z M40.4,106.2c5.1,0,8-2.9,8-9.1
			c0-6.1-2.9-8.8-8-8.8h-1.9v17.9H40.4z"/>
	</g>
</g>
</svg>
