<?xml version="1.0" encoding="utf-8"?>
<!-- Generator: Adobe Illustrator 18.0.0, SVG Export Plug-In . SVG Version: 6.00 Build 0)  -->
<!DOCTYPE svg PUBLIC "-//W3C//DTD SVG 1.1//EN" "http://www.w3.org/Graphics/SVG/1.1/DTD/svg11.dtd">
<svg version="1.1" id="Layer_1" xmlns="http://www.w3.org/2000/svg" xmlns:xlink="http://www.w3.org/1999/xlink" x="0px" y="0px"
	 viewBox="0 0 294 165" enable-background="new 0 0 294 165" xml:space="preserve">
<g opacity="0.3" enable-background="new    ">
	<path fill="#0F3551" d="M286,27H8c-4.4,0-8,3.6-8,8v122c0,4.4,3.6,8,8,8h278c4.4,0,8-3.6,8-8V35C294,30.6,290.4,27,286,27z"/>
</g>
<g>
	<g>
		<path fill="#FFFFFF" d="M33.6,139.2c0.6,0.7,1.5,1.1,2.4,1.1c2,0,3.7-1.6,3.8-6.1c-0.9,1.1-2.2,1.8-3.4,1.8
			c-2.5,0-4.1-1.5-4.1-4.4c0-2.7,1.9-4.6,4.2-4.6c2.8,0,4.9,2.3,4.9,6.9c0,5.7-2.6,8-5.4,8c-1.5,0-2.7-0.6-3.4-1.5L33.6,139.2z
			 M39.7,132.8c-0.2-2.8-1.3-4.3-3.2-4.3c-1.4,0-2.5,1.3-2.5,3.1c0,1.9,0.9,3,2.6,3C37.6,134.7,38.7,134.1,39.7,132.8z"/>
		<path fill="#FFFFFF" d="M46.2,134.1L46.2,134.1c-1.1-0.8-2-1.9-2-3.4c0-2.2,1.7-3.7,4.1-3.7c2.5,0,4,1.6,4,3.8
			c0,1.5-1.1,2.8-2,3.4v0.1c1.3,0.7,2.5,1.7,2.5,3.7c0,2.1-1.8,3.8-4.6,3.8c-2.7,0-4.7-1.7-4.7-3.9
			C43.5,136.1,44.9,134.8,46.2,134.1z M48.2,140.5c1.7,0,2.8-1,2.8-2.5c0-1.8-1.8-2.5-3.9-3.3c-1.1,0.8-2,1.8-2,3.1
			C45.2,139.4,46.5,140.5,48.2,140.5z M50.7,130.9c0-1.4-0.9-2.5-2.5-2.5c-1.3,0-2.3,0.9-2.3,2.3c0,1.7,1.6,2.4,3.3,3.1
			C50.2,133,50.7,132,50.7,130.9z"/>
		<path fill="#FFFFFF" d="M61.7,128.9h-7.1v-1.6h9.2v1.1c-3.4,4.3-4.1,7.6-4.3,13.1h-1.9C57.8,136.2,58.9,132.8,61.7,128.9z"/>
		<path fill="#FFFFFF" d="M73,129.7c-0.6-0.7-1.5-1.1-2.4-1.1c-2,0-3.7,1.5-3.8,6.1c0.9-1.1,2.2-1.8,3.3-1.8c2.5,0,4.1,1.5,4.1,4.4
			c0,2.7-1.9,4.6-4.2,4.6c-2.8,0-4.9-2.3-4.9-6.9c0-5.7,2.6-8,5.4-8c1.5,0,2.6,0.6,3.4,1.5L73,129.7z M72.6,137.3c0-1.9-0.9-3-2.6-3
			c-0.9,0-2,0.5-3,1.9c0.2,2.8,1.3,4.3,3.1,4.3C71.5,140.4,72.6,139.2,72.6,137.3z"/>
		<path fill="#FFFFFF" d="M76.9,138.7c0.9,0.9,1.9,1.6,3.6,1.6s3.1-1.3,3.1-3.3s-1.2-3.1-3-3.1c-1,0-1.6,0.3-2.4,0.9l-1-0.6l0.5-6.9
			h7.1v1.6h-5.5l-0.4,4.2c0.7-0.4,1.3-0.6,2.2-0.6c2.4,0,4.4,1.4,4.4,4.5s-2.3,4.8-4.8,4.8c-2.3,0-3.7-1-4.7-1.9L76.9,138.7z"/>
		<path fill="#FFFFFF" d="M95.7,129.7c-0.6-0.7-1.5-1.1-2.4-1.1c-2,0-3.7,1.5-3.8,6.1c0.9-1.1,2.2-1.8,3.3-1.8
			c2.5,0,4.1,1.5,4.1,4.4c0,2.7-1.9,4.6-4.2,4.6c-2.8,0-4.9-2.3-4.9-6.9c0-5.7,2.6-8,5.4-8c1.5,0,2.6,0.6,3.4,1.5L95.7,129.7z
			 M95.2,137.3c0-1.9-0.9-3-2.6-3c-0.9,0-2,0.5-3,1.9c0.2,2.8,1.3,4.3,3.1,4.3C94.2,140.4,95.2,139.2,95.2,137.3z"/>
		<path fill="#FFFFFF" d="M106.1,128.9H99v-1.6h9.2v1.1c-3.4,4.3-4.1,7.6-4.3,13.1H102C102.2,136.2,103.3,132.8,106.1,128.9z"/>
		<path fill="#FFFFFF" d="M112.5,134.1L112.5,134.1c-1.1-0.8-2-1.9-2-3.4c0-2.2,1.7-3.7,4.1-3.7c2.5,0,4,1.6,4,3.8
			c0,1.5-1.1,2.8-2,3.4v0.1c1.3,0.7,2.5,1.7,2.5,3.7c0,2.1-1.8,3.8-4.6,3.8c-2.7,0-4.7-1.7-4.7-3.9
			C109.8,136.1,111.1,134.8,112.5,134.1z M114.5,140.5c1.7,0,2.8-1,2.8-2.5c0-1.8-1.8-2.5-3.9-3.3c-1.1,0.8-2,1.8-2,3.1
			C111.4,139.4,112.8,140.5,114.5,140.5z M117,130.9c0-1.4-0.9-2.5-2.5-2.5c-1.3,0-2.3,0.9-2.3,2.3c0,1.7,1.6,2.4,3.3,3.1
			C116.4,133,117,132,117,130.9z"/>
		<path fill="#FFFFFF" d="M122.3,139.2c0.6,0.7,1.5,1.1,2.4,1.1c2,0,3.7-1.6,3.8-6.1c-0.9,1.1-2.2,1.8-3.4,1.8
			c-2.5,0-4.1-1.5-4.1-4.4c0-2.7,1.9-4.6,4.2-4.6c2.8,0,4.9,2.3,4.9,6.9c0,5.7-2.6,8-5.4,8c-1.5,0-2.7-0.6-3.4-1.5L122.3,139.2z
			 M128.4,132.8c-0.2-2.8-1.3-4.3-3.2-4.3c-1.4,0-2.5,1.3-2.5,3.1c0,1.9,0.9,3,2.6,3C126.3,134.7,127.4,134.1,128.4,132.8z"/>
		<path fill="#FFFFFF" d="M132.8,135.3h5.2v1.4h-5.2V135.3z"/>
		<path fill="#FFFFFF" d="M139.3,140.1h3.3v-10.5H140v-1.2c1.3-0.2,2.2-0.6,3-1.1h1.4v12.8h3v1.5h-8.1L139.3,140.1L139.3,140.1z"/>
		<path fill="#FFFFFF" d="M148.7,135.3h5.2v1.4h-5.2V135.3z"/>
		<path fill="#FFFFFF" d="M155.2,140.1h3.3v-10.5h-2.6v-1.2c1.3-0.2,2.2-0.6,3-1.1h1.4v12.8h3v1.5h-8.1L155.2,140.1L155.2,140.1z"/>
	</g>
</g>
<path fill="#52879F" d="M286,30.2c2.6,0,4.8,2.2,4.8,4.8v122c0,2.6-2.2,4.8-4.8,4.8H8c-2.6,0-4.8-2.2-4.8-4.8V35
	c0-2.6,2.2-4.8,4.8-4.8H286 M286,27H8c-4.4,0-8,3.6-8,8v122c0,4.4,3.6,8,8,8h278c4.4,0,8-3.6,8-8V35C294,30.6,290.4,27,286,27
	L286,27z"/>
<g>
	<g>
		<path fill="#FFFFFF" d="M34.3,47.7h4.5v10.1h10.1V47.7h4.5v25.1h-4.5V61.7H38.7v11.1h-4.5V47.7z"/>
		<path fill="#FFFFFF" d="M69.3,60.7c0-2-0.9-3.7-3.4-3.7c-1.9,0-3.6,0.8-5.3,1.8l-1.6-3c2.1-1.3,4.7-2.5,7.7-2.5c4.7,0,7,2.9,7,8.1
			v11.2h-3.6l-0.3-2.1h-0.1c-1.7,1.4-3.6,2.5-5.8,2.5c-3.3,0-5.6-2.2-5.6-5.5C58.2,63.7,61.6,61.6,69.3,60.7z M65.2,69.8
			c1.5,0,2.7-0.8,4.1-2.1v-4.2c-5.1,0.7-6.8,2-6.8,3.9C62.5,69.1,63.6,69.8,65.2,69.8z"/>
		<path fill="#FFFFFF" d="M79,53.9h3.6l0.3,2.5h0.2c1.7-1.7,3.6-3,6.2-3c4,0,5.8,2.7,5.8,7.5v11.8h-4.4V61.5c0-3.1-0.9-4.3-3-4.3
			c-1.7,0-2.7,0.8-4.3,2.3v13.2H79V53.9z"/>
		<path fill="#FFFFFF" d="M108.3,53.5c4.7,0,9,3.6,9,9.9c0,6.3-4.3,9.9-9,9.9c-4.7,0-8.9-3.6-8.9-9.9
			C99.3,57.1,103.6,53.5,108.3,53.5z M108.3,69.7c2.8,0,4.5-2.5,4.5-6.3c0-3.8-1.7-6.3-4.5-6.3s-4.4,2.5-4.4,6.3
			C103.9,67.2,105.5,69.7,108.3,69.7z"/>
		<path fill="#FFFFFF" d="M121.6,45.7h4.3v16.9h0.1l7-8.7h4.8l-6.5,7.7l7.1,11.2h-4.8l-4.8-8.2l-3,3.4v4.8h-4.3V45.7z"/>
		<path fill="#FFFFFF" d="M148.7,53.5c4.7,0,9,3.6,9,9.9c0,6.3-4.3,9.9-9,9.9c-4.7,0-8.9-3.6-8.9-9.9
			C139.8,57.1,144,53.5,148.7,53.5z M148.7,69.7c2.8,0,4.5-2.5,4.5-6.3c0-3.8-1.7-6.3-4.5-6.3c-2.8,0-4.4,2.5-4.4,6.3
			C144.3,67.2,146,69.7,148.7,69.7z"/>
		<path fill="#FFFFFF" d="M38.5,100.3l-7.6-15.8h4.8l2.7,6.4c0.7,1.9,1.5,3.6,2.2,5.5h0.2c0.8-1.9,1.6-3.6,2.3-5.5l2.7-6.4h4.6
			l-7.6,15.8v9.3h-4.5V100.3z"/>
	</g>
</g>
</svg>
