<?xml version="1.0" encoding="utf-8"?>
<!-- Generator: Adobe Illustrator 18.0.0, SVG Export Plug-In . SVG Version: 6.00 Build 0)  -->
<!DOCTYPE svg PUBLIC "-//W3C//DTD SVG 1.1//EN" "http://www.w3.org/Graphics/SVG/1.1/DTD/svg11.dtd">
<svg version="1.1" id="Layer_1" xmlns="http://www.w3.org/2000/svg" xmlns:xlink="http://www.w3.org/1999/xlink" x="0px" y="0px"
	 viewBox="0 0 294 165" enable-background="new 0 0 294 165" xml:space="preserve">
<g opacity="0.3" enable-background="new    ">
	<path fill="#0F3551" d="M286,27H8c-4.4,0-8,3.6-8,8v122c0,4.4,3.6,8,8,8h278c4.4,0,8-3.6,8-8V35C294,30.6,290.4,27,286,27z"/>
</g>
<g>
	<g>
		<path fill="#FFFFFF" d="M33.4,140.1h3.3v-10.5h-2.6v-1.2c1.3-0.2,2.2-0.6,3-1.1h1.4v12.8h3v1.5h-8.1V140.1z"/>
		<path fill="#FFFFFF" d="M43.8,140.6c4.3-4.3,6.7-6.9,6.7-9.2c0-1.6-0.9-2.8-2.7-2.8c-1.2,0-2.2,0.8-3,1.7l-1.1-1.1
			c1.2-1.3,2.5-2.2,4.3-2.2c2.6,0,4.3,1.7,4.3,4.2c0,2.7-2.4,5.4-5.8,8.9c0.8-0.1,1.7-0.1,2.4-0.1H53v1.6h-9.2V140.6z"/>
		<path fill="#FFFFFF" d="M56,138.7c0.9,0.9,2,1.7,3.7,1.7s3-1,3-2.6c0-1.7-1.2-2.8-4.6-2.8v-1.4c3,0,4.1-1.2,4.1-2.7
			c0-1.4-0.9-2.3-2.5-2.3c-1.2,0-2.2,0.6-3,1.5l-1-1.2c1.1-1,2.4-1.8,4.1-1.8c2.5,0,4.3,1.3,4.3,3.6c0,1.7-1.1,2.8-2.6,3.4v0.1
			c1.7,0.4,3.1,1.7,3.1,3.6c0,2.5-2.1,4.1-4.7,4.1c-2.3,0-3.7-1-4.7-2L56,138.7z"/>
		<path fill="#FFFFFF" d="M76.6,137.7h-1.9v3.9H73v-3.9h-6.4v-1.2l6.1-9.1h2.1v8.9h1.9L76.6,137.7L76.6,137.7z M72.9,136.2v-4.1
			c0-0.8,0.1-2,0.1-2.8h-0.1c-0.4,0.7-0.8,1.3-1.2,2l-3.3,4.9L72.9,136.2L72.9,136.2z"/>
		<path fill="#FFFFFF" d="M78.6,138.8c0.9,0.9,1.9,1.6,3.6,1.6s3.1-1.3,3.1-3.3s-1.2-3.1-3-3.1c-1,0-1.6,0.3-2.4,0.9l-1-0.6l0.5-6.9
			h7.1v1.6H81l-0.4,4.2c0.7-0.4,1.3-0.6,2.2-0.6c2.4,0,4.4,1.4,4.4,4.5s-2.3,4.8-4.8,4.8c-2.3,0-3.7-1-4.7-1.9L78.6,138.8z"/>
		<path fill="#FFFFFF" d="M97.3,129.8c-0.6-0.7-1.5-1.1-2.4-1.1c-2,0-3.7,1.5-3.8,6.1c0.9-1.1,2.2-1.8,3.3-1.8
			c2.5,0,4.1,1.5,4.1,4.4c0,2.7-1.9,4.6-4.2,4.6c-2.8,0-4.9-2.3-4.9-6.9c0-5.7,2.6-8,5.4-8c1.5,0,2.6,0.6,3.4,1.5L97.3,129.8z
			 M96.9,137.3c0-1.9-0.9-3-2.6-3c-0.9,0-2,0.5-3,1.9c0.2,2.8,1.3,4.3,3.1,4.3C95.8,140.5,96.9,139.2,96.9,137.3z"/>
		<path fill="#FFFFFF" d="M107.8,128.9h-7.1v-1.6h9.2v1.1c-3.4,4.3-4.1,7.6-4.3,13.1h-1.9C103.9,136.3,105,132.9,107.8,128.9z"/>
		<path fill="#FFFFFF" d="M114.1,134.1L114.1,134.1c-1.1-0.8-2-1.9-2-3.4c0-2.2,1.7-3.7,4.1-3.7c2.5,0,4,1.6,4,3.8
			c0,1.5-1.1,2.8-2,3.4v0.1c1.3,0.7,2.5,1.7,2.5,3.7c0,2.1-1.8,3.8-4.6,3.8c-2.7,0-4.7-1.7-4.7-3.9
			C111.4,136.1,112.8,134.9,114.1,134.1z M116.2,140.6c1.7,0,2.8-1,2.8-2.5c0-1.8-1.8-2.5-3.9-3.3c-1.1,0.8-2,1.8-2,3.1
			C113.1,139.4,114.4,140.6,116.2,140.6z M118.6,131c0-1.4-0.9-2.5-2.5-2.5c-1.3,0-2.3,0.9-2.3,2.3c0,1.7,1.6,2.4,3.3,3.1
			C118.1,133,118.6,132,118.6,131z"/>
		<path fill="#FFFFFF" d="M123.9,139.3c0.6,0.7,1.5,1.1,2.4,1.1c2,0,3.7-1.6,3.8-6.1c-0.9,1.1-2.2,1.8-3.4,1.8
			c-2.5,0-4.1-1.5-4.1-4.4c0-2.7,1.9-4.6,4.2-4.6c2.8,0,4.9,2.3,4.9,6.9c0,5.7-2.6,8-5.4,8c-1.5,0-2.7-0.6-3.4-1.5L123.9,139.3z
			 M130,132.8c-0.2-2.8-1.3-4.3-3.2-4.3c-1.4,0-2.5,1.3-2.5,3.1c0,1.9,0.9,3,2.6,3C127.9,134.7,129.1,134.2,130,132.8z"/>
		<path fill="#FFFFFF" d="M134.5,135.3h5.2v1.4h-5.2V135.3z"/>
		<path fill="#FFFFFF" d="M141,140.1h3.3v-10.5h-2.6v-1.2c1.3-0.2,2.2-0.6,3-1.1h1.4v12.8h3v1.5H141V140.1z"/>
		<path fill="#FFFFFF" d="M150.4,135.3h5.2v1.4h-5.2V135.3z"/>
		<path fill="#FFFFFF" d="M156.9,140.1h3.3v-10.5h-2.6v-1.2c1.3-0.2,2.2-0.6,3-1.1h1.4v12.8h3v1.5h-8.1L156.9,140.1L156.9,140.1z"/>
	</g>
</g>
<path fill="#52879F" d="M286,30.2c2.6,0,4.8,2.2,4.8,4.8v122c0,2.6-2.2,4.8-4.8,4.8H8c-2.6,0-4.8-2.2-4.8-4.8V35
	c0-2.6,2.2-4.8,4.8-4.8H286 M286,27H8c-4.4,0-8,3.6-8,8v122c0,4.4,3.6,8,8,8h278c4.4,0,8-3.6,8-8V35C294,30.6,290.4,27,286,27
	L286,27z"/>
<g>
	<g>
		<path fill="#FFFFFF" d="M33,48H48v3.8H37.4v6.4h9v3.8h-9v7.4h11v3.8H33V48z"/>
		<path fill="#FFFFFF" d="M52.7,54.2h3.6l0.3,3.3h0.2c1.3-2.5,3.3-3.8,5.3-3.8c1,0,1.6,0.1,2.2,0.4L63.5,58c-0.7-0.2-1.2-0.3-2-0.3
			c-1.5,0-3.3,1-4.5,3.9v11.5h-4.4V54.2z"/>
		<path fill="#FFFFFF" d="M66.8,48.4c0-1.5,1.2-2.5,2.7-2.5s2.7,1,2.7,2.5c0,1.5-1.2,2.5-2.7,2.5S66.8,49.9,66.8,48.4z M67.3,54.2
			h4.4v18.9h-4.4V54.2z"/>
		<path fill="#FFFFFF" d="M77.2,46h4.3v16.9h0.1l7-8.7h4.8L87,61.9l7.1,11.2h-4.8l-4.8-8.2l-3,3.4v4.8h-4.3V46z"/>
		<path fill="#FFFFFF" d="M107.2,61c0-2-0.9-3.7-3.4-3.7c-1.9,0-3.6,0.8-5.3,1.8l-1.6-3c2.1-1.3,4.7-2.5,7.7-2.5c4.7,0,7,2.9,7,8.1
			v11.2H108l-0.3-2.1h-0.1c-1.7,1.4-3.6,2.5-5.8,2.5c-3.3,0-5.6-2.2-5.6-5.5C96.1,64,99.5,61.9,107.2,61z M103.1,70.1
			c1.5,0,2.7-0.8,4.1-2.1v-4.2c-5.1,0.7-6.8,2-6.8,3.9C100.4,69.4,101.5,70.1,103.1,70.1z"/>
		<path fill="#FFFFFF" d="M33,84.8h4.9l4.5,12.4l1.7,4.8h0.2l1.7-4.8l4.4-12.4h4.9v25.1H51V98.4c0-2.3,0.3-5.7,0.6-8h-0.2l-2,5.7
			L45,107.6h-2l-4.3-11.4l-2-5.7h-0.2c0.2,2.3,0.5,5.6,0.5,8v11.5H33V84.8z"/>
	</g>
</g>
</svg>
