<?xml version="1.0" encoding="utf-8"?>
<!-- Generator: Adobe Illustrator 18.0.0, SVG Export Plug-In . SVG Version: 6.00 Build 0)  -->
<!DOCTYPE svg PUBLIC "-//W3C//DTD SVG 1.1//EN" "http://www.w3.org/Graphics/SVG/1.1/DTD/svg11.dtd">
<svg version="1.1" id="Layer_1" xmlns="http://www.w3.org/2000/svg" xmlns:xlink="http://www.w3.org/1999/xlink" x="0px" y="0px"
	 viewBox="0 0 128 128" enable-background="new 0 0 128 128" xml:space="preserve">
<path fill="#0E3451" d="M8,0l112,0c4.4,0,8,3.6,8,8v112c0,4.4-3.6,8-8,8H8c-4.4,0-8-3.6-8-8L0,8C0,3.6,3.6,0,8,0z"/>
<g>
	<g>
		<path fill="#FFFFFF" d="M54.5,89H41.2c-0.9,0-1.6-0.7-1.6-1.6V40.6c0-0.9,0.7-1.6,1.6-1.6h13.3c0.9,0,1.6,0.7,1.6,1.6v46.8
			C56.1,88.3,55.4,89,54.5,89z"/>
	</g>
	<path fill="#FFFFFF" d="M86.8,89H73.5c-0.9,0-1.6-0.7-1.6-1.6V40.6c0-0.9,0.7-1.6,1.6-1.6h13.3c0.9,0,1.6,0.7,1.6,1.6v46.8
		C88.4,88.3,87.7,89,86.8,89z"/>
</g>
</svg>
