<?xml version="1.0" encoding="utf-8"?>
<!-- Generator: Adobe Illustrator 18.0.0, SVG Export Plug-In . SVG Version: 6.00 Build 0)  -->
<!DOCTYPE svg PUBLIC "-//W3C//DTD SVG 1.1//EN" "http://www.w3.org/Graphics/SVG/1.1/DTD/svg11.dtd">
<svg version="1.1" id="Layer_1" xmlns="http://www.w3.org/2000/svg" xmlns:xlink="http://www.w3.org/1999/xlink" x="0px" y="0px"
	 viewBox="0 0 128 128" enable-background="new 0 0 128 128" xml:space="preserve">
<path fill="#5288A0" d="M120,128H8c-4.4,0-8-3.6-8-8V8c0-4.4,3.6-8,8-8h112c4.4,0,8,3.6,8,8v112C128,124.4,124.4,128,120,128z"/>
<g>
	<path fill="#FFFFFF" d="M17.8,64c0-25.5,20.7-46.2,46.2-46.2s46.2,20.7,46.2,46.2S89.5,110.2,64,110.2S17.8,89.5,17.8,64z M21,64
		c0,23.7,19.3,43,43,43s43-19.3,43-43S87.7,21,64,21S21,40.3,21,64z"/>
	<g>
		<path fill="#FFFFFF" d="M66.9,91.5c-1.7,0-3.1-1.4-3.1-3.1s1.4-3.1,3.1-3.1c11.8,0,21.4-9.6,21.4-21.4s-9.6-21.4-21.4-21.4
			S45.6,52.2,45.6,64c0,1.7-1.4,3.1-3.1,3.1c-1.7,0-3.1-1.4-3.1-3.1c0-15.1,12.3-27.5,27.5-27.5c15.1,0,27.5,12.3,27.5,27.5
			S82.1,91.5,66.9,91.5z"/>
		<g>
			<path fill="#FFFFFF" d="M43.3,73.1"/>
			<path fill="#FFFFFF" d="M32.9,61.4c-2.1,0-3.3,2.4-2,4.1l8.8,11.7c1,1.4,2.2,1.6,2.8,1.6c0.6,0,1.8-0.2,2.8-1.6l8.9-11.8
				c1.3-1.7,0.1-4.1-2-4.1L32.9,61.4z"/>
		</g>
	</g>
</g>
</svg>
