<?xml version="1.0" encoding="utf-8"?>
<!-- Generator: Adobe Illustrator 18.0.0, SVG Export Plug-In . SVG Version: 6.00 Build 0)  -->
<!DOCTYPE svg PUBLIC "-//W3C//DTD SVG 1.1//EN" "http://www.w3.org/Graphics/SVG/1.1/DTD/svg11.dtd">
<svg version="1.1" id="Layer_1" xmlns="http://www.w3.org/2000/svg" xmlns:xlink="http://www.w3.org/1999/xlink" x="0px" y="0px"
	 width="128px" height="288px" viewBox="0 0 128 288" enable-background="new 0 0 128 288" xml:space="preserve">
<g>
	<path fill="#275783" d="M120,287.8H8c-4.4,0-8-3.6-8-8v-112c0-4.4,3.6-8,8-8h112c4.4,0,8,3.6,8,8v112
		C128,284.2,124.4,287.8,120,287.8z"/>
</g>
<rect x="35.8" y="127.8" fill="#275783" width="53.2" height="1.6"/>
<rect x="35.8" y="143" fill="#275783" width="53.2" height="1.6"/>
<g>
	<path fill="#F2F2F2" d="M94.5,200.8l-7.3-7.4c-0.9-0.9-2.1-1.4-3.4-1.4h-2.4v13.1c0,3.1-2.5,5.6-5.6,5.6H52.1
		c-3.1,0-5.6-2.5-5.6-5.6V192h-9.6c-2.6,0-4.8,2.1-4.8,4.8V251c0,2.6,2.1,4.8,4.8,4.8h54.2c2.6,0,4.8-2.1,4.8-4.8v-46.8
		C95.9,202.9,95.4,201.6,94.5,200.8z M89.9,246.1c0,2.9-2.3,5.2-5.2,5.2H43.3c-2.9,0-5.2-2.3-5.2-5.2v-22.5c0-2.9,2.3-5.2,5.2-5.2
		h41.4c2.9,0,5.2,2.3,5.2,5.2C89.9,223.6,89.9,246.1,89.9,246.1z"/>
	<path fill="#F2F2F2" d="M50.5,191.9V205c0,0.9,0.7,1.6,1.6,1.6h23.7c0.9,0,1.6-0.7,1.6-1.6v-13.1H50.5z M58.7,203.6
		c0,0.4-0.4,0.8-0.8,0.8h-4.1c-0.4,0-0.8-0.4-0.8-0.8V195c0-0.4,0.4-0.8,0.8-0.8h4.1c0.4,0,0.8,0.4,0.8,0.8V203.6z"/>
</g>
<path fill="#275783" d="M120,3.2c2.6,0,4.8,2.2,4.8,4.8v272c0,2.6-2.2,4.8-4.8,4.8H8c-2.6,0-4.8-2.2-4.8-4.8V8
	c0-2.6,2.2-4.8,4.8-4.8H120 M120,0H8C3.6,0,0,3.6,0,8v272c0,4.4,3.6,8,8,8h112c4.4,0,8-3.6,8-8V8C128,3.6,124.4,0,120,0L120,0z"/>
<g>
	<g>
		<circle fill="#81C341" cx="64" cy="64" r="32"/>
	</g>
	<path fill="#FFFFFF" d="M79.6,47c-0.6,0-1.1,0.3-1.5,0.7c0,0-17.9,19-21.9,23.2l0,0c-0.5,0.5-1.2,0.5-1.8,0.1
		c-2-1.5-6.5-4.8-6.7-4.9c-0.5-0.3-1-0.5-1.7-0.5c-1.6,0-2.9,1.3-2.9,3c0,0.6,0.2,1.2,0.5,1.7l8,11.5c0.9,1.4,2.5,2.4,4.4,2.4
		c1.8,0,3.5-1,4.4-2.4c0-0.1,20.6-31.1,20.6-31.2c0.4-0.6,0.6-0.9,0.6-1.5C81.7,47.9,80.7,47,79.6,47z"/>
</g>
</svg>
