<?xml version="1.0" encoding="utf-8"?>
<!-- Generator: Adobe Illustrator 18.0.0, SVG Export Plug-In . SVG Version: 6.00 Build 0)  -->
<!DOCTYPE svg PUBLIC "-//W3C//DTD SVG 1.1//EN" "http://www.w3.org/Graphics/SVG/1.1/DTD/svg11.dtd">
<svg version="1.1" id="Layer_1" xmlns="http://www.w3.org/2000/svg" xmlns:xlink="http://www.w3.org/1999/xlink" x="0px" y="0px"
	 viewBox="0 0 128 128" enable-background="new 0 0 128 128" xml:space="preserve">
<g>
	<path fill="#285884" d="M120,128H8c-4.4,0-8-3.6-8-8V8c0-4.4,3.6-8,8-8h112c4.4,0,8,3.6,8,8v112C128,124.4,124.4,128,120,128z"/>
</g>
<g>
	<g>
		<circle fill="#81C341" cx="64.7" cy="63.5" r="32"/>
	</g>
	<path fill="#FFFFFF" d="M80.3,46.6c-0.6,0-1.1,0.3-1.5,0.7c0,0-17.9,19-21.9,23.2c0,0,0,0,0,0c-0.5,0.5-1.2,0.5-1.8,0.1
		c-2-1.5-6.5-4.8-6.7-4.9c-0.5-0.3-1-0.5-1.7-0.5c-1.6,0-2.9,1.3-2.9,3c0,0.6,0.2,1.2,0.5,1.7c0,0,8,11.5,8,11.5
		c0.9,1.4,2.5,2.4,4.4,2.4c1.8,0,3.5-1,4.4-2.4c0-0.1,20.6-31.1,20.6-31.2c0.4-0.6,0.6-0.9,0.6-1.5C82.4,47.5,81.4,46.6,80.3,46.6z"
		/>
</g>
</svg>
