<?xml version="1.0" encoding="utf-8"?>
<!-- Generator: Adobe Illustrator 18.0.0, SVG Export Plug-In . SVG Version: 6.00 Build 0)  -->
<!DOCTYPE svg PUBLIC "-//W3C//DTD SVG 1.1//EN" "http://www.w3.org/Graphics/SVG/1.1/DTD/svg11.dtd">
<svg version="1.1" id="Layer_1" xmlns="http://www.w3.org/2000/svg" xmlns:xlink="http://www.w3.org/1999/xlink" x="0px" y="0px"
	 viewBox="0 0 128 128" enable-background="new 0 0 128 128" xml:space="preserve">
<g>
	<g>
		<circle fill="#81C341" cx="64" cy="64" r="32"/>
	</g>
	<path fill="#FFFFFF" d="M79.6,47c-0.6,0-1.1,0.3-1.5,0.7c0,0-17.9,19-21.9,23.2c0,0,0,0,0,0c-0.5,0.5-1.2,0.5-1.8,0.1
		c-2-1.5-6.5-4.8-6.7-4.9c-0.5-0.3-1-0.5-1.7-0.5c-1.6,0-2.9,1.3-2.9,3c0,0.6,0.2,1.2,0.5,1.7c0,0,8,11.5,8,11.5
		c0.9,1.4,2.5,2.4,4.4,2.4c1.8,0,3.5-1,4.4-2.4c0-0.1,20.6-31.1,20.6-31.2c0.4-0.6,0.6-0.9,0.6-1.5C81.7,47.9,80.7,47,79.6,47z"/>
</g>
<path fill="#285884" d="M120,3.2c2.6,0,4.8,2.2,4.8,4.8v112c0,2.6-2.2,4.8-4.8,4.8H8c-2.6,0-4.8-2.2-4.8-4.8V8
	c0-2.6,2.2-4.8,4.8-4.8H120 M120,0H8C3.6,0,0,3.6,0,8v112c0,4.4,3.6,8,8,8h112c4.4,0,8-3.6,8-8V8C128,3.6,124.4,0,120,0L120,0z"/>
</svg>
