<?xml version="1.0" encoding="utf-8"?>
<!-- Generator: Adobe Illustrator 18.0.0, SVG Export Plug-In . SVG Version: 6.00 Build 0)  -->
<!DOCTYPE svg PUBLIC "-//W3C//DTD SVG 1.1//EN" "http://www.w3.org/Graphics/SVG/1.1/DTD/svg11.dtd">
<svg version="1.1" id="Layer_1" xmlns="http://www.w3.org/2000/svg" xmlns:xlink="http://www.w3.org/1999/xlink" x="0px" y="0px"
	 width="1066px" height="66px" viewBox="0 0 1066 66" enable-background="new 0 0 1066 66" xml:space="preserve">
<rect fill="none" width="1066" height="66"/>
<g display="none">
	<path display="inline" fill="#FFFFFF" d="M10,65c-5,0-9-4-9-9V10c0-5,4-9,9-9h1046c5,0,9,4,9,9v46c0,5-4,9-9,9H10z"/>
	<path display="inline" fill="#0F3551" d="M1056,2c4.4,0,8,3.6,8,8v46c0,4.4-3.6,8-8,8H10c-4.4,0-8-3.6-8-8V10c0-4.4,3.6-8,8-8H1056
		 M1056,0H10C4.5,0,0,4.5,0,10v46c0,5.5,4.5,10,10,10h1046c5.5,0,10-4.5,10-10V10C1066,4.5,1061.5,0,1056,0L1056,0z"/>
</g>
<g>
	<path fill="#CDCCCC" d="M1056,62H10c-3.3,0-6-2.7-6-6V10c0-3.3,2.7-6,6-6h1046c3.3,0,6,2.7,6,6v46C1062,59.3,1059.3,62,1056,62z"/>
</g>
<g>
	<rect x="32.2" y="17" fill="#0F3551" width="1.6" height="32"/>
	<rect x="103.6" y="25.1" fill="#0F3551" width="1.6" height="15.8"/>
	<rect x="175.1" y="17" fill="#0F3551" width="1.6" height="32"/>
	<rect x="246.5" y="25.1" fill="#0F3551" width="1.6" height="15.8"/>
	<rect x="317.9" y="17" fill="#0F3551" width="1.6" height="32"/>
	<rect x="389.3" y="25.1" fill="#0F3551" width="1.6" height="15.8"/>
	<rect x="460.8" y="17" fill="#0F3551" width="1.6" height="32"/>
	<rect x="532.2" y="25.1" fill="#0F3551" width="1.6" height="15.8"/>
	<rect x="603.6" y="17" fill="#0F3551" width="1.6" height="32"/>
	<rect x="675.1" y="25.1" fill="#0F3551" width="1.6" height="15.8"/>
	<rect x="746.5" y="17" fill="#0F3551" width="1.6" height="32"/>
	<rect x="817.9" y="25.1" fill="#0F3551" width="1.6" height="15.8"/>
	<rect x="889.3" y="17" fill="#0F3551" width="1.6" height="32"/>
	<rect x="960.8" y="25.1" fill="#0F3551" width="1.6" height="15.8"/>
	<rect x="1032.2" y="17" fill="#0F3551" width="1.6" height="32"/>
</g>
<g display="none">
	<path display="inline" fill="#0F3551" d="M1056,62H10c-3.3,0-6-2.7-6-6V10c0-3.3,2.7-6,6-6h1046c3.3,0,6,2.7,6,6v46
		C1062,59.3,1059.3,62,1056,62z"/>
</g>
<g display="none">
	<rect x="32.2" y="17" display="inline" fill="#FFFFFF" width="1.6" height="32"/>
	<rect x="103.6" y="25.1" display="inline" fill="#FFFFFF" width="1.6" height="15.8"/>
	<rect x="175.1" y="17" display="inline" fill="#FFFFFF" width="1.6" height="32"/>
	<rect x="246.5" y="25.1" display="inline" fill="#FFFFFF" width="1.6" height="15.8"/>
	<rect x="317.9" y="17" display="inline" fill="#FFFFFF" width="1.6" height="32"/>
	<rect x="389.3" y="25.1" display="inline" fill="#FFFFFF" width="1.6" height="15.8"/>
	<rect x="460.8" y="17" display="inline" fill="#FFFFFF" width="1.6" height="32"/>
	<rect x="532.2" y="25.1" display="inline" fill="#FFFFFF" width="1.6" height="15.8"/>
	<rect x="603.6" y="17" display="inline" fill="#FFFFFF" width="1.6" height="32"/>
	<rect x="675.1" y="25.1" display="inline" fill="#FFFFFF" width="1.6" height="15.8"/>
	<rect x="746.5" y="17" display="inline" fill="#FFFFFF" width="1.6" height="32"/>
	<rect x="817.9" y="25.1" display="inline" fill="#FFFFFF" width="1.6" height="15.8"/>
	<rect x="889.3" y="17" display="inline" fill="#FFFFFF" width="1.6" height="32"/>
	<rect x="960.8" y="25.1" display="inline" fill="#FFFFFF" width="1.6" height="15.8"/>
	<rect x="1032.2" y="17" display="inline" fill="#FFFFFF" width="1.6" height="32"/>
</g>
</svg>
