<?xml version="1.0" encoding="utf-8"?>
<!-- Generator: Adobe Illustrator 18.0.0, SVG Export Plug-In . SVG Version: 6.00 Build 0)  -->
<!DOCTYPE svg PUBLIC "-//W3C//DTD SVG 1.1//EN" "http://www.w3.org/Graphics/SVG/1.1/DTD/svg11.dtd">
<svg version="1.1" id="Layer_1" xmlns="http://www.w3.org/2000/svg" xmlns:xlink="http://www.w3.org/1999/xlink" x="0px" y="0px"
	 viewBox="0 0 128 144" enable-background="new 0 0 128 144" xml:space="preserve">
<g>
	<g>
		<path fill-rule="evenodd" clip-rule="evenodd" fill="#6EB444" d="M6,141.5c-1.9,0-3.5-1.6-3.5-3.5v-26.9c0-1.9,1.6-3.5,3.5-3.5
			h116c1.9,0,3.5,1.6,3.5,3.5V138c0,1.9-1.6,3.5-3.5,3.5H6z"/>
		<g>
			<path fill="#6EB444" d="M122,110.1c0.5,0,1,0.5,1,1V138c0,0.5-0.5,1-1,1H6c-0.5,0-1-0.5-1-1v-26.9c0-0.5,0.5-1,1-1H122
				 M122,105.1H6c-3.3,0-6,2.7-6,6V138c0,3.3,2.7,6,6,6h116c3.3,0,6-2.7,6-6v-26.9C128,107.8,125.3,105.1,122,105.1L122,105.1z"/>
		</g>
	</g>
	<g>
		<path fill-rule="evenodd" clip-rule="evenodd" fill="#6EB444" d="M128,34.9c0,3.3-2.7,6-6,6l-116,0c-3.3,0-6-2.7-6-6L0,6
			c0-3.3,2.7-6,6-6l116,0c3.3,0,6,2.7,6,6L128,34.9z"/>
	</g>
	<rect x="62.4" y="52.4" fill="#6EB444" width="3.2" height="81.3"/>
	<g>
		<path fill="#6EB444" d="M126,127.6c1.1,0,2-0.9,2-2l0-19c0-1.1-0.9-2.3-1.9-2.6L65.9,85.7c-1.1-0.3-2.8-0.3-3.8,0L1.9,104.1
			c-1.1,0.3-1.9,1.5-1.9,2.6l0,19c0,1.1,0.9,2,2,2H126z"/>
	</g>
	<g>
		<path fill="#6EB444" d="M2,22.1c-1.1,0-2,0.9-2,2L0,39c0,1.1,0.9,2.3,1.9,2.6L62.1,60c1.1,0.3,2.8,0.3,3.8,0l60.2-18.4
			c1.1-0.3,1.9-1.5,1.9-2.6V24.1c0-1.1-0.9-2-2-2H2z"/>
	</g>
	<g>
		<polygon fill="#FFFFFF" points="55.1,132.9 35.5,120.4 55.1,107.9 		"/>
		<polygon fill="#FFFFFF" points="72.9,107.9 92.5,120.4 72.9,132.9 		"/>
	</g>
</g>
</svg>
