<?xml version="1.0" encoding="utf-8"?>
<!-- Generator: Adobe Illustrator 18.0.0, SVG Export Plug-In . SVG Version: 6.00 Build 0)  -->
<!DOCTYPE svg PUBLIC "-//W3C//DTD SVG 1.1//EN" "http://www.w3.org/Graphics/SVG/1.1/DTD/svg11.dtd">
<svg version="1.1" id="Layer_1" xmlns="http://www.w3.org/2000/svg" xmlns:xlink="http://www.w3.org/1999/xlink" x="0px" y="0px"
	 viewBox="0 -80 128 288" enable-background="new 0 -80 128 288" xml:space="preserve">
<g>
	<path fill="#275783" d="M120,207.8H8c-4.4,0-8-3.6-8-8v-112c0-4.4,3.6-8,8-8h112c4.4,0,8,3.6,8,8v112
		C128,204.2,124.4,207.8,120,207.8z"/>
</g>
<rect x="37.4" y="47.8" fill="#275783" width="53.2" height="1.6"/>
<rect x="37.4" y="63" fill="#275783" width="53.2" height="1.6"/>
<path fill="#275783" d="M120-76.8c2.6,0,4.8,2.2,4.8,4.8v272c0,2.6-2.2,4.8-4.8,4.8H8c-2.6,0-4.8-2.2-4.8-4.8V-72
	c0-2.6,2.2-4.8,4.8-4.8H120 M120-80H8c-4.4,0-8,3.6-8,8v272c0,4.4,3.6,8,8,8h112c4.4,0,8-3.6,8-8V-72C128-76.4,124.4-80,120-80
	L120-80z"/>
<g>
	<g>
		<path fill="#FFFFFF" d="M41.9,121.5c-1.1,0-1.9,0.9-1.8,2l5.2,50.6c0.1,1.1,1.1,2,2.2,2h33.2c1.1,0,2.1-0.9,2.2-2l5.2-50.6
			c0.1-1.1-0.7-2-1.8-2H41.9z M53.1,167.8c-0.1,0-0.1,0-0.2,0c-1.1,0-1.2-0.2-1.2-0.2c-0.5-1-1-2.7-1.1-3.8l-2.1-30.1
			c-0.1-1.1,0.2-2.8,0.5-3.9c0,0,0.1-0.3,1.3-0.4c1.2-0.1,1.3,0.2,1.3,0.2c0.5,1,1,2.7,1.1,3.8l2.1,30.1c0.1,1.1-0.2,2.8-0.5,3.9
			C54.4,167.4,54.3,167.7,53.1,167.8z M66.1,163.7c0,1.1-0.4,2.8-0.8,3.8c0,0-0.1,0.3-1.3,0.3s-1.3-0.3-1.3-0.3
			c-0.4-1-0.8-2.7-0.8-3.8v-30.1c0-1.1,0.4-2.8,0.8-3.8c0,0,0.1-0.3,1.3-0.3s1.3,0.3,1.3,0.3c0.4,1,0.8,2.7,0.8,3.8V163.7z
			 M77.3,163.8c-0.1,1.1-0.5,2.8-1,3.8c0,0-0.1,0.2-1.2,0.2c0,0-0.1,0-0.1,0c-1.2-0.1-1.3-0.4-1.3-0.4c-0.4-1-0.7-2.8-0.6-3.9
			l1.7-30.1c0.1-1.1,0.5-2.8,1-3.8c0,0,0.2-0.3,1.3-0.2c1.2,0.1,1.3,0.4,1.3,0.4c0.4,1,0.7,2.8,0.6,3.9L77.3,163.8z"/>
	</g>
	<path fill="#FFFFFF" d="M88.1,118.1H39.9c-1.2,0-2.1-1-2.1-2.1c0-1.2,1-2.1,2.1-2.1h48.3c1.2,0,2.1,1,2.1,2.1
		C90.3,117.2,89.3,118.1,88.1,118.1z"/>
	<path fill="#FFFFFF" d="M67.5,115.2c0-1.9-1.6-3.5-3.5-3.5c-1.9,0-3.5,1.6-3.5,3.5C63.5,115.2,65.2,115.2,67.5,115.2z"/>
</g>
<g>
	<g>
		<circle fill="#1D9AD5" cx="64" cy="-16" r="32"/>
	</g>
	<g>
		<g>
			<path fill="#FFFFFF" d="M84.6-5.8l-4.3-2.8l3.5-2.3c0.2-0.1,0.4-0.3,0.5-0.5c0.4-0.7,0.2-1.5-0.5-1.9c-0.4-0.2-0.8-0.2-1.2-0.1
				L76.7-11L69-16l7.7-5l5.8,2.3c0.4,0.2,0.8,0.2,1.2-0.1c0.7-0.4,0.9-1.2,0.5-1.9c-0.1-0.2-0.3-0.4-0.5-0.5l-3.4-2.2l4.3-2.8
				c0.7-0.4,0.9-1.3,0.5-2s-1.3-0.9-2-0.5l-4.6,2.3l-0.2-4.1c0-0.2,0-0.5-0.2-0.7c-0.4-0.7-1.2-0.9-1.9-0.5c-0.4,0.2-0.6,0.6-0.6,1
				l-0.9,6.2l-8.2,4.1l-0.5-9l4.9-3.9c0.3-0.2,0.6-0.6,0.6-1.1c0-0.8-0.6-1.4-1.4-1.4c-0.2,0-0.5,0.1-0.7,0.2l-3.7,1.9l-0.3-5.2
				c0-0.8-0.6-1.4-1.4-1.4c-0.8,0-1.4,0.6-1.4,1.4l-0.3,5.2l-3.7-1.9c-0.2-0.1-0.4-0.2-0.7-0.2c-0.8,0-1.4,0.6-1.4,1.4
				c0,0.4,0.2,0.8,0.6,1.1l4.9,3.9l-0.5,9.1l-8.2-4.1l-0.9-6.2c0-0.4-0.3-0.8-0.6-1c-0.7-0.4-1.5-0.2-1.9,0.5
				c-0.1,0.2-0.2,0.4-0.2,0.7l-0.2,4.1l-4.6-2.3c-0.7-0.4-1.6-0.2-2,0.5s-0.2,1.6,0.5,2l4.3,2.8L44.2-21c-0.2,0.1-0.4,0.3-0.5,0.5
				c-0.4,0.7-0.2,1.5,0.5,1.9c0.4,0.2,0.8,0.2,1.2,0.1l5.9-2.3l7.7,5l-7.7,5l-5.8-2.3c-0.4-0.2-0.8-0.2-1.2,0.1
				c-0.7,0.4-0.9,1.2-0.5,1.9c0.1,0.2,0.3,0.4,0.5,0.5l3.4,2.2l-4.3,2.8c-0.7,0.4-0.9,1.3-0.5,2s1.3,0.9,2,0.5l4.6-2.3l0.2,4.1
				c0,0.2,0,0.5,0.2,0.7c0.4,0.7,1.2,0.9,1.9,0.5c0.4-0.2,0.6-0.6,0.6-1l0.9-6.2l8.2-4.1L62-2.3l-4.9,3.9c-0.3,0.2-0.6,0.6-0.6,1.1
				c0,0.8,0.6,1.4,1.4,1.4c0.2,0,0.5-0.1,0.7-0.2L62.3,2l0.3,5.2c0,0.8,0.6,1.4,1.4,1.4s1.4-0.6,1.4-1.4L65.7,2l3.7,1.9
				c0.2,0.1,0.4,0.2,0.7,0.2c0.8,0,1.4-0.6,1.4-1.4c0-0.4-0.2-0.8-0.6-1.1L66-2.6l0.5-9.1l8.2,4.1l0.9,6.2c0.1,0.4,0.3,0.8,0.6,1
				c0.7,0.4,1.5,0.2,1.9-0.5c0.1-0.2,0.2-0.4,0.2-0.7l0.2-4.1l4.6,2.3c0.7,0.4,1.6,0.2,2-0.5C85.5-4.5,85.3-5.4,84.6-5.8z"/>
		</g>
	</g>
</g>
</svg>
