<?xml version="1.0" encoding="utf-8"?>
<!-- Generator: Adobe Illustrator 18.0.0, SVG Export Plug-In . SVG Version: 6.00 Build 0)  -->
<!DOCTYPE svg PUBLIC "-//W3C//DTD SVG 1.1//EN" "http://www.w3.org/Graphics/SVG/1.1/DTD/svg11.dtd">
<svg version="1.1" id="Layer_1" xmlns="http://www.w3.org/2000/svg" xmlns:xlink="http://www.w3.org/1999/xlink" x="0px" y="0px"
	 viewBox="0 -80 128 288" enable-background="new 0 -80 128 288" xml:space="preserve">
<g>
	<path fill="#275783" d="M120,207.8H8c-4.4,0-8-3.6-8-8v-112c0-4.4,3.6-8,8-8h112c4.4,0,8,3.6,8,8v112
		C128,204.2,124.4,207.8,120,207.8z"/>
</g>
<rect x="37.4" y="47.8" fill="#275783" width="53.2" height="1.6"/>
<rect x="37.4" y="63" fill="#275783" width="53.2" height="1.6"/>
<path fill="#275783" d="M120-76.8c2.6,0,4.8,2.2,4.8,4.8v272c0,2.6-2.2,4.8-4.8,4.8H8c-2.6,0-4.8-2.2-4.8-4.8V-72
	c0-2.6,2.2-4.8,4.8-4.8H120 M120-80H8c-4.4,0-8,3.6-8,8v272c0,4.4,3.6,8,8,8h112c4.4,0,8-3.6,8-8V-72C128-76.4,124.4-80,120-80
	L120-80z"/>
<g>
	<g>
		<path fill="#FFFFFF" d="M41.9,121.5c-1.1,0-1.9,0.9-1.8,2l5.2,50.6c0.1,1.1,1.1,2,2.2,2h33.2c1.1,0,2.1-0.9,2.2-2l5.2-50.6
			c0.1-1.1-0.7-2-1.8-2H41.9z M53.1,167.8c-0.1,0-0.1,0-0.2,0c-1.1,0-1.2-0.2-1.2-0.2c-0.5-1-1-2.7-1.1-3.8l-2.1-30.1
			c-0.1-1.1,0.2-2.8,0.5-3.9c0,0,0.1-0.3,1.3-0.4c1.2-0.1,1.3,0.2,1.3,0.2c0.5,1,1,2.7,1.1,3.8l2.1,30.1c0.1,1.1-0.2,2.8-0.5,3.9
			C54.4,167.4,54.3,167.7,53.1,167.8z M66.1,163.7c0,1.1-0.4,2.8-0.8,3.8c0,0-0.1,0.3-1.3,0.3s-1.3-0.3-1.3-0.3
			c-0.4-1-0.8-2.7-0.8-3.8v-30.1c0-1.1,0.4-2.8,0.8-3.8c0,0,0.1-0.3,1.3-0.3s1.3,0.3,1.3,0.3c0.4,1,0.8,2.7,0.8,3.8V163.7z
			 M77.3,163.8c-0.1,1.1-0.5,2.8-1,3.8c0,0-0.1,0.2-1.2,0.2c0,0-0.1,0-0.1,0c-1.2-0.1-1.3-0.4-1.3-0.4c-0.4-1-0.7-2.8-0.6-3.9
			l1.7-30.1c0.1-1.1,0.5-2.8,1-3.8c0,0,0.2-0.3,1.3-0.2c1.2,0.1,1.3,0.4,1.3,0.4c0.4,1,0.7,2.8,0.6,3.9L77.3,163.8z"/>
	</g>
	<path fill="#FFFFFF" d="M88.1,118.1H39.9c-1.2,0-2.1-1-2.1-2.1c0-1.2,1-2.1,2.1-2.1h48.3c1.2,0,2.1,1,2.1,2.1
		C90.3,117.2,89.3,118.1,88.1,118.1z"/>
	<path fill="#FFFFFF" d="M67.5,115.2c0-1.9-1.6-3.5-3.5-3.5c-1.9,0-3.5,1.6-3.5,3.5C63.5,115.2,65.2,115.2,67.5,115.2z"/>
</g>
<g>
	<g>
		<circle fill="#EC1C24" cx="64" cy="-16" r="32"/>
	</g>
	<path fill="#FFFFFF" d="M80.6-3c-1.6-2.2-8.2-10.7-9.7-12.9c0-0.1-0.1-0.1-0.1-0.2c1.6-2.1,8.3-10.6,9.7-12.9
		c0.5-0.8,0.8-1.5,0.5-2.4c-0.5-1.6-2.5-2.3-3.9-1.4c-0.3,0.2-0.5,0.4-0.8,0.6c-0.5,0.4-9.1,7-11.3,8.5c-0.3,0.2-0.6,0.5-1,0.7
		c-2-1.6-10.7-8.3-13-9.8c-2.4-1.7-5.3,1.2-3.6,3.6c0.2,0.3,9.5,12.7,9.8,13c-1.6,2.1-8.3,10.6-9.7,12.9C47-2.4,46.7-1.6,47-0.7
		c0.5,1.6,2.5,2.3,3.9,1.4C51.2,0.4,60.8-7,63-8.5c0.3-0.2,0.6-0.5,1-0.7c2,1.6,10.7,8.3,13,9.8C79.3,2.2,82.2-0.6,80.6-3z"/>
</g>
</svg>
