<?xml version="1.0" encoding="utf-8"?>
<!-- Generator: Adobe Illustrator 18.0.0, SVG Export Plug-In . SVG Version: 6.00 Build 0)  -->
<!DOCTYPE svg PUBLIC "-//W3C//DTD SVG 1.1//EN" "http://www.w3.org/Graphics/SVG/1.1/DTD/svg11.dtd">
<svg version="1.1" id="Layer_1" xmlns="http://www.w3.org/2000/svg" xmlns:xlink="http://www.w3.org/1999/xlink" x="0px" y="0px"
	 viewBox="0 0 110 110" enable-background="new 0 0 110 110" xml:space="preserve">
<circle fill-rule="evenodd" clip-rule="evenodd" fill="#FFFFFF" cx="55" cy="55" r="54.2"/>
<g>
	<path fill-rule="evenodd" clip-rule="evenodd" fill="#CDCCCC" d="M97.5,47.6c4.1,0,7.4,3.3,7.4,7.4c0,4.1-3.3,7.4-7.4,7.4
		c-4.1,0-7.4-3.3-7.4-7.4C90,50.9,93.4,47.6,97.5,47.6z"/>
	<path fill-rule="evenodd" clip-rule="evenodd" fill="#CDCCCC" d="M12.5,47.6c4.1,0,7.4,3.3,7.4,7.4c0,4.1-3.3,7.4-7.4,7.4
		c-4.1,0-7.4-3.3-7.4-7.4C5.1,50.9,8.4,47.6,12.5,47.6z"/>
	<path fill-rule="evenodd" clip-rule="evenodd" fill="#CDCCCC" d="M55,5.1c4.1,0,7.4,3.3,7.4,7.4c0,4.1-3.3,7.4-7.4,7.4
		c-4.1,0-7.4-3.3-7.4-7.4C47.6,8.4,50.9,5.1,55,5.1z"/>
	<path fill-rule="evenodd" clip-rule="evenodd" fill="#CDCCCC" d="M55,90c4.1,0,7.4,3.3,7.4,7.4c0,4.1-3.3,7.4-7.4,7.4
		c-4.1,0-7.4-3.3-7.4-7.4C47.6,93.4,50.9,90,55,90z"/>
	<path fill-rule="evenodd" clip-rule="evenodd" fill="#CDCCCC" d="M90.3,79.8c2.9,2.9,2.9,7.6,0,10.5c-2.9,2.9-7.6,2.9-10.5,0
		c-2.9-2.9-2.9-7.6,0-10.5C82.7,76.9,87.4,76.9,90.3,79.8z"/>
	<path fill-rule="evenodd" clip-rule="evenodd" fill="#CDCCCC" d="M30.2,19.7c2.9,2.9,2.9,7.6,0,10.5c-2.9,2.9-7.6,2.9-10.5,0
		c-2.9-2.9-2.9-7.6,0-10.5C22.6,16.8,27.3,16.8,30.2,19.7z"/>
	<path fill-rule="evenodd" clip-rule="evenodd" fill="#CDCCCC" d="M90.3,19.7c2.9,2.9,2.9,7.6,0,10.5c-2.9,2.9-7.6,2.9-10.5,0
		c-2.9-2.9-2.9-7.6,0-10.5C82.7,16.8,87.4,16.8,90.3,19.7z"/>
	<path fill-rule="evenodd" clip-rule="evenodd" fill="#CDCCCC" d="M30.2,79.8c2.9,2.9,2.9,7.6,0,10.5c-2.9,2.9-7.6,2.9-10.5,0
		c-2.9-2.9-2.9-7.6,0-10.5C22.6,76.9,27.3,76.9,30.2,79.8z"/>
	<path fill-rule="evenodd" clip-rule="evenodd" fill="#CDCCCC" d="M97.1,64.1c3.8,1.5,5.6,5.9,4.1,9.7c-1.5,3.8-5.9,5.6-9.7,4.1
		c-3.8-1.5-5.6-5.9-4.1-9.7C89,64.4,93.3,62.6,97.1,64.1z"/>
	<path fill-rule="evenodd" clip-rule="evenodd" fill="#CDCCCC" d="M18.4,32.2c3.8,1.5,5.6,5.9,4.1,9.7c-1.5,3.8-5.9,5.6-9.7,4.1
		c-3.8-1.5-5.6-5.9-4.1-9.7C10.3,32.4,14.7,30.6,18.4,32.2z"/>
	<path fill-rule="evenodd" clip-rule="evenodd" fill="#285884" d="M73.8,8.8c3.8,1.5,5.6,5.9,4.1,9.7c-1.5,3.8-5.9,5.6-9.7,4.1
		c-3.8-1.5-5.6-5.9-4.1-9.7C65.6,9.1,70,7.2,73.8,8.8z"/>
	<path fill-rule="evenodd" clip-rule="evenodd" fill="#CDCCCC" d="M41.8,87.5c3.8,1.5,5.6,5.9,4.1,9.7c-1.5,3.8-5.9,5.6-9.7,4.1
		c-3.8-1.5-5.6-5.9-4.1-9.7C33.7,87.8,38,85.9,41.8,87.5z"/>
	<path fill-rule="evenodd" clip-rule="evenodd" fill="#CDCCCC" d="M78.4,91.2c1.6,3.8-0.2,8.1-3.9,9.7c-3.8,1.6-8.1-0.2-9.7-3.9
		c-1.6-3.8,0.2-8.1,3.9-9.7C72.4,85.7,76.8,87.5,78.4,91.2z"/>
	<path fill-rule="evenodd" clip-rule="evenodd" fill="#CDCCCC" d="M45.3,13c1.6,3.8-0.2,8.1-3.9,9.7c-3.8,1.6-8.1-0.2-9.7-3.9
		c-1.6-3.8,0.2-8.1,3.9-9.7C39.4,7.5,43.7,9.2,45.3,13z"/>
	<path fill-rule="evenodd" clip-rule="evenodd" fill="#CDCCCC" d="M100.9,35.6c1.6,3.8-0.2,8.1-3.9,9.7c-3.8,1.6-8.1-0.2-9.7-3.9
		c-1.6-3.8,0.2-8.1,3.9-9.7C95,30.1,99.4,31.8,100.9,35.6z"/>
	<path fill-rule="evenodd" clip-rule="evenodd" fill="#CDCCCC" d="M22.7,68.6c1.6,3.8-0.2,8.1-3.9,9.7c-3.8,1.6-8.1-0.2-9.7-3.9
		c-1.6-3.8,0.2-8.1,3.9-9.7S21.1,64.9,22.7,68.6z"/>
</g>
<g>
	<path fill="#08445E" d="M46.9,65.7C54.3,58.4,58.4,54,58.4,50c0-2.8-1.5-4.8-4.6-4.8c-2,0-3.8,1.3-5.2,3l-1.8-1.8
		c2-2.2,4.2-3.7,7.4-3.7c4.5,0,7.3,2.9,7.3,7.2c0,4.6-4.2,9.2-10,15.2c1.3-0.1,2.8-0.2,4.1-0.2h7.1v2.7H46.9V65.7z"/>
</g>
<rect fill="none" width="110" height="110"/>
</svg>
