<?xml version="1.0" encoding="utf-8"?>
<!-- Generator: Adobe Illustrator 18.0.0, SVG Export Plug-In . SVG Version: 6.00 Build 0)  -->
<!DOCTYPE svg PUBLIC "-//W3C//DTD SVG 1.1//EN" "http://www.w3.org/Graphics/SVG/1.1/DTD/svg11.dtd">
<svg version="1.1" id="Layer_1" xmlns="http://www.w3.org/2000/svg" xmlns:xlink="http://www.w3.org/1999/xlink" x="0px" y="0px"
	 viewBox="0 0 128 320" enable-background="new 0 0 128 320" xml:space="preserve">
<g>
	<g>
		<g>
			<path fill="#CDCCCC" d="M120.8,223v-19.3c0-1.5-1.4-2.8-3.2-2.8h-7.9c-1.8,0-3.2,1.3-3.2,2.8V223c0,1.5,1.4,2.8,3.2,2.8h7.9
				C119.4,225.8,120.8,224.5,120.8,223z"/>
			<path fill="#CDCCCC" d="M120.8,249.6v-19.3c0-1.5-1.4-2.8-3.2-2.8h-7.9c-1.8,0-3.2,1.3-3.2,2.8v19.3c0,1.5,1.4,2.8,3.2,2.8h7.9
				C119.4,252.5,120.8,251.2,120.8,249.6z"/>
			<path fill="#CDCCCC" d="M120.8,303v-19.3c0-1.5-1.4-2.8-3.2-2.8h-7.9c-1.8,0-3.2,1.3-3.2,2.8V303c0,1.5,1.4,2.8,3.2,2.8h7.9
				C119.4,305.8,120.8,304.5,120.8,303z"/>
			<path fill="#CDCCCC" d="M120.8,196.3V177c0-1.5-1.4-2.8-3.2-2.8h-7.9c-1.8,0-3.2,1.3-3.2,2.8v19.3c0,1.5,1.4,2.8,3.2,2.8h7.9
				C119.4,199.1,120.8,197.8,120.8,196.3z"/>
			<path fill="#CDCCCC" d="M120.8,276.3V257c0-1.5-1.4-2.8-3.2-2.8h-7.9c-1.8,0-3.2,1.3-3.2,2.8v19.3c0,1.5,1.4,2.8,3.2,2.8h7.9
				C119.4,279.1,120.8,277.9,120.8,276.3z"/>
			<path fill="#285884" d="M120.8,116.3V97c0-1.5-1.4-2.8-3.2-2.8h-7.9c-1.8,0-3.2,1.3-3.2,2.8v19.3c0,1.5,1.4,2.8,3.2,2.8h7.9
				C119.4,119.1,120.8,117.8,120.8,116.3z"/>
			<path fill="#CDCCCC" d="M120.8,89.6V70.4c0-1.5-1.4-2.8-3.2-2.8h-7.9c-1.8,0-3.2,1.3-3.2,2.8v19.3c0,1.5,1.4,2.8,3.2,2.8h7.9
				C119.4,92.4,120.8,91.2,120.8,89.6z"/>
			<path fill="#CDCCCC" d="M120.8,169.6v-19.3c0-1.5-1.4-2.8-3.2-2.8h-7.9c-1.8,0-3.2,1.3-3.2,2.8v19.3c0,1.5,1.4,2.8,3.2,2.8h7.9
				C119.4,172.4,120.8,171.2,120.8,169.6z"/>
			<path fill="#CDCCCC" d="M120.8,143v-19.3c0-1.5-1.4-2.8-3.2-2.8h-7.9c-1.8,0-3.2,1.3-3.2,2.8V143c0,1.5,1.4,2.8,3.2,2.8h7.9
				C119.4,145.8,120.8,144.5,120.8,143z"/>
			<path fill="#CDCCCC" d="M120.8,36.3V17c0-1.5-1.4-2.8-3.2-2.8h-7.9c-1.8,0-3.2,1.3-3.2,2.8v19.3c0,1.5,1.4,2.8,3.2,2.8h7.9
				C119.4,39.1,120.8,37.8,120.8,36.3z"/>
			<path fill="#CDCCCC" d="M120.8,63V43.7c0-1.5-1.4-2.8-3.2-2.8h-7.9c-1.8,0-3.2,1.3-3.2,2.8V63c0,1.5,1.4,2.8,3.2,2.8h7.9
				C119.4,65.8,120.8,64.5,120.8,63z"/>
		</g>
		<g>
			<path fill="#285884" d="M50.3,140.7c10.5,0,19,8.5,19,19s-8.5,19-19,19s-19-8.5-19-19S39.8,140.7,50.3,140.7 M50.3,135.9
				c-13.1,0-23.8,10.6-23.8,23.8s10.6,23.8,23.8,23.8s23.8-10.6,23.8-23.8S63.4,135.9,50.3,135.9L50.3,135.9z"/>
			<g>
				<path fill="#285884" d="M39.7,169.6l11.9-15.4c1.1-1.4,2.2-2.7,3.4-4.1V150H40.7v-3.8h20l-0.1,3L49,164.4
					c-1.1,1.5-2.2,2.8-3.4,4.1v0.1h15.3v3.8H39.7V169.6z"/>
			</g>
			<g>
				<path fill="#285884" d="M21.5,162.1h-3.2c-1.3,0-2.4-1.1-2.4-2.4c0-1.3,1.1-2.4,2.4-2.4h3.2c1.3,0,2.4,1.1,2.4,2.4
					C23.9,161,22.8,162.1,21.5,162.1z"/>
				<path fill="#285884" d="M70.1,162.1h-7.2c-1.3,0-2.4-1.1-2.4-2.4c0-1.3,1.1-2.4,2.4-2.4h7.2c1.3,0,2.4,1.1,2.4,2.4
					C72.5,161,71.4,162.1,70.1,162.1z M53.9,162.1h-7.2c-1.3,0-2.4-1.1-2.4-2.4c0-1.3,1.1-2.4,2.4-2.4h7.2c1.3,0,2.4,1.1,2.4,2.4
					C56.3,161,55.2,162.1,53.9,162.1z M37.7,162.1h-7.2c-1.3,0-2.4-1.1-2.4-2.4c0-1.3,1.1-2.4,2.4-2.4h7.2c1.3,0,2.4,1.1,2.4,2.4
					C40.1,161,39,162.1,37.7,162.1z"/>
				<path fill="#285884" d="M82.3,162.1h-3.2c-1.3,0-2.4-1.1-2.4-2.4c0-1.3,1.1-2.4,2.4-2.4h3.2c1.3,0,2.4,1.1,2.4,2.4
					C84.7,161,83.6,162.1,82.3,162.1z"/>
			</g>
		</g>
	</g>
	<rect fill="none" width="128" height="320"/>
</g>
</svg>
