<?xml version="1.0" encoding="utf-8"?>
<!-- Generator: Adobe Illustrator 18.0.0, SVG Export Plug-In . SVG Version: 6.00 Build 0)  -->
<!DOCTYPE svg PUBLIC "-//W3C//DTD SVG 1.1//EN" "http://www.w3.org/Graphics/SVG/1.1/DTD/svg11.dtd">
<svg version="1.1" id="Layer_1" xmlns="http://www.w3.org/2000/svg" xmlns:xlink="http://www.w3.org/1999/xlink" x="0px" y="0px"
	 viewBox="0 0 128 128" enable-background="new 0 0 128 128" xml:space="preserve">
<g>
	<g>
		<path fill="#275783" d="M62.7,88.8C47,88.8,34.3,76,34.3,60.4S47,32.1,62.7,32.1C78.3,32.1,91,44.8,91,60.4S78.3,88.8,62.7,88.8z
			 M62.7,37.9c-12.4,0-22.5,10.1-22.5,22.5s10.1,22.5,22.5,22.5c12.4,0,22.5-10.1,22.5-22.5S75.1,37.9,62.7,37.9z"/>
		<path fill="#275783" d="M72.3,63.3H53c-1.6,0-2.9-1.3-2.9-2.9c0-1.6,1.3-2.9,2.9-2.9h19.3c1.6,0,2.9,1.3,2.9,2.9
			C75.2,62,73.9,63.3,72.3,63.3z"/>
		<path fill="#275783" d="M62.7,73c-1.6,0-2.9-1.3-2.9-2.9V50.8c0-1.6,1.3-2.9,2.9-2.9s2.9,1.3,2.9,2.9v19.3
			C65.6,71.7,64.3,73,62.7,73z"/>
		<path fill="#275783" d="M86,90c-0.4,0-0.9-0.2-1.2-0.5L77,81.7c-0.7-0.7-0.7-1.8,0-2.5c0.7-0.7,1.8-0.7,2.5,0l7.7,7.7
			c0.7,0.7,0.7,1.8,0,2.5C86.9,89.8,86.4,90,86,90z"/>
		<path fill="#275783" d="M89.6,95.9c-1,0-2.1-0.4-2.9-1.2l-4.6-4.6c-1.6-1.6-1.6-4.2,0-5.8c1.6-1.6,4.2-1.6,5.8,0l4.6,4.6
			c1.6,1.6,1.6,4.2,0,5.8C91.7,95.5,90.7,95.9,89.6,95.9z"/>
	</g>
</g>
<path fill="#275783" d="M120,3.2c2.6,0,4.8,2.2,4.8,4.8v112c0,2.6-2.2,4.8-4.8,4.8H8c-2.6,0-4.8-2.2-4.8-4.8V8
	c0-2.6,2.2-4.8,4.8-4.8H120 M120,0H8C3.6,0,0,3.6,0,8v112c0,4.4,3.6,8,8,8h112c4.4,0,8-3.6,8-8V8C128,3.6,124.4,0,120,0L120,0z"/>
</svg>
