<?xml version="1.0" encoding="utf-8"?>
<!-- Generator: Adobe Illustrator 18.0.0, SVG Export Plug-In . SVG Version: 6.00 Build 0)  -->
<!DOCTYPE svg PUBLIC "-//W3C//DTD SVG 1.1//EN" "http://www.w3.org/Graphics/SVG/1.1/DTD/svg11.dtd">
<svg version="1.1" id="Layer_1" xmlns="http://www.w3.org/2000/svg" xmlns:xlink="http://www.w3.org/1999/xlink" x="0px" y="0px"
	 viewBox="0 0 352 40" enable-background="new 0 0 352 40" xml:space="preserve">
<g>
	<path fill="#4B5056" d="M315,6c1.7,0,3,1.3,3,3v6c0,1.7-1.3,3-3,3H37c-1.7,0-3-1.3-3-3V9c0-1.7,1.3-3,3-3H315 M315,4H37
		c-2.8,0-5,2.3-5,5v6c0,2.8,2.3,5,5,5h278c2.8,0,5-2.3,5-5V9C320,6.3,317.8,4,315,4L315,4z"/>
	<path fill="none" d="M316.8,12c0-2.3-1.9-4.3-4.4-4.5v0h-21.7c-2.7,0-4.9,2-4.9,4.5s2.2,4.5,4.9,4.5c0.1,0,0.1,0,0.2,0h20.9
		c0.1,0,0.1,0,0.2,0c0.1,0,0.1,0,0.2,0h0.2v0C314.9,16.3,316.8,14.3,316.8,12z"/>
	<path fill="#0F3551" d="M66.6,12c0-2.3-1.9-4.3-4.4-4.5v0H40.5c-2.7,0-4.9,2-4.9,4.5s2.2,4.5,4.9,4.5c0.1,0,0.1,0,0.2,0h20.9
		c0.1,0,0.1,0,0.2,0c0.1,0,0.1,0,0.2,0h0.2v0C64.7,16.3,66.6,14.3,66.6,12z"/>
	<path fill="none" d="M150,12c0-2.3-1.9-4.3-4.4-4.5v0h-21.7c-2.7,0-4.9,2-4.9,4.5s2.2,4.5,4.9,4.5c0.1,0,0.1,0,0.2,0H145
		c0.1,0,0.1,0,0.2,0c0.1,0,0.1,0,0.2,0h0.2v0C148.1,16.3,150,14.3,150,12z"/>
	<path fill="none" d="M233.4,12c0-2.3-1.9-4.3-4.4-4.5v0h-21.7c-2.7,0-4.9,2-4.9,4.5s2.2,4.5,4.9,4.5c0.1,0,0.1,0,0.2,0h20.9
		c0.1,0,0.1,0,0.2,0c0.1,0,0.1,0,0.2,0h0.2v0C231.5,16.3,233.4,14.3,233.4,12z"/>
</g>
<rect fill="none" width="352" height="40"/>
</svg>
