<?xml version="1.0" encoding="utf-8"?>
<!-- Generator: Adobe Illustrator 18.0.0, SVG Export Plug-In . SVG Version: 6.00 Build 0)  -->
<!DOCTYPE svg PUBLIC "-//W3C//DTD SVG 1.1//EN" "http://www.w3.org/Graphics/SVG/1.1/DTD/svg11.dtd">
<svg version="1.1" id="Layer_1" xmlns="http://www.w3.org/2000/svg" xmlns:xlink="http://www.w3.org/1999/xlink" x="0px" y="0px"
	 viewBox="0 0 128 128" enable-background="new 0 0 128 128" xml:space="preserve">
<path fill-rule="evenodd" clip-rule="evenodd" fill="#5288A0" d="M120,128H8c-4.4,0-8-3.6-8-8V8c0-4.4,3.6-8,8-8h112
	c4.4,0,8,3.6,8,8v112C128,124.4,124.4,128,120,128z"/>
<g>
	<path fill="#FFFFFF" d="M47,46.5c-1.3,0-2.4-1.1-2.4-2.4v-7.4c0-1.3,1.1-2.4,2.4-2.4s2.4,1.1,2.4,2.4v7.4
		C49.4,45.4,48.4,46.5,47,46.5z"/>
	<path fill="#FFFFFF" d="M80.9,46.5c-1.3,0-2.4-1.1-2.4-2.4v-7.4c0-1.3,1.1-2.4,2.4-2.4c1.3,0,2.4,1.1,2.4,2.4v7.4
		C83.3,45.4,82.3,46.5,80.9,46.5z"/>
	<path fill="#FFFFFF" d="M94.4,42.4c-0.3-0.5-0.8-1-1.3-1.3c-0.3-0.2-0.5-0.3-0.8-0.4c-0.6-0.2-1.2-0.4-1.9-0.4h0h-4.5v3.9
		c0,2.7-2.2,4.9-4.9,4.9S76,46.9,76,44.2v-3.9H52v3.9c0,2.7-2.2,4.9-4.9,4.9c-2.7,0-4.9-2.2-4.9-4.9v-3.9h-4.5h0
		c-0.7,0-1.3,0.1-1.9,0.4c-0.3,0.1-0.6,0.3-0.8,0.4c-0.5,0.3-1,0.8-1.3,1.3c-0.5,0.8-0.8,1.7-0.8,2.7v0v43.8c0,2.6,2.2,4.8,4.8,4.8
		h5H53h37.4c2.6,0,4.8-2.2,4.8-4.8V45.1v0C95.2,44.1,94.9,43.2,94.4,42.4z M89.2,88.9H38.8c-0.7,0-1.2-0.5-1.2-1.2V53
		c0-0.7,0.5-1.2,1.2-1.2h50.4c0.7,0,1.2,0.5,1.2,1.2v34.7C90.4,88.3,89.9,88.9,89.2,88.9z"/>
	<g>
		<path fill="#FFFFFF" d="M80.8,77.9L68.9,57.2c-1.1-2-2.9-3.1-4.8-3.1c-1.9,0-3.7,1.1-4.8,3.1L47.4,77.9c-1.1,2-1.2,4.1-0.3,5.8
			c1,1.7,2.8,2.6,5.1,2.6H76c2.3,0,4.1-1,5.1-2.6C82.1,82,82,79.9,80.8,77.9z M77.1,80.9c-0.6,1-1.8,1.2-2.5,1.2H53.6
			c-0.7,0-1.9-0.2-2.5-1.2c-0.6-1-0.1-2.2,0.2-2.8l10.5-18.3c0.3-0.6,1.1-1.6,2.3-1.6c1.2,0,1.9,1,2.3,1.6l10.5,18.3
			C77.2,78.8,77.7,79.9,77.1,80.9z"/>
		<g>
			<g>
				<ellipse fill="#FFFFFF" cx="64.1" cy="78.3" rx="1.4" ry="1.4"/>
				<path fill="#FFFFFF" d="M64.1,80.6c-1.2,0-2.2-1-2.2-2.3c0-1.2,1-2.2,2.2-2.2s2.2,1,2.2,2.2C66.3,79.5,65.3,80.6,64.1,80.6z
					 M64.1,77.7c-0.4,0-0.6,0.3-0.6,0.6c0,0.4,0.3,0.7,0.6,0.7c0.4,0,0.6-0.3,0.6-0.7C64.7,77.9,64.5,77.7,64.1,77.7z"/>
			</g>
			<g>
				<path fill="#FFFFFF" d="M65.5,65.7c0.1-0.8-0.6-1.5-1.4-1.5c-0.8,0-1.5,0.8-1.4,1.5l0.6,7.3c0.1,0.4,0.4,0.7,0.8,0.7
					s0.7-0.3,0.8-0.7L65.5,65.7z"/>
				<path fill="#FFFFFF" d="M64.1,74.5c-0.8,0-1.5-0.6-1.6-1.4l-0.6-7.3c-0.1-0.6,0.1-1.2,0.6-1.6c0.9-1,2.4-1,3.2,0
					c0.4,0.5,0.6,1.1,0.5,1.6L65.7,73C65.6,73.9,64.9,74.5,64.1,74.5z M64.1,65c-0.1,0-0.3,0.1-0.4,0.2c-0.1,0.1-0.2,0.3-0.2,0.4
					l0.6,8.1l0-0.8l0.6-7.3c0-0.2,0-0.3-0.2-0.4C64.4,65.1,64.2,65,64.1,65z"/>
			</g>
		</g>
	</g>
</g>
</svg>
