<?xml version="1.0" encoding="utf-8"?>
<!-- Generator: Adobe Illustrator 18.0.0, SVG Export Plug-In . SVG Version: 6.00 Build 0)  -->
<!DOCTYPE svg PUBLIC "-//W3C//DTD SVG 1.1//EN" "http://www.w3.org/Graphics/SVG/1.1/DTD/svg11.dtd">
<svg version="1.1" id="Layer_1" xmlns="http://www.w3.org/2000/svg" xmlns:xlink="http://www.w3.org/1999/xlink" x="0px" y="0px"
	 viewBox="0 0 128 128" enable-background="new 0 0 128 128" xml:space="preserve">
<path fill="#5288A0" d="M120,128H8c-4.4,0-8-3.6-8-8V8c0-4.4,3.6-8,8-8h112c4.4,0,8,3.6,8,8v112C128,124.4,124.4,128,120,128z"/>
<g>
	<path fill="#FFFFFF" d="M60.3,86.5c-0.6,0-1.3-0.2-1.8-0.6L35,68.1c-2-1.4-2.3-3.1-2.3-4.1c0-0.9,0.3-2.7,2.4-4.2l23.4-17.7
		c1.3-1,3.2-0.8,4.3,0.6c1,1.3,0.8,3.2-0.6,4.3L39.6,64l22.5,17.1c1.3,1,1.6,2.9,0.6,4.3C62.1,86.1,61.2,86.5,60.3,86.5z"/>
	<path fill="#FFFFFF" d="M92.3,67H35.7c-1.7,0-3-1.4-3-3s1.4-3,3-3h56.7c1.7,0,3,1.4,3,3S94,67,92.3,67z"/>
</g>
</svg>
