<?xml version="1.0" encoding="utf-8"?>
<!-- Generator: Adobe Illustrator 18.0.0, SVG Export Plug-In . SVG Version: 6.00 Build 0)  -->
<!DOCTYPE svg PUBLIC "-//W3C//DTD SVG 1.1//EN" "http://www.w3.org/Graphics/SVG/1.1/DTD/svg11.dtd">
<svg version="1.1" id="Layer_1" xmlns="http://www.w3.org/2000/svg" xmlns:xlink="http://www.w3.org/1999/xlink" x="0px" y="0px"
	 viewBox="0 0 100 100" enable-background="new 0 0 100 100" xml:space="preserve">
<path fill="#81C341" d="M92,100H8c-4.4,0-8-3.6-8-8V8c0-4.4,3.6-8,8-8h84c4.4,0,8,3.6,8,8v84C100,96.4,96.4,100,92,100z"/>
<g>
	<path fill="#FFFFFF" d="M41.4,27.5c0.6,0,1.3,0.2,1.8,0.6l23.5,17.8c2,1.4,2.3,3.1,2.3,4.1c0,0.9-0.3,2.7-2.4,4.2L43.2,71.9
		c-1.3,1-3.2,0.8-4.3-0.6c-1-1.3-0.8-3.2,0.6-4.3L62.1,50L39.5,32.9c-1.3-1-1.6-2.9-0.6-4.3C39.5,27.9,40.4,27.5,41.4,27.5z"/>
</g>
</svg>
