<?xml version="1.0" encoding="utf-8"?>
<!-- Generator: Adobe Illustrator 18.0.0, SVG Export Plug-In . SVG Version: 6.00 Build 0)  -->
<!DOCTYPE svg PUBLIC "-//W3C//DTD SVG 1.1//EN" "http://www.w3.org/Graphics/SVG/1.1/DTD/svg11.dtd">
<svg version="1.1" id="Layer_1" xmlns="http://www.w3.org/2000/svg" xmlns:xlink="http://www.w3.org/1999/xlink" x="0px" y="0px"
	 width="306px" height="128px" viewBox="0 0 306 128" enable-background="new 0 0 306 128" xml:space="preserve">
<g>
	<g enable-background="new    ">
		<path fill="#4A4F55" d="M10.1,73.9h5.1v-15H11v-2.6c2.3-0.4,3.9-1,5.3-1.9h3.1v19.5h4.5v3.4H10.1V73.9z"/>
		<path fill="#4A4F55" d="M28.6,73.9h5.1v-15h-4.2v-2.6c2.3-0.4,3.9-1,5.3-1.9h3.1v19.5h4.5v3.4H28.6L28.6,73.9L28.6,73.9z"/>
		<path fill="#4A4F55" d="M54.7,53.7h4.6l4.2,11.6l1.6,4.5h0.1l1.6-4.5l4.1-11.6h4.6v23.5h-3.9V66.5c0-2.2,0.3-5.3,0.5-7.5H72
			l-1.9,5.4l-4,10.7h-1.9l-4.1-10.7L58.2,59H58c0.2,2.2,0.5,5.3,0.5,7.5v10.8h-3.8L54.7,53.7L54.7,53.7z"/>
		<path fill="#4A4F55" d="M90.8,66c0-1.9-0.8-3.5-3.2-3.5c-1.8,0-3.4,0.8-5,1.7l-1.5-2.8c1.9-1.2,4.4-2.3,7.2-2.3
			c4.4,0,6.6,2.7,6.6,7.6v10.5h-3.4l-0.3-1.9h-0.1c-1.6,1.3-3.4,2.4-5.5,2.4c-3.1,0-5.3-2.1-5.3-5.2C80.4,68.7,83.5,66.7,90.8,66z
			 M86.9,74.5c1.4,0,2.6-0.7,3.9-1.9v-4c-4.8,0.6-6.4,1.9-6.4,3.6C84.4,73.8,85.5,74.5,86.9,74.5z"/>
		<path fill="#4A4F55" d="M100,59.6h3.4l0.3,3.1h0.1c1.3-2.3,3.1-3.6,5-3.6c0.9,0,1.5,0.1,2,0.4l-0.7,3.6c-0.6-0.2-1.1-0.3-1.8-0.3
			c-1.4,0-3.1,1-4.2,3.6v10.8H100V59.6z"/>
		<path fill="#4A4F55" d="M119.5,74.8c6.4-6.2,10.4-10.2,10.4-13.7c0-2.4-1.3-4-3.8-4c-1.8,0-3.2,1.2-4.5,2.6l-2.3-2.3
			c2.1-2.2,4.2-3.5,7.3-3.5c4.4,0,7.2,2.8,7.2,7c0,4.1-3.8,8.2-8.3,13c1.2-0.1,2.7-0.3,3.8-0.3h5.6v3.5h-15.5V74.8z"/>
		<path fill="#4A4F55" d="M138,65.7c0-7.7,3-11.8,7.8-11.8s7.8,4.1,7.8,11.8c0,7.7-3,12-7.8,12S138,73.4,138,65.7z M149.6,65.7
			c0-6.5-1.6-8.5-3.8-8.5c-2.2,0-3.8,2-3.8,8.5c0,6.5,1.6,8.7,3.8,8.7C148,74.5,149.6,72.2,149.6,65.7z"/>
		<path fill="#4A4F55" d="M157.7,73.9h5.1v-15h-4.2v-2.6c2.3-0.4,3.9-1,5.3-1.9h3.1v19.5h4.5v3.4h-13.8L157.7,73.9L157.7,73.9z"/>
		<path fill="#4A4F55" d="M176.3,71.9c1.4,1.3,3.1,2.5,5.4,2.5c2.6,0,4.4-1.6,4.4-4.4c0-2.7-1.7-4.3-4.2-4.3c-1.5,0-2.3,0.4-3.7,1.3
			l-2-1.3l0.7-11.3h12.2v3.5h-8.6l-0.5,5.5c1-0.5,1.8-0.8,3-0.8c3.9,0,7.2,2.2,7.2,7.2c0,5-3.9,7.9-8.1,7.9c-3.7,0-6.1-1.5-7.8-3.2
			L176.3,71.9z"/>
		<path fill="#4A4F55" d="M208.1,74.8c6.4-6.2,10.4-10.2,10.4-13.7c0-2.4-1.3-4-3.8-4c-1.8,0-3.2,1.2-4.5,2.6l-2.3-2.3
			c2.1-2.2,4.2-3.5,7.3-3.5c4.4,0,7.2,2.8,7.2,7c0,4.1-3.8,8.2-8.3,13c1.2-0.1,2.7-0.3,3.8-0.3h5.6v3.5h-15.5V74.8z"/>
		<path fill="#4A4F55" d="M226.7,65.7c0-7.7,3-11.8,7.8-11.8c4.8,0,7.8,4.1,7.8,11.8c0,7.7-3,12-7.8,12
			C229.7,77.7,226.7,73.4,226.7,65.7z M238.3,65.7c0-6.5-1.6-8.5-3.8-8.5c-2.2,0-3.8,2-3.8,8.5c0,6.5,1.6,8.7,3.8,8.7
			C236.7,74.5,238.3,72.2,238.3,65.7z"/>
		<path fill="#4A4F55" d="M248.7,59.8c1.5,0,2.7,1.2,2.7,2.8s-1.2,2.8-2.7,2.8s-2.7-1.2-2.7-2.8C246,61,247.2,59.8,248.7,59.8z
			 M248.7,72.1c1.5,0,2.7,1.2,2.7,2.8c0,1.6-1.2,2.8-2.7,2.8s-2.7-1.2-2.7-2.8C246,73.3,247.2,72.1,248.7,72.1z"/>
		<path fill="#4A4F55" d="M255,65.7c0-7.7,3-11.8,7.8-11.8c4.8,0,7.8,4.1,7.8,11.8c0,7.7-3,12-7.8,12C258.1,77.7,255,73.4,255,65.7z
			 M266.6,65.7c0-6.5-1.6-8.5-3.8-8.5c-2.2,0-3.8,2-3.8,8.5c0,6.5,1.6,8.7,3.8,8.7C265.1,74.5,266.6,72.2,266.6,65.7z"/>
		<path fill="#4A4F55" d="M274.8,71.9c1.4,1.3,3.1,2.5,5.4,2.5c2.6,0,4.4-1.6,4.4-4.4c0-2.7-1.7-4.3-4.2-4.3c-1.5,0-2.3,0.4-3.7,1.3
			l-2-1.3l0.7-11.3h12.2v3.5H279l-0.5,5.5c1-0.5,1.8-0.8,3-0.8c3.9,0,7.2,2.2,7.2,7.2c0,5-3.9,7.9-8.1,7.9c-3.7,0-6.1-1.5-7.8-3.2
			L274.8,71.9z"/>
	</g>
</g>
<g>
	<g>
		<path fill="#275783" d="M298,3.2c2.6,0,4.8,2.2,4.8,4.8v112c0,2.6-2.2,4.8-4.8,4.8H8c-2.6,0-4.8-2.2-4.8-4.8V8
			c0-2.6,2.2-4.8,4.8-4.8L298,3.2 M298,0H8C3.6,0,0,3.6,0,8v112c0,4.4,3.6,8,8,8h290c4.4,0,8-3.6,8-8V8C306,3.6,302.4,0,298,0L298,0
			z"/>
	</g>
</g>
</svg>
