<?xml version="1.0" encoding="utf-8"?>
<!-- Generator: Adobe Illustrator 18.0.0, SVG Export Plug-In . SVG Version: 6.00 Build 0)  -->
<!DOCTYPE svg PUBLIC "-//W3C//DTD SVG 1.1//EN" "http://www.w3.org/Graphics/SVG/1.1/DTD/svg11.dtd">
<svg version="1.1" id="Layer_1" xmlns="http://www.w3.org/2000/svg" xmlns:xlink="http://www.w3.org/1999/xlink" x="0px" y="0px"
	 viewBox="0 0 42 42" enable-background="new 0 0 42 42" xml:space="preserve">
<path fill="#FFFFFF" d="M31.2,10.4c-0.4,0-0.7,0.2-0.9,0.4c0,0-10.6,10.9-13,13.3h0c-0.3,0.3-0.7,0.3-1.1,0.1
	c-1.2-0.9-3.8-2.7-4-2.8c-0.3-0.2-0.6-0.3-1-0.3c-1,0-1.7,0.8-1.7,1.7c0,0.4,0.1,0.7,0.3,1c0,0,4.7,6.6,4.8,6.6
	c0.6,0.8,1.5,1.4,2.6,1.4c1.1,0,2-0.6,2.6-1.4c0,0,12.2-17.8,12.2-17.8c0.2-0.3,0.4-0.5,0.4-0.8C32.4,10.9,31.9,10.4,31.2,10.4z"/>
<path fill-rule="evenodd" clip-rule="evenodd" fill="#EC1C24" d="M35.8,6.2c8.2,8.2,8.2,21.5,0,29.7c-8.2,8.2-21.5,8.2-29.7,0
	C-2,27.6-2,14.4,6.2,6.2C14.4-2,27.6-2,35.8,6.2z"/>
<path fill="#FFFFFF" d="M29.9,28c-0.8-1.2-4.4-5.7-5.2-6.9c0,0,0-0.1-0.1-0.1c0.9-1.1,4.4-5.7,5.2-6.9c0.2-0.4,0.4-0.8,0.3-1.3
	c-0.3-0.9-1.3-1.3-2.1-0.7c-0.1,0.1-0.3,0.2-0.4,0.3c-0.3,0.2-4.8,3.7-6,4.5c-0.2,0.1-0.3,0.3-0.5,0.4c-1.1-0.9-5.7-4.4-6.9-5.2
	c-1.3-0.9-2.9,0.7-1.9,1.9c0.1,0.1,5.1,6.8,5.2,6.9c-0.9,1.1-4.4,5.7-5.2,6.9c-0.2,0.4-0.4,0.8-0.3,1.3c0.3,0.9,1.3,1.3,2.1,0.7
	c0.1-0.1,5.3-4.1,6.5-4.9c0.2-0.1,0.3-0.3,0.5-0.4c1.1,0.9,5.7,4.4,6.9,5.2C29.2,30.7,30.7,29.2,29.9,28z"/>
</svg>
