<?xml version="1.0" encoding="utf-8"?>
<!-- Generator: Adobe Illustrator 18.0.0, SVG Export Plug-In . SVG Version: 6.00 Build 0)  -->
<!DOCTYPE svg PUBLIC "-//W3C//DTD SVG 1.1//EN" "http://www.w3.org/Graphics/SVG/1.1/DTD/svg11.dtd">
<svg version="1.1" id="Layer_1" xmlns="http://www.w3.org/2000/svg" xmlns:xlink="http://www.w3.org/1999/xlink" x="0px" y="0px"
	 viewBox="0 0 42 42" enable-background="new 0 0 42 42" xml:space="preserve">
<path fill="#FFFFFF" d="M31.2,10.4c-0.4,0-0.7,0.2-0.9,0.4c0,0-10.6,10.9-13,13.3h0c-0.3,0.3-0.7,0.3-1.1,0.1
	c-1.2-0.9-3.8-2.7-4-2.8c-0.3-0.2-0.6-0.3-1-0.3c-1,0-1.7,0.8-1.7,1.7c0,0.4,0.1,0.7,0.3,1c0,0,4.7,6.6,4.8,6.6
	c0.6,0.8,1.5,1.4,2.6,1.4c1.1,0,2-0.6,2.6-1.4c0,0,12.2-17.8,12.2-17.8c0.2-0.3,0.4-0.5,0.4-0.8C32.4,10.9,31.9,10.4,31.2,10.4z"/>
<path fill-rule="evenodd" clip-rule="evenodd" fill="#28BBED" d="M28.9,1.6c10.7,4.4,15.9,16.6,11.5,27.3
	c-4.4,10.7-16.6,15.9-27.3,11.5C2.4,36.1-2.8,23.8,1.6,13.1C5.9,2.4,18.2-2.8,28.9,1.6z"/>
<g>
	<g>
		<path fill="#FFFFFF" d="M34.2,27.4l-2.8-1.8l2.2-1.4c0.1-0.1,0.2-0.2,0.3-0.3c0.2-0.4,0.1-0.9-0.3-1.2c-0.2-0.1-0.5-0.1-0.8,0
			l-3.8,1.4L24.2,21l4.9-3.1l3.8,1.4c0.2,0.1,0.5,0.1,0.8,0c0.4-0.2,0.6-0.8,0.3-1.2c-0.1-0.1-0.2-0.2-0.3-0.3l-2.2-1.4l2.8-1.8
			c0.4-0.2,0.6-0.8,0.3-1.2c-0.3-0.4-0.8-0.6-1.3-0.3l-3,1.5l-0.2-2.6c0-0.1,0-0.3-0.1-0.4c-0.2-0.4-0.8-0.5-1.2-0.3
			c-0.2,0.1-0.4,0.4-0.4,0.6l-0.6,3.9l-5.3,2.6l-0.3-5.7l3.2-2.4c0.2-0.2,0.4-0.4,0.4-0.7c0-0.5-0.4-0.9-0.9-0.9
			c-0.2,0-0.3,0.1-0.4,0.1l-2.4,1.2l-0.2-3.2c0-0.5-0.4-0.9-0.9-0.9c-0.5,0-0.9,0.4-0.9,0.9l-0.2,3.2l-2.4-1.2
			c-0.1-0.1-0.3-0.1-0.4-0.1c-0.5,0-0.9,0.4-0.9,0.9c0,0.3,0.1,0.5,0.4,0.7l3.2,2.4l-0.3,5.7l-5.3-2.6l-0.6-3.9
			c0-0.3-0.2-0.5-0.4-0.6c-0.4-0.2-1-0.1-1.2,0.3c-0.1,0.1-0.1,0.3-0.1,0.4l-0.1,2.6l-3-1.5c-0.4-0.2-1-0.1-1.3,0.3
			c-0.3,0.4-0.1,1,0.3,1.2l2.8,1.8l-2.2,1.4C8.2,17.9,8.1,18,8,18.1c-0.2,0.4-0.1,0.9,0.3,1.2c0.2,0.1,0.5,0.1,0.8,0l3.8-1.4
			l4.9,3.1l-4.9,3.1l-3.8-1.4c-0.2-0.1-0.5-0.1-0.8,0C7.9,23,7.8,23.5,8,23.9c0.1,0.1,0.2,0.2,0.3,0.3l2.2,1.4l-2.8,1.8
			c-0.4,0.2-0.6,0.8-0.3,1.2c0.3,0.4,0.8,0.6,1.3,0.3l3-1.5l0.2,2.6c0,0.1,0,0.3,0.1,0.4c0.2,0.4,0.8,0.5,1.2,0.3
			c0.2-0.1,0.4-0.4,0.4-0.6l0.6-3.9l5.3-2.6l0.3,5.7l-3.2,2.4c-0.2,0.2-0.4,0.4-0.4,0.7c0,0.5,0.4,0.9,0.9,0.9
			c0.2,0,0.3-0.1,0.4-0.1l2.4-1.2l0.2,3.2c0,0.5,0.4,0.9,0.9,0.9c0.5,0,0.9-0.4,0.9-0.9l0.2-3.2l2.4,1.2c0.1,0.1,0.3,0.1,0.4,0.1
			c0.5,0,0.9-0.4,0.9-0.9c0-0.3-0.1-0.5-0.4-0.7l-3.2-2.4l0.3-5.7l5.3,2.6l0.6,3.9c0,0.3,0.2,0.5,0.4,0.6c0.4,0.2,1,0.1,1.2-0.3
			c0.1-0.1,0.1-0.3,0.1-0.4l0.1-2.6l3,1.5c0.4,0.2,1,0.1,1.3-0.3C34.8,28.2,34.7,27.6,34.2,27.4z"/>
	</g>
</g>
</svg>
