<?xml version="1.0" encoding="utf-8"?>
<!-- Generator: Adobe Illustrator 18.0.0, SVG Export Plug-In . SVG Version: 6.00 Build 0)  -->
<!DOCTYPE svg PUBLIC "-//W3C//DTD SVG 1.1//EN" "http://www.w3.org/Graphics/SVG/1.1/DTD/svg11.dtd">
<svg version="1.1" id="Layer_1" xmlns="http://www.w3.org/2000/svg" xmlns:xlink="http://www.w3.org/1999/xlink" x="0px" y="0px"
	 viewBox="0 0 42 42" enable-background="new 0 0 42 42" xml:space="preserve">
<path fill="#FFFFFF" d="M31.2,10.4c-0.4,0-0.7,0.2-0.9,0.4c0,0-10.6,10.9-13,13.3h0c-0.3,0.3-0.7,0.3-1.1,0.1
	c-1.2-0.9-3.8-2.7-4-2.8c-0.3-0.2-0.6-0.3-1-0.3c-1,0-1.7,0.8-1.7,1.7c0,0.4,0.1,0.7,0.3,1c0,0,4.7,6.6,4.8,6.6
	c0.6,0.8,1.5,1.4,2.6,1.4c1.1,0,2-0.6,2.6-1.4c0,0,12.2-17.8,12.2-17.8c0.2-0.3,0.4-0.5,0.4-0.8C32.4,10.9,31.9,10.4,31.2,10.4z"/>
<path fill-rule="evenodd" clip-rule="evenodd" fill="#0E3451" d="M35.8,6.2c8.2,8.2,8.2,21.5,0,29.7c-8.2,8.2-21.5,8.2-29.7,0
	C-2,27.6-2,14.4,6.2,6.2C14.4-2,27.6-2,35.8,6.2z"/>
</svg>
