<?xml version="1.0" encoding="utf-8"?>
<!-- Generator: Adobe Illustrator 18.0.0, SVG Export Plug-In . SVG Version: 6.00 Build 0)  -->
<!DOCTYPE svg PUBLIC "-//W3C//DTD SVG 1.1//EN" "http://www.w3.org/Graphics/SVG/1.1/DTD/svg11.dtd">
<svg version="1.1" id="Layer_1" xmlns="http://www.w3.org/2000/svg" xmlns:xlink="http://www.w3.org/1999/xlink" x="0px" y="0px"
	 viewBox="0 0 340 340" enable-background="new 0 0 340 340" xml:space="preserve">
<rect fill="#F3F3F3" width="340" height="340"/>
<g>
	<g enable-background="new    ">
		<path fill="#4B5056" d="M83,185.8c0,2.7-0.3,5-1.1,6.8c-0.7,1.8-1.7,3.2-3.1,4c-1.4,0.9-3,1.3-4.9,1.3c-1,0-1.9-0.1-2.7-0.4v-1.2
			c0.4,0.1,0.9,0.2,1.5,0.3s1,0.1,1.3,0.1c2.3,0,4.1-0.8,5.5-2.5c1.3-1.7,2.1-4.1,2.2-7.3h-0.2c-0.7,0.9-1.5,1.6-2.4,2.1
			s-1.9,0.7-3,0.7c-1.9,0-3.4-0.5-4.4-1.6c-1.1-1-1.6-2.5-1.6-4.5c0-2.1,0.6-3.7,1.7-5c1.2-1.3,2.7-1.9,4.6-1.9
			c1.4,0,2.5,0.3,3.5,1.1c1,0.7,1.8,1.7,2.3,3.1C82.7,182.3,83,183.9,83,185.8z M76.3,178c-1.5,0-2.7,0.5-3.5,1.5
			c-0.9,1-1.3,2.4-1.3,4.1c0,1.6,0.4,2.9,1.2,3.7c0.8,0.9,2,1.3,3.5,1.3c0.9,0,1.8-0.2,2.7-0.6c0.8-0.4,1.5-1,2-1.7s0.7-1.4,0.7-2.1
			c0-1.1-0.2-2.1-0.7-3.1c-0.4-1-1-1.7-1.8-2.2C78.2,178.3,77.3,178,76.3,178z"/>
		<path fill="#4B5056" d="M93.1,176.7c1.7,0,3.1,0.4,4.2,1.3c1.1,0.9,1.6,2.1,1.6,3.6c0,1-0.3,2-1,2.8s-1.7,1.5-3.2,2.2
			c1.8,0.7,3.1,1.5,3.8,2.4c0.7,0.9,1.1,1.9,1.1,3.2c0,1.7-0.6,3.1-1.8,4.1c-1.2,1-2.8,1.5-4.8,1.5c-2.1,0-3.7-0.5-4.8-1.4
			c-1.1-0.9-1.7-2.3-1.7-4.1c0-1.2,0.4-2.3,1.2-3.2c0.8-0.9,2-1.7,3.6-2.4c-1.5-0.7-2.6-1.5-3.2-2.2c-0.6-0.8-0.9-1.7-0.9-2.9
			c0-1,0.2-1.9,0.7-2.6c0.5-0.7,1.2-1.3,2.1-1.7C91,176.9,92,176.7,93.1,176.7z M88,192.6c0,1.3,0.4,2.3,1.3,3s2.1,1.1,3.7,1.1
			c1.5,0,2.8-0.4,3.7-1.1c0.9-0.8,1.4-1.8,1.4-3.1c0-1.2-0.4-2.1-1.1-2.8s-2.2-1.5-4.3-2.3c-1.7,0.7-2.9,1.4-3.7,2.2
			C88.4,190.4,88,191.4,88,192.6z M93,178c-1.3,0-2.4,0.3-3.2,1c-0.8,0.7-1.2,1.5-1.2,2.7c0,0.7,0.2,1.2,0.4,1.7
			c0.3,0.5,0.7,1,1.3,1.4c0.6,0.4,1.5,0.9,2.8,1.4c1.5-0.6,2.6-1.2,3.3-2c0.7-0.7,1-1.6,1-2.6c0-1.1-0.4-2-1.2-2.7
			C95.5,178.3,94.4,178,93,178z"/>
		<path fill="#4B5056" d="M106,197.6l8.5-19.2h-11.6V177h13.3v1l-8.5,19.5L106,197.6L106,197.6z"/>
		<path fill="#4B5056" d="M119.6,188.9c0-2.7,0.4-4.9,1.1-6.7s1.8-3.2,3.1-4.1c1.3-0.9,2.9-1.3,4.8-1.3c0.9,0,1.7,0.1,2.4,0.3v1.2
			c-0.7-0.3-1.5-0.4-2.5-0.4c-2.3,0-4.1,0.8-5.4,2.5s-2,4.1-2.2,7.3h0.2c0.7-0.9,1.5-1.6,2.4-2.1s1.9-0.7,2.9-0.7
			c1.9,0,3.4,0.5,4.5,1.6s1.6,2.6,1.6,4.5c0,2.1-0.6,3.8-1.7,5c-1.1,1.2-2.7,1.8-4.6,1.8c-2.1,0-3.7-0.8-4.9-2.4
			C120.2,194,119.6,191.7,119.6,188.9z M126.3,196.7c1.5,0,2.7-0.5,3.6-1.4c0.9-1,1.3-2.3,1.3-4.1c0-1.6-0.4-2.8-1.3-3.7
			c-0.9-0.9-2-1.3-3.4-1.3c-1,0-1.9,0.2-2.7,0.6c-0.8,0.4-1.5,1-2,1.7s-0.7,1.4-0.7,2.1c0,1,0.2,2.1,0.7,3c0.5,1,1.1,1.7,1.9,2.3
			C124.5,196.4,125.4,196.7,126.3,196.7z"/>
		<path fill="#4B5056" d="M141.8,185.3c2.2,0,3.9,0.5,5.2,1.6s1.9,2.5,1.9,4.4c0,2.1-0.7,3.8-2,4.9c-1.3,1.2-3.1,1.8-5.4,1.8
			c-1,0-2-0.1-2.9-0.3s-1.7-0.5-2.3-0.9v-1.4c1,0.5,1.9,0.9,2.7,1.1c0.8,0.2,1.6,0.3,2.5,0.3c1.8,0,3.2-0.5,4.3-1.4
			c1.1-1,1.6-2.2,1.6-3.9c0-1.5-0.5-2.7-1.6-3.6c-1.1-0.9-2.5-1.3-4.3-1.3c-1.2,0-2.5,0.2-3.8,0.5l-0.9-0.5l0.8-9.4h9.9v1.4H139
			l-0.6,7.3C139.8,185.4,140.9,185.3,141.8,185.3z"/>
		<path fill="#4B5056" d="M152.5,188.9c0-2.7,0.4-4.9,1.1-6.7c0.7-1.8,1.8-3.2,3.1-4.1s2.9-1.3,4.8-1.3c0.9,0,1.7,0.1,2.4,0.3v1.2
			c-0.7-0.3-1.5-0.4-2.5-0.4c-2.3,0-4.1,0.8-5.4,2.5s-2,4.1-2.2,7.3h0.2c0.7-0.9,1.5-1.6,2.4-2.1s1.9-0.7,2.9-0.7
			c1.9,0,3.4,0.5,4.5,1.6s1.6,2.6,1.6,4.5c0,2.1-0.6,3.8-1.7,5c-1.1,1.2-2.7,1.8-4.6,1.8c-2.1,0-3.7-0.8-4.9-2.4
			C153.1,194,152.5,191.7,152.5,188.9z M159.2,196.7c1.5,0,2.7-0.5,3.6-1.4c0.9-1,1.3-2.3,1.3-4.1c0-1.6-0.4-2.8-1.3-3.7
			c-0.9-0.9-2-1.3-3.4-1.3c-1,0-1.9,0.2-2.7,0.6c-0.8,0.4-1.5,1-2,1.7s-0.7,1.4-0.7,2.1c0,1,0.2,2.1,0.7,3c0.5,1,1.1,1.7,1.9,2.3
			C157.4,196.4,158.3,196.7,159.2,196.7z"/>
		<path fill="#4B5056" d="M171.8,197.6l8.5-19.2h-11.6V177H182v1l-8.5,19.5L171.8,197.6L171.8,197.6z"/>
		<path fill="#4B5056" d="M191.7,176.7c1.7,0,3.1,0.4,4.2,1.3s1.6,2.1,1.6,3.6c0,1-0.3,2-1,2.8s-1.7,1.5-3.2,2.2
			c1.8,0.7,3.1,1.5,3.8,2.4s1.1,1.9,1.1,3.2c0,1.7-0.6,3.1-1.8,4.1s-2.8,1.5-4.8,1.5c-2.1,0-3.7-0.5-4.8-1.4s-1.7-2.3-1.7-4.1
			c0-1.2,0.4-2.3,1.2-3.2s2-1.7,3.6-2.4c-1.5-0.7-2.6-1.5-3.2-2.2c-0.6-0.8-0.9-1.7-0.9-2.9c0-1,0.2-1.9,0.7-2.6s1.2-1.3,2.1-1.7
			C189.6,176.9,190.6,176.7,191.7,176.7z M186.7,192.6c0,1.3,0.4,2.3,1.3,3s2.1,1.1,3.7,1.1c1.5,0,2.8-0.4,3.7-1.1
			c0.9-0.8,1.4-1.8,1.4-3.1c0-1.2-0.4-2.1-1.1-2.8c-0.7-0.7-2.2-1.5-4.3-2.3c-1.7,0.7-2.9,1.4-3.7,2.2
			C187,190.4,186.7,191.4,186.7,192.6z M191.7,178c-1.3,0-2.4,0.3-3.2,1s-1.2,1.5-1.2,2.7c0,0.7,0.2,1.2,0.4,1.7
			c0.3,0.5,0.7,1,1.3,1.4s1.5,0.9,2.8,1.4c1.5-0.6,2.6-1.2,3.3-2c0.7-0.7,1-1.6,1-2.6c0-1.1-0.4-2-1.2-2.7
			C194.1,178.3,193.1,178,191.7,178z"/>
		<path fill="#4B5056" d="M214.5,185.8c0,2.7-0.3,5-1.1,6.8c-0.7,1.8-1.7,3.2-3.1,4c-1.4,0.9-3,1.3-4.9,1.3c-1,0-1.9-0.1-2.7-0.4
			v-1.2c0.4,0.1,0.9,0.2,1.5,0.3s1,0.1,1.3,0.1c2.3,0,4.1-0.8,5.5-2.5c1.3-1.7,2.1-4.1,2.2-7.3H213c-0.7,0.9-1.5,1.6-2.4,2.1
			s-1.9,0.7-3,0.7c-1.9,0-3.4-0.5-4.4-1.6s-1.6-2.5-1.6-4.5c0-2.1,0.6-3.7,1.7-5c1.2-1.3,2.7-1.9,4.6-1.9c1.4,0,2.5,0.3,3.5,1.1
			c1,0.7,1.8,1.7,2.3,3.1C214.3,182.3,214.5,183.9,214.5,185.8z M207.8,178c-1.5,0-2.7,0.5-3.5,1.5c-0.9,1-1.3,2.4-1.3,4.1
			c0,1.6,0.4,2.9,1.2,3.7c0.8,0.9,2,1.3,3.5,1.3c0.9,0,1.8-0.2,2.7-0.6c0.8-0.4,1.5-1,2-1.7s0.7-1.4,0.7-2.1c0-1.1-0.2-2.1-0.7-3.1
			c-0.4-1-1-1.7-1.8-2.2C209.7,178.3,208.8,178,207.8,178z"/>
		<path fill="#4B5056" d="M217.7,190.4v-1.2h6.7v1.2H217.7z"/>
		<path fill="#4B5056" d="M235.3,197.6h-1.4v-15c0-1.4,0.1-2.8,0.2-4.2c-0.1,0.1-0.3,0.3-0.4,0.4s-1.6,1.3-4.3,3.4l-0.8-1l5.6-4.2
			h1.2v20.6H235.3z"/>
		<path fill="#4B5056" d="M243.4,190.4v-1.2h6.7v1.2H243.4z"/>
		<path fill="#4B5056" d="M261,197.6h-1.4v-15c0-1.4,0.1-2.8,0.2-4.2c-0.1,0.1-0.3,0.3-0.4,0.4c-0.2,0.1-1.6,1.3-4.3,3.4l-0.8-1
			l5.6-4.2h1.2v20.6H261z"/>
	</g>
</g>
<g>
	<g enable-background="new    ">
		<path fill="#4B5056" d="M153.8,294.7c3.2,3.6,7.6,7,15.1,7c7.4,0,12.7-4.8,12.7-12c0-7.5-5.5-12.6-19-12.6v-3.3
			c12.6,0,17.1-5.3,17.1-11.9c0-6.2-4.4-10.2-11-10.2c-5,0-9.4,2.6-12.5,6l-2.2-2.6c3.8-3.7,8.4-6.7,14.8-6.7
			c8.4,0,14.9,4.8,14.9,13.2c0,7.2-4.4,11.4-10.4,13.5v0.3c6.7,1.5,12.4,6.5,12.4,14.2c0,9.5-7.3,15.4-16.6,15.4
			c-8.7,0-13.8-4-17.3-7.7L153.8,294.7z"/>
	</g>
</g>
<g>
	<g>
		<path fill="#4A4F55" d="M127.3,112.7h-4.1v-11.3h-11.6v11.3h-4.1V87.6h4.1v10.3h11.6V87.6h4.1V112.7z"/>
		<path fill="#4A4F55" d="M145.3,112.7l-0.8-2.6h-0.1c-0.9,1.2-1.8,1.9-2.8,2.4c-0.9,0.4-2.1,0.6-3.6,0.6c-1.9,0-3.3-0.5-4.4-1.5
			c-1-1-1.6-2.4-1.6-4.3c0-2,0.7-3.4,2.2-4.4s3.7-1.5,6.7-1.6l3.3-0.1v-1c0-1.2-0.3-2.1-0.9-2.7c-0.6-0.6-1.4-0.9-2.6-0.9
			c-1,0-1.9,0.1-2.8,0.4c-0.9,0.3-1.8,0.6-2.6,1L134,95c1-0.5,2.2-0.9,3.4-1.2s2.4-0.4,3.5-0.4c2.4,0,4.2,0.5,5.5,1.6
			c1.2,1.1,1.8,2.7,1.8,5v12.8H145.3z M139.3,109.9c1.5,0,2.6-0.4,3.5-1.2c0.9-0.8,1.3-2,1.3-3.4v-1.7l-2.4,0.1
			c-1.9,0.1-3.3,0.4-4.2,1c-0.9,0.6-1.3,1.4-1.3,2.6c0,0.8,0.3,1.5,0.8,2C137.5,109.7,138.3,109.9,139.3,109.9z"/>
		<path fill="#4A4F55" d="M170.4,112.7h-4.1V101c0-1.5-0.3-2.6-0.9-3.3c-0.6-0.7-1.5-1.1-2.8-1.1c-1.7,0-3,0.5-3.7,1.5
			c-0.8,1-1.2,2.7-1.2,5.1v9.5h-4v-19h3.2l0.6,2.5h0.2c0.6-0.9,1.4-1.6,2.4-2.1c1.1-0.5,2.2-0.7,3.5-0.7c4.6,0,6.8,2.3,6.8,7V112.7z
			"/>
		<path fill="#4A4F55" d="M192.9,103.2c0,3.1-0.8,5.5-2.4,7.3s-3.8,2.6-6.7,2.6c-1.8,0-3.3-0.4-4.7-1.2c-1.4-0.8-2.4-2-3.1-3.5
			s-1.1-3.2-1.1-5.2c0-3.1,0.8-5.5,2.4-7.2c1.6-1.7,3.8-2.6,6.7-2.6c2.8,0,4.9,0.9,6.5,2.7C192.1,97.8,192.9,100.2,192.9,103.2z
			 M179.1,103.2c0,4.4,1.6,6.6,4.9,6.6c3.2,0,4.8-2.2,4.8-6.6c0-4.3-1.6-6.5-4.8-6.5c-1.7,0-2.9,0.6-3.7,1.7
			C179.4,99.5,179.1,101.1,179.1,103.2z"/>
		<path fill="#4A4F55" d="M201.4,102.7l2.3-2.9l5.7-6.1h4.7l-7.6,8.2l8.1,10.8h-4.7l-6.1-8.3l-2.2,1.8v6.5h-4V86h4v13l-0.2,3.7
			H201.4z"/>
		<path fill="#4A4F55" d="M233.7,103.2c0,3.1-0.8,5.5-2.4,7.3s-3.8,2.6-6.7,2.6c-1.8,0-3.3-0.4-4.7-1.2c-1.4-0.8-2.4-2-3.1-3.5
			s-1.1-3.2-1.1-5.2c0-3.1,0.8-5.5,2.4-7.2c1.6-1.7,3.8-2.6,6.7-2.6c2.8,0,4.9,0.9,6.5,2.7C232.9,97.8,233.7,100.2,233.7,103.2z
			 M219.9,103.2c0,4.4,1.6,6.6,4.9,6.6c3.2,0,4.8-2.2,4.8-6.6c0-4.3-1.6-6.5-4.8-6.5c-1.7,0-2.9,0.6-3.7,1.7
			S219.9,101.1,219.9,103.2z"/>
		<path fill="#4A4F55" d="M169.8,139l5.9-11.5h4.5l-8.4,15.4v9.7h-4.1v-9.6l-8.3-15.5h4.5L169.8,139z"/>
	</g>
</g>
</svg>
