<?xml version="1.0" encoding="utf-8"?>
<!-- Generator: Adobe Illustrator 18.0.0, SVG Export Plug-In . SVG Version: 6.00 Build 0)  -->
<!DOCTYPE svg PUBLIC "-//W3C//DTD SVG 1.1//EN" "http://www.w3.org/Graphics/SVG/1.1/DTD/svg11.dtd">
<svg version="1.1" id="Layer_1" xmlns="http://www.w3.org/2000/svg" xmlns:xlink="http://www.w3.org/1999/xlink" x="0px" y="0px"
	 viewBox="0 0 340 340" enable-background="new 0 0 340 340" xml:space="preserve">
<g>
	<rect fill="#CCCBCB" width="340" height="340"/>
</g>
<path fill="#4A4F55" d="M170,230.4c-26.3,0-47.6,21.3-47.6,47.6s21.3,47.6,47.6,47.6s47.6-21.3,47.6-47.6S196.3,230.4,170,230.4z
	 M170,317.7c-21.9,0-39.6-17.8-39.6-39.6c0-9.5,3.4-18.2,8.9-25l55.7,55.7C188.2,314.3,179.5,317.7,170,317.7z M200.7,303.1
	L145,247.4c6.8-5.6,15.6-8.9,25-8.9c21.9,0,39.6,17.8,39.6,39.6C209.6,287.5,206.3,296.3,200.7,303.1z"/>
<g>
	<g>
		<path fill="#4A4F55" d="M181.8,256.2c-2.4-3-5.7-4.5-9.2-4.5c-8.6,0-16,6.8-16.2,26.9c3.8-4.6,8.7-7.6,13.7-7.6
			c9.6,0,15.2,5.9,15.2,16.9c0,9.9-6.8,17.1-14.9,17.1c-10.9,0-17.8-9.2-17.8-25.8c0-22.9,9.6-30.8,20.1-30.8
			c5.1,0,8.7,2.1,11.5,5.3L181.8,256.2z M181.5,287.9c0-7.9-3.5-13.7-11.8-13.7c-3.8,0-8.8,2.2-13.2,8.2c0.7,11.5,5.1,19.3,14,19.3
			C176.8,301.7,181.5,295.6,181.5,287.9z"/>
	</g>
</g>
</svg>
