<?xml version="1.0" encoding="utf-8"?>
<!-- Generator: Adobe Illustrator 18.0.0, SVG Export Plug-In . SVG Version: 6.00 Build 0)  -->
<!DOCTYPE svg PUBLIC "-//W3C//DTD SVG 1.1//EN" "http://www.w3.org/Graphics/SVG/1.1/DTD/svg11.dtd">
<svg version="1.1" id="Layer_1" xmlns="http://www.w3.org/2000/svg" xmlns:xlink="http://www.w3.org/1999/xlink" x="0px" y="0px"
	 viewBox="0 0 340 340" enable-background="new 0 0 340 340" xml:space="preserve">
<g>
	<rect fill="#CCCBCB" width="340" height="340"/>
</g>
<path fill="#4A4F55" d="M170,230.4c-26.3,0-47.6,21.3-47.6,47.6s21.3,47.6,47.6,47.6s47.6-21.3,47.6-47.6S196.3,230.4,170,230.4z
	 M209.6,278c0,9.5-3.4,18.2-8.9,25L145,247.3c6.8-5.6,15.5-8.9,25-8.9C191.9,238.4,209.6,256.2,209.6,278z M130.4,278
	c0-9.5,3.4-18.2,8.9-25l55.7,55.7c-6.8,5.6-15.6,8.9-25,8.9C148.1,317.7,130.4,299.9,130.4,278z"/>
<g>
	<g>
		<path fill="#4A4F55" d="M153.9,295.1c3.2,3.3,7.5,6.7,14.9,6.7c7.3,0,13.6-5.9,13.6-14.7s-5.2-14.1-13.3-14.1
			c-4.2,0-6.9,1.5-10.2,3.7l-2.6-1.6l2-25.5h25.2v3.3h-21.8l-1.7,19.6c2.8-1.7,5.7-2.9,9.7-2.9c9.2,0,16.6,5.3,16.6,17.2
			c0,11.6-8.6,18.2-17.4,18.2c-8.7,0-13.7-3.8-17.2-7.3L153.9,295.1z"/>
	</g>
</g>
</svg>
