<?xml version="1.0" encoding="utf-8"?>
<!-- Generator: Adobe Illustrator 18.0.0, SVG Export Plug-In . SVG Version: 6.00 Build 0)  -->
<!DOCTYPE svg PUBLIC "-//W3C//DTD SVG 1.1//EN" "http://www.w3.org/Graphics/SVG/1.1/DTD/svg11.dtd">
<svg version="1.1" id="Layer_1" xmlns="http://www.w3.org/2000/svg" xmlns:xlink="http://www.w3.org/1999/xlink" x="0px" y="0px"
	 viewBox="0 0 340 340" enable-background="new 0 0 340 340" xml:space="preserve">
<rect fill="#F3F3F3" width="340" height="340"/>
<g>
	<g enable-background="new    ">
		<path fill="#4B5056" d="M83.3,183.3c0,2.7-0.3,5-1.1,6.8c-0.7,1.8-1.7,3.2-3.1,4c-1.4,0.9-3,1.3-4.9,1.3c-1,0-1.9-0.1-2.7-0.4
			v-1.2c0.4,0.1,0.9,0.2,1.5,0.3s1,0.1,1.3,0.1c2.3,0,4.1-0.8,5.5-2.5c1.3-1.7,2.1-4.1,2.2-7.3h-0.2c-0.7,0.9-1.5,1.6-2.4,2.1
			s-1.9,0.7-3,0.7c-1.9,0-3.4-0.5-4.4-1.6s-1.6-2.5-1.6-4.5c0-2.1,0.6-3.7,1.7-5c1.2-1.3,2.7-1.9,4.6-1.9c1.4,0,2.5,0.3,3.5,1.1
			c1,0.7,1.8,1.7,2.3,3.1C83,179.8,83.3,181.4,83.3,183.3z M76.6,175.5c-1.5,0-2.7,0.5-3.5,1.5c-0.9,1-1.3,2.4-1.3,4.1
			c0,1.6,0.4,2.9,1.2,3.7c0.8,0.9,2,1.3,3.5,1.3c0.9,0,1.8-0.2,2.7-0.6s1.5-1,2-1.7s0.7-1.4,0.7-2.1c0-1.1-0.2-2.1-0.7-3.1
			c-0.4-1-1-1.7-1.8-2.2C78.5,175.8,77.6,175.5,76.6,175.5z"/>
		<path fill="#4B5056" d="M93.4,174.2c1.7,0,3.1,0.4,4.2,1.3c1.1,0.9,1.6,2.1,1.6,3.6c0,1-0.3,2-1,2.8s-1.7,1.5-3.2,2.2
			c1.8,0.7,3.1,1.5,3.8,2.4c0.7,0.9,1.1,1.9,1.1,3.2c0,1.7-0.6,3.1-1.8,4.1c-1.2,1-2.8,1.5-4.8,1.5c-2.1,0-3.7-0.5-4.8-1.4
			c-1.1-0.9-1.7-2.3-1.7-4.1c0-1.2,0.4-2.3,1.2-3.2c0.8-0.9,2-1.7,3.6-2.4c-1.5-0.7-2.6-1.5-3.2-2.2c-0.6-0.8-0.9-1.7-0.9-2.9
			c0-1,0.2-1.9,0.7-2.6c0.5-0.7,1.2-1.3,2.1-1.7C91.3,174.4,92.2,174.2,93.4,174.2z M88.3,190.1c0,1.3,0.4,2.3,1.3,3
			s2.1,1.1,3.7,1.1c1.5,0,2.8-0.4,3.7-1.1c0.9-0.8,1.4-1.8,1.4-3.1c0-1.2-0.4-2.1-1.1-2.8s-2.2-1.5-4.3-2.3
			c-1.7,0.7-2.9,1.4-3.7,2.2C88.7,187.9,88.3,188.9,88.3,190.1z M93.3,175.5c-1.3,0-2.4,0.3-3.2,1c-0.8,0.7-1.2,1.5-1.2,2.7
			c0,0.7,0.2,1.2,0.4,1.7s0.7,1,1.3,1.4c0.6,0.4,1.5,0.9,2.8,1.4c1.5-0.6,2.6-1.2,3.3-2c0.7-0.7,1-1.6,1-2.6c0-1.1-0.4-2-1.2-2.7
			C95.8,175.8,94.7,175.5,93.3,175.5z"/>
		<path fill="#4B5056" d="M106.3,195.1l8.5-19.2h-11.6v-1.4h13.3v1L108,195L106.3,195.1L106.3,195.1z"/>
		<path fill="#4B5056" d="M119.9,186.4c0-2.7,0.4-4.9,1.1-6.7s1.8-3.2,3.1-4.1c1.3-0.9,2.9-1.3,4.8-1.3c0.9,0,1.7,0.1,2.4,0.3v1.2
			c-0.7-0.3-1.5-0.4-2.5-0.4c-2.3,0-4.1,0.8-5.4,2.5s-2,4.1-2.2,7.3h0.2c0.7-0.9,1.5-1.6,2.4-2.1s1.9-0.7,2.9-0.7
			c1.9,0,3.4,0.5,4.5,1.6s1.6,2.6,1.6,4.5c0,2.1-0.6,3.8-1.7,5c-1.1,1.2-2.7,1.8-4.6,1.8c-2.1,0-3.7-0.8-4.9-2.4
			C120.5,191.5,119.9,189.2,119.9,186.4z M126.6,194.2c1.5,0,2.7-0.5,3.6-1.4c0.9-1,1.3-2.3,1.3-4.1c0-1.6-0.4-2.8-1.3-3.7
			c-0.9-0.9-2-1.3-3.4-1.3c-1,0-1.9,0.2-2.7,0.6c-0.8,0.4-1.5,1-2,1.7s-0.7,1.4-0.7,2.1c0,1,0.2,2.1,0.7,3c0.5,1,1.1,1.7,1.9,2.3
			C124.8,193.9,125.7,194.2,126.6,194.2z"/>
		<path fill="#4B5056" d="M142,182.8c2.2,0,3.9,0.5,5.2,1.6s1.9,2.5,1.9,4.4c0,2.1-0.7,3.8-2,4.9c-1.3,1.2-3.1,1.8-5.4,1.8
			c-1,0-2-0.1-2.9-0.3s-1.7-0.5-2.3-0.9v-1.4c1,0.5,1.9,0.9,2.7,1.1c0.8,0.2,1.6,0.3,2.5,0.3c1.8,0,3.2-0.5,4.3-1.4
			c1.1-1,1.6-2.2,1.6-3.9c0-1.5-0.5-2.7-1.6-3.6c-1.1-0.9-2.5-1.3-4.3-1.3c-1.2,0-2.5,0.2-3.8,0.5l-0.9-0.5l0.8-9.4h9.9v1.4h-8.6
			l-0.6,7.3C140.1,182.9,141.2,182.8,142,182.8z"/>
		<path fill="#4B5056" d="M167,189.9h-3.5v5.2h-1.3v-5.2h-10.6V189l10.2-14.5h1.7v14.2h3.5L167,189.9L167,189.9z M162.1,188.7v-5.9
			c0-2.8,0.1-5.2,0.2-7.1h-0.1c-0.2,0.3-0.8,1.2-1.7,2.6l-7.3,10.4H162.1z"/>
		<path fill="#4B5056" d="M181.1,179.4c0,1.3-0.4,2.4-1.2,3.2c-0.8,0.9-1.9,1.4-3.2,1.7v0.1c1.7,0.2,2.9,0.7,3.8,1.6
			c0.9,0.9,1.3,2,1.3,3.4c0,1.9-0.7,3.4-2,4.5c-1.3,1-3.2,1.6-5.6,1.6c-2.1,0-3.9-0.4-5.5-1.2v-1.4c0.8,0.4,1.7,0.7,2.7,1
			c1,0.2,1.9,0.3,2.8,0.3c2.1,0,3.6-0.4,4.7-1.3c1-0.8,1.6-2,1.6-3.6c0-1.4-0.5-2.4-1.6-3.1c-1.1-0.7-2.6-1.1-4.7-1.1H172v-1.4h2.2
			c1.7,0,3.1-0.4,4.1-1.2s1.5-1.9,1.5-3.3c0-1.1-0.4-2.1-1.2-2.7c-0.8-0.7-1.9-1-3.2-1c-1,0-2,0.2-2.8,0.4c-0.9,0.3-1.8,0.8-2.8,1.5
			l-0.7-0.9c0.8-0.7,1.8-1.2,2.9-1.6c1.1-0.4,2.3-0.6,3.4-0.6c1.9,0,3.4,0.5,4.4,1.4C180.6,176.5,181.1,177.8,181.1,179.4z"/>
		<path fill="#4B5056" d="M198.3,195.1h-12.9v-1.2l5.5-5.7c1.5-1.6,2.6-2.8,3.2-3.7c0.6-0.9,1.1-1.7,1.4-2.4
			c0.3-0.8,0.4-1.6,0.4-2.4c0-1.2-0.4-2.2-1.2-3s-1.9-1.2-3.1-1.2c-1.7,0-3.4,0.6-4.9,1.9l-0.8-1c1.7-1.4,3.6-2.2,5.7-2.2
			c1.8,0,3.2,0.5,4.2,1.4c1,1,1.5,2.3,1.5,3.9c0,1.4-0.3,2.7-1,3.9c-0.7,1.3-1.9,2.8-3.8,4.7l-5.3,5.4v0.1h11L198.3,195.1
			L198.3,195.1z"/>
		<path fill="#4B5056" d="M209.8,195.1h-1.4v-15c0-1.4,0.1-2.8,0.2-4.2c-0.1,0.1-0.3,0.3-0.4,0.4c-0.2,0.1-1.6,1.3-4.3,3.4l-0.8-1
			l5.6-4.2h1.2v20.6H209.8z"/>
		<path fill="#4B5056" d="M218,187.9v-1.2h6.7v1.2H218z"/>
		<path fill="#4B5056" d="M235.5,195.1h-1.4v-15c0-1.4,0.1-2.8,0.2-4.2c-0.1,0.1-0.3,0.3-0.4,0.4c-0.2,0.1-1.6,1.3-4.3,3.4l-0.8-1
			l5.6-4.2h1.2v20.6H235.5z"/>
		<path fill="#4B5056" d="M243.7,187.9v-1.2h6.7v1.2H243.7z"/>
		<path fill="#4B5056" d="M261.3,195.1h-1.4v-15c0-1.4,0.1-2.8,0.2-4.2c-0.1,0.1-0.3,0.3-0.4,0.4c-0.2,0.1-1.6,1.3-4.3,3.4l-0.8-1
			l5.6-4.2h1.2v20.6H261.3z"/>
	</g>
</g>
<g>
	<g enable-background="new    ">
		<path fill="#4B5056" d="M156.6,298.2h12.8V253h-9.7v-2.6c4.4-0.8,7.9-2,10.5-3.4h3.1v51.2h11.9v3.3h-28.5v-3.3H156.6z"/>
	</g>
</g>
<g>
	<g>
		<path fill="#4A4F55" d="M134.6,117.2c-1.1,0-2.1-0.1-2.8-0.4v-3.5c1,0.2,1.8,0.4,2.5,0.4c2.2,0,3.4-1.4,3.4-4.3V85.1h4.1v24.2
			c0,2.6-0.6,4.5-1.8,5.9C138.8,116.5,137,117.2,134.6,117.2z"/>
		<path fill="#4A4F55" d="M159.7,110.2l-0.8-2.6h-0.1c-0.9,1.2-1.8,1.9-2.8,2.4c-0.9,0.4-2.1,0.6-3.6,0.6c-1.9,0-3.3-0.5-4.4-1.5
			c-1-1-1.6-2.4-1.6-4.3c0-2,0.7-3.4,2.2-4.4s3.7-1.5,6.7-1.6l3.3-0.1v-1c0-1.2-0.3-2.1-0.9-2.7c-0.6-0.6-1.4-0.9-2.6-0.9
			c-1,0-1.9,0.1-2.8,0.4c-0.9,0.3-1.8,0.6-2.6,1l-1.3-2.9c1-0.5,2.2-0.9,3.4-1.2s2.4-0.4,3.5-0.4c2.4,0,4.2,0.5,5.5,1.6
			c1.2,1.1,1.8,2.7,1.8,5v12.8H159.7z M153.7,107.5c1.5,0,2.6-0.4,3.5-1.2c0.9-0.8,1.3-2,1.3-3.4v-1.7l-2.4,0.1
			c-1.9,0.1-3.3,0.4-4.2,1c-0.9,0.6-1.3,1.4-1.3,2.6c0,0.8,0.3,1.5,0.8,2C151.9,107.2,152.7,107.5,153.7,107.5z"/>
		<path fill="#4A4F55" d="M184.8,110.2h-4.1V98.5c0-1.5-0.3-2.6-0.9-3.3c-0.6-0.7-1.5-1.1-2.8-1.1c-1.7,0-3,0.5-3.7,1.5
			c-0.8,1-1.2,2.7-1.2,5.1v9.5h-4v-19h3.2l0.6,2.5h0.2c0.6-0.9,1.4-1.6,2.4-2.1c1.1-0.5,2.2-0.7,3.5-0.7c4.6,0,6.8,2.3,6.8,7V110.2z
			"/>
		<path fill="#4A4F55" d="M198.8,110.5c-3,0-5.3-0.9-6.9-2.6c-1.7-1.7-2.5-4.1-2.5-7.1c0-3.1,0.8-5.5,2.3-7.3s3.7-2.7,6.4-2.7
			c2.5,0,4.5,0.8,5.9,2.3c1.5,1.5,2.2,3.6,2.2,6.3v2.2h-12.7c0.1,1.8,0.6,3.3,1.5,4.3s2.3,1.5,4,1.5c1.1,0,2.2-0.1,3.1-0.3
			c1-0.2,2-0.6,3.1-1.1v3.3c-1,0.5-2,0.8-3,1C201.2,110.4,200,110.5,198.8,110.5z M198,93.9c-1.3,0-2.3,0.4-3.1,1.2s-1.2,2-1.4,3.6
			h8.6c0-1.6-0.4-2.8-1.1-3.6S199.3,93.9,198,93.9z"/>
		<path fill="#4A4F55" d="M182,137.4c0,4.1-1.2,7.3-3.5,9.5c-2.3,2.2-5.6,3.3-10,3.3h-7v-25.1h7.8c4,0,7.1,1.1,9.3,3.2
			C180.9,130.5,182,133.5,182,137.4z M177.7,137.5c0-6-2.8-9-8.4-9h-3.6v18.2h2.9C174.6,146.7,177.7,143.7,177.7,137.5z"/>
	</g>
</g>
</svg>
