<?xml version="1.0" encoding="utf-8"?>
<!-- Generator: Adobe Illustrator 18.0.0, SVG Export Plug-In . SVG Version: 6.00 Build 0)  -->
<!DOCTYPE svg PUBLIC "-//W3C//DTD SVG 1.1//EN" "http://www.w3.org/Graphics/SVG/1.1/DTD/svg11.dtd">
<svg version="1.1" id="Layer_1" xmlns="http://www.w3.org/2000/svg" xmlns:xlink="http://www.w3.org/1999/xlink" x="0px" y="0px"
	 viewBox="0 0 340 340" enable-background="new 0 0 340 340" xml:space="preserve">
<rect fill="#F3F3F3" width="340" height="340"/>
<g>
	<g enable-background="new    ">
		<path fill="#4B5056" d="M78,197.6h-1.4v-15c0-1.4,0.1-2.8,0.2-4.2c-0.1,0.1-0.3,0.3-0.4,0.4c-0.2,0.1-1.6,1.3-4.3,3.4l-0.8-1
			l5.6-4.2H78V197.6L78,197.6z"/>
		<path fill="#4B5056" d="M99.3,197.6H86.5v-1.2l5.5-5.7c1.5-1.6,2.6-2.8,3.2-3.7s1.1-1.7,1.4-2.4c0.3-0.8,0.4-1.6,0.4-2.4
			c0-1.2-0.4-2.2-1.2-3c-0.8-0.8-1.9-1.2-3.1-1.2c-1.7,0-3.4,0.6-4.9,1.9l-0.8-1c1.7-1.4,3.6-2.2,5.7-2.2c1.8,0,3.2,0.5,4.2,1.4
			c1,1,1.5,2.3,1.5,3.9c0,1.4-0.3,2.7-1,3.9c-0.7,1.3-1.9,2.8-3.8,4.7l-5.3,5.4v0.1h11L99.3,197.6L99.3,197.6z"/>
		<path fill="#4B5056" d="M115.1,181.9c0,1.3-0.4,2.4-1.2,3.2c-0.8,0.9-1.9,1.4-3.2,1.7v0.1c1.7,0.2,2.9,0.7,3.8,1.6
			c0.9,0.9,1.3,2,1.3,3.4c0,1.9-0.7,3.4-2,4.5c-1.3,1-3.2,1.6-5.6,1.6c-2.1,0-3.9-0.4-5.5-1.2v-1.4c0.8,0.4,1.7,0.7,2.7,1
			c1,0.2,1.9,0.3,2.8,0.3c2.1,0,3.6-0.4,4.7-1.3c1-0.8,1.6-2,1.6-3.6c0-1.4-0.5-2.4-1.6-3.1c-1.1-0.7-2.6-1.1-4.7-1.1H106v-1.4h2.2
			c1.7,0,3.1-0.4,4.1-1.2s1.5-1.9,1.5-3.3c0-1.1-0.4-2.1-1.2-2.7c-0.8-0.7-1.9-1-3.2-1c-1,0-2,0.2-2.8,0.4c-0.9,0.3-1.8,0.8-2.8,1.5
			l-0.7-0.9c0.8-0.7,1.8-1.2,2.9-1.6c1.1-0.4,2.3-0.6,3.4-0.6c1.9,0,3.4,0.5,4.4,1.4C114.6,179,115.1,180.3,115.1,181.9z"/>
		<path fill="#4B5056" d="M133.8,192.4h-3.5v5.2H129v-5.2h-10.6v-0.9l10.2-14.5h1.7v14.2h3.5V192.4L133.8,192.4z M129,191.2v-5.9
			c0-2.8,0.1-5.2,0.2-7.1H129c-0.2,0.3-0.8,1.2-1.7,2.6l-7.3,10.4H129L129,191.2z"/>
		<path fill="#4B5056" d="M141.8,185.3c2.2,0,3.9,0.5,5.2,1.6s1.9,2.5,1.9,4.4c0,2.1-0.7,3.8-2,4.9c-1.3,1.2-3.1,1.8-5.4,1.8
			c-1,0-2-0.1-2.9-0.3s-1.7-0.5-2.3-0.9v-1.4c1,0.5,1.9,0.9,2.7,1.1c0.8,0.2,1.6,0.3,2.5,0.3c1.8,0,3.2-0.5,4.3-1.4
			c1.1-1,1.6-2.2,1.6-3.9c0-1.5-0.5-2.7-1.6-3.6c-1.1-0.9-2.5-1.3-4.3-1.3c-1.2,0-2.5,0.2-3.8,0.5l-0.9-0.5l0.8-9.4h9.9v1.4H139
			l-0.6,7.3C139.8,185.4,140.9,185.3,141.8,185.3z"/>
		<path fill="#4B5056" d="M152.5,188.9c0-2.7,0.4-4.9,1.1-6.7c0.7-1.8,1.8-3.2,3.1-4.1c1.3-0.9,2.9-1.3,4.8-1.3
			c0.9,0,1.7,0.1,2.4,0.3v1.2c-0.7-0.3-1.5-0.4-2.5-0.4c-2.3,0-4.1,0.8-5.4,2.5c-1.3,1.7-2,4.1-2.2,7.3h0.2c0.7-0.9,1.5-1.6,2.4-2.1
			s1.9-0.7,2.9-0.7c1.9,0,3.4,0.5,4.5,1.6s1.6,2.6,1.6,4.5c0,2.1-0.6,3.8-1.7,5c-1.1,1.2-2.7,1.8-4.6,1.8c-2.1,0-3.7-0.8-4.9-2.4
			C153.1,194,152.5,191.7,152.5,188.9z M159.2,196.7c1.5,0,2.7-0.5,3.6-1.4s1.3-2.3,1.3-4.1c0-1.6-0.4-2.8-1.3-3.7
			c-0.9-0.9-2-1.3-3.4-1.3c-1,0-1.9,0.2-2.7,0.6c-0.8,0.4-1.5,1-2,1.7s-0.7,1.4-0.7,2.1c0,1,0.2,2.1,0.7,3c0.5,1,1.1,1.7,1.9,2.3
			C157.4,196.4,158.3,196.7,159.2,196.7z"/>
		<path fill="#4B5056" d="M171.8,197.6l8.5-19.2h-11.6V177H182v1l-8.5,19.5L171.8,197.6L171.8,197.6z"/>
		<path fill="#4B5056" d="M191.7,176.7c1.7,0,3.1,0.4,4.2,1.3c1.1,0.9,1.6,2.1,1.6,3.6c0,1-0.3,2-1,2.8s-1.7,1.5-3.2,2.2
			c1.8,0.7,3.1,1.5,3.8,2.4s1.1,1.9,1.1,3.2c0,1.7-0.6,3.1-1.8,4.1s-2.8,1.5-4.8,1.5c-2.1,0-3.7-0.5-4.8-1.4s-1.7-2.3-1.7-4.1
			c0-1.2,0.4-2.3,1.2-3.2s2-1.7,3.6-2.4c-1.5-0.7-2.6-1.5-3.2-2.2c-0.6-0.8-0.9-1.7-0.9-2.9c0-1,0.2-1.9,0.7-2.6
			c0.5-0.7,1.2-1.3,2.1-1.7C189.6,176.9,190.6,176.7,191.7,176.7z M186.7,192.6c0,1.3,0.4,2.3,1.3,3c0.9,0.7,2.1,1.1,3.7,1.1
			c1.5,0,2.8-0.4,3.7-1.1c0.9-0.8,1.4-1.8,1.4-3.1c0-1.2-0.4-2.1-1.1-2.8c-0.7-0.7-2.2-1.5-4.3-2.3c-1.7,0.7-2.9,1.4-3.7,2.2
			C187,190.4,186.7,191.4,186.7,192.6z M191.7,178c-1.3,0-2.4,0.3-3.2,1s-1.2,1.5-1.2,2.7c0,0.7,0.2,1.2,0.4,1.7
			c0.3,0.5,0.7,1,1.3,1.4s1.5,0.9,2.8,1.4c1.5-0.6,2.6-1.2,3.3-2c0.7-0.7,1-1.6,1-2.6c0-1.1-0.4-2-1.2-2.7
			C194.1,178.3,193.1,178,191.7,178z"/>
		<path fill="#4B5056" d="M214.5,185.8c0,2.7-0.3,5-1.1,6.8c-0.7,1.8-1.7,3.2-3.1,4c-1.4,0.9-3,1.3-4.9,1.3c-1,0-1.9-0.1-2.7-0.4
			v-1.2c0.4,0.1,0.9,0.2,1.5,0.3s1,0.1,1.3,0.1c2.3,0,4.1-0.8,5.5-2.5c1.3-1.7,2.1-4.1,2.2-7.3H213c-0.7,0.9-1.5,1.6-2.4,2.1
			s-1.9,0.7-3,0.7c-1.9,0-3.4-0.5-4.4-1.6c-1.1-1-1.6-2.5-1.6-4.5c0-2.1,0.6-3.7,1.7-5c1.2-1.3,2.7-1.9,4.6-1.9
			c1.4,0,2.5,0.3,3.5,1.1c1,0.7,1.8,1.7,2.3,3.1C214.3,182.3,214.5,183.9,214.5,185.8z M207.8,178c-1.5,0-2.7,0.5-3.5,1.5
			c-0.9,1-1.3,2.4-1.3,4.1c0,1.6,0.4,2.9,1.2,3.7c0.8,0.9,2,1.3,3.5,1.3c0.9,0,1.8-0.2,2.7-0.6c0.8-0.4,1.5-1,2-1.7s0.7-1.4,0.7-2.1
			c0-1.1-0.2-2.1-0.7-3.1c-0.4-1-1-1.7-1.8-2.2C209.7,178.3,208.8,178,207.8,178z"/>
		<path fill="#4B5056" d="M217.7,190.4v-1.2h6.7v1.2H217.7z"/>
		<path fill="#4B5056" d="M235.3,197.6h-1.4v-15c0-1.4,0.1-2.8,0.2-4.2c-0.1,0.1-0.3,0.3-0.4,0.4c-0.2,0.1-1.6,1.3-4.3,3.4l-0.8-1
			l5.6-4.2h1.2v20.6H235.3z"/>
		<path fill="#4B5056" d="M243.4,190.4v-1.2h6.7v1.2H243.4z"/>
		<path fill="#4B5056" d="M261,197.6h-1.4v-15c0-1.4,0.1-2.8,0.2-4.2c-0.1,0.1-0.3,0.3-0.4,0.4c-0.2,0.1-1.6,1.3-4.3,3.4l-0.8-1
			l5.6-4.2h1.2v20.6H261z"/>
	</g>
</g>
<g>
	<g enable-background="new    ">
		<path fill="#4B5056" d="M152.6,301.6c17.9-18.2,26.9-28.3,26.9-37.8c0-6.8-3.7-12.1-11.9-12.1c-5,0-9.4,3.1-12.7,7.2l-2.5-2.4
			c4.1-4.5,8.9-8,15.5-8c9.7,0,15.4,6.1,15.4,15.3c0,10.8-9.9,21.3-25,37.3c3-0.2,6.2-0.4,9.1-0.4H186v3.4h-33.5L152.6,301.6
			L152.6,301.6z"/>
	</g>
</g>
<g>
	<g>
		<path fill="#4A4F55" d="M144.9,113.1h-14.2V88h14.2v3.5h-10.1v6.8h9.5v3.4h-9.5v7.9h10.1V113.1z"/>
		<path fill="#4A4F55" d="M159.3,93.7c0.8,0,1.5,0.1,2,0.2l-0.4,3.8c-0.6-0.1-1.2-0.2-1.8-0.2c-1.6,0-2.9,0.5-3.9,1.6
			c-1,1.1-1.5,2.4-1.5,4.1v9.9h-4v-19h3.2l0.5,3.4h0.2c0.6-1.1,1.5-2,2.5-2.7C157.1,94.1,158.2,93.7,159.3,93.7z"/>
		<path fill="#4A4F55" d="M164.7,89.1c0-0.7,0.2-1.3,0.6-1.7c0.4-0.4,1-0.6,1.7-0.6c0.7,0,1.3,0.2,1.7,0.6c0.4,0.4,0.6,0.9,0.6,1.7
			c0,0.7-0.2,1.2-0.6,1.6c-0.4,0.4-0.9,0.6-1.7,0.6c-0.7,0-1.3-0.2-1.7-0.6C164.9,90.3,164.7,89.7,164.7,89.1z M169,113.1h-4v-19h4
			V113.1z"/>
		<path fill="#4A4F55" d="M178.5,103.1l2.3-2.9l5.7-6.1h4.7l-7.6,8.2l8.1,10.8h-4.7l-6.1-8.3l-2.2,1.8v6.5h-4V86.4h4v13l-0.2,3.7
			H178.5z"/>
		<path fill="#4A4F55" d="M206.6,113.1l-0.8-2.6h-0.1c-0.9,1.2-1.8,1.9-2.8,2.4c-0.9,0.4-2.1,0.6-3.6,0.6c-1.9,0-3.3-0.5-4.4-1.5
			c-1-1-1.6-2.4-1.6-4.3c0-2,0.7-3.4,2.2-4.4s3.7-1.5,6.7-1.6l3.3-0.1v-1c0-1.2-0.3-2.1-0.9-2.7c-0.6-0.6-1.4-0.9-2.6-0.9
			c-1,0-1.9,0.1-2.8,0.4s-1.8,0.6-2.6,1l-1.3-2.9c1-0.5,2.2-0.9,3.4-1.2c1.2-0.3,2.4-0.4,3.5-0.4c2.4,0,4.2,0.5,5.5,1.6
			c1.2,1.1,1.8,2.7,1.8,5v12.8H206.6z M200.6,110.3c1.5,0,2.6-0.4,3.5-1.2c0.9-0.8,1.3-2,1.3-3.4V104l-2.4,0.1
			c-1.9,0.1-3.3,0.4-4.2,1c-0.9,0.6-1.3,1.4-1.3,2.6c0,0.8,0.3,1.5,0.8,2C198.8,110.1,199.6,110.3,200.6,110.3z"/>
		<path fill="#4A4F55" d="M167.8,153.1l-7.3-21h-0.1c0.2,3.1,0.3,6,0.3,8.8v12.2h-3.7V128h5.8l7,20h0.1l7.2-20h5.8v25.1h-4v-12.4
			c0-1.2,0-2.9,0.1-4.9c0.1-2,0.1-3.2,0.2-3.6h-0.1l-7.5,21H167.8z"/>
	</g>
</g>
</svg>
