<?xml version="1.0" encoding="utf-8"?>
<!-- Generator: Adobe Illustrator 18.0.0, SVG Export Plug-In . SVG Version: 6.00 Build 0)  -->
<!DOCTYPE svg PUBLIC "-//W3C//DTD SVG 1.1//EN" "http://www.w3.org/Graphics/SVG/1.1/DTD/svg11.dtd">
<svg version="1.1" id="Layer_1" xmlns="http://www.w3.org/2000/svg" xmlns:xlink="http://www.w3.org/1999/xlink" x="0px" y="0px"
	 viewBox="0 0 128 128" enable-background="new 0 0 128 128" xml:space="preserve">
<path fill-rule="evenodd" clip-rule="evenodd" fill="#285884" d="M120,128H8c-4.4,0-8-3.6-8-8V8c0-4.4,3.6-8,8-8h112
	c4.4,0,8,3.6,8,8v112C128,124.4,124.4,128,120,128z"/>
<g>
	<path fill="#FFFFFF" d="M49.4,66.7c-2.4,0-4.6-0.7-6.4-1.8c-2.3,0.7-4.8,1.8-6.9,3.9c-3.8,3.9-4,8.2-4,8.2s2.4,2.9,8.8,4.4
		c0.7-2.8,2.5-7.1,6.4-11.1c1.3-1.3,2.7-2.6,4.1-3.7C50.7,66.6,50,66.7,49.4,66.7z"/>
	<path fill="#FFFFFF" d="M51.7,50.5c0-1.6,0.2-3.1,0.6-4.6c-0.9-0.3-1.9-0.5-2.9-0.5c-4.9,0-8.9,4-8.9,8.9s4,8.9,8.9,8.9
		c2.2,0,4.2-0.8,5.8-2.1C53,58.2,51.7,54.5,51.7,50.5z"/>
	<path fill="#FFFFFF" d="M89.9,72c-3.1-3.2-6.8-4.9-10.3-5.9c-2.8,1.7-6.1,2.8-9.6,2.8s-6.8-1-9.6-2.8c-3.4,1-7.2,2.7-10.3,5.9
		c-5.6,5.8-6,12.3-6,12.3s6.5,7.9,25.9,7.9S96,84.3,96,84.3S95.6,77.8,89.9,72z"/>
	<circle fill="#FFFFFF" cx="70" cy="50.5" r="14.7"/>
</g>
</svg>
