<?xml version="1.0" encoding="utf-8"?>
<!-- Generator: Adobe Illustrator 18.0.0, SVG Export Plug-In . SVG Version: 6.00 Build 0)  -->
<!DOCTYPE svg PUBLIC "-//W3C//DTD SVG 1.1//EN" "http://www.w3.org/Graphics/SVG/1.1/DTD/svg11.dtd">
<svg version="1.1" id="Layer_1" xmlns="http://www.w3.org/2000/svg" xmlns:xlink="http://www.w3.org/1999/xlink" x="0px" y="0px"
	 viewBox="0 0 1363 189" enable-background="new 0 0 1363 189" xml:space="preserve">
<g>
	<g>
		<path fill="#4A4F55" d="M485.1,102h16.8v23c-2.8,0.9-5.4,1.5-7.9,1.9c-2.5,0.4-5.3,0.6-8.2,0.6c-6.9,0-12.3-2-16-6.1
			c-3.8-4.1-5.6-9.9-5.6-17.3c0-7.4,2.1-13.1,6.4-17.3c4.2-4.2,10.1-6.2,17.5-6.2c4.8,0,9.3,0.9,13.6,2.8l-2.6,6.2
			c-3.7-1.7-7.4-2.6-11.1-2.6c-4.9,0-8.7,1.5-11.6,4.6c-2.8,3.1-4.3,7.3-4.3,12.6c0,5.6,1.3,9.8,3.8,12.8c2.6,2.9,6.2,4.4,11,4.4
			c2.4,0,5-0.3,7.8-0.9v-11.8h-9.5V102z"/>
		<path fill="#4A4F55" d="M526.8,127.5c-5.4,0-9.6-1.6-12.6-4.7c-3-3.1-4.6-7.5-4.6-13c0-5.7,1.4-10.1,4.2-13.3
			c2.8-3.2,6.7-4.8,11.6-4.8c4.6,0,8.2,1.4,10.8,4.2c2.6,2.8,4,6.6,4,11.5v4h-23.1c0.1,3.4,1,5.9,2.7,7.7c1.7,1.8,4.1,2.7,7.2,2.7
			c2,0,3.9-0.2,5.7-0.6c1.8-0.4,3.7-1,5.7-1.9v6c-1.8,0.9-3.6,1.5-5.4,1.8S529.1,127.5,526.8,127.5z M525.4,97.2
			c-2.3,0-4.2,0.7-5.6,2.2c-1.4,1.5-2.2,3.6-2.5,6.5H533c0-2.9-0.7-5-2.1-6.5C529.6,97.9,527.8,97.2,525.4,97.2z"/>
		<path fill="#4A4F55" d="M565.7,91.6c1.5,0,2.7,0.1,3.7,0.3l-0.7,6.9c-1-0.3-2.1-0.4-3.3-0.4c-2.9,0-5.3,1-7.1,2.9
			c-1.8,1.9-2.7,4.4-2.7,7.5v18.1h-7.4V92.2h5.8l1,6.1h0.4c1.1-2.1,2.6-3.7,4.5-4.9C561.6,92.2,563.6,91.6,565.7,91.6z"/>
		<path fill="#4A4F55" d="M574.8,83.1c0-1.3,0.4-2.3,1.1-3c0.7-0.7,1.7-1.1,3.1-1.1c1.3,0,2.3,0.4,3,1.1c0.7,0.7,1.1,1.7,1.1,3
			c0,1.3-0.4,2.2-1.1,3s-1.7,1.1-3,1.1c-1.3,0-2.4-0.4-3.1-1.1S574.8,84.3,574.8,83.1z M582.6,126.8h-7.4V92.2h7.4V126.8z"/>
		<path fill="#4A4F55" d="M638.2,114.4c0,4.1-1.5,7.3-4.4,9.6c-2.9,2.3-7,3.5-12.2,3.5c-5.2,0-9.4-0.8-12.7-2.4V118
			c2.1,1,4.3,1.8,6.6,2.3s4.5,0.8,6.6,0.8c3,0,5.1-0.6,6.6-1.7c1.4-1.1,2.1-2.6,2.1-4.5c0-1.7-0.6-3.2-1.9-4.3c-1.3-1.2-4-2.6-8-4.2
			c-4.2-1.7-7.1-3.6-8.8-5.8c-1.7-2.2-2.6-4.8-2.6-7.8c0-3.8,1.4-6.8,4.1-9c2.7-2.2,6.4-3.3,10.9-3.3c4.4,0,8.7,1,13.1,2.9l-2.4,6.1
			c-4.1-1.7-7.7-2.6-10.9-2.6c-2.4,0-4.3,0.5-5.5,1.6c-1.3,1.1-1.9,2.4-1.9,4.2c0,1.2,0.3,2.2,0.8,3.1s1.3,1.6,2.5,2.4
			c1.1,0.8,3.2,1.7,6.2,3c3.4,1.4,5.8,2.7,7.4,3.9s2.7,2.6,3.4,4.1C637.8,110.5,638.2,112.3,638.2,114.4z"/>
		<path fill="#4A4F55" d="M644.9,83.1c0-1.3,0.4-2.3,1.1-3c0.7-0.7,1.7-1.1,3.1-1.1c1.3,0,2.3,0.4,3,1.1c0.7,0.7,1.1,1.7,1.1,3
			c0,1.3-0.4,2.2-1.1,3s-1.7,1.1-3,1.1c-1.3,0-2.4-0.4-3.1-1.1S644.9,84.3,644.9,83.1z M652.7,126.8h-7.4V92.2h7.4V126.8z"/>
		<path fill="#4A4F55" d="M691.5,126.8h-7.4v-21.3c0-2.6-0.5-4.6-1.5-5.9c-1-1.3-2.6-2-4.7-2c-2.8,0-4.9,0.9-6.2,2.8
			c-1.3,1.8-2,4.9-2,9.2v17.2h-7.4V92.2h5.8l1,4.5h0.4c1-1.6,2.4-2.9,4.2-3.8c1.8-0.9,3.8-1.3,6-1.3c5.3,0,8.8,1.8,10.6,5.4h0.5
			c1-1.7,2.5-3,4.3-4c1.9-1,4-1.4,6.4-1.4c4.1,0,7.1,1,9,3.1c1.9,2.1,2.8,5.3,2.8,9.5v22.6H706v-21.3c0-2.6-0.5-4.6-1.5-5.9
			s-2.6-2-4.7-2c-2.9,0-4.9,0.9-6.3,2.7s-2,4.5-2,8.2V126.8z"/>
		<path fill="#4A4F55" d="M747.1,126.8l-1-4.5h-0.4c-1,1.6-2.5,2.9-4.4,3.8c-1.9,0.9-4,1.4-6.5,1.4c-4.2,0-7.3-1-9.4-3.1
			c-2.1-2.1-3.1-5.2-3.1-9.5V92.2h7.4v21.3c0,2.6,0.5,4.6,1.6,6c1.1,1.3,2.8,2,5.1,2c3.1,0,5.4-0.9,6.8-2.8c1.4-1.8,2.2-4.9,2.2-9.3
			V92.2h7.4v34.6H747.1z"/>
		<path fill="#4A4F55" d="M769.8,126.8h-7.4V78.1h7.4V126.8z"/>
		<path fill="#4A4F55" d="M801.1,126.8l-1.5-4.8h-0.3c-1.7,2.1-3.3,3.5-5,4.3c-1.7,0.8-3.9,1.1-6.5,1.1c-3.4,0-6.1-0.9-8-2.8
			c-1.9-1.8-2.9-4.4-2.9-7.8c0-3.6,1.3-6.3,4-8.1c2.6-1.8,6.7-2.8,12.1-3l6-0.2v-1.8c0-2.2-0.5-3.9-1.5-5c-1-1.1-2.6-1.6-4.8-1.6
			c-1.8,0-3.5,0.3-5.1,0.8s-3.2,1.1-4.7,1.8l-2.4-5.3c1.9-1,3.9-1.7,6.2-2.2c2.2-0.5,4.3-0.8,6.3-0.8c4.4,0,7.7,1,10,2.9
			c2.2,1.9,3.4,4.9,3.4,9v23.3H801.1z M790.2,121.8c2.7,0,4.8-0.7,6.4-2.2s2.4-3.6,2.4-6.3v-3l-4.4,0.2c-3.5,0.1-6,0.7-7.6,1.7
			s-2.4,2.6-2.4,4.7c0,1.5,0.5,2.7,1.4,3.6S788.4,121.8,790.2,121.8z"/>
		<path fill="#4A4F55" d="M828.8,121.5c1.8,0,3.6-0.3,5.4-0.8v5.5c-0.8,0.4-1.9,0.7-3.1,0.9c-1.3,0.2-2.6,0.4-4,0.4
			c-7,0-10.5-3.7-10.5-11V97.8h-4.7v-3.3l5.1-2.7l2.5-7.3h4.5v7.7h9.9v5.6h-9.9v18.5c0,1.8,0.4,3.1,1.3,3.9S827.3,121.5,828.8,121.5
			z"/>
		<path fill="#4A4F55" d="M870.8,109.5c0,5.7-1.4,10.1-4.3,13.2c-2.9,3.2-6.9,4.8-12.1,4.8c-3.2,0-6.1-0.7-8.6-2.2
			c-2.5-1.5-4.4-3.6-5.7-6.3c-1.3-2.7-2-5.9-2-9.5c0-5.6,1.4-10,4.3-13.1c2.9-3.1,6.9-4.7,12.2-4.7c5,0,9,1.6,11.9,4.8
			C869.3,99.7,870.8,104,870.8,109.5z M845.6,109.5c0,8,3,12,8.9,12c5.8,0,8.8-4,8.8-12c0-7.9-2.9-11.9-8.8-11.9
			c-3.1,0-5.3,1-6.7,3.1C846.3,102.7,845.6,105.6,845.6,109.5z"/>
		<path fill="#4A4F55" d="M896.1,91.6c1.5,0,2.7,0.1,3.7,0.3l-0.7,6.9c-1-0.3-2.1-0.4-3.3-0.4c-2.9,0-5.3,1-7.1,2.9
			s-2.7,4.4-2.7,7.5v18.1h-7.4V92.2h5.8l1,6.1h0.4c1.1-2.1,2.6-3.7,4.5-4.9C892,92.2,894,91.6,896.1,91.6z"/>
	</g>
</g>
</svg>
