<?xml version="1.0" encoding="utf-8"?>
<!-- Generator: Adobe Illustrator 18.0.0, SVG Export Plug-In . SVG Version: 6.00 Build 0)  -->
<!DOCTYPE svg PUBLIC "-//W3C//DTD SVG 1.1//EN" "http://www.w3.org/Graphics/SVG/1.1/DTD/svg11.dtd">
<svg version="1.1" id="Layer_1" xmlns="http://www.w3.org/2000/svg" xmlns:xlink="http://www.w3.org/1999/xlink" x="0px" y="0px"
	 viewBox="0 0 2048 1536" enable-background="new 0 0 2048 1536" xml:space="preserve">
<rect id="Vid_x5F_1_9_" y="84.3" fill="#F2F2F2" width="2048" height="1367.3"/>
<g>
	<g enable-background="new    ">
		<path fill="#4A4F55" d="M848.1,682.6v-17.2h55.5v17.2H848.1z"/>
		<path fill="#4A4F55" d="M922.5,682.6v-17.2H978v17.2H922.5z"/>
		<path fill="#4A4F55" d="M1004.6,624.3c0-10.2,4.4-15.2,13.3-15.2c9.3,0,13.9,5.1,13.9,15.2c0,4.9-1.2,8.7-3.7,11.3
			c-2.5,2.6-5.9,4-10.2,4c-3.8,0-7-1.2-9.5-3.6C1005.9,633.6,1004.6,629.7,1004.6,624.3z M1004.6,724c0-5,1.1-8.9,3.4-11.5
			c2.3-2.6,5.6-3.9,9.9-3.9c4.4,0,7.8,1.3,10.2,3.9c2.4,2.6,3.7,6.4,3.7,11.5c0,4.9-1.2,8.7-3.7,11.3c-2.5,2.6-5.9,4-10.2,4
			c-3.8,0-7-1.2-9.5-3.6C1005.9,733.4,1004.6,729.5,1004.6,724z"/>
		<path fill="#4A4F55" d="M1058.5,682.6v-17.2h55.5v17.2H1058.5z"/>
		<path fill="#4A4F55" d="M1132.9,682.6v-17.2h55.5v17.2H1132.9z"/>
	</g>
</g>
</svg>
