<?xml version="1.0" encoding="utf-8"?>
<!-- Generator: Adobe Illustrator 18.0.0, SVG Export Plug-In . SVG Version: 6.00 Build 0)  -->
<!DOCTYPE svg PUBLIC "-//W3C//DTD SVG 1.1//EN" "http://www.w3.org/Graphics/SVG/1.1/DTD/svg11.dtd">
<svg version="1.1" id="Layer_1" xmlns="http://www.w3.org/2000/svg" xmlns:xlink="http://www.w3.org/1999/xlink" x="0px" y="0px"
	 viewBox="0 1536 340 227" enable-background="new 0 1536 340 227" xml:space="preserve">
<rect id="Vid_x5F_1_4_" y="1536" fill="#F2F2F2" width="340" height="227"/>
<g>
	<g>
		<path fill="#4A4F55" d="M131.4,1658.8c2.9,0,5.2,0.7,6.8,2.1s2.5,3.4,2.5,5.9c0,2.8-0.9,5.1-2.7,6.7s-4.3,2.4-7.5,2.4
			c-3.1,0-5.4-0.5-7.1-1.5v-3c0.9,0.6,2,1,3.3,1.3c1.3,0.3,2.6,0.5,3.8,0.5c2.2,0,3.9-0.5,5.1-1.6c1.2-1,1.8-2.5,1.8-4.5
			c0-3.8-2.3-5.7-7-5.7c-1.2,0-2.8,0.2-4.8,0.5l-1.6-1l1-12.8h13.6v2.9h-11l-0.7,8.2C128.5,1658.9,129.9,1658.8,131.4,1658.8z"/>
		<path fill="#4A4F55" d="M163.1,1661.8c0,4.7-0.7,8.3-2.2,10.6c-1.5,2.3-3.8,3.5-6.9,3.5c-3,0-5.2-1.2-6.7-3.6s-2.3-5.9-2.3-10.5
			c0-4.8,0.7-8.3,2.2-10.6c1.5-2.3,3.8-3.5,6.8-3.5c3,0,5.2,1.2,6.8,3.6C162.4,1653.7,163.1,1657.2,163.1,1661.8z M148.1,1661.8
			c0,4,0.5,6.9,1.4,8.7c0.9,1.8,2.4,2.7,4.5,2.7c2.1,0,3.6-0.9,4.5-2.8c0.9-1.8,1.4-4.7,1.4-8.7s-0.5-6.8-1.4-8.7
			c-0.9-1.8-2.4-2.7-4.5-2.7c-2.1,0-3.5,0.9-4.5,2.7C148.6,1654.9,148.1,1657.8,148.1,1661.8z"/>
		<path fill="#4A4F55" d="M167.8,1657c0-1.7,0.7-2.5,2.2-2.5c1.5,0,2.3,0.8,2.3,2.5c0,0.8-0.2,1.4-0.6,1.9s-1,0.7-1.7,0.7
			c-0.6,0-1.2-0.2-1.6-0.6C168,1658.5,167.8,1657.9,167.8,1657z M167.8,1673.5c0-0.8,0.2-1.5,0.6-1.9s0.9-0.6,1.6-0.6
			c0.7,0,1.3,0.2,1.7,0.6s0.6,1.1,0.6,1.9c0,0.8-0.2,1.4-0.6,1.9s-1,0.7-1.7,0.7c-0.6,0-1.2-0.2-1.6-0.6S167.8,1674.4,167.8,1673.5z
			"/>
		<path fill="#4A4F55" d="M194.1,1654.5c0,1.8-0.5,3.2-1.5,4.3c-1,1.1-2.4,1.9-4.2,2.2v0.2c2.2,0.3,3.8,1,4.9,2.1s1.6,2.6,1.6,4.4
			c0,2.6-0.9,4.6-2.7,6s-4.4,2.1-7.7,2.1c-1.5,0-2.8-0.1-4-0.3c-1.2-0.2-2.4-0.6-3.5-1.2v-3c1.2,0.6,2.5,1,3.8,1.3
			c1.3,0.3,2.6,0.5,3.8,0.5c4.7,0,7.1-1.9,7.1-5.6c0-3.3-2.6-5-7.8-5h-2.7v-2.7h2.7c2.1,0,3.8-0.5,5.1-1.4c1.2-0.9,1.9-2.3,1.9-3.9
			c0-1.3-0.5-2.4-1.4-3.2c-0.9-0.8-2.2-1.1-3.7-1.1c-1.2,0-2.3,0.2-3.4,0.5s-2.3,0.9-3.6,1.8l-1.6-2.1c1.1-0.9,2.4-1.6,3.9-2.1
			c1.5-0.5,3-0.8,4.6-0.8c2.7,0,4.7,0.6,6.2,1.8S194.1,1652.4,194.1,1654.5z"/>
		<path fill="#4A4F55" d="M207.3,1658.8c2.9,0,5.2,0.7,6.8,2.1s2.5,3.4,2.5,5.9c0,2.8-0.9,5.1-2.7,6.7s-4.3,2.4-7.5,2.4
			c-3.1,0-5.4-0.5-7.1-1.5v-3c0.9,0.6,2,1,3.3,1.3c1.3,0.3,2.6,0.5,3.8,0.5c2.2,0,3.9-0.5,5.1-1.6c1.2-1,1.8-2.5,1.8-4.5
			c0-3.8-2.3-5.7-7-5.7c-1.2,0-2.8,0.2-4.8,0.5l-1.6-1l1-12.8h13.6v2.9h-11l-0.7,8.2C204.4,1658.9,205.9,1658.8,207.3,1658.8z"/>
	</g>
</g>
<g>
	<g>
		<g>
			<path fill-rule="evenodd" clip-rule="evenodd" fill="#F2F2F2" d="M174.5,1579h-36c-2.1,0-3.9,1.8-3.9,4.1v30.2
				c0,2.2,1.7,4.1,3.9,4.1h36c2.2,0,3.9-1.8,3.9-4.1V1583C178.4,1580.8,176.6,1579,174.5,1579z M204.3,1580.9
				c-0.3,0-0.5,0.1-0.7,0.2c0,0-19.8,10-19.8,10v13.9c0,0,19.8,10,19.8,10c0.2,0.1,0.4,0.2,0.7,0.2c0.8,0,1.4-0.6,1.4-1.4v-31.6
				C205.7,1581.5,205.1,1580.9,204.3,1580.9z"/>
		</g>
		<g>
			<path fill="#4A4F55" d="M174.5,1618h-36c-2.6,0-4.7-2.2-4.7-4.9V1583c0-2.7,2.1-4.9,4.7-4.9h36c2.6,0,4.7,2.2,4.7,4.9v30.2
				C179.2,1615.9,177.1,1618,174.5,1618z M138.5,1579.8c-1.7,0-3.1,1.5-3.1,3.3v30.2c0,1.8,1.4,3.3,3.1,3.3h36
				c1.7,0,3.1-1.5,3.1-3.3V1583c0-1.8-1.4-3.3-3.1-3.3H138.5z M204.3,1616.1c-0.4,0-0.8-0.1-1.1-0.4l0,0c-1-0.5-4.7-2.4-19.7-10
				l-0.4-0.2v-14.9l0.4-0.2c15-7.6,18.7-9.5,19.7-10l0,0c1.5-1,3.3,0.2,3.3,1.9v31.6C206.5,1615.1,205.5,1616.1,204.3,1616.1z
				 M203.8,1614.3L203.8,1614.3l0.2,0.1c0.1,0.1,0.2,0.1,0.3,0.1c0.3,0,0.6-0.3,0.6-0.6v-31.6c0-0.3-0.3-0.6-0.6-0.6
				c0,0-0.1,0-0.3,0.1l-0.2,0.1c-1.7,0.9-16.4,8.3-19.1,9.7v12.9C187.4,1606,202.1,1613.4,203.8,1614.3z"/>
		</g>
	</g>
	<g>
		<circle fill-rule="evenodd" clip-rule="evenodd" fill="#EC1C24" cx="156.5" cy="1598.1" r="8.2"/>
		<path fill="#EC1C24" d="M156.5,1607.9c-5.4,0-9.8-4.4-9.8-9.8s4.4-9.8,9.8-9.8c5.4,0,9.8,4.4,9.8,9.8S161.9,1607.9,156.5,1607.9z
			 M156.5,1591.5c-3.6,0-6.6,3-6.6,6.6s3,6.6,6.6,6.6s6.6-3,6.6-6.6S160.1,1591.5,156.5,1591.5z"/>
	</g>
</g>
</svg>
