<?xml version="1.0" encoding="utf-8"?>
<!-- Generator: Adobe Illustrator 18.0.0, SVG Export Plug-In . SVG Version: 6.00 Build 0)  -->
<!DOCTYPE svg PUBLIC "-//W3C//DTD SVG 1.1//EN" "http://www.w3.org/Graphics/SVG/1.1/DTD/svg11.dtd">
<svg version="1.1" id="Layer_1" xmlns="http://www.w3.org/2000/svg" xmlns:xlink="http://www.w3.org/1999/xlink" x="0px" y="0px"
	 viewBox="0 0 340 227" enable-background="new 0 0 340 227" xml:space="preserve">
<rect id="Vid_x5F_1_4_" fill="#F2F2F2" width="340" height="227"/>
<g>
	<g>
		<g>
			<path fill="#F2F2F2" d="M174.5,43h-36c-2.1,0-3.9,1.8-3.9,4.1v30.2c0,2.2,1.7,4.1,3.9,4.1h36c2.2,0,3.9-1.8,3.9-4.1V47
				C178.4,44.8,176.6,43,174.5,43z M204.3,44.9c-0.3,0-0.5,0.1-0.7,0.2l-19.8,10V69l19.8,10c0.2,0.1,0.4,0.2,0.7,0.2
				c0.8,0,1.4-0.6,1.4-1.4V46.2C205.7,45.5,205.1,44.9,204.3,44.9z"/>
		</g>
		<g>
			<path fill="#4A4F55" d="M174.5,82h-36c-2.6,0-4.7-2.2-4.7-4.9V47c0-2.7,2.1-4.9,4.7-4.9h36c2.6,0,4.7,2.2,4.7,4.9v30.2
				C179.2,79.9,177.1,82,174.5,82z M138.5,43.8c-1.7,0-3.1,1.5-3.1,3.3v30.2c0,1.8,1.4,3.3,3.1,3.3h36c1.7,0,3.1-1.5,3.1-3.3V47
				c0-1.8-1.4-3.3-3.1-3.3h-36V43.8z M204.3,80.1c-0.4,0-0.8-0.1-1.1-0.4l0,0c-1-0.5-4.7-2.4-19.7-10l-0.4-0.2V54.6l0.4-0.2
				c15-7.6,18.7-9.5,19.7-10l0,0c1.5-1,3.3,0.2,3.3,1.9v31.6C206.5,79.1,205.5,80.1,204.3,80.1z M203.8,78.3L203.8,78.3l0.2,0.1
				c0.1,0.1,0.2,0.1,0.3,0.1c0.3,0,0.6-0.3,0.6-0.6V46.3c0-0.3-0.3-0.6-0.6-0.6c0,0-0.1,0-0.3,0.1l-0.2,0.1
				c-1.7,0.9-16.4,8.3-19.1,9.7v12.9C187.4,70,202.1,77.4,203.8,78.3z"/>
		</g>
	</g>
	<g>
		<circle fill="#EC1C24" cx="156.5" cy="62.1" r="8.2"/>
		<path fill="#EC1C24" d="M156.5,71.9c-5.4,0-9.8-4.4-9.8-9.8s4.4-9.8,9.8-9.8c5.4,0,9.8,4.4,9.8,9.8S161.9,71.9,156.5,71.9z
			 M156.5,55.5c-3.6,0-6.6,3-6.6,6.6s3,6.6,6.6,6.6s6.6-3,6.6-6.6S160.1,55.5,156.5,55.5z"/>
	</g>
</g>
<g>
	<g>
		<path fill="#4A4F55" d="M126.5,139.5h-3V120c0-1.6,0-3.2,0.1-4.6c-0.3,0.3-0.6,0.5-0.9,0.8c-0.3,0.3-1.8,1.5-4.5,3.7l-1.6-2.1
			l7.3-5.6h2.6V139.5z"/>
		<path fill="#4A4F55" d="M144.6,139.5h-3V120c0-1.6,0-3.2,0.1-4.6c-0.3,0.3-0.6,0.5-0.9,0.8c-0.3,0.3-1.8,1.5-4.5,3.7l-1.6-2.1
			l7.3-5.6h2.6V139.5z"/>
		<path fill="#4A4F55" d="M153,127.8c0-5.4,1-9.4,3.1-12.1c2.1-2.7,5.2-4,9.3-4c1.4,0,2.5,0.1,3.3,0.4v2.7c-1-0.3-2.1-0.5-3.3-0.5
			c-2.9,0-5.2,0.9-6.7,2.7s-2.4,4.7-2.5,8.6h0.2c1.4-2.1,3.5-3.2,6.5-3.2c2.5,0,4.4,0.7,5.8,2.2c1.4,1.5,2.1,3.5,2.1,6.1
			c0,2.9-0.8,5.1-2.3,6.7c-1.6,1.6-3.7,2.4-6.3,2.4c-2.8,0-5.1-1.1-6.8-3.2C153.8,134.6,153,131.6,153,127.8z M162.2,137.2
			c1.8,0,3.2-0.6,4.1-1.7c1-1.1,1.5-2.7,1.5-4.8c0-1.8-0.5-3.2-1.4-4.3c-0.9-1-2.3-1.6-4.1-1.6c-1.1,0-2.2,0.2-3.1,0.7
			c-0.9,0.5-1.7,1.1-2.2,1.9c-0.6,0.8-0.8,1.7-0.8,2.5c0,1.3,0.3,2.5,0.8,3.6c0.5,1.1,1.2,2,2.1,2.6
			C159.9,136.9,161,137.2,162.2,137.2z"/>
		<path fill="#4A4F55" d="M175,121c0-1.7,0.7-2.5,2.2-2.5c1.5,0,2.3,0.8,2.3,2.5c0,0.8-0.2,1.4-0.6,1.9c-0.4,0.4-1,0.7-1.7,0.7
			c-0.6,0-1.2-0.2-1.6-0.6C175.2,122.5,175,121.9,175,121z M175,137.5c0-0.8,0.2-1.5,0.6-1.9c0.4-0.4,0.9-0.6,1.6-0.6
			c0.7,0,1.3,0.2,1.7,0.6s0.6,1.1,0.6,1.9c0,0.8-0.2,1.4-0.6,1.9c-0.4,0.4-1,0.7-1.7,0.7c-0.6,0-1.2-0.2-1.6-0.6
			S175,138.4,175,137.5z"/>
		<path fill="#4A4F55" d="M202.9,133.2h-4.1v6.3h-3v-6.3h-13.3v-2.7l13-18.5h3.3v18.4h4.1V133.2z M195.8,130.4v-9.1
			c0-1.8,0.1-3.8,0.2-6.1h-0.2c-0.6,1.2-1.2,2.2-1.7,3l-8.6,12.2H195.8z"/>
		<path fill="#4A4F55" d="M224.6,125.8c0,4.7-0.7,8.3-2.2,10.6c-1.5,2.3-3.8,3.5-6.9,3.5c-3,0-5.2-1.2-6.7-3.6
			c-1.5-2.4-2.3-5.9-2.3-10.5c0-4.8,0.7-8.3,2.2-10.6c1.5-2.3,3.8-3.5,6.8-3.5c3,0,5.2,1.2,6.8,3.6
			C223.8,117.7,224.6,121.2,224.6,125.8z M209.6,125.8c0,4,0.5,6.9,1.4,8.7c0.9,1.8,2.4,2.7,4.5,2.7c2.1,0,3.6-0.9,4.5-2.8
			c0.9-1.8,1.4-4.7,1.4-8.7s-0.5-6.8-1.4-8.7c-0.9-1.8-2.4-2.7-4.5-2.7c-2,0-3.5,0.9-4.5,2.7C210.1,118.9,209.6,121.8,209.6,125.8z"
			/>
	</g>
</g>
</svg>
