<?xml version="1.0" encoding="utf-8"?>
<!-- Generator: Adobe Illustrator 18.0.0, SVG Export Plug-In . SVG Version: 6.00 Build 0)  -->
<!DOCTYPE svg PUBLIC "-//W3C//DTD SVG 1.1//EN" "http://www.w3.org/Graphics/SVG/1.1/DTD/svg11.dtd">
<svg version="1.1" id="Layer_1" xmlns="http://www.w3.org/2000/svg" xmlns:xlink="http://www.w3.org/1999/xlink" x="0px" y="0px"
	 viewBox="0 1536 340 336" enable-background="new 0 1536 340 336" xml:space="preserve">
<rect id="Whl_x5F_1_7_" y="1536" fill="#F2F2F2" width="340" height="336"/>
<g>
	<g>
		
			<image overflow="visible" opacity="0.3" width="318" height="318" xlink:href="18846791.png"  transform="matrix(1 0 0 1 11 1552)">
		</image>
		<g>
			<g>
				<circle fill-rule="evenodd" clip-rule="evenodd" fill="#FFFFFF" cx="170" cy="1708" r="152"/>
			</g>
			<g>
				<circle fill="none" stroke="#B3B2B3" stroke-miterlimit="10" cx="170" cy="1708" r="152"/>
			</g>
		</g>
	</g>
	<path fill-rule="evenodd" clip-rule="evenodd" fill="#DDE0E2" stroke="#B3B2B3" stroke-miterlimit="10" d="M290.1,1687
		c11.6,0,21,9.4,21,21c0,11.6-9.4,21-21,21c-11.6,0-21-9.4-21-21C269.1,1696.4,278.5,1687,290.1,1687z"/>
	<path fill-rule="evenodd" clip-rule="evenodd" fill="#DDE0E2" stroke="#B3B2B3" stroke-miterlimit="10" d="M49.9,1687
		c11.6,0,21,9.4,21,21c0,11.6-9.4,21-21,21c-11.6,0-21-9.4-21-21C28.9,1696.4,38.3,1687,49.9,1687z"/>
	<path fill-rule="evenodd" clip-rule="evenodd" fill="#DDE0E2" stroke="#B3B2B3" stroke-miterlimit="10" d="M170,1807.1
		c11.6,0,21,9.4,21,21c0,11.6-9.4,21-21,21c-11.6,0-21-9.4-21-21C149,1816.5,158.4,1807.1,170,1807.1z"/>
	<path fill-rule="evenodd" clip-rule="evenodd" fill="#DDE0E2" stroke="#B3B2B3" stroke-miterlimit="10" d="M269.8,1778.1
		c8.2,8.2,8.2,21.5,0,29.7c-8.2,8.2-21.5,8.2-29.7,0c-8.2-8.2-8.2-21.5,0-29.7C248.3,1769.9,261.6,1769.9,269.8,1778.1z"/>
	<path fill-rule="evenodd" clip-rule="evenodd" fill="#DDE0E2" stroke="#B3B2B3" stroke-miterlimit="10" d="M99.9,1608.2
		c8.2,8.2,8.2,21.5,0,29.7c-8.2,8.2-21.5,8.2-29.7,0c-8.2-8.2-8.2-21.5,0-29.7C78.4,1600.1,91.7,1600.1,99.9,1608.2z"/>
	<path fill-rule="evenodd" clip-rule="evenodd" fill="#DDE0E2" stroke="#B3B2B3" stroke-miterlimit="10" d="M269.8,1608.2
		c8.2,8.2,8.2,21.5,0,29.7c-8.2,8.2-21.5,8.2-29.7,0c-8.2-8.2-8.2-21.5,0-29.7S261.6,1600.1,269.8,1608.2z"/>
	<path fill-rule="evenodd" clip-rule="evenodd" fill="#DDE0E2" stroke="#B3B2B3" stroke-miterlimit="10" d="M99.9,1778.1
		c8.2,8.2,8.2,21.5,0,29.7c-8.2,8.2-21.5,8.2-29.7,0c-8.2-8.2-8.2-21.5,0-29.7C78.4,1769.9,91.7,1769.9,99.9,1778.1z"/>
	<path fill-rule="evenodd" clip-rule="evenodd" fill="#28BBED" stroke="#B3B2B3" stroke-miterlimit="10" d="M289.2,1733.8
		c10.7,4.4,15.9,16.6,11.5,27.3c-4.4,10.7-16.6,15.9-27.3,11.5c-10.7-4.4-15.9-16.6-11.5-27.3
		C266.2,1734.6,278.4,1729.4,289.2,1733.8z"/>
	<path fill-rule="evenodd" clip-rule="evenodd" fill="#DDE0E2" stroke="#B3B2B3" stroke-miterlimit="10" d="M66.6,1643.4
		c10.7,4.4,15.9,16.6,11.5,27.3c-4.4,10.7-16.6,15.9-27.3,11.5s-15.9-16.6-11.5-27.3C43.6,1644.2,55.9,1639,66.6,1643.4z"/>
	<path fill-rule="evenodd" clip-rule="evenodd" fill="#80C242" stroke="#B3B2B3" stroke-miterlimit="10" d="M223.1,1577.3
		c10.7,4.4,15.9,16.6,11.5,27.3c-4.4,10.7-16.6,15.9-27.3,11.5c-10.7-4.4-15.9-16.6-11.5-27.3
		C200.1,1578.1,212.4,1572.9,223.1,1577.3z"/>
	<path fill-rule="evenodd" clip-rule="evenodd" fill="#0E3451" stroke="#B3B2B3" stroke-miterlimit="10" d="M132.7,1799.9
		c10.7,4.4,15.9,16.6,11.5,27.3c-4.4,10.7-16.6,15.9-27.3,11.5s-15.9-16.6-11.5-27.3C109.7,1800.7,122,1795.5,132.7,1799.9z"/>
	<path fill-rule="evenodd" clip-rule="evenodd" fill="#DDE0E2" stroke="#B3B2B3" stroke-miterlimit="10" d="M236,1810.5
		c4.5,10.7-0.5,23-11.2,27.5c-10.7,4.5-23-0.5-27.5-11.2c-4.5-10.7,0.5-23,11.2-27.5C219.2,1794.8,231.5,1799.8,236,1810.5z"/>
	<path fill-rule="evenodd" clip-rule="evenodd" fill="#DDE0E2" stroke="#B3B2B3" stroke-miterlimit="10" d="M142.6,1589.2
		c4.5,10.7-0.5,23-11.2,27.5c-10.7,4.5-23-0.5-27.5-11.2c-4.5-10.7,0.5-23,11.2-27.5C125.8,1573.5,138.1,1578.5,142.6,1589.2z"/>
	<path fill-rule="evenodd" clip-rule="evenodd" fill="#EC1C24" stroke="#B3B2B3" stroke-miterlimit="10" d="M300,1653.1
		c4.5,10.7-0.5,23-11.2,27.5c-10.7,4.5-23-0.5-27.5-11.2c-4.5-10.7,0.5-23,11.2-27.5C283.2,1637.4,295.5,1642.4,300,1653.1z"/>
	<path fill-rule="evenodd" clip-rule="evenodd" fill="#DDE0E2" stroke="#B3B2B3" stroke-miterlimit="10" d="M78.7,1746.6
		c4.5,10.7-0.5,23-11.2,27.5c-10.7,4.5-23-0.5-27.5-11.2c-4.5-10.7,0.5-23,11.2-27.5S74.2,1735.9,78.7,1746.6z"/>
	<path fill="#FFFFFF" d="M225.5,1586.1c-0.4,0-0.7,0.2-0.9,0.4c0,0-10.6,10.9-13,13.3h0c-0.3,0.3-0.7,0.3-1.1,0.1
		c-1.2-0.9-3.8-2.7-4-2.8c-0.3-0.2-0.6-0.3-1-0.3c-1,0-1.7,0.8-1.7,1.7c0,0.4,0.1,0.7,0.3,1c0,0,4.7,6.6,4.8,6.6
		c0.6,0.8,1.5,1.4,2.6,1.4c1.1,0,2-0.6,2.6-1.4c0,0,12.2-17.8,12.2-17.8c0.2-0.3,0.4-0.5,0.4-0.8
		C226.7,1586.6,226.2,1586.1,225.5,1586.1z"/>
	<g>
		<g>
			<path fill="#FFFFFF" d="M294.5,1759.6l-2.8-1.8l2.2-1.4c0.1-0.1,0.2-0.2,0.3-0.3c0.2-0.4,0.1-0.9-0.3-1.2c-0.2-0.1-0.5-0.1-0.8,0
				l-3.8,1.4l-4.9-3.1l4.9-3.1l3.8,1.4c0.2,0.1,0.5,0.1,0.8,0c0.4-0.2,0.6-0.8,0.3-1.2c-0.1-0.1-0.2-0.2-0.3-0.3l-2.2-1.4l2.8-1.8
				c0.4-0.2,0.6-0.8,0.3-1.2c-0.3-0.4-0.8-0.6-1.3-0.3l-3,1.5l-0.2-2.6c0-0.1,0-0.3-0.1-0.4c-0.2-0.4-0.8-0.5-1.2-0.3
				c-0.2,0.1-0.4,0.4-0.4,0.6l-0.6,3.9l-5.3,2.6l-0.3-5.7l3.2-2.4c0.2-0.2,0.4-0.4,0.4-0.7c0-0.5-0.4-0.9-0.9-0.9
				c-0.2,0-0.3,0.1-0.4,0.1l-2.4,1.2l-0.2-3.2c0-0.5-0.4-0.9-0.9-0.9c-0.5,0-0.9,0.4-0.9,0.9l-0.2,3.2l-2.4-1.2
				c-0.1-0.1-0.3-0.1-0.4-0.1c-0.5,0-0.9,0.4-0.9,0.9c0,0.3,0.1,0.5,0.4,0.7l3.2,2.4l-0.3,5.7l-5.3-2.6l-0.6-3.9
				c0-0.3-0.2-0.5-0.4-0.6c-0.4-0.2-1-0.1-1.2,0.3c-0.1,0.1-0.1,0.3-0.1,0.4l-0.1,2.6l-3-1.5c-0.4-0.2-1-0.1-1.3,0.3
				c-0.3,0.4-0.1,1,0.3,1.2l2.8,1.8l-2.2,1.4c-0.1,0.1-0.2,0.2-0.3,0.3c-0.2,0.4-0.1,0.9,0.3,1.2c0.2,0.1,0.5,0.1,0.8,0l3.8-1.4
				l4.9,3.1l-4.9,3.1l-3.8-1.4c-0.2-0.1-0.5-0.1-0.8,0c-0.4,0.2-0.6,0.8-0.3,1.2c0.1,0.1,0.2,0.2,0.3,0.3l2.2,1.4l-2.8,1.8
				c-0.4,0.2-0.6,0.8-0.3,1.2c0.3,0.4,0.8,0.6,1.3,0.3l3-1.5l0.2,2.6c0,0.1,0,0.3,0.1,0.4c0.2,0.4,0.8,0.5,1.2,0.3
				c0.2-0.1,0.4-0.4,0.4-0.6l0.6-3.9l5.3-2.6l0.3,5.7l-3.2,2.4c-0.2,0.2-0.4,0.4-0.4,0.7c0,0.5,0.4,0.9,0.9,0.9
				c0.2,0,0.3-0.1,0.4-0.1l2.4-1.2l0.2,3.2c0,0.5,0.4,0.9,0.9,0.9c0.5,0,0.9-0.4,0.9-0.9l0.2-3.2l2.4,1.2c0.1,0.1,0.3,0.1,0.4,0.1
				c0.5,0,0.9-0.4,0.9-0.9c0-0.3-0.1-0.5-0.4-0.7l-3.2-2.4l0.3-5.7l5.3,2.6l0.6,3.9c0,0.3,0.2,0.5,0.4,0.6c0.4,0.2,1,0.1,1.2-0.3
				c0.1-0.1,0.1-0.3,0.1-0.4l0.1-2.6l3,1.5c0.4,0.2,1,0.1,1.3-0.3C295.1,1760.4,295,1759.8,294.5,1759.6z"/>
		</g>
	</g>
	<g>
		<path fill-rule="evenodd" clip-rule="evenodd" fill="#28BBED" stroke="#B3B2B3" stroke-miterlimit="10" d="M262.8,1773.5
			c10.7,4.4,15.9,16.6,11.5,27.3c-4.4,10.7-16.6,15.9-27.3,11.5c-10.7-4.4-15.9-16.6-11.5-27.3
			C239.9,1774.3,252.1,1769.1,262.8,1773.5z"/>
		<g>
			<g>
				<path fill="#FFFFFF" d="M268.2,1799.3l-2.8-1.8l2.2-1.4c0.1-0.1,0.2-0.2,0.3-0.3c0.2-0.4,0.1-0.9-0.3-1.2
					c-0.2-0.1-0.5-0.1-0.8,0l-3.8,1.4l-4.9-3.1l4.9-3.1l3.8,1.4c0.2,0.1,0.5,0.1,0.8,0c0.4-0.2,0.6-0.8,0.3-1.2
					c-0.1-0.1-0.2-0.2-0.3-0.3l-2.2-1.4l2.8-1.8c0.4-0.2,0.6-0.8,0.3-1.2c-0.3-0.4-0.8-0.6-1.3-0.3l-3,1.5l-0.2-2.6
					c0-0.1,0-0.3-0.1-0.4c-0.2-0.4-0.8-0.5-1.2-0.3c-0.2,0.1-0.4,0.4-0.4,0.6l-0.6,3.9l-5.3,2.6l-0.3-5.7l3.2-2.4
					c0.2-0.2,0.4-0.4,0.4-0.7c0-0.5-0.4-0.9-0.9-0.9c-0.2,0-0.3,0.1-0.4,0.1l-2.4,1.2l-0.2-3.2c0-0.5-0.4-0.9-0.9-0.9
					c-0.5,0-0.9,0.4-0.9,0.9l-0.2,3.2l-2.4-1.2c-0.1-0.1-0.3-0.1-0.4-0.1c-0.5,0-0.9,0.4-0.9,0.9c0,0.3,0.1,0.5,0.4,0.7l3.2,2.4
					l-0.3,5.7l-5.3-2.6l-0.6-3.9c0-0.3-0.2-0.5-0.4-0.6c-0.4-0.2-1-0.1-1.2,0.3c-0.1,0.1-0.1,0.3-0.1,0.4l-0.1,2.6l-3-1.5
					c-0.4-0.2-1-0.1-1.3,0.3c-0.3,0.4-0.1,1,0.3,1.2l2.8,1.8l-2.2,1.4c-0.1,0.1-0.2,0.2-0.3,0.3c-0.2,0.4-0.1,0.9,0.3,1.2
					c0.2,0.1,0.5,0.1,0.8,0l3.8-1.4l4.9,3.1l-4.9,3.1l-3.8-1.4c-0.2-0.1-0.5-0.1-0.8,0c-0.4,0.2-0.6,0.8-0.3,1.2
					c0.1,0.1,0.2,0.2,0.3,0.3l2.2,1.4l-2.8,1.8c-0.4,0.2-0.6,0.8-0.3,1.2c0.3,0.4,0.8,0.6,1.3,0.3l3-1.5l0.2,2.6
					c0,0.1,0,0.3,0.1,0.4c0.2,0.4,0.8,0.5,1.2,0.3c0.2-0.1,0.4-0.4,0.4-0.6l0.6-3.9l5.3-2.6l0.3,5.7l-3.2,2.4
					c-0.2,0.2-0.4,0.4-0.4,0.7c0,0.5,0.4,0.9,0.9,0.9c0.2,0,0.3-0.1,0.4-0.1l2.4-1.2l0.2,3.2c0,0.5,0.4,0.9,0.9,0.9
					c0.5,0,0.9-0.4,0.9-0.9l0.2-3.2l2.4,1.2c0.1,0.1,0.3,0.1,0.4,0.1c0.5,0,0.9-0.4,0.9-0.9c0-0.3-0.1-0.5-0.4-0.7l-3.2-2.4l0.3-5.7
					l5.3,2.6l0.6,3.9c0,0.3,0.2,0.5,0.4,0.6c0.4,0.2,1,0.1,1.2-0.3c0.1-0.1,0.1-0.3,0.1-0.4l0.1-2.6l3,1.5c0.4,0.2,1,0.1,1.3-0.3
					C268.8,1800.1,268.6,1799.6,268.2,1799.3z"/>
			</g>
		</g>
	</g>
	<g>
		<g>
			<path fill-rule="evenodd" clip-rule="evenodd" fill="#28BBED" d="M170,1566.9c11.6,0,21,9.4,21,21c0,11.6-9.4,21-21,21
				c-11.6,0-21-9.4-21-21C149,1576.3,158.4,1566.9,170,1566.9z"/>
			<path fill="#B3B2B3" d="M170,1609.7c-12,0-21.8-9.8-21.8-21.8c0-12,9.8-21.8,21.8-21.8c12,0,21.8,9.8,21.8,21.8
				C191.8,1599.9,182,1609.7,170,1609.7z M170,1567.7c-11.1,0-20.2,9.1-20.2,20.2c0,11.1,9.1,20.2,20.2,20.2
				c11.1,0,20.2-9.1,20.2-20.2C190.2,1576.8,181.1,1567.7,170,1567.7z"/>
		</g>
		<g>
			<path fill="#FFFFFF" d="M183.2,1594.3l-2.8-1.8l2.2-1.4c0.1-0.1,0.2-0.2,0.3-0.3c0.2-0.4,0.1-0.9-0.3-1.2c-0.2-0.1-0.5-0.1-0.8,0
				l-3.8,1.4l-4.9-3.1l4.9-3.1l3.8,1.4c0.2,0.1,0.5,0.1,0.8,0c0.4-0.2,0.6-0.8,0.3-1.2c-0.1-0.1-0.2-0.2-0.3-0.3l-2.2-1.4l2.8-1.8
				c0.4-0.2,0.6-0.8,0.3-1.2c-0.3-0.4-0.8-0.6-1.3-0.3l-3,1.5l-0.2-2.6c0-0.1,0-0.3-0.1-0.4c-0.2-0.4-0.8-0.5-1.2-0.3
				c-0.2,0.1-0.4,0.4-0.4,0.6l-0.6,3.9l-5.3,2.6l-0.3-5.7l3.2-2.4c0.2-0.2,0.4-0.4,0.4-0.7c0-0.5-0.4-0.9-0.9-0.9
				c-0.2,0-0.3,0.1-0.4,0.1l-2.4,1.2l-0.2-3.2c0-0.5-0.4-0.9-0.9-0.9c-0.5,0-0.9,0.4-0.9,0.9l-0.2,3.2l-2.4-1.2
				c-0.1-0.1-0.3-0.1-0.4-0.1c-0.5,0-0.9,0.4-0.9,0.9c0,0.3,0.1,0.5,0.4,0.7l3.2,2.4l-0.3,5.7l-5.3-2.6l-0.6-3.9
				c0-0.3-0.2-0.5-0.4-0.6c-0.4-0.2-1-0.1-1.2,0.3c-0.1,0.1-0.1,0.3-0.1,0.4l-0.1,2.6l-3-1.5c-0.4-0.2-1-0.1-1.3,0.3
				c-0.3,0.4-0.1,1,0.3,1.2l2.8,1.8l-2.2,1.4c-0.1,0.1-0.2,0.2-0.3,0.3c-0.2,0.4-0.1,0.9,0.3,1.2c0.2,0.1,0.5,0.1,0.8,0l3.8-1.4
				l4.9,3.1l-4.9,3.1l-3.8-1.4c-0.2-0.1-0.5-0.1-0.8,0c-0.4,0.2-0.6,0.8-0.3,1.2c0.1,0.1,0.2,0.2,0.3,0.3l2.2,1.4l-2.8,1.8
				c-0.4,0.2-0.6,0.8-0.3,1.2c0.3,0.4,0.8,0.6,1.3,0.3l3-1.5l0.2,2.6c0,0.1,0,0.3,0.1,0.4c0.2,0.4,0.8,0.5,1.2,0.3
				c0.2-0.1,0.4-0.4,0.4-0.6l0.6-3.9l5.3-2.6l0.3,5.7l-3.2,2.4c-0.2,0.2-0.4,0.4-0.4,0.7c0,0.5,0.4,0.9,0.9,0.9
				c0.2,0,0.3-0.1,0.4-0.1l2.4-1.2l0.2,3.2c0,0.5,0.4,0.9,0.9,0.9c0.5,0,0.9-0.4,0.9-0.9l0.2-3.2l2.4,1.2c0.1,0.1,0.3,0.1,0.4,0.1
				c0.5,0,0.9-0.4,0.9-0.9c0-0.3-0.1-0.5-0.4-0.7l-3.2-2.4l0.3-5.7l5.3,2.6l0.6,3.9c0,0.3,0.2,0.5,0.4,0.6c0.4,0.2,1,0.1,1.2-0.3
				c0.1-0.1,0.1-0.3,0.1-0.4l0.1-2.6l3,1.5c0.4,0.2,1,0.1,1.3-0.3C183.8,1595.1,183.7,1594.5,183.2,1594.3z"/>
		</g>
	</g>
	<path fill="#FFFFFF" d="M289.5,1668.2c-0.8-1.2-4.4-5.7-5.2-6.9c0,0,0-0.1-0.1-0.1c0.9-1.1,4.4-5.7,5.2-6.9
		c0.2-0.4,0.4-0.8,0.3-1.3c-0.3-0.9-1.3-1.3-2.1-0.7c-0.1,0.1-0.3,0.2-0.4,0.3c-0.3,0.2-4.8,3.7-6,4.5c-0.2,0.1-0.3,0.3-0.5,0.4
		c-1.1-0.9-5.7-4.4-6.9-5.2c-1.3-0.9-2.9,0.7-1.9,1.9c0.1,0.1,5.1,6.8,5.2,6.9c-0.9,1.1-4.4,5.7-5.2,6.9c-0.2,0.4-0.4,0.8-0.3,1.3
		c0.3,0.9,1.3,1.3,2.1,0.7c0.1-0.1,5.3-4.1,6.5-4.9c0.2-0.1,0.3-0.3,0.5-0.4c1.1,0.9,5.7,4.4,6.9,5.2
		C288.8,1671,290.4,1669.5,289.5,1668.2z"/>
</g>
</svg>
