<?xml version="1.0" encoding="utf-8"?>
<!-- Generator: Adobe Illustrator 18.0.0, SVG Export Plug-In . SVG Version: 6.00 Build 0)  -->
<!DOCTYPE svg PUBLIC "-//W3C//DTD SVG 1.1//EN" "http://www.w3.org/Graphics/SVG/1.1/DTD/svg11.dtd">
<svg version="1.1" id="Layer_1" xmlns="http://www.w3.org/2000/svg" xmlns:xlink="http://www.w3.org/1999/xlink" x="0px" y="0px"
	 viewBox="0 1536 340 336" enable-background="new 0 1536 340 336" xml:space="preserve">
<rect id="Whl_x5F_1_4_" y="1536" fill="#F2F2F2" width="340" height="336"/>
<g>
	<g>
		
			<image overflow="visible" opacity="0.3" width="318" height="318" xlink:href="114F83C6.png"  transform="matrix(1 0 0 1 11 1552)">
		</image>
		<g>
			<g>
				<circle fill-rule="evenodd" clip-rule="evenodd" fill="#FFFFFF" cx="169.9" cy="1708" r="152"/>
			</g>
			<g>
				<circle fill="none" stroke="#B3B2B3" stroke-miterlimit="10" cx="169.9" cy="1708" r="152"/>
			</g>
		</g>
	</g>
	<path fill-rule="evenodd" clip-rule="evenodd" fill="#DDE0E2" stroke="#B3B2B3" stroke-miterlimit="10" d="M290,1687
		c11.6,0,21,9.4,21,21c0,11.6-9.4,21-21,21c-11.6,0-21-9.4-21-21C269,1696.4,278.4,1687,290,1687z"/>
	<path fill-rule="evenodd" clip-rule="evenodd" fill="#DDE0E2" stroke="#B3B2B3" stroke-miterlimit="10" d="M49.8,1687
		c11.6,0,21,9.4,21,21c0,11.6-9.4,21-21,21c-11.6,0-21-9.4-21-21C28.8,1696.4,38.2,1687,49.8,1687z"/>
	<path fill-rule="evenodd" clip-rule="evenodd" fill="#DDE0E2" stroke="#B3B2B3" stroke-miterlimit="10" d="M169.9,1807.1
		c11.6,0,21,9.4,21,21c0,11.6-9.4,21-21,21c-11.6,0-21-9.4-21-21C148.9,1816.5,158.3,1807.1,169.9,1807.1z"/>
	<path fill-rule="evenodd" clip-rule="evenodd" fill="#EC1C24" stroke="#B3B2B3" stroke-miterlimit="10" d="M269.6,1778.1
		c8.2,8.2,8.2,21.5,0,29.7c-8.2,8.2-21.5,8.2-29.7,0c-8.2-8.2-8.2-21.5,0-29.7C248.1,1769.9,261.4,1769.9,269.6,1778.1z"/>
	<path fill-rule="evenodd" clip-rule="evenodd" fill="#DDE0E2" stroke="#B3B2B3" stroke-miterlimit="10" d="M99.8,1608.2
		c8.2,8.2,8.2,21.5,0,29.7c-8.2,8.2-21.5,8.2-29.7,0c-8.2-8.2-8.2-21.5,0-29.7C78.3,1600.1,91.6,1600.1,99.8,1608.2z"/>
	<path fill-rule="evenodd" clip-rule="evenodd" fill="#80C242" stroke="#B3B2B3" stroke-miterlimit="10" d="M269.6,1608.2
		c8.2,8.2,8.2,21.5,0,29.7c-8.2,8.2-21.5,8.2-29.7,0c-8.2-8.2-8.2-21.5,0-29.7S261.4,1600.1,269.6,1608.2z"/>
	<path fill-rule="evenodd" clip-rule="evenodd" fill="#DDE0E2" stroke="#B3B2B3" stroke-miterlimit="10" d="M99.8,1778.1
		c8.2,8.2,8.2,21.5,0,29.7c-8.2,8.2-21.5,8.2-29.7,0c-8.2-8.2-8.2-21.5,0-29.7C78.3,1769.9,91.6,1769.9,99.8,1778.1z"/>
	<path fill-rule="evenodd" clip-rule="evenodd" fill="#28BBED" stroke="#B3B2B3" stroke-miterlimit="10" d="M289,1733.8
		c10.7,4.4,15.9,16.6,11.5,27.3c-4.4,10.7-16.6,15.9-27.3,11.5c-10.7-4.4-15.9-16.6-11.5-27.3C266.1,1734.6,278.3,1729.4,289,1733.8
		z"/>
	<path fill-rule="evenodd" clip-rule="evenodd" fill="#DDE0E2" stroke="#B3B2B3" stroke-miterlimit="10" d="M66.5,1643.4
		c10.7,4.4,15.9,16.6,11.5,27.3c-4.4,10.7-16.6,15.9-27.3,11.5s-15.9-16.6-11.5-27.3C43.5,1644.2,55.7,1639,66.5,1643.4z"/>
	<path fill-rule="evenodd" clip-rule="evenodd" fill="#28BBED" stroke="#B3B2B3" stroke-miterlimit="10" d="M222.9,1577.3
		c10.7,4.4,15.9,16.6,11.5,27.3c-4.4,10.7-16.6,15.9-27.3,11.5c-10.7-4.4-15.9-16.6-11.5-27.3C200,1578.1,212.2,1572.9,222.9,1577.3
		z"/>
	<path fill-rule="evenodd" clip-rule="evenodd" fill="#DDE0E2" stroke="#B3B2B3" stroke-miterlimit="10" d="M132.6,1799.9
		c10.7,4.4,15.9,16.6,11.5,27.3c-4.4,10.7-16.6,15.9-27.3,11.5s-15.9-16.6-11.5-27.3C109.6,1800.7,121.8,1795.5,132.6,1799.9z"/>
	<path fill-rule="evenodd" clip-rule="evenodd" fill="#DDE0E2" stroke="#B3B2B3" stroke-miterlimit="10" d="M235.9,1810.5
		c4.5,10.7-0.5,23-11.2,27.5c-10.7,4.5-23-0.5-27.5-11.2c-4.5-10.7,0.5-23,11.2-27.5C219.1,1794.8,231.4,1799.8,235.9,1810.5z"/>
	<path fill-rule="evenodd" clip-rule="evenodd" fill="#DDE0E2" stroke="#B3B2B3" stroke-miterlimit="10" d="M142.4,1589.2
		c4.5,10.7-0.5,23-11.2,27.5c-10.7,4.5-23-0.5-27.5-11.2c-4.5-10.7,0.5-23,11.2-27.5C125.6,1573.5,137.9,1578.5,142.4,1589.2z"/>
	<path fill-rule="evenodd" clip-rule="evenodd" fill="#80C242" stroke="#B3B2B3" stroke-miterlimit="10" d="M299.8,1653.1
		c4.5,10.7-0.5,23-11.2,27.5c-10.7,4.5-23-0.5-27.5-11.2c-4.5-10.7,0.5-23,11.2-27.5C283,1637.4,295.3,1642.4,299.8,1653.1z"/>
	<path fill-rule="evenodd" clip-rule="evenodd" fill="#80C242" stroke="#B3B2B3" stroke-miterlimit="10" d="M78.5,1746.6
		c4.5,10.7-0.5,23-11.2,27.5c-10.7,4.5-23-0.5-27.5-11.2c-4.5-10.7,0.5-23,11.2-27.5S74,1735.9,78.5,1746.6z"/>
	<path fill="#FFFFFF" d="M290.7,1650.6c-0.4,0-0.7,0.2-0.9,0.4c0,0-10.6,10.9-13,13.3h0c-0.3,0.3-0.7,0.3-1.1,0.1
		c-1.2-0.9-3.8-2.7-4-2.8c-0.3-0.2-0.6-0.3-1-0.3c-1,0-1.7,0.8-1.7,1.7c0,0.4,0.1,0.7,0.3,1c0,0,4.7,6.6,4.8,6.6
		c0.6,0.8,1.5,1.4,2.6,1.4c1.1,0,2-0.6,2.6-1.4c0,0,12.2-17.8,12.2-17.8c0.2-0.3,0.4-0.5,0.4-0.8
		C291.9,1651.2,291.4,1650.6,290.7,1650.6z"/>
	<path fill="#FFFFFF" d="M265,1612.4c-0.4,0-0.7,0.2-0.9,0.4c0,0-10.6,10.9-13,13.3h0c-0.3,0.3-0.7,0.3-1.1,0.1
		c-1.2-0.9-3.8-2.7-4-2.8c-0.3-0.2-0.6-0.3-1-0.3c-1,0-1.7,0.8-1.7,1.7c0,0.4,0.1,0.7,0.3,1c0,0,4.7,6.6,4.8,6.6
		c0.6,0.8,1.5,1.4,2.6,1.4c1.1,0,2-0.6,2.6-1.4c0,0,12.2-17.8,12.2-17.8c0.2-0.3,0.4-0.5,0.4-0.8
		C266.2,1613,265.6,1612.4,265,1612.4z"/>
	<path fill="#FFFFFF" d="M68.8,1744.3c-0.4,0-0.7,0.2-0.9,0.4c0,0-10.6,10.9-13,13.3h0c-0.3,0.3-0.7,0.3-1.1,0.1
		c-1.2-0.9-3.8-2.7-4-2.8c-0.3-0.2-0.6-0.3-1-0.3c-1,0-1.7,0.8-1.7,1.7c0,0.4,0.1,0.7,0.3,1c0,0,4.7,6.6,4.8,6.6
		c0.6,0.8,1.5,1.4,2.6,1.4c1.1,0,2-0.6,2.6-1.4c0,0,12.2-17.8,12.2-17.8c0.2-0.3,0.4-0.5,0.4-0.8C70,1744.8,69.4,1744.3,68.8,1744.3
		z"/>
	<g>
		<g>
			<path fill="#FFFFFF" d="M294.4,1759.6l-2.8-1.8l2.2-1.4c0.1-0.1,0.2-0.2,0.3-0.3c0.2-0.4,0.1-0.9-0.3-1.2c-0.2-0.1-0.5-0.1-0.8,0
				l-3.8,1.4l-4.9-3.1l4.9-3.1l3.8,1.4c0.2,0.1,0.5,0.1,0.8,0c0.4-0.2,0.6-0.8,0.3-1.2c-0.1-0.1-0.2-0.2-0.3-0.3l-2.2-1.4l2.8-1.8
				c0.4-0.2,0.6-0.8,0.3-1.2c-0.3-0.4-0.8-0.6-1.3-0.3l-3,1.5l-0.2-2.6c0-0.1,0-0.3-0.1-0.4c-0.2-0.4-0.8-0.5-1.2-0.3
				c-0.2,0.1-0.4,0.4-0.4,0.6l-0.6,3.9l-5.3,2.6l-0.3-5.7l3.2-2.4c0.2-0.2,0.4-0.4,0.4-0.7c0-0.5-0.4-0.9-0.9-0.9
				c-0.2,0-0.3,0.1-0.4,0.1l-2.4,1.2l-0.2-3.2c0-0.5-0.4-0.9-0.9-0.9c-0.5,0-0.9,0.4-0.9,0.9l-0.2,3.2l-2.4-1.2
				c-0.1-0.1-0.3-0.1-0.4-0.1c-0.5,0-0.9,0.4-0.9,0.9c0,0.3,0.1,0.5,0.4,0.7l3.2,2.4l-0.3,5.7l-5.3-2.6l-0.6-3.9
				c0-0.3-0.2-0.5-0.4-0.6c-0.4-0.2-1-0.1-1.2,0.3c-0.1,0.1-0.1,0.3-0.1,0.4l-0.1,2.6l-3-1.5c-0.4-0.2-1-0.1-1.3,0.3
				c-0.3,0.4-0.1,1,0.3,1.2l2.8,1.8l-2.2,1.4c-0.1,0.1-0.2,0.2-0.3,0.3c-0.2,0.4-0.1,0.9,0.3,1.2c0.2,0.1,0.5,0.1,0.8,0l3.8-1.4
				l4.9,3.1l-4.9,3.1l-3.8-1.4c-0.2-0.1-0.5-0.1-0.8,0c-0.4,0.2-0.6,0.8-0.3,1.2c0.1,0.1,0.2,0.2,0.3,0.3l2.2,1.4l-2.8,1.8
				c-0.4,0.2-0.6,0.8-0.3,1.2c0.3,0.4,0.8,0.6,1.3,0.3l3-1.5l0.2,2.6c0,0.1,0,0.3,0.1,0.4c0.2,0.4,0.8,0.5,1.2,0.3
				c0.2-0.1,0.4-0.4,0.4-0.6l0.6-3.9l5.3-2.6l0.3,5.7l-3.2,2.4c-0.2,0.2-0.4,0.4-0.4,0.7c0,0.5,0.4,0.9,0.9,0.9
				c0.2,0,0.3-0.1,0.4-0.1l2.4-1.2l0.2,3.2c0,0.5,0.4,0.9,0.9,0.9c0.5,0,0.9-0.4,0.9-0.9l0.2-3.2l2.4,1.2c0.1,0.1,0.3,0.1,0.4,0.1
				c0.5,0,0.9-0.4,0.9-0.9c0-0.3-0.1-0.5-0.4-0.7l-3.2-2.4l0.3-5.7l5.3,2.6l0.6,3.9c0,0.3,0.2,0.5,0.4,0.6c0.4,0.2,1,0.1,1.2-0.3
				c0.1-0.1,0.1-0.3,0.1-0.4l0.1-2.6l3,1.5c0.4,0.2,1,0.1,1.3-0.3C295,1760.4,294.8,1759.8,294.4,1759.6z"/>
		</g>
	</g>
	<g>
		<g>
			<path fill="#FFFFFF" d="M228.3,1603.1l-2.8-1.8l2.2-1.4c0.1-0.1,0.2-0.2,0.3-0.3c0.2-0.4,0.1-0.9-0.3-1.2c-0.2-0.1-0.5-0.1-0.8,0
				l-3.8,1.4l-4.9-3.1l4.9-3.1l3.8,1.4c0.2,0.1,0.5,0.1,0.8,0c0.4-0.2,0.6-0.8,0.3-1.2c-0.1-0.1-0.2-0.2-0.3-0.3l-2.2-1.4l2.8-1.8
				c0.4-0.2,0.6-0.8,0.3-1.2c-0.3-0.4-0.8-0.6-1.3-0.3l-3,1.5l-0.2-2.6c0-0.1,0-0.3-0.1-0.4c-0.2-0.4-0.8-0.5-1.2-0.3
				c-0.2,0.1-0.4,0.4-0.4,0.6l-0.6,3.9l-5.3,2.6l-0.3-5.7l3.2-2.4c0.2-0.2,0.4-0.4,0.4-0.7c0-0.5-0.4-0.9-0.9-0.9
				c-0.2,0-0.3,0.1-0.4,0.1l-2.4,1.2l-0.2-3.2c0-0.5-0.4-0.9-0.9-0.9c-0.5,0-0.9,0.4-0.9,0.9l-0.2,3.2l-2.4-1.2
				c-0.1-0.1-0.3-0.1-0.4-0.1c-0.5,0-0.9,0.4-0.9,0.9c0,0.3,0.1,0.5,0.4,0.7l3.2,2.4l-0.3,5.7l-5.3-2.6l-0.6-3.9
				c0-0.3-0.2-0.5-0.4-0.6c-0.4-0.2-1-0.1-1.2,0.3c-0.1,0.1-0.1,0.3-0.1,0.4l-0.1,2.6l-3-1.5c-0.4-0.2-1-0.1-1.3,0.3
				c-0.3,0.4-0.1,1,0.3,1.2l2.8,1.8l-2.2,1.4c-0.1,0.1-0.2,0.2-0.3,0.3c-0.2,0.4-0.1,0.9,0.3,1.2c0.2,0.1,0.5,0.1,0.8,0l3.8-1.4
				l4.9,3.1l-4.9,3.1l-3.8-1.4c-0.2-0.1-0.5-0.1-0.8,0c-0.4,0.2-0.6,0.8-0.3,1.2c0.1,0.1,0.2,0.2,0.3,0.3l2.2,1.4l-2.8,1.8
				c-0.4,0.2-0.6,0.8-0.3,1.2c0.3,0.4,0.8,0.6,1.3,0.3l3-1.5l0.2,2.6c0,0.1,0,0.3,0.1,0.4c0.2,0.4,0.8,0.5,1.2,0.3
				c0.2-0.1,0.4-0.4,0.4-0.6l0.6-3.9l5.3-2.6l0.3,5.7l-3.2,2.4c-0.2,0.2-0.4,0.4-0.4,0.7c0,0.5,0.4,0.9,0.9,0.9
				c0.2,0,0.3-0.1,0.4-0.1l2.4-1.2l0.2,3.2c0,0.5,0.4,0.9,0.9,0.9c0.5,0,0.9-0.4,0.9-0.9l0.2-3.2l2.4,1.2c0.1,0.1,0.3,0.1,0.4,0.1
				c0.5,0,0.9-0.4,0.9-0.9c0-0.3-0.1-0.5-0.4-0.7l-3.2-2.4l0.3-5.7l5.3,2.6l0.6,3.9c0,0.3,0.2,0.5,0.4,0.6c0.4,0.2,1,0.1,1.2-0.3
				c0.1-0.1,0.1-0.3,0.1-0.4l0.1-2.6l3,1.5c0.4,0.2,1,0.1,1.3-0.3C228.9,1603.9,228.7,1603.3,228.3,1603.1z"/>
		</g>
	</g>
	<g>
		<g>
			<path fill="#DDE0E2" stroke="#B3B2B3" stroke-miterlimit="10" d="M169.9,1609.7c-12,0-21.8-9.8-21.8-21.8
				c0-12,9.8-21.8,21.8-21.8c12,0,21.8,9.8,21.8,21.8C191.6,1599.9,181.9,1609.7,169.9,1609.7z"/>
		</g>
	</g>
	<path fill="#FFFFFF" d="M263.7,1799.9c-0.8-1.2-4.4-5.7-5.2-6.9c0,0,0-0.1-0.1-0.1c0.9-1.1,4.4-5.7,5.2-6.9
		c0.2-0.4,0.4-0.8,0.3-1.3c-0.3-0.9-1.3-1.3-2.1-0.7c-0.1,0.1-0.3,0.2-0.4,0.3c-0.3,0.2-4.8,3.7-6,4.5c-0.2,0.1-0.3,0.3-0.5,0.4
		c-1.1-0.9-5.7-4.4-6.9-5.2c-1.3-0.9-2.9,0.7-1.9,1.9c0.1,0.1,5.1,6.8,5.2,6.9c-0.9,1.1-4.4,5.7-5.2,6.9c-0.2,0.4-0.4,0.8-0.3,1.3
		c0.3,0.9,1.3,1.3,2.1,0.7c0.1-0.1,5.3-4.1,6.5-4.9c0.2-0.1,0.3-0.3,0.5-0.4c1.1,0.9,5.7,4.4,6.9,5.2
		C263,1802.7,264.5,1801.2,263.7,1799.9z"/>
</g>
</svg>
