<?xml version="1.0" encoding="UTF-8" standalone="no"?>
<!-- Generator: Adobe Illustrator 18.0.0, SVG Export Plug-In . SVG Version: 6.00 Build 0)  -->

<svg
   xmlns:dc="http://purl.org/dc/elements/1.1/"
   xmlns:cc="http://creativecommons.org/ns#"
   xmlns:rdf="http://www.w3.org/1999/02/22-rdf-syntax-ns#"
   xmlns:svg="http://www.w3.org/2000/svg"
   xmlns="http://www.w3.org/2000/svg"
   xmlns:sodipodi="http://sodipodi.sourceforge.net/DTD/sodipodi-0.dtd"
   xmlns:inkscape="http://www.inkscape.org/namespaces/inkscape"
   version="1.1"
   id="Layer_1"
   x="0px"
   y="0px"
   width="70px"
   height="74px"
   viewBox="0 0 70 74"
   style="enable-background:new 0 0 70 74;"
   xml:space="preserve"
   inkscape:version="0.48.5 r10040"
   sodipodi:docname="time-scrubber.svg"><metadata
   id="metadata23"><rdf:RDF><cc:Work
       rdf:about=""><dc:format>image/svg+xml</dc:format><dc:type
         rdf:resource="http://purl.org/dc/dcmitype/StillImage" /><dc:title></dc:title></cc:Work></rdf:RDF></metadata><defs
   id="defs21" /><sodipodi:namedview
   pagecolor="#ffffff"
   bordercolor="#666666"
   borderopacity="1"
   objecttolerance="10"
   gridtolerance="10"
   guidetolerance="10"
   inkscape:pageopacity="0"
   inkscape:pageshadow="2"
   inkscape:window-width="1920"
   inkscape:window-height="1018"
   id="namedview19"
   showgrid="false"
   inkscape:zoom="6.3783784"
   inkscape:cx="36.592437"
   inkscape:cy="41.822456"
   inkscape:window-x="-8"
   inkscape:window-y="-8"
   inkscape:window-maximized="1"
   inkscape:current-layer="Layer_1" />
<style
   type="text/css"
   id="style3">
	.st0{fill:#6EB444;}
	.st1{fill:#FFFFFF;}
	.st2{font-family:'SourceSansPro-Semibold';}
	.st3{font-size:21;}
</style>
<g
   id="g5">
	<path
   class="st0"
   d="M68.1,45.7c-22.7-7-29.8-9.1-32.1-9.8V1c0-0.6-0.4-1-1-1s-1,0.4-1,1v34.9c-2.2,0.7-9.4,2.9-32.1,9.8   C0.6,46.1,0,47.4,0,48.2C0,74,0,74,0,74h35H35h35c0,0,0,0,0-25.8C70,47.4,69.4,46.1,68.1,45.7z"
   id="path7" />
	<g
   id="g9">
		<polygon
   class="st0"
   points="28,9.7 20.5,4.9 28,0   "
   id="polygon11" />
		<polygon
   class="st0"
   points="42,0 49.5,4.9 42,9.7   "
   id="polygon13" />
	</g>
</g>

</svg>