<?xml version="1.0" encoding="utf-8"?>
<!-- Generator: Adobe Illustrator 19.2.0, SVG Export Plug-In . SVG Version: 6.00 Build 0)  -->
<svg version="1.1" xmlns="http://www.w3.org/2000/svg" xmlns:xlink="http://www.w3.org/1999/xlink" x="0px" y="0px"
	 viewBox="0 0 50 50" style="enable-background:new 0 0 50 50;" xml:space="preserve">
<style type="text/css">
	.Drop_x0020_Shadow{fill:none;}
	.Round_x0020_Corners_x0020_2_x0020_pt{fill:#FFFFFF;stroke:#231F20;stroke-miterlimit:10;}
	.Live_x0020_Reflect_x0020_X{fill:none;}
	.Bevel_x0020_Soft{fill:url(#SVGID_1_);}
	.Dusk{fill:#FFFFFF;}
	.Foliage_GS{fill:#FFDC00;}
	.Pompadour_GS{fill-rule:evenodd;clip-rule:evenodd;fill:#44ACE1;}
	.Graphic_x0020_Style{fill-rule:evenodd;clip-rule:evenodd;fill:#262A33;}
	.st0{fill:#95D4D1;}
	.st1{fill:none;stroke:#FFFFFF;stroke-miterlimit:10;}
	.st2{fill:none;stroke:#FFFFFF;stroke-width:1.0032;stroke-miterlimit:10;}
	.st3{fill:#FFFFFF;stroke:#503291;stroke-width:0.875;stroke-miterlimit:10;}
	.st4{fill:none;stroke:#503291;stroke-linecap:round;stroke-miterlimit:10;}
	.st5{fill:#FFFFFF;}
	.st6{fill:#503291;}
	.st7{clip-path:url(#SVGID_21_);fill:#503291;}
	.st8{clip-path:url(#SVGID_21_);}
	.st9{fill:#A5CD50;}
	.st10{fill:#58A528;}
	.st11{fill:#7E8081;}
	.st12{fill:#7E8083;}
	.st13{fill:none;stroke:#503291;stroke-width:2;stroke-miterlimit:10;}
	.st14{fill:none;stroke:#95D4D1;stroke-miterlimit:10;}
	.st15{fill:none;stroke:#503291;stroke-width:1.1713;stroke-miterlimit:10;}
	.st16{opacity:0.2;}
	.st17{fill:#231F20;}
	.st18{fill-rule:evenodd;clip-rule:evenodd;fill:#00B4AE;}
	.st19{fill:#DCDCDC;}
	.st20{fill:#8C8C8C;}
	.st21{fill:#6B6D70;}
	.st22{fill:none;}
	.st23{fill:#E50278;}
	.st24{fill:none;stroke:#503291;stroke-width:0.5667;stroke-miterlimit:10;}
	.st25{fill:#16BECF;}
	.st26{fill:#FFFFFF;stroke:#503291;stroke-miterlimit:10;}
	.st27{fill:none;stroke:#503291;stroke-miterlimit:10;}
	.st28{opacity:0.2;fill:#FFFFFF;}
	.st29{fill:none;stroke:#FFFFFF;stroke-width:3;stroke-linecap:round;stroke-miterlimit:10;}
	.st30{opacity:0.3;fill:none;stroke:#FFFFFF;stroke-width:5;stroke-miterlimit:10;}
	.st31{fill:none;stroke:#FFFFFF;stroke-width:2;stroke-miterlimit:10;}
	.st32{fill:none;stroke:#FFFFFF;stroke-width:2;stroke-miterlimit:10;stroke-dasharray:5.0187,5.0187;}
	.st33{fill:none;stroke:#A5CD50;stroke-width:8;stroke-miterlimit:10;}
	.st34{clip-path:url(#SVGID_37_);fill:#95D4D1;}
	.st35{clip-path:url(#SVGID_37_);fill:#A5CD50;}
	.st36{fill:url(#SVGID_38_);}
	.st37{fill:#7E8081;stroke:#7E8081;stroke-width:0.2678;stroke-miterlimit:10;}
	.st38{fill:#F2F2F2;}
</style>
<linearGradient id="SVGID_1_" gradientUnits="userSpaceOnUse" x1="-1660.6516" y1="770.7078" x2="-1659.9445" y2="771.415">
	<stop  offset="0" style="stop-color:#DDDEE2"/>
	<stop  offset="0.1791" style="stop-color:#D9DADE"/>
	<stop  offset="0.3627" style="stop-color:#CDCED2"/>
	<stop  offset="0.5483" style="stop-color:#B8BBBE"/>
	<stop  offset="0.7355" style="stop-color:#9B9FA1"/>
	<stop  offset="0.922" style="stop-color:#777C7D"/>
	<stop  offset="1" style="stop-color:#656B6C"/>
</linearGradient>
<g id="images">
</g>
<g id="frames">
</g>
<g id="Layer_35">
	<g id="Video_Masked">
	</g>
	<g id="video_x5F_purple_x5F_pos">
	</g>
	<g id="simulator_x5F_purple_x5F_pos">
	</g>
	<path class="st16" d="M41.4,17.5c-1.2,0-2.4,0.5-3.1,1.5L22.3,37.9c-0.1,0.1-0.2,0.1-0.4,0.1c-0.1,0-0.2,0-0.2-0.1l-11.2-9.4
		c-0.6-0.5-0.7-1.4-0.2-2l2.4-2.9c0.5-0.6,1.4-0.7,2-0.2l6.5,5.4L34.6,13c0.5-0.6,1.4-0.7,2-0.2v0c1.3,1,3,1.2,4.5,0.5l0,0
		c2.5-1.3,3-4.7,1-6.6C37.4,2.4,31.3-0.1,24.5,0C11.3,0.3,0.4,11,0,24.2C-0.5,38.6,11.3,50.4,25.8,50C38.8,49.6,49.5,39,50,25.9
		c0.1-1.7,0-3.4-0.3-5c-0.3-2-2-3.4-4-3.4H41.4z"/>
</g>
<g id="Layer_3">
</g>
</svg>
