<?xml version="1.0" encoding="utf-8"?>
<!-- Generator: Adobe Illustrator 19.2.0, SVG Export Plug-In . SVG Version: 6.00 Build 0)  -->
<svg version="1.1" xmlns="http://www.w3.org/2000/svg" xmlns:xlink="http://www.w3.org/1999/xlink" x="0px" y="0px"
	 viewBox="0 0 35 35" style="enable-background:new 0 0 35 35;" xml:space="preserve">
<style type="text/css">
	.st0{fill:#58A528;}
	.st1{fill:#7E8081;}
	.st2{fill:#7E8083;}
	.Drop_x0020_Shadow{fill:none;}
	.Round_x0020_Corners_x0020_2_x0020_pt{fill:#FFFFFF;stroke:#231F20;stroke-miterlimit:10;}
	.Live_x0020_Reflect_x0020_X{fill:none;}
	.Bevel_x0020_Soft{fill:url(#SVGID_1_);}
	.Dusk{fill:#FFFFFF;}
	.Foliage_GS{fill:#FFDC00;}
	.Pompadour_GS{fill-rule:evenodd;clip-rule:evenodd;fill:#44ACE1;}
	.Graphic_x0020_Style{fill-rule:evenodd;clip-rule:evenodd;fill:#262A33;}
	.st3{fill:#95D4D1;}
	.st4{fill:none;stroke:#FFFFFF;stroke-miterlimit:10;}
	.st5{fill:none;stroke:#FFFFFF;stroke-width:1.0032;stroke-miterlimit:10;}
	.st6{fill:#FFFFFF;stroke:#503291;stroke-width:0.875;stroke-miterlimit:10;}
	.st7{fill:none;stroke:#503291;stroke-linecap:round;stroke-miterlimit:10;}
	.st8{fill:#FFFFFF;}
	.st9{fill:#503291;}
	.st10{clip-path:url(#SVGID_21_);fill:#503291;}
	.st11{clip-path:url(#SVGID_21_);}
	.st12{fill:#A5CD50;}
	.st13{fill:none;stroke:#503291;stroke-width:2;stroke-miterlimit:10;}
	.st14{fill:none;stroke:#95D4D1;stroke-miterlimit:10;}
	.st15{fill:none;stroke:#503291;stroke-width:1.1713;stroke-miterlimit:10;}
	.st16{opacity:0.2;}
	.st17{fill:#231F20;}
	.st18{fill-rule:evenodd;clip-rule:evenodd;fill:#00B4AE;}
	.st19{fill:#DCDCDC;}
	.st20{fill:#8C8C8C;}
	.st21{fill:#6B6D70;}
	.st22{fill:none;}
	.st23{fill:#E50278;}
	.st24{fill:none;stroke:#503291;stroke-width:0.5667;stroke-miterlimit:10;}
	.st25{fill:#16BECF;}
	.st26{fill:#FFFFFF;stroke:#503291;stroke-miterlimit:10;}
	.st27{fill:none;stroke:#503291;stroke-miterlimit:10;}
	.st28{opacity:0.2;fill:#FFFFFF;}
	.st29{fill:none;stroke:#FFFFFF;stroke-width:3;stroke-linecap:round;stroke-miterlimit:10;}
	.st30{opacity:0.3;fill:none;stroke:#FFFFFF;stroke-width:5;stroke-miterlimit:10;}
	.st31{fill:none;stroke:#FFFFFF;stroke-width:2;stroke-miterlimit:10;}
	.st32{fill:none;stroke:#FFFFFF;stroke-width:2;stroke-miterlimit:10;stroke-dasharray:5.0187,5.0187;}
	.st33{fill:none;stroke:#A5CD50;stroke-width:8;stroke-miterlimit:10;}
	.st34{clip-path:url(#SVGID_37_);fill:#95D4D1;}
	.st35{clip-path:url(#SVGID_37_);fill:#A5CD50;}
	.st36{fill:url(#SVGID_38_);}
	.st37{fill:#7E8081;stroke:#7E8081;stroke-width:0.2678;stroke-miterlimit:10;}
	.st38{fill:#F2F2F2;}
</style>
<symbol  id="geri_x5F_assess_x5F_logo" viewBox="-37.5 -37.5 74.9 75">
	<g>
		<path class="st0" d="M20,0.7c1.5,1,4.2,2.8,6.6,4l0.3,0.2l-0.7,4.8l-0.6-0.3c-2-0.8-4.2-2.1-6-3.4L19.4,9h-4.6v-25.1H20V0.7z"/>
		<path class="st0" d="M9.3-5.2v5.6C9.3,6.7,6,10-0.3,10c-6.5,0-10-3.3-10-9.5v-7.2c0-6.3,3.3-9.4,10.1-9.4c3,0,6.3,0.5,8.7,1.4
			l0.4,0.1l-0.7,4.3l-0.5-0.1c-2.8-0.7-5.3-1.1-7.5-1.1c-4.5,0-5.2,1.4-5.2,4.8v1.5H9.3z M-5.1,0.8c0,3.4,1.4,4.7,4.8,4.7
			c3.3,0,4.5-1.3,4.5-4.7v-1.5h-9.3V0.8z"/>
		<rect x="32.3" y="11.8" class="st0" width="5.2" height="7"/>
		<rect x="32.3" y="-16.1" class="st0" width="5.2" height="25.1"/>
		<path class="st0" d="M-16-0.9h-0.9h-4.4h-4.3v-4.4h4.3v-5.6c-2.1-0.4-3.9-0.4-5.1-0.4c-4.9,0-5.7,1.5-5.7,5V6.8c0,3.5,0.9,5,5.9,5
			c2.4,0,5.2-0.3,8.2-0.8l0.7-0.1l0.6,4.8l-0.6,0.1c-2.8,0.6-5.9,1-8.7,1c-7.9,0-11.5-3-11.5-9.8V-6.6c0-6.7,3.4-9.8,11-9.8
			c3.4,0,7,0.5,10,1.4l0.5,0.1V-0.9z"/>
	</g>
	<g>
		<path class="st1" d="M-27.2-19.2h-3.4l-6.2-18.1l-0.1-0.2h2.7l1.5,4.3h7.6l1.5-4.3h2.7l-6.3,18.2L-27.2-19.2z M-25.8-30.9H-32
			l3.1,9.3L-25.8-30.9z"/>
		<path class="st1" d="M-14-29.5c-2.1,0.5-2.1,0.7-2.1,2.1c0,1.1,0.2,1.5,2.1,1.5c1,0,2.5-0.1,3.6-0.4l0.2,0l0.2,2.1l-0.1,0
			c-1.1,0.3-2.5,0.5-3.8,0.5c-3.4,0-4.7-1-4.7-3.6c0-2.8,0.3-3.5,3.7-4.3c2.7-0.6,2.7-0.8,2.7-2c0-1.3-0.3-1.6-2.3-1.6
			c-1.1,0-2.6,0.2-3.7,0.5l-0.2,0l-0.3-2l0.1,0c1.1-0.4,2.9-0.7,4.3-0.7c4,0,4.7,1.4,4.7,3.9C-9.8-30.8-10.2-30.4-14-29.5z"/>
		<path class="st1" d="M-2.5-29.5c-2.1,0.5-2.1,0.7-2.1,2.1c0,1.1,0.2,1.5,2.1,1.5c1,0,2.5-0.1,3.6-0.4l0.2,0l0.2,2.1l-0.1,0
			c-1.1,0.3-2.5,0.5-3.8,0.5c-3.4,0-4.7-1-4.7-3.6c0-2.8,0.3-3.5,3.7-4.3c2.7-0.6,2.7-0.8,2.7-2c0-1.3-0.3-1.6-2.3-1.6
			c-1.1,0-2.6,0.2-3.7,0.5l-0.2,0l-0.3-2l0.1,0c1.1-0.4,2.9-0.7,4.3-0.7c4,0,4.7,1.4,4.7,3.9C1.7-30.8,1.3-30.4-2.5-29.5z"/>
		<path class="st1" d="M9.4-23.7c-3.5,0-5.4-1.7-5.4-5v-3.9c0-3.4,1.7-4.9,5.4-4.9c1.6,0,3.4,0.3,4.7,0.8l0.1,0l-0.3,2.1l-0.2,0
			c-1.6-0.4-3-0.6-4.2-0.6c-2.6,0-3,0.8-3,2.7v0.9h7.9v2.9C14.5-25.3,12.8-23.7,9.4-23.7z M9.4-25.8c1.9,0,2.6-0.8,2.6-2.7v-0.9H6.6
			v0.9C6.6-26.6,7.4-25.8,9.4-25.8z"/>
		<path class="st1" d="M21.7-29.5c-2.1,0.5-2.1,0.7-2.1,2.1c0,1.1,0.2,1.5,2.1,1.5c1,0,2.5-0.1,3.6-0.4l0.2,0l0.2,2.1l-0.1,0
			c-1.1,0.3-2.5,0.5-3.8,0.5c-3.4,0-4.7-1-4.7-3.6c0-2.8,0.3-3.5,3.7-4.3c2.7-0.6,2.7-0.8,2.7-2c0-1.3-0.3-1.6-2.3-1.6
			c-1.1,0-2.6,0.2-3.7,0.5l-0.2,0l-0.3-2l0.1,0c1.1-0.4,2.9-0.7,4.3-0.7c4,0,4.7,1.4,4.7,3.9C25.9-30.8,25.5-30.4,21.7-29.5z"/>
		<path class="st1" d="M33.2-29.5c-2.1,0.5-2.1,0.7-2.1,2.1c0,1.1,0.2,1.5,2.1,1.5c1,0,2.5-0.1,3.6-0.4l0.2,0l0.2,2.1l-0.1,0
			c-1.1,0.3-2.5,0.5-3.8,0.5c-3.4,0-4.7-1-4.7-3.6c0-2.8,0.3-3.5,3.7-4.3c2.7-0.6,2.7-0.8,2.7-2c0-1.3-0.3-1.6-2.3-1.6
			c-1.1,0-2.6,0.2-3.7,0.5l-0.2,0l-0.3-2l0.1,0c1.1-0.4,2.9-0.7,4.3-0.7c4,0,4.7,1.4,4.7,3.9C37.4-30.8,37-30.4,33.2-29.5z"/>
	</g>
	<path class="st0" d="M-22.1,37.3h-8.7c2.6-2.1,4.2-5,4.2-8.3c0-3.4-1.7-6.4-4.4-8.5h8.9c0.8,0,1.5,0.7,1.5,1.5v13.9
		C-20.7,36.6-21.3,37.3-22.1,37.3 M-33.4,20.4H-36c-0.8,0-1.5,0.7-1.5,1.5v13.9c0,0.8,0.7,1.5,1.5,1.5h2.8c3.1-1.8,5.2-4.9,5.2-8.3
		C-28,25.4-30.1,22.2-33.4,20.4"/>
	<path class="st2" d="M13.5,30.8h-1.7c-0.7,0-1-0.2-1-0.9c0-0.7,0.1-1,1-1c0.6,0,1.3,0.2,1.8,0.6V30.8z M14.7,28h-1l-0.1,0.5
		c-0.6-0.4-1.4-0.6-2.2-0.6c-1.3,0-1.8,0.8-1.8,2c0,1.4,0.7,1.9,2.1,1.9h1.8v1.1c0,0.9-0.4,1.2-1.5,1.2c-0.7,0-1.5-0.1-2.1-0.2
		l-0.1,0.9c0.6,0.2,1.5,0.3,2.3,0.3c2,0,2.6-0.8,2.6-2.2V28z M4.5,31.9h2.9v0.6c0,1-0.3,1.5-1.4,1.5s-1.5-0.5-1.5-1.5V31.9z
		 M6.2,28.9c0.7,0,1.4,0.1,2.2,0.3l0.2-0.9c-0.6-0.2-1.6-0.4-2.4-0.4c-2,0-2.7,1-2.7,2.5v2.1C3.4,33.8,4,35,6,35
		c2,0,2.6-1.2,2.6-2.6V31H4.5v-0.6C4.5,29.3,4.8,28.9,6.2,28.9 M0.9,28v5.2c0,0.5-0.2,0.6-0.7,0.6c-0.5,0-1.6-0.3-2.3-0.7V28h-1.2
		v6.9h1l0.1-0.6c0.8,0.4,1.9,0.7,2.8,0.7c1.1,0,1.5-0.7,1.5-1.7V28H0.9z M-8.6,31.9h2.9v0.6c0,1-0.3,1.5-1.4,1.5
		c-1.1,0-1.5-0.5-1.5-1.5V31.9z M-6.9,28.9c0.7,0,1.4,0.1,2.2,0.3l0.2-0.9C-5.3,28-6.2,27.8-7,27.8c-2,0-2.7,1-2.7,2.5v2.1
		c0,1.4,0.6,2.6,2.7,2.6c2,0,2.6-1.2,2.6-2.6V31h-4.1v-0.6C-8.6,29.3-8.3,28.9-6.9,28.9 M-15.9,30.7c0-1.2,0.4-1.7,2-1.7
		c0.5,0,1.1,0,1.8,0.2v3.2h1.2v-4c-0.9-0.3-2-0.4-3-0.4c-2.4,0-3.1,1-3.1,2.8v4.1c0,1.9,0.9,2.8,3.3,2.8c0.8,0,1.7-0.1,2.6-0.3
		l-0.1-1c-0.9,0.2-1.7,0.2-2.5,0.2c-1.5,0-2-0.5-2-1.7V30.7z"/>
	<g>
		<path class="st0" d="M-17.1,20.4v5.8h2.3c0.9,0,1.4-0.4,1.4-1.2v-0.7c0-0.4-0.1-0.8-0.7-1c0.5-0.1,0.9-0.4,0.9-1.1v-0.7
			c0-0.8-0.6-1.3-1.4-1.3H-17.1z M-14.2,25.1c0,0.4-0.2,0.6-0.7,0.6h-1.5v-1.9h1.3c0.6,0,0.8,0.3,0.8,0.7V25.1z M-14,22.4
			c0,0.5-0.3,0.7-0.8,0.7h-1.5v-2h1.5c0.5,0,0.8,0.2,0.8,0.7V22.4z"/>
		<path class="st0" d="M-11.5,20.4h-0.8v5.8h0.8V20.4z"/>
		<path class="st0" d="M-6.2,22.1c0-1-0.6-1.8-2.1-1.8c-1.5,0-2.1,0.8-2.1,1.8v2.5c0,1,0.6,1.8,2.1,1.8c1.5,0,2.1-0.8,2.1-1.8V22.1z
			 M-9.7,22.2c0-0.7,0.4-1.1,1.4-1.1c0.9,0,1.4,0.4,1.4,1.1v2.4c0,0.7-0.4,1.1-1.4,1.1c-0.9,0-1.4-0.4-1.4-1.1V22.2z"/>
		<polygon class="st0" points="-0.8,26.3 -2.5,21.8 -4.2,26.3 -5.1,26.3 -5.1,20.4 -4.4,20.4 -4.4,20.4 -4.4,24.9 -3,21.2 -2,21.2 
			-0.6,24.9 -0.6,20.4 -0.6,20.4 0.1,20.4 0.1,26.3 		"/>
		<path class="st0" d="M1.3,26.3h3.4v-0.7H2.1v-1.8h2.5v-0.7H2.1v-2h2.7v-0.7H1.3V26.3z"/>
		<path class="st0" d="M7.8,26.3c1.4,0,1.9-0.7,1.9-1.7v-2.5c0-0.9-0.4-1.7-1.9-1.7h-2v5.8H7.8z M6.5,21.1h1.3
			c0.9,0,1.2,0.4,1.2,1.1v2.4c0,0.7-0.3,1.1-1.2,1.1H6.5V21.1z"/>
		<path class="st0" d="M12,23.4l-1.8,2.9H11l1.4-2.3l1.5,2.3h0.8l-1.8-2.9l1.9-3H14l-1.5,2.4l-1.5-2.4h-0.8L12,23.4z"/>
	</g>
</symbol>
<linearGradient id="SVGID_1_" gradientUnits="userSpaceOnUse" x1="-2098.5349" y1="607.2775" x2="-2097.8279" y2="607.9846">
	<stop  offset="0" style="stop-color:#DDDEE2"/>
	<stop  offset="0.1791" style="stop-color:#D9DADE"/>
	<stop  offset="0.3627" style="stop-color:#CDCED2"/>
	<stop  offset="0.5483" style="stop-color:#B8BBBE"/>
	<stop  offset="0.7355" style="stop-color:#9B9FA1"/>
	<stop  offset="0.922" style="stop-color:#777C7D"/>
	<stop  offset="1" style="stop-color:#656B6C"/>
</linearGradient>
<g id="images">
</g>
<g id="frames">
</g>
<g id="Layer_35">
	<g id="Video_Masked">
	</g>
	<g id="video_x5F_purple_x5F_pos">
	</g>
	<g id="simulator_x5F_purple_x5F_pos">
	</g>
	
		<use xlink:href="#geri_x5F_assess_x5F_logo"  width="74.9" height="75" x="-37.5" y="-37.5" transform="matrix(0.4667 0 0 -0.4667 17.4799 17.5)" style="overflow:visible;"/>
</g>
<g id="Layer_3">
</g>
</svg>
