<?xml version="1.0" encoding="utf-8"?>
<!-- Generator: Adobe Illustrator 19.2.0, SVG Export Plug-In . SVG Version: 6.00 Build 0)  -->
<svg version="1.1" xmlns="http://www.w3.org/2000/svg" xmlns:xlink="http://www.w3.org/1999/xlink" x="0px" y="0px"
	 viewBox="0 0 54.7 30" style="enable-background:new 0 0 54.7 30;" xml:space="preserve">
<style type="text/css">
	.st0{fill:#E50278;}
	.Drop_x0020_Shadow{fill:none;}
	.Round_x0020_Corners_x0020_2_x0020_pt{fill:#FFFFFF;stroke:#231F20;stroke-miterlimit:10;}
	.Live_x0020_Reflect_x0020_X{fill:none;}
	.Bevel_x0020_Soft{fill:url(#SVGID_1_);}
	.Dusk{fill:#FFFFFF;}
	.Foliage_GS{fill:#FFDC00;}
	.Pompadour_GS{fill-rule:evenodd;clip-rule:evenodd;fill:#44ACE1;}
	.Graphic_x0020_Style{fill-rule:evenodd;clip-rule:evenodd;fill:#262A33;}
	.st1{fill:#95D4D1;}
	.st2{fill:none;stroke:#FFFFFF;stroke-miterlimit:10;}
	.st3{fill:none;stroke:#FFFFFF;stroke-width:1.0032;stroke-miterlimit:10;}
	.st4{fill:#FFFFFF;stroke:#503291;stroke-width:0.875;stroke-miterlimit:10;}
	.st5{fill:none;stroke:#503291;stroke-linecap:round;stroke-miterlimit:10;}
	.st6{fill:#FFFFFF;}
	.st7{fill:#503291;}
	.st8{clip-path:url(#SVGID_21_);fill:#503291;}
	.st9{clip-path:url(#SVGID_21_);}
	.st10{fill:#A5CD50;}
	.st11{fill:#58A528;}
	.st12{fill:#7E8081;}
	.st13{fill:#7E8083;}
	.st14{fill:none;stroke:#503291;stroke-width:2;stroke-miterlimit:10;}
	.st15{fill:none;stroke:#95D4D1;stroke-miterlimit:10;}
	.st16{fill:none;stroke:#503291;stroke-width:1.1713;stroke-miterlimit:10;}
	.st17{opacity:0.2;}
	.st18{fill:#231F20;}
	.st19{fill-rule:evenodd;clip-rule:evenodd;fill:#00B4AE;}
	.st20{fill:#DCDCDC;}
	.st21{fill:#8C8C8C;}
	.st22{fill:#6B6D70;}
	.st23{fill:none;}
	.st24{fill:none;stroke:#503291;stroke-width:0.5667;stroke-miterlimit:10;}
	.st25{fill:#16BECF;}
	.st26{fill:#FFFFFF;stroke:#503291;stroke-miterlimit:10;}
	.st27{fill:none;stroke:#503291;stroke-miterlimit:10;}
	.st28{opacity:0.2;fill:#FFFFFF;}
	.st29{fill:none;stroke:#FFFFFF;stroke-width:3;stroke-linecap:round;stroke-miterlimit:10;}
	.st30{opacity:0.3;fill:none;stroke:#FFFFFF;stroke-width:5;stroke-miterlimit:10;}
	.st31{fill:none;stroke:#FFFFFF;stroke-width:2;stroke-miterlimit:10;}
	.st32{fill:none;stroke:#FFFFFF;stroke-width:2;stroke-miterlimit:10;stroke-dasharray:5.0187,5.0187;}
	.st33{fill:none;stroke:#A5CD50;stroke-width:8;stroke-miterlimit:10;}
	.st34{clip-path:url(#SVGID_37_);fill:#95D4D1;}
	.st35{clip-path:url(#SVGID_37_);fill:#A5CD50;}
	.st36{fill:url(#SVGID_38_);}
	.st37{fill:#7E8081;stroke:#7E8081;stroke-width:0.2678;stroke-miterlimit:10;}
	.st38{fill:#F2F2F2;}
</style>
<symbol  id="eeva_x5F_logo" viewBox="-27.3 -15 54.7 30">
	<g>
		<path class="st0" d="M-15-15c-2.9,0-5.4,0.3-7.7,1.5c-5.7,3-6.4,11-0.8,14.9c2.2,1.5,4.7,2.3,7.3,2.7c0.6,0.1,0.7,0.3,0.6,0.8
			c-1.1,5,2.7,10,8.6,10.1c2.2,0,4.1-0.6,5.5-2.3c1.2-1.4,1.2-3.3-0.1-4.4c-0.3-0.2-0.6-0.5-0.7,0.2c-0.4,2.2-1.4,3.3-3.5,3.8
			c-2.8,0.7-6.1-0.6-7.5-3c-0.5-0.9-0.9-1.8-0.9-2.9c0-0.8,0-1.5,0-2.3c0-0.5-0.2-0.8-0.7-1c-3.1-1.2-5.6-3.1-7-6.2
			c-1.4-3-0.8-6.3,1.6-8.1c1.7-1.3,3.6-1.9,5.6-2.1c3.2-0.3,6.3,0.2,9.3,1.2c0.3,0.1,0.8,0.4,1-0.1c0.2-0.5-0.4-0.7-0.7-0.9
			c-2.3-1.1-4.8-1.8-7.3-2.1C-13.4-15-14.3-15-15-15z"/>
		<path class="st0" d="M10.6-6.3c0.1,1.5,0.9,2.8,1.9,3.9c1.9,2,4.2,3.3,6.7,4.2c2.3,0.8,4.6,1.3,7.1,1c1-0.1,1.2-0.5,0.7-1.4
			c-1.2-2.1-2.4-4.2-3.6-6.3c-0.2-0.4-0.5-0.9-0.7-1.3c-0.1-0.3-0.2-0.7,0.1-1c0.3-0.3,0.7-0.1,1,0c0.4,0.2,0.7,0.5,1.1,0.9
			c0.2,0.2,0.3,0.3,0.6,0.2c0.2-0.2,0.2-0.4,0.1-0.6c-0.3-1.2-2.5-2.6-3.7-2.5c-1,0.1-1.6,0.7-1.8,1.7c-0.1,0.5-0.2,0.7-0.7,0.3
			c-1.5-1.3-3.3-1.9-5.3-2.1C12.2-9.5,10.6-8.2,10.6-6.3z M24.5,1.9c-0.3,0-0.4,0-0.5,0c-3.2-0.5-5.8-2.1-7.9-4.3
			c-0.8-0.9-1.6-1.9-1.7-3.1c-0.2-1.2,0.4-1.9,1.6-2c1-0.1,1.8,0.3,2.5,0.9c1.5,1.2,2.5,2.7,3.5,4.3C22.7-0.9,23.6,0.4,24.5,1.9z"/>
		<path class="st0" d="M2.9-6.2c0.7,0.3,1.2,0.7,1.6,1.1c2.1,1.8,3.8,3.9,4.9,6.5C10,2.7,10.3,4,10.1,5.4C9.9,6.6,8.8,7.1,8,6.1
			C7.9,6,7.8,5.8,7.6,6C7.4,6.1,7.4,6.2,7.5,6.4c0.1,0.5,0.4,0.8,0.7,1c1.2,0.8,2.4,0.8,3.6,0.1c1.1-0.7,1.4-1.7,1.3-3
			C12.7,1.2,11-1.3,8.7-3.6C6.5-5.7,3.9-7.4,1.3-9C1.2-9,1.1-9.1,1-9.1C0.8-9.2,0.6-9.4,0.3-9.2C0.1-9,0.1-8.8,0.2-8.5
			c0.1,1,0.3,1.9,0.5,2.9c0.3,2.1,0.4,4.3,0,6.4C0.4,1.7,0,2.4-0.7,3C-0.8,3.1-1.1,3.2-1,3.4c0.1,0.2,0.3,0.2,0.5,0.2
			c0.6,0.1,1.2,0.2,1.8,0.2c2-0.1,3-1.2,3.1-3.3c0.1-1.9-0.4-3.8-1-5.6C3.2-5.3,3.1-5.7,2.9-6.2z"/>
		<path class="st0" d="M-12.1-9.2c-0.7,0-1.4,0-2.2,0.3c-1.7,0.7-2.4,2-2,3.7c0.4,1.9,1.5,3.2,2.9,4.4c2.4,1.9,5,3.3,8.1,3.7
			c0.4,0,0.8,0.1,1.2,0c1.1-0.2,2-0.6,2.4-1.8c0.4-1.3-0.1-2.2-1-3.1c-0.7-0.7-1.6-1.2-2.5-1.5c-1.4-0.6-2.8-1-4.3-1.4
			c-0.2,0-0.3-0.1-0.5-0.1c-0.3,0-0.7-0.1-0.8,0.3c-0.1,0.4,0.2,0.6,0.5,0.7c0.3,0.2,0.7,0.3,1,0.4c1.8,0.8,3.5,1.7,4.8,3.2
			C-4,0.3-3.6,0.9-4,1.6C-4.4,2.3-5.2,2-5.8,1.8c-3.4-1.1-5.7-3.4-6.6-6.9c-0.4-1.7,0.7-2.8,2.4-2.6c1.4,0.1,2.8,0.6,4,1.3
			c0.1,0,0.1,0.1,0.2,0.1C-5.6-6.2-5.2-5.9-5-6.2C-4.7-6.5-5.1-6.8-5.3-7C-6.1-7.7-7-8.1-7.9-8.4C-9.2-8.9-10.6-9.2-12.1-9.2z"/>
	</g>
</symbol>
<linearGradient id="SVGID_1_" gradientUnits="userSpaceOnUse" x1="-2088.6685" y1="525.3874" x2="-2087.9614" y2="526.0945">
	<stop  offset="0" style="stop-color:#DDDEE2"/>
	<stop  offset="0.1791" style="stop-color:#D9DADE"/>
	<stop  offset="0.3627" style="stop-color:#CDCED2"/>
	<stop  offset="0.5483" style="stop-color:#B8BBBE"/>
	<stop  offset="0.7355" style="stop-color:#9B9FA1"/>
	<stop  offset="0.922" style="stop-color:#777C7D"/>
	<stop  offset="1" style="stop-color:#656B6C"/>
</linearGradient>
<g id="images">
</g>
<g id="frames">
</g>
<g id="Layer_35">
	<g id="Video_Masked">
	</g>
	
		<use xlink:href="#eeva_x5F_logo"  width="54.7" height="30" x="-27.3" y="-15" transform="matrix(1 0 0 -1 27.3463 15)" style="overflow:visible;"/>
	<g id="video_x5F_purple_x5F_pos">
	</g>
	<g id="simulator_x5F_purple_x5F_pos">
	</g>
</g>
<g id="Layer_3">
</g>
</svg>
