<?xml version="1.0" encoding="utf-8"?>
<!-- Generator: Adobe Illustrator 19.2.0, SVG Export Plug-In . SVG Version: 6.00 Build 0)  -->
<svg version="1.1" xmlns="http://www.w3.org/2000/svg" xmlns:xlink="http://www.w3.org/1999/xlink" x="0px" y="0px"
	 viewBox="0 0 127.1 20" style="enable-background:new 0 0 127.1 20;" xml:space="preserve">
<style type="text/css">
	.Drop_x0020_Shadow{fill:none;}
	.Round_x0020_Corners_x0020_2_x0020_pt{fill:#FFFFFF;stroke:#231F20;stroke-miterlimit:10;}
	.Live_x0020_Reflect_x0020_X{fill:none;}
	.Bevel_x0020_Soft{fill:url(#SVGID_1_);}
	.Dusk{fill:#FFFFFF;}
	.Foliage_GS{fill:#FFDC00;}
	.Pompadour_GS{fill-rule:evenodd;clip-rule:evenodd;fill:#44ACE1;}
	.Graphic_x0020_Style{fill-rule:evenodd;clip-rule:evenodd;fill:#262A33;}
	.st0{fill:#95D4D1;}
	.st1{fill:none;stroke:#FFFFFF;stroke-miterlimit:10;}
	.st2{fill:none;stroke:#FFFFFF;stroke-width:1.0032;stroke-miterlimit:10;}
	.st3{fill:#FFFFFF;stroke:#503291;stroke-width:0.875;stroke-miterlimit:10;}
	.st4{fill:none;stroke:#503291;stroke-linecap:round;stroke-miterlimit:10;}
	.st5{fill:#FFFFFF;}
	.st6{fill:#503291;}
	.st7{clip-path:url(#SVGID_21_);fill:#503291;}
	.st8{clip-path:url(#SVGID_21_);}
	.st9{fill:#A5CD50;}
	.st10{fill:#58A528;}
	.st11{fill:#7E8081;}
	.st12{fill:#7E8083;}
	.st13{fill:none;stroke:#503291;stroke-width:2;stroke-miterlimit:10;}
	.st14{fill:none;stroke:#95D4D1;stroke-miterlimit:10;}
	.st15{fill:none;stroke:#503291;stroke-width:1.1713;stroke-miterlimit:10;}
	.st16{opacity:0.2;}
	.st17{fill:#231F20;}
	.st18{fill-rule:evenodd;clip-rule:evenodd;fill:#00B4AE;}
	.st19{fill:#DCDCDC;}
	.st20{fill:#8C8C8C;}
	.st21{fill:#6B6D70;}
	.st22{fill:none;}
	.st23{fill:#E50278;}
	.st24{fill:none;stroke:#503291;stroke-width:0.5667;stroke-miterlimit:10;}
	.st25{fill:#16BECF;}
	.st26{fill:#FFFFFF;stroke:#503291;stroke-miterlimit:10;}
	.st27{fill:none;stroke:#503291;stroke-miterlimit:10;}
	.st28{opacity:0.2;fill:#FFFFFF;}
	.st29{fill:none;stroke:#FFFFFF;stroke-width:3;stroke-linecap:round;stroke-miterlimit:10;}
	.st30{opacity:0.3;fill:none;stroke:#FFFFFF;stroke-width:5;stroke-miterlimit:10;}
	.st31{fill:none;stroke:#FFFFFF;stroke-width:2;stroke-miterlimit:10;}
	.st32{fill:none;stroke:#FFFFFF;stroke-width:2;stroke-miterlimit:10;stroke-dasharray:5.0187,5.0187;}
	.st33{fill:none;stroke:#A5CD50;stroke-width:8;stroke-miterlimit:10;}
	.st34{clip-path:url(#SVGID_37_);fill:#95D4D1;}
	.st35{clip-path:url(#SVGID_37_);fill:#A5CD50;}
	.st36{fill:url(#SVGID_38_);}
	.st37{fill:#7E8081;stroke:#7E8081;stroke-width:0.2678;stroke-miterlimit:10;}
	.st38{fill:#F2F2F2;}
</style>
<linearGradient id="SVGID_1_" gradientUnits="userSpaceOnUse" x1="-1324.8767" y1="907.7846" x2="-1324.1697" y2="908.4917">
	<stop  offset="0" style="stop-color:#DDDEE2"/>
	<stop  offset="0.1791" style="stop-color:#D9DADE"/>
	<stop  offset="0.3627" style="stop-color:#CDCED2"/>
	<stop  offset="0.5483" style="stop-color:#B8BBBE"/>
	<stop  offset="0.7355" style="stop-color:#9B9FA1"/>
	<stop  offset="0.922" style="stop-color:#777C7D"/>
	<stop  offset="1" style="stop-color:#656B6C"/>
</linearGradient>
<g id="images">
</g>
<g id="frames">
</g>
<g id="Layer_35">
	<g id="Video_Masked">
	</g>
	<g id="video_x5F_purple_x5F_pos">
	</g>
	<g id="simulator_x5F_purple_x5F_pos">
	</g>
	<g>
		<path class="st9" d="M108.8,19.7c1.3,0,2.4-0.6,3.2-1.4c0,0,0.6-0.6,1.3-1.3c0.4-0.4,1-0.7,1.6-0.8c0.1,0,0.4,0,0.4,0
			c0.2,0,0.4,0,0.6,0c0.7,0.1,1.3,0.3,1.9,0.5l5.5,2.3c0,0,1.3,0.6,2.5,0.6h0.8c0.3,0,0.4-0.2,0.4-0.5v-2c0-1.4-0.8-2.7-2.2-3.3
			l-1.2-0.5c-1-0.4-2.1-1.1-2.7-1.6c0,0-1.1-1.3,0.2-2.6l4.9-4.9c0.6-0.7,1-1.5,1-2.4c0,0,0-0.4-0.1-0.7c-0.1-0.3-0.2-0.5-0.4-0.6
			c-0.3-0.3-0.7-0.5-1.3-0.5h-0.8c-1.3,0-2.4,0.6-3.2,1.4c0,0-3.2,3.2-4.1,4.1l-4.5,4.5V2.9c0-1.6-1.3-2.9-2.9-2.9h-1.2
			c-0.3,0-0.8,0-1,0.1c-0.2,0.1-0.2,0.3-0.2,0.5v18.7c0,0.2,0.2,0.4,0.4,0.4H108.8z"/>
		<path class="st9" d="M85.6,17.3c0,0-1-0.3-3.1-1.9c-1.1-0.8-1.8-1.5-2.2-1.7c0.4-0.2,1.6-0.7,2.8-2c0.7-0.8,1.1-1.8,1.1-3.1
			c0-1.2-0.3-2.3-1-3.3c-0.7-1-1.6-2-2.7-2.7c-1.1-0.8-2.3-1.4-3.6-1.8c-1.4-0.5-2.7-0.7-4-0.7c0,0-7.9,0-8,0
			c-0.2,0-0.4,0.2-0.4,0.4v13.3v3v1v1.3c0,0.2,0,0.4,0.2,0.5c0.2,0.1,0.8,0.2,1.1,0.2c0.5,0,0.9,0,1.4-0.2c0.7-0.2,1.3-0.7,1.7-1.3
			c0.8-1,0.9-2.1,0.9-3.3V6.9c0-0.1,0-0.4,0.1-0.5C69.9,6.1,70,6,70,6c0.6-1.1,2.7-1.6,4.9-1c3,0.8,3.9,2.8,3.5,3.7
			c-0.3,1-1.4,1.6-2.7,1.6c-0.6,0-1.3-0.1-2-0.3c0,0-0.4-0.1-0.8-0.2c-0.2,0-0.5-0.2-0.7-0.2c-0.2,0-0.3,0.2-0.3,0.5v2.1
			c0,0.7,0.3,1.4,0.7,1.8c0,0,6.5,5.1,6.5,5.1c0.6,0.5,1.3,0.7,2,0.7l4.3,0c0.3,0,0.5-0.2,0.5-0.6v-1.4
			C85.9,17.6,85.7,17.4,85.6,17.3"/>
		<path class="st9" d="M59.6,14.6h-5.7c-0.8,0-1.6-0.2-2.3-0.5c-0.6-0.3-1.6-1.1-1.8-1.4c-0.5-0.6-0.9-1.2-1.2-2
			c-0.3-0.8-0.4-1.5-0.4-2.3c0-1,0.3-1.8,0.9-2.4c0.1-0.1,0.3-0.3,0.6-0.5c0.3-0.2,0.6-0.3,0.8-0.3c0.3-0.1,0.7-0.1,1.1-0.1
			c0.4,0,0.8,0,1.1,0.1C53.3,5.3,54,5.6,54.6,6c0.9,0.6,1.8,1.4,2.5,2.2l-5.9,0c-0.4,0-0.5,0.2-0.5,0.5c0,0.6,0.1,1,0.3,1.5
			c0.2,0.5,1.4,2.3,3.7,2.3l5.5,0c1,0,1.6-0.3,2-0.8c0.4-0.5,0.5-1,0.5-1.6c0-1.1-0.3-2.2-0.9-3.4c-0.6-1.2-1.4-2.3-2.4-3.3
			c-1-1-2.2-1.8-3.6-2.4C54.4,0.3,53,0,51.5,0h-8.1C43.2,0,43,0.2,43,0.4v8.1c0,1.5,0.3,3,0.9,4.3c0.6,1.4,1.4,2.5,2.4,3.6
			c1,1,2.2,1.8,3.5,2.4c1.3,0.6,2.8,0.9,4.3,0.9h8.2c0.2,0,0.4-0.2,0.4-0.4v-1.6c0-1-0.3-1.7-0.8-2.2C61.3,14.9,60.6,14.6,59.6,14.6
			"/>
		<path class="st9" d="M41.2,2.9c0-1.6-1.3-2.9-2.9-2.9h-3.1c-0.2,0-0.3,0.1-0.4,0.2l-6.2,5.8c-2.1,2-4.9,3.1-8.1,3.1
			c-3.3,0-6.2-1.2-8.3-3.3c0,0-4.5-4.2-4.6-4.3C6.8,0.6,5.6,0,4.3,0H0.6C0.3,0,0,0.3,0,0.6v16.2c0,1.6,1.3,2.9,2.9,2.9H4l0.8,0
			c0.3,0,0.6-0.3,0.6-0.6l0-5.8c0-1.5,1.2-2.8,2.7-2.8c2.8,0,4.7,2.4,6.5,4c2.2,1.9,3.9,3.8,6,3.8c2.1,0,3.8-1.9,6-3.8
			c1.8-1.6,3.8-4,6.5-4c1.5,0,2.7,1.2,2.7,2.7v3.5c0,1.6,1.3,2.9,2.9,2.9h1.3c0.3,0,0.6,0,0.6,0l0,0c0.3,0,0.6-0.3,0.6-0.6
			C41.2,19.1,41.2,3,41.2,2.9"/>
		<path class="st9" d="M105.2,11.5h-3c-1.1,0-1.8,0.5-2.1,1.4c-0.2,0.6-0.5,1.1-1,1.5c-0.5,0.4-1.1,0.6-1.8,0.6
			c-0.7,0-1.4-0.2-2.1-0.6c-0.7-0.4-1.4-0.9-1.9-1.5c-0.6-0.6-1-1.3-1.4-2.1c-0.4-0.8-0.5-1.6-0.5-2.3c0-1,0.3-1.8,0.9-2.4
			c0.6-0.6,1.3-0.9,2.2-0.9c1,0,2,0.4,3,1.1c0.4,0.3,0.8,0.5,1.3,0.5c0.5,0,0.9-0.3,1.4-0.8l2-2c0.1-0.1,0.2-0.2,0.1-0.3
			c0-0.1-0.1-0.2-0.2-0.3c-1.1-1-2.3-1.8-3.6-2.3C97.2,0.3,95.8,0,94.4,0h-8c-0.3,0-0.5,0.2-0.5,0.5v8c0,1.5,0.3,3,0.9,4.4
			c0.6,1.4,1.5,2.6,2.5,3.7c1.1,1.1,2.3,1.9,3.6,2.5c1.4,0.6,2.8,0.9,4.2,0.9c1.2,0,2.3-0.2,3.2-0.6c1-0.4,1.9-1,2.6-1.7
			c0.7-0.7,1.3-1.5,1.8-2.5c0.4-1,0.7-2.1,0.8-3.2C105.6,11.6,105.5,11.5,105.2,11.5"/>
	</g>
</g>
<g id="Layer_3">
</g>
</svg>
