<?xml version="1.0" encoding="utf-8"?>
<!-- Generator: Adobe Illustrator 19.2.0, SVG Export Plug-In . SVG Version: 6.00 Build 0)  -->
<svg version="1.1" xmlns="http://www.w3.org/2000/svg" xmlns:xlink="http://www.w3.org/1999/xlink" x="0px" y="0px"
	 viewBox="0 0 90.4 45" style="enable-background:new 0 0 90.4 45;" xml:space="preserve">
<style type="text/css">
	.st0{fill:#16BECF;}
	.st1{fill:#A5CD50;}
	.st2{fill:#503291;}
	.Drop_x0020_Shadow{fill:none;}
	.Round_x0020_Corners_x0020_2_x0020_pt{fill:#FFFFFF;stroke:#231F20;stroke-miterlimit:10;}
	.Live_x0020_Reflect_x0020_X{fill:none;}
	.Bevel_x0020_Soft{fill:url(#SVGID_1_);}
	.Dusk{fill:#FFFFFF;}
	.Foliage_GS{fill:#FFDC00;}
	.Pompadour_GS{fill-rule:evenodd;clip-rule:evenodd;fill:#44ACE1;}
	.Graphic_x0020_Style{fill-rule:evenodd;clip-rule:evenodd;fill:#262A33;}
	.st3{fill:#95D4D1;}
	.st4{fill:none;stroke:#FFFFFF;stroke-miterlimit:10;}
	.st5{fill:none;stroke:#FFFFFF;stroke-width:1.0032;stroke-miterlimit:10;}
	.st6{fill:#FFFFFF;stroke:#503291;stroke-width:0.875;stroke-miterlimit:10;}
	.st7{fill:none;stroke:#503291;stroke-linecap:round;stroke-miterlimit:10;}
	.st8{fill:#FFFFFF;}
	.st9{clip-path:url(#SVGID_21_);fill:#503291;}
	.st10{clip-path:url(#SVGID_21_);}
	.st11{fill:#58A528;}
	.st12{fill:#7E8081;}
	.st13{fill:#7E8083;}
	.st14{fill:none;stroke:#503291;stroke-width:2;stroke-miterlimit:10;}
	.st15{fill:none;stroke:#95D4D1;stroke-miterlimit:10;}
	.st16{fill:none;stroke:#503291;stroke-width:1.1713;stroke-miterlimit:10;}
	.st17{opacity:0.2;}
	.st18{fill:#231F20;}
	.st19{fill-rule:evenodd;clip-rule:evenodd;fill:#00B4AE;}
	.st20{fill:#DCDCDC;}
	.st21{fill:#8C8C8C;}
	.st22{fill:#6B6D70;}
	.st23{fill:none;}
	.st24{fill:#E50278;}
	.st25{fill:none;stroke:#503291;stroke-width:0.5667;stroke-miterlimit:10;}
	.st26{fill:#FFFFFF;stroke:#503291;stroke-miterlimit:10;}
	.st27{fill:none;stroke:#503291;stroke-miterlimit:10;}
	.st28{opacity:0.2;fill:#FFFFFF;}
	.st29{fill:none;stroke:#FFFFFF;stroke-width:3;stroke-linecap:round;stroke-miterlimit:10;}
	.st30{opacity:0.3;fill:none;stroke:#FFFFFF;stroke-width:5;stroke-miterlimit:10;}
	.st31{fill:none;stroke:#FFFFFF;stroke-width:2;stroke-miterlimit:10;}
	.st32{fill:none;stroke:#FFFFFF;stroke-width:2;stroke-miterlimit:10;stroke-dasharray:5.0187,5.0187;}
	.st33{fill:none;stroke:#A5CD50;stroke-width:8;stroke-miterlimit:10;}
	.st34{clip-path:url(#SVGID_37_);fill:#95D4D1;}
	.st35{clip-path:url(#SVGID_37_);fill:#A5CD50;}
	.st36{fill:url(#SVGID_38_);}
	.st37{fill:#7E8081;stroke:#7E8081;stroke-width:0.2678;stroke-miterlimit:10;}
	.st38{fill:#F2F2F2;}
</style>
<symbol  id="Vibrant_M" viewBox="-45.2 -22.5 90.4 45">
	<path class="st0" d="M45.2,14.7h-3.3c0,1-0.3,2-0.9,2.7c-0.6,0.8-1.5,1.4-2.4,1.6c-0.2,0.1-0.5,0.1-0.7,0.1c-0.1,0-0.2,0-0.4,0
		l-0.5,0h-2h-4l0.6,0.1L31,19.1L23.4,12l-3.9-3.7c-0.7-0.6-1.3-1.2-2-1.9c-0.7-0.6-1.5-1.2-2.3-1.8C12.1,2.5,8.4,1.1,4.7,0.5
		C0.9-0.1-2.9,0-6.6,0.9c-3.7,0.9-7.2,2.6-10.2,5c-0.7,0.6-1.5,1.3-2.1,1.9l-1.9,1.8l-3.9,3.7l-3.9,3.6c-1.1,1-2.5,1.7-4,2.1
		c-0.4,0.1-0.7,0.2-1.1,0.2c-0.2,0-0.4,0-0.6,0l-0.2,0l-0.3,0l-2.7-0.2l-4.7-0.3l0.3,0.3V-5.4v-6.3l0-3.1c0-0.6,0.3-1.3,0.8-1.9
		c0.9-1.2,2.6-2.2,4.2-2.4c0.2,0,0.4,0,0.6,0l0.7,0c0.5,0,1,0,1.5,0l0.3,0v0.1v6.3v3.1v1.6l0,0.8c0,0.3,0,0.7,0.1,1
		c0.4,2.7,2.3,5,4.9,5.9c0.6,0.2,1.3,0.4,2,0.4c0.2,0,0.3,0,0.5,0c0.2,0,0.3,0,0.5,0c0.3,0,0.6,0,0.9-0.1c1.2-0.1,2.4-0.5,3.5-0.9
		c2.2-0.9,4-2.3,5.6-3.7c1.7-1.4,3.1-2.9,4.6-4.2c1.6-1.4,3.1-2.8,4.6-4.1c1.5-1.3,3.1-2.4,4.8-3c1.6-0.5,3.2-0.4,4.9,0.4
		c1.6,0.8,3.2,2.1,4.7,3.4L12.3-8c1.5,1.4,3,2.9,4.8,4.3c1.7,1.4,3.7,2.6,6,3.3c1.2,0.3,2.3,0.5,3.6,0.5c1.4,0,2.7-0.4,3.8-1.2
		c1.1-0.7,2-1.8,2.6-3c0.3-0.6,0.5-1.2,0.6-1.9c0.1-0.3,0.1-0.7,0.1-1l0-0.3l0-0.1v-0.1v-0.4l0-6.3l0-0.7c0-0.2,0-0.3,0.1-0.5
		c0.1-0.3,0.2-0.6,0.4-1c0.4-0.6,1-1.2,1.7-1.7c0.7-0.5,1.5-0.8,2.3-1c0.4-0.1,0.8-0.2,1.2-0.2l0.3,0l0.4,0l0.8,0c0.2,0,0.5,0,0.7,0
		l0.2,0v2.5v6.3v25.1H45.2v-25.1v-6.3v-1.6V-19l0-0.6c0-0.3,0-0.5-0.1-0.8c-0.1-0.5-0.3-0.9-0.6-1.3c-0.3-0.4-0.8-0.6-1.3-0.7
		c-0.2-0.1-0.5-0.1-0.8-0.1l-0.2,0l-0.2,0l-0.2,0c-0.3,0-0.6,0-0.8,0l-0.8,0l-0.4,0l-0.2,0l-0.2,0c-0.7,0-1.3,0.1-1.9,0.3
		c-1.2,0.3-2.3,0.8-3.4,1.5c-1,0.7-2,1.6-2.7,2.8c-0.3,0.6-0.6,1.2-0.8,1.9c-0.1,0.3-0.1,0.7-0.1,1.1l0,0.3v0.2v0.4l0,6.3v0.4v0.1
		l0,0.1l0,0.1c0,0.2,0,0.4-0.1,0.6c-0.1,0.4-0.2,0.7-0.4,1.1c-0.3,0.7-0.9,1.3-1.5,1.7c-0.6,0.4-1.4,0.6-2.1,0.7
		c-0.8,0-1.7-0.1-2.6-0.4c-1.7-0.5-3.3-1.5-4.9-2.8c-1.5-1.2-3-2.7-4.6-4.1l-4.7-4.2c-1.6-1.4-3.3-2.8-5.4-3.9
		c-1.1-0.5-2.3-0.9-3.6-1c-1.3-0.1-2.6,0.1-3.7,0.4c-1.2,0.4-2.2,1-3.2,1.6c-1,0.6-1.8,1.3-2.7,2c-1.7,1.4-3.2,2.8-4.7,4.2
		c-1.6,1.4-3.1,2.9-4.6,4.2c-1.5,1.3-3.1,2.5-4.8,3.2c-0.8,0.4-1.7,0.6-2.6,0.7c-0.2,0-0.4,0-0.7,0.1l-0.3,0c-0.1,0-0.2,0-0.3,0
		c-0.4,0-0.7-0.1-1.1-0.2c-1.4-0.5-2.5-1.8-2.7-3.3c0-0.2,0-0.4,0-0.6l0-0.8v-1.6v-3.1v-6.3l0-0.7c0-0.3,0-0.5-0.1-0.8
		c-0.1-0.5-0.4-0.9-0.7-1.2c-0.4-0.3-0.8-0.5-1.3-0.6c-0.3,0-0.5-0.1-0.8-0.1l-0.5,0c-0.6,0-1.1,0-1.6,0l-0.8,0c-0.3,0-0.7,0-1,0.1
		c-1.3,0.2-2.4,0.6-3.5,1.2c-1.1,0.6-2.1,1.4-2.9,2.5c-0.8,1-1.4,2.4-1.4,3.8l0,3.2v6.3v25.8l1.5,1.5l6,0.4l2.7,0.2l0.4,0
		c0.1,0,0.1,0,0.2,0l0.1,0l0.2,0c0.3,0,0.5,0,0.8-0.1c0.5-0.1,1-0.1,1.5-0.3c2-0.5,3.9-1.4,5.4-2.8l0.3-0.3l0.2-0.2l0.5-0.5l1-0.9
		l2-1.8l3.9-3.7l2-1.8c0.6-0.6,1.2-1.2,1.9-1.7c2.6-2.1,5.7-3.6,8.9-4.4c3.2-0.8,6.7-0.9,10-0.4c3.3,0.5,6.5,1.8,9.2,3.7
		c0.7,0.5,1.3,1,2,1.5c0.6,0.5,1.3,1.2,1.9,1.8l3.9,3.7l8.1,7.6l0.7,0.3l0.4,0.2l0.3,0.1h0.3h4h2l0.5,0c0.2,0,0.4,0,0.6,0
		c0.4,0,0.8-0.1,1.3-0.2c1.7-0.4,3.1-1.4,4.2-2.8C44.6,18.1,45.2,16.4,45.2,14.7"/>
	<path class="st1" d="M44.6,13.4c0-1.5-0.1-2.8-0.2-3.8c0-0.3-0.1-0.7-0.1-1c-0.1-1.2-0.1-3-0.1-4.6c0,0,0-0.1,0-0.1
		c0-0.1,0-0.1,0-0.2c0-0.4,0-0.9,0-1.3c0-0.8,0-1.5,0.1-2.2c0-0.3,0-0.6,0.1-0.9c0-0.3,0-0.6,0.1-0.8c0-0.3,0.1-0.6,0.1-1
		c0-0.6,0.1-1.3,0.1-2c0-0.8,0-1.7,0-2.5h0c0-0.4,0-0.9,0-1.3c0-1.5-0.1-2.8-0.2-3.8c0-0.3-0.1-0.7-0.1-1c-0.1-1.2-0.1-3-0.1-4.6
		c0,0,0-0.1,0-0.1c0-0.1,0-0.1,0-0.2c0-0.4,0-0.9,0-1.4c0-0.5,0-1-0.3-1.4c-0.3-0.4-0.8-0.5-1.2-0.6c-0.1,0-0.2,0-0.3,0
		c-0.1,0-0.2,0-0.3,0c-0.1,0-0.3,0-0.5-0.1c-0.3,0-0.6-0.1-0.8-0.1c-0.3,0-0.6-0.1-1-0.1c-0.7,0-1.5,0-2.3,0.2
		c-0.9,0.2-1.7,0.6-2.6,1.1v0c-0.4,0.3-0.8,0.6-1.2,0.9c-0.6,0.5-1.1,1.2-1.5,1.8c-0.4,0.7-0.6,1.3-0.7,1.9c-0.1,0.4-0.1,0.7,0,1.1
		c0.1,1.2,0.1,3,0.1,4.6v0.1v0.2c0,0.4,0,0.9,0,1.3c0,0.4,0,0.7,0,1.1c0,0.3-0.1,0.6-0.1,0.9c-0.1,0.3-0.2,0.5-0.3,0.8
		c-0.1,0.2-0.2,0.5-0.4,0.6c-0.1,0.2-0.3,0.4-0.5,0.7C30-4,29.5-3.6,29-3.3c-0.6,0.3-1.2,0.6-1.9,0.7v0c-0.2,0-0.4,0-0.5,0
		c-0.2,0-0.4,0-0.6,0c-1.3,0-2.5-0.4-3.4-0.7c-0.3-0.1-0.5-0.2-0.9-0.3c-1-0.4-2.5-1.3-3.8-2.4c0,0,0,0-0.1-0.1l-0.1-0.1
		c-0.3-0.3-0.6-0.6-1-0.8c-0.6-0.5-1.1-1-1.6-1.5c-0.2-0.2-0.4-0.5-0.6-0.7c-0.2-0.2-0.4-0.4-0.6-0.6c-0.2-0.2-0.4-0.5-0.7-0.7
		c-0.4-0.4-0.9-0.9-1.4-1.4c-0.6-0.6-1.2-1.1-1.8-1.7h0c-0.3-0.3-0.7-0.6-1-0.9c-1.1-1-2.3-1.8-3.2-2.3c-0.3-0.2-0.6-0.3-0.9-0.5
		c-0.6-0.3-1.3-0.6-2.1-0.9c-0.8-0.3-1.7-0.4-2.6-0.5c0,0-0.1,0-0.1,0c-0.1,0-0.1,0-0.2,0c-0.5,0-0.9,0.1-1.4,0.1
		c-0.8,0.1-1.6,0.4-2.2,0.7c-0.3,0.1-0.6,0.3-0.9,0.4c-0.2,0.1-0.5,0.3-0.8,0.4c-0.3,0.1-0.6,0.3-0.9,0.5c-0.5,0.3-1.1,0.7-1.7,1.2
		c-0.6,0.5-1.3,1.1-2,1.6v0c-0.3,0.3-0.7,0.6-1,0.9c-1.1,1-2,1.9-2.7,2.7c-0.2,0.2-0.4,0.5-0.7,0.7c-0.8,0.9-2,2.1-3.3,3.2l-0.1,0.1
		L-17.8-6c-0.3,0.3-0.7,0.5-1,0.8c-0.6,0.4-1.2,0.8-1.8,1.1c-0.3,0.2-0.5,0.3-0.8,0.4c-0.3,0.1-0.5,0.2-0.7,0.3
		c-0.2,0.1-0.6,0.2-0.9,0.3c-0.5,0.2-1.2,0.3-1.8,0.4c-0.4,0.1-0.7,0.1-1.1,0.1c-0.2,0-0.4,0-0.6,0c-0.2,0-0.3,0-0.5,0v0
		c-0.4,0-0.7-0.1-1.1-0.3c-1.1-0.4-2-1.2-2.5-1.9c-0.2-0.2-0.3-0.4-0.5-0.7c-0.2-0.5-0.5-1.1-0.5-1.8c0-0.8,0-1.7,0-2.5v-0.1V-10
		c0-0.4,0-0.9,0-1.3c0-0.8,0-1.5,0.1-2.2c0-0.3,0-0.6,0.1-0.9c0-0.3,0-0.6,0.1-0.8c0-0.3,0.1-0.6,0.1-1c0-0.6,0.1-1.3,0.1-2
		c0-0.2,0-0.4,0-0.6l0-0.3l0-0.5c0-0.3,0-0.7-0.2-1c-0.1-0.3-0.3-0.6-0.6-0.8c-0.3-0.2-0.6-0.3-1-0.3c-0.2,0-0.4-0.1-0.5-0.1l-0.2,0
		l-0.2,0c-0.8,0-1.5,0-2.2,0l-0.2,0l-0.3,0c-0.2,0-0.3,0-0.5,0.1c-0.3,0.1-0.6,0.1-0.9,0.2c-0.4,0.1-0.6,0.2-1,0.4
		c-1.2,0.5-2.9,1.5-4,2.9l-0.1,0.1c0,0-0.1,0.1-0.1,0.2c-0.3,0.4-0.5,0.8-0.7,1.2c-0.2,0.4-0.3,0.8-0.4,1.2
		c-0.1,0.4-0.1,0.8-0.1,1.2c0,0.3,0,0.6-0.1,0.9c0,0.3,0,0.6-0.1,0.8c0,0.3-0.1,0.6-0.1,1c0,0.6-0.1,1.3-0.1,2c0,0.8,0,1.7,0,2.5h0
		c0,0.4,0,0.9,0,1.3c0,1.5,0.1,2.8,0.2,3.8c0,0.3,0.1,0.7,0.1,1c0.1,1.2,0.1,3,0.1,4.6v0.1v0.2c0,0.4,0,0.9,0,1.3
		c0,0.8,0,1.5-0.1,2.2c0,0.3,0,0.6-0.1,0.9c0,0.3,0,0.6-0.1,0.8c0,0.3-0.1,0.6-0.1,1c0,0.6-0.1,1.3-0.1,2c0,0.8,0,1.7,0,2.5h0
		c0,0.4,0,0.9,0,1.3c0,0.7,0,1.4,0.1,2c0,0.6,0.1,1.3,0.1,2c0.1,0.1,0.2,0.1,0.2,0.2c0.3,0.2,0.3,0.3,0.5,0.4
		c0.1,0.1,0.3,0.2,0.4,0.3l0.4,0c0.4,0,0.8,0,1.2,0c0.4,0,0.8,0,1.1,0c0.8,0,1.7,0.1,2.5,0.1c0,0,0.1,0,0.1,0c0.1,0,0.1,0,0.2,0
		c0.4,0,0.9,0.1,1.3,0.1c0.4,0,0.7,0.1,1.1,0.1c0.2,0,0.4,0,0.5,0.1l0.3,0c0.1,0,0.1,0,0.2,0l0.1,0c0.4,0,0.7,0,1,0
		c0.3,0,0.6,0,0.9-0.1c0.3,0,0.7-0.1,1-0.2c0.6-0.1,1.4-0.4,2.1-0.7c0.8-0.4,1.6-0.9,2.3-1.5h0c0.2-0.2,0.4-0.3,0.5-0.5
		c0.2-0.2,0.3-0.3,0.5-0.5c1.1-1,2-2,2.7-2.7c0.2-0.2,0.4-0.5,0.6-0.7c0.8-0.9,2.1-2.1,3.3-3.3l0.1-0.1l0.1-0.1
		c0.3-0.3,0.6-0.6,1-0.9c0.5-0.5,1.1-1,1.6-1.5c0.2-0.2,0.5-0.4,0.7-0.6c0.2-0.2,0.5-0.3,0.6-0.5c0.3-0.2,0.5-0.3,0.8-0.5
		c0.5-0.3,1.1-0.7,1.7-1c0.7-0.4,1.4-0.8,2.1-1.1C-10.4,5-10,4.8-9.6,4.6c1.3-0.6,2.5-1,3.4-1.3C-5.9,3.2-5.6,3.1-5.3,3
		c1.1-0.3,2.8-0.6,4.5-0.7l0.1,0c0.1,0,0.1,0,0.2,0c0.4,0,0.9,0,1.3,0c0.7,0,1.5,0.1,2.1,0.2c0.3,0,0.6,0.1,0.9,0.2
		C4,2.8,4.3,2.9,4.5,2.9C4.8,3,5.1,3.1,5.4,3.2c0.5,0.2,1.2,0.4,1.9,0.6C8,4,8.8,4.3,9.5,4.6h0c0.4,0.2,0.8,0.3,1.2,0.5
		c1.3,0.6,2.4,1.2,3.2,1.7c0.3,0.2,0.5,0.3,0.8,0.5c0.5,0.3,1.1,0.7,1.7,1.2c0.6,0.5,1.2,1.1,1.8,1.7c0,0,0,0,0.1,0.1l0.1,0.1
		c0.3,0.3,0.6,0.6,0.9,0.9c0.5,0.5,1.1,1.1,1.5,1.5c0.2,0.2,0.4,0.5,0.6,0.7c0.2,0.2,0.4,0.4,0.5,0.6c0.2,0.2,0.4,0.5,0.7,0.7
		c0.4,0.4,0.9,0.9,1.4,1.5c0.6,0.6,1.2,1.2,1.8,1.7h0c0.3,0.3,0.7,0.6,1,0.9c0.5,0.4,0.9,0.8,1.4,1.2c0.4,0.4,0.9,0.7,1.3,1.1
		l0.3,0.1l0.2,0l0.1,0c0.1,0,0.3,0.1,0.4,0.1l0.2,0.1l0.1,0c0.2,0,0.3,0,0.5,0c1.2-0.1,3-0.1,4.6-0.1h0.1h0.2c0.4,0,0.9,0,1.3,0
		c0.8,0,1.7-0.2,2.4-0.4c0.3-0.1,0.7-0.3,0.9-0.4c0.3-0.1,0.6-0.3,0.8-0.5c0.3-0.2,0.6-0.4,0.9-0.7c0.5-0.5,1-1.1,1.3-1.9
		c0.4-0.8,0.6-1.8,0.6-2.8h0.1c0,0.5-0.1,1.1-0.2,1.6c-0.2,0.8-0.5,1.6-0.9,2.3c-0.4,0.7-0.8,1.2-1.2,1.6c-0.3,0.3-0.5,0.5-0.9,0.8
		c-0.6,0.4-1.4,0.9-2.4,1.1c-0.5,0.1-1,0.2-1.5,0.2c-0.2,0-0.4,0-0.7,0c-0.2,0-0.4,0-0.6,0l-0.2,0l-0.1,0c-0.4,0-0.9,0-1.3,0
		c-0.8,0-1.5,0-2.2-0.1c-0.3,0-0.6,0-0.9-0.1c-0.3,0-0.5,0-0.7-0.1l-0.4,0l-0.1,0c0,0-0.1,0-0.1,0c-0.1-0.1-0.2-0.1-0.3-0.2l-0.1,0
		l-0.2-0.1c-0.1-0.1-0.2-0.1-0.4-0.2l-0.2-0.2c-0.3-0.3-0.5-0.5-0.7-0.8c-0.3-0.3-0.5-0.5-0.8-0.8c-0.6-0.6-1.2-1.2-1.8-1.7h0
		c-0.3-0.3-0.7-0.6-1-0.9c-1.1-1-2.1-1.9-2.9-2.5c-0.3-0.2-0.5-0.4-0.8-0.6c-0.9-0.7-2.3-1.9-3.5-3.1l-0.1-0.1l-0.1-0.1
		c-0.3-0.3-0.6-0.6-0.9-0.9c-0.6-0.5-1-1-1.5-1.5c-0.2-0.2-0.4-0.4-0.6-0.6c-0.2-0.2-0.4-0.3-0.6-0.5c-0.2-0.2-0.4-0.4-0.7-0.6
		c-0.4-0.3-1-0.7-1.6-1.1C11,5.3,10.3,5,9.5,4.7v0C9.1,4.5,8.7,4.3,8.3,4.2C7,3.8,5.7,3.5,4.8,3.4c-0.3,0-0.6,0-0.9-0.1
		C2.7,3.3,1,3.2-0.6,3.2l-0.2,0l-0.1,0c-0.4,0-0.8,0-1.2,0.1c-0.7,0-1.4,0.1-2.1,0.2c-0.3,0-0.6,0.1-0.9,0.1c-0.2,0-0.5,0.1-0.8,0.1
		c-0.3,0-0.6,0.1-0.9,0.1c-0.5,0.1-1.2,0.3-1.9,0.5c-0.7,0.2-1.5,0.5-2.2,0.9c-0.4,0.2-0.8,0.4-1.1,0.6c-1.2,0.7-2.3,1.5-2.9,2.1
		c-0.2,0.2-0.4,0.4-0.7,0.7c-0.5,0.5-1,1-1.4,1.5c-0.6,0.6-1.2,1.2-1.8,1.7l-0.1,0.1c0,0,0,0-0.1,0.1c-0.3,0.3-0.6,0.6-1,0.9
		c-0.6,0.5-1.1,1-1.6,1.5c-0.3,0.2-0.5,0.4-0.7,0.6c-0.2,0.2-0.5,0.4-0.6,0.5c-0.2,0.2-0.5,0.4-0.8,0.6c-0.5,0.4-1,0.8-1.5,1.3
		c-0.3,0.3-0.6,0.6-0.9,0.8c-0.2,0.1-0.3,0.3-0.5,0.4c-0.2,0.2-0.3,0.3-0.5,0.5h0c-0.4,0.3-0.8,0.6-1.2,0.9
		c-1.3,0.9-2.8,1.5-3.8,1.8c-0.4,0.1-0.6,0.2-1.1,0.3c-0.3,0.1-0.7,0.1-1.1,0.2l-0.3,0c-0.1,0-0.2,0-0.3,0l-0.2,0
		c-0.2,0-0.4,0-0.6,0c-0.8,0-1.7-0.1-2.5-0.1l-0.2,0c0,0-0.1,0-0.1,0c-0.4,0-0.9-0.1-1.3-0.1c-0.8-0.1-1.5-0.1-2.2-0.2
		c-0.3,0-0.7-0.1-1-0.1c-0.3,0-0.6-0.1-0.8-0.1c-0.1-0.2-0.3-0.3-0.4-0.5c-0.1-0.1-0.2-0.2-0.3-0.3c-0.2-0.2-0.4-0.4-0.5-0.6
		c0-0.3,0-0.5,0-0.8c0-0.1,0-0.3,0-0.4c0-0.1,0-0.2,0-0.2c0-0.2,0-0.3,0-0.5c0-0.4,0-0.7,0-1.1c0-0.8,0-1.6,0-2.5h0
		c0-0.4,0-0.9,0-1.3c0-1.5-0.1-2.8-0.2-3.8c0-0.3-0.1-0.7-0.1-1C-45,7.3-45,5.6-45,3.9V3.7V3.6c0-0.4,0-0.9,0-1.3
		c0-0.8,0-1.5,0.1-2.2c0-0.3,0-0.6,0.1-0.9c0-0.3,0-0.6,0.1-0.8c0-0.3,0.1-0.6,0.1-1c0-0.6,0.1-1.3,0.1-2c0-0.8,0-1.6,0-2.5h0
		c0-0.4,0-0.9,0-1.3c0-1.5-0.1-2.8-0.2-3.8c0-0.3-0.1-0.7-0.1-1c0-0.3,0-0.6-0.1-1c0-0.2,0-0.4,0-0.6c0-0.3,0-0.5,0-0.8
		c0.1-1.1,0.6-2.1,1.2-2.9l0.1-0.2c0,0,0-0.1,0.1-0.1c0.3-0.4,0.7-0.8,1.1-1.1c0.7-0.6,1.4-1,2.2-1.4c0.4-0.2,0.7-0.3,1-0.4
		c0.3-0.1,0.7-0.2,0.9-0.2c0.3-0.1,0.7-0.1,1.1-0.1c0.3,0,0.7,0,1.1,0c0.4,0,0.7,0,1.1,0c0.4,0,0.8,0,1.3,0.1l0.4,0
		c0.2,0,0.3,0,0.5,0.1c0.3,0.1,0.7,0.2,0.9,0.3h0c0.3,0.2,0.5,0.5,0.6,0.8c0.1,0.3,0.2,0.7,0.2,1c0,0.4,0,0.8,0,1.2c0,0.3,0,0.7,0,1
		c0,0.6,0.1,1.2,0.1,1.7c0,0.3,0.1,0.7,0.1,1c0.1,1.2,0.1,3,0.1,4.6v0.2v0.1c0,0.4,0,0.9,0,1.3c0,0.4,0,0.7,0,1.1c0,0.3,0,0.5,0,0.8
		c0,0.2,0.1,0.5,0.1,0.7c0.1,0.2,0.1,0.4,0.2,0.6c0.1,0.2,0.2,0.5,0.3,0.7c0.2,0.4,0.6,0.8,1.1,1.2c0.5,0.4,1.2,0.6,1.9,0.7v0
		c0.2,0,0.4,0,0.5,0c0.2,0,0.4,0,0.6,0c1.3-0.1,2.5-0.5,3.3-1c0.3-0.2,0.5-0.3,0.8-0.5c0.9-0.6,2.3-1.5,3.5-2.6l0.1-0.1l0.1-0.1
		c0.3-0.3,0.6-0.5,0.9-0.8c0.5-0.5,1.1-0.9,1.6-1.4c0.3-0.2,0.5-0.4,0.7-0.6c0.2-0.2,0.5-0.4,0.7-0.5c0.3-0.2,0.5-0.4,0.8-0.6
		c0.5-0.3,1-0.8,1.6-1.3c0.6-0.5,1.2-1.1,1.9-1.7c0.3-0.3,0.7-0.6,1-0.9c1.1-1,2.2-1.9,3-2.6c0.3-0.2,0.5-0.4,0.8-0.6
		c0.5-0.4,1.3-0.8,2.1-1.1c0.9-0.3,1.9-0.5,2.9-0.6h0.2c0,0,0.1,0,0.1,0c0.5,0,1,0.1,1.5,0.2c0.9,0.2,1.7,0.5,2.4,0.9
		c0.3,0.2,0.6,0.3,0.9,0.5c0.3,0.2,0.5,0.4,0.7,0.5c0.3,0.2,0.6,0.4,0.8,0.7c0.5,0.4,1,0.9,1.6,1.4c0.7,0.6,1.3,1.1,1.9,1.7l0,0
		c0.3,0.3,0.7,0.6,1,0.9c0.6,0.5,1.1,0.9,1.6,1.4c0.2,0.2,0.5,0.4,0.7,0.6c0.2,0.2,0.4,0.3,0.6,0.5c0.3,0.2,0.5,0.4,0.8,0.6
		c0.9,0.7,2.2,1.9,3.5,3l0.1,0.1c0,0,0,0,0.1,0.1c0.3,0.3,0.6,0.5,1,0.8C20-5.4,20.5-5,21-4.7c0.3,0.2,0.5,0.3,0.7,0.5
		c0.2,0.1,0.4,0.3,0.6,0.4c0.2,0.1,0.5,0.3,0.8,0.4c0.5,0.2,1.1,0.4,1.7,0.6c0.3,0.1,0.7,0.1,1.1,0.2c0.2,0,0.4,0,0.6,0
		c0.2,0,0.3,0,0.5,0c0.4,0,0.7-0.1,1-0.3C29.2-3.4,30-4.3,30.3-5c0.1-0.2,0.2-0.4,0.3-0.7c0.1-0.4,0.2-1,0.2-1.6c0-0.8,0-1.7,0-2.5
		V-10v-0.1c0-0.4,0-0.9,0-1.3c0-0.8,0-1.5,0.1-2.2c0-0.3,0-0.6,0.1-0.9c0-0.2,0-0.3,0-0.5c0-0.2,0-0.4,0.1-0.5
		c0.1-0.3,0.2-0.8,0.4-1.2c0.3-0.7,0.7-1.4,1.3-2c0.6-0.7,1.4-1.3,2.2-1.8c0.4-0.3,0.9-0.5,1.3-0.7c0.7-0.3,1.5-0.6,2.2-0.7
		c0.4-0.1,0.7-0.1,1.1-0.1c0.3,0,0.6,0,0.8-0.1c0.4,0,0.6-0.1,1-0.1c0.2,0,0.3,0,0.5,0l0.3,0c0.1,0,0.3,0,0.5,0c0.3,0,0.7,0.1,1,0.2
		c0.3,0.1,0.6,0.3,0.8,0.5c0.5,0.5,0.7,1.2,0.6,2.1c0,0.5,0,0.9,0,1.4v0.2v0.1c0,0.4,0,0.9,0,1.3c0,0.8,0,1.5-0.1,2.2
		c0,0.3,0,0.6-0.1,0.9c0,0.3,0,0.6-0.1,0.8c0,0.3-0.1,0.6-0.1,1c0,0.6-0.1,1.3-0.1,2c0,0.8,0,1.6,0,2.5h0c0,0.4,0,0.9,0,1.3
		c0,1.5,0.1,2.8,0.2,3.8c0,0.3,0.1,0.7,0.1,1C45,0.3,45,2.1,45,3.7v0.2V4c0,0.4,0,0.9,0,1.3C45,6,45,6.8,45,7.5c0,0.3,0,0.6-0.1,0.9
		c0,0.3,0,0.6-0.1,0.8c0,0.3-0.1,0.6-0.1,1c0,0.6-0.1,1.3-0.1,2c0,0.8,0,1.6,0,2.5h-0.1C44.6,14.3,44.6,13.8,44.6,13.4"/>
	<path class="st2" d="M43.5,13.4c0-1.5-0.1-2.8-0.2-3.8c0-0.3-0.1-0.7-0.1-1c-0.1-1.2-0.1-3-0.1-4.6c0,0,0-0.1,0-0.1
		c0-0.1,0-0.1,0-0.2c0-0.4,0-0.9,0-1.3c0-0.8,0-1.5,0.1-2.2c0-0.3,0-0.6,0.1-0.9c0-0.3,0-0.6,0.1-0.8c0-0.3,0.1-0.6,0.1-1
		c0-0.6,0.1-1.3,0.1-2c0-0.8,0-1.7,0-2.5h0c0-0.4,0-0.9,0-1.3c0-1.5-0.1-2.8-0.2-3.8c0-0.3-0.1-0.7-0.1-1c-0.1-1.2-0.1-3-0.1-4.6
		c0,0,0-0.1,0-0.1c0-0.1,0-0.1,0-0.2c0-0.4,0-0.8,0-1.3c0-0.3,0.1-0.6-0.1-0.8c-0.1-0.1-0.2-0.2-0.3-0.2c-0.1,0-0.3-0.1-0.4-0.1
		c-0.1,0-0.2,0-0.4-0.1c-0.1,0-0.3,0-0.4-0.1c-0.3,0-0.5-0.1-0.8-0.1c-0.3,0-0.6-0.1-1-0.1c-0.6,0-1.3,0-2,0.2
		c-0.8,0.2-1.6,0.5-2.3,1c-0.4,0.2-0.7,0.5-1.1,0.8c-0.5,0.5-1,1-1.3,1.6c-0.3,0.6-0.5,1.1-0.5,1.6c0,0.3,0,0.6,0,0.9
		c0.1,1.2,0.1,3,0.1,4.6v0.1v0.2c0,0.4,0,0.9,0,1.3c0,0.4,0,0.7,0,1.1c0,0.4-0.1,0.8-0.1,1.1c-0.1,0.3-0.2,0.7-0.3,0.9
		c-0.1,0.3-0.3,0.6-0.4,0.8c-0.2,0.2-0.4,0.5-0.6,0.8c-0.4,0.4-0.9,1-1.6,1.3c-0.7,0.4-1.5,0.7-2.4,0.8c-0.4,0.1-0.9,0.1-1.3,0
		C24.4-1.6,23-2,22.1-2.3c-0.3-0.1-0.6-0.2-0.9-0.3c-1.1-0.5-2.7-1.4-4-2.5c0,0,0,0-0.1-0.1L17-5.3c-0.3-0.3-0.7-0.6-1-0.9
		c-0.6-0.5-1.1-1.1-1.6-1.5C14.2-8,14-8.2,13.8-8.4c-0.2-0.2-0.4-0.4-0.5-0.6c-0.2-0.2-0.4-0.5-0.7-0.7c-0.4-0.4-0.9-0.9-1.5-1.4
		c-0.6-0.6-1.2-1.1-1.8-1.7l0,0c-0.3-0.3-0.7-0.6-1-0.9c-1.1-0.9-2.2-1.7-3.1-2.2c-0.3-0.2-0.5-0.3-0.9-0.4
		c-0.5-0.3-1.2-0.5-1.9-0.8c-0.7-0.2-1.5-0.4-2.3-0.4c0,0-0.1,0-0.1,0c-0.1,0-0.1,0-0.2,0c-0.4,0-0.8,0-1.2,0.1
		c-0.7,0.1-1.4,0.3-2,0.6c-0.3,0.1-0.6,0.2-0.8,0.4c-0.2,0.1-0.5,0.2-0.7,0.3c-0.2,0.1-0.6,0.3-0.9,0.5c-0.5,0.3-1.1,0.7-1.7,1.2
		c-0.6,0.5-1.3,1-1.9,1.6c-0.3,0.3-0.7,0.6-1,0.9c-1.1,1-2.1,2-2.7,2.7c-0.2,0.2-0.4,0.5-0.7,0.7c-0.8,0.9-2,2.1-3.3,3.2L-17-5.3
		l-0.1,0.1c-0.3,0.3-0.7,0.6-1,0.8c-0.6,0.5-1.3,0.9-1.9,1.2c-0.3,0.2-0.6,0.3-0.8,0.4c-0.3,0.1-0.6,0.2-0.8,0.3
		c-0.3,0.1-0.6,0.2-1,0.3c-0.6,0.2-1.3,0.4-2,0.5c-0.8,0.1-1.7,0.2-2.5,0.1v0c-0.4-0.1-0.9-0.2-1.3-0.3c-1.4-0.5-2.5-1.5-3-2.3
		c-0.2-0.3-0.4-0.5-0.5-0.9c-0.3-0.6-0.5-1.3-0.6-2.2c0-0.8,0-1.7,0-2.5v-0.1V-10c0-0.4,0-0.9,0-1.3c0-0.8,0-1.5,0.1-2.2
		c0-0.3,0-0.6,0.1-0.9c0-0.3,0-0.6,0.1-0.8c0-0.3,0.1-0.6,0.1-1c0-0.6,0.1-1.3,0.1-2c0-0.4,0-0.8,0-1.2c0-0.2,0-0.4,0-0.6
		c0-0.2-0.2-0.4-0.4-0.5h0c-0.4-0.2-0.9-0.2-1.3-0.2c-0.7,0-1.4,0-2.1,0c-0.6,0-1.2,0.1-1.7,0.3c-0.3,0.1-0.6,0.2-0.9,0.3
		c-0.5,0.2-1.2,0.6-1.8,1c-0.6,0.4-1.2,1-1.7,1.6l-0.1,0.1l-0.1,0.1c-0.2,0.3-0.4,0.7-0.6,1c-0.1,0.3-0.2,0.7-0.3,1
		c-0.1,0.3-0.1,0.6-0.1,1c0,0.3,0,0.6-0.1,0.9c0,0.3,0,0.6-0.1,0.8c0,0.3-0.1,0.6-0.1,1c0,0.6-0.1,1.3-0.1,2c0,0.8,0,1.7,0,2.5h0
		c0,0.4,0,0.9,0,1.3c0,1.5,0.1,2.8,0.2,3.8c0,0.3,0.1,0.7,0.1,1c0.1,1.2,0.1,3,0.1,4.6l0,0.1c0,0.1,0,0.1,0,0.2c0,0.4,0,0.9,0,1.3
		c0,0.8,0,1.5-0.1,2.2c0,0.3,0,0.6-0.1,0.9c0,0.3,0,0.6-0.1,0.8c0,0.3-0.1,0.6-0.1,1c0,0.6-0.1,1.3-0.1,2c0,0.8,0,1.7,0,2.5h0
		c0,0.4,0,0.9,0,1.3c0,0.7,0,1.4,0.1,2c0,0.3,0,0.6,0,0.9c0,0.3,0,0.5,0.1,0.7l0.1,0.1c0.2,0.1,0.3,0.2,0.5,0.4l0.2,0
		c0.1,0,0.2,0,0.4,0c0.2,0,0.3,0,0.5,0c0.4,0,0.8,0,1.1,0c0.8,0,1.7,0.1,2.5,0.1c0,0,0.1,0,0.1,0c0.1,0,0.1,0,0.2,0
		c0.4,0,0.9,0.1,1.3,0.1c0.4,0,0.7,0.1,1.1,0.1c0.4,0,0.7,0.1,1,0.1c0.3,0,0.6,0,0.9,0c0.3,0,0.6,0,0.8-0.1c0.3,0,0.6-0.1,1-0.1
		c0.6-0.1,1.2-0.3,1.9-0.7c0.7-0.3,1.4-0.8,2.1-1.3v0c0.3-0.3,0.7-0.6,1-0.9c1.1-1,2-2,2.7-2.7c0.2-0.2,0.4-0.5,0.6-0.7
		c0.8-0.9,2.1-2.1,3.3-3.3l0.1-0.1l0.1-0.1c0.3-0.3,0.6-0.6,0.9-0.9c0.5-0.5,1.1-1,1.6-1.5c0.3-0.2,0.5-0.4,0.7-0.6
		c0.2-0.2,0.5-0.4,0.7-0.5c0.3-0.2,0.6-0.4,0.8-0.5c0.5-0.3,1.1-0.7,1.7-1.1c0.7-0.4,1.4-0.8,2.2-1.2v0c0.4-0.2,0.8-0.4,1.2-0.6
		c1.3-0.6,2.6-1,3.6-1.4C-6.1,2.2-5.9,2.1-5.5,2c1.2-0.3,2.9-0.6,4.6-0.7l0.1,0c0.1,0,0.1,0,0.2,0c0.4,0,0.9,0,1.3,0
		c0.8,0,1.5,0.1,2.2,0.2c0.3,0.1,0.6,0.1,0.9,0.2c0.3,0.1,0.6,0.1,0.8,0.2C5,2,5.3,2.1,5.6,2.2c0.6,0.2,1.3,0.4,2,0.6
		C8.3,3,9.1,3.3,9.9,3.7v0c0.4,0.2,0.8,0.4,1.2,0.5c1.3,0.6,2.5,1.3,3.4,1.8c0.3,0.2,0.5,0.3,0.9,0.5c0.5,0.3,1.1,0.8,1.7,1.3
		c0.6,0.5,1.2,1.1,1.9,1.7c0,0,0,0,0.1,0.1l0.1,0.1c0.3,0.3,0.6,0.6,0.9,0.9c0.5,0.5,1.1,1.1,1.5,1.5c0.2,0.2,0.4,0.5,0.6,0.7
		c0.2,0.2,0.4,0.4,0.5,0.6c0.2,0.2,0.4,0.5,0.7,0.7c0.4,0.4,0.9,0.9,1.4,1.5c0.6,0.6,1.2,1.2,1.8,1.7v0c0.3,0.3,0.7,0.6,1,0.9
		c0.5,0.4,0.9,0.8,1.4,1.2c0.2,0.2,0.4,0.4,0.6,0.5c0.1,0.1,0.2,0.2,0.3,0.2c0.1,0.1,0.2,0.1,0.3,0.2c0.1,0,0.3,0.1,0.4,0.1
		c0.2,0,0.3,0.1,0.5,0.1l-0.1,0c0.2,0,0.3,0,0.5,0c1.2-0.1,3-0.1,4.6-0.1h0.1h0.2c0.4,0,0.9,0,1.3,0c0.7,0,1.4-0.1,2-0.4
		c0.3-0.1,0.6-0.2,0.8-0.3c0.2-0.1,0.5-0.3,0.7-0.4c0.2-0.1,0.5-0.3,0.8-0.6c0.4-0.4,0.9-1,1.2-1.6c0.3-0.7,0.5-1.6,0.5-2.4h0.1
		c0,0.4,0,0.9-0.1,1.3c-0.3,1.5-1.1,2.7-1.8,3.4c-0.2,0.3-0.4,0.5-0.7,0.7c-0.5,0.4-1.2,0.8-2,1c-0.4,0.1-0.9,0.2-1.3,0.2
		c-0.4,0-0.8,0-1.3,0l-0.2,0l-0.1,0c-0.4,0-0.9,0-1.3,0c-0.8,0-1.5,0-2.2-0.1c-0.3,0-0.6,0-0.9-0.1c-0.3,0-0.5,0-0.7-0.1l-0.1,0l0,0
		c0,0-0.1,0-0.1,0c-0.2-0.1-0.5-0.2-0.8-0.4l-0.1-0.1c-0.4-0.4-0.9-0.9-1.4-1.5c-0.6-0.6-1.2-1.2-1.8-1.7l0,0
		c-0.3-0.3-0.7-0.6-1-0.9c-1.1-1-2.1-1.9-2.9-2.5c-0.3-0.2-0.5-0.4-0.8-0.6c-0.9-0.7-2.3-1.9-3.5-3.1l-0.1-0.1l-0.1-0.1
		c-0.3-0.3-0.6-0.6-0.9-0.9c-0.6-0.5-1.1-1.1-1.6-1.5c-0.2-0.2-0.4-0.4-0.7-0.6c-0.2-0.2-0.4-0.4-0.6-0.5c-0.2-0.2-0.5-0.4-0.7-0.6
		c-0.5-0.4-1.1-0.8-1.7-1.1C11.4,4.4,10.7,4,9.9,3.7h0C9.5,3.5,9.1,3.4,8.7,3.2C7.3,2.8,5.9,2.5,5,2.4c-0.3,0-0.6,0-1-0.1
		C2.8,2.3,1.1,2.2-0.6,2.2l-0.2,0l-0.1,0c-0.4,0-0.9,0-1.3,0.1c-0.7,0-1.5,0.1-2.1,0.2c-0.3,0-0.6,0.1-0.9,0.1
		c-0.3,0-0.5,0.1-0.8,0.1c-0.3,0-0.6,0.1-1,0.2c-0.6,0.1-1.3,0.3-2,0.5c-0.8,0.2-1.5,0.6-2.3,0.9c-0.4,0.2-0.8,0.4-1.2,0.6
		c-1.3,0.7-2.4,1.6-3.1,2.2c-0.2,0.2-0.4,0.4-0.7,0.7c-0.5,0.5-1,1-1.5,1.5c-0.6,0.6-1.2,1.2-1.8,1.7l-0.1,0.1c0,0,0,0-0.1,0.1
		c-0.3,0.3-0.6,0.6-1,0.9c-0.6,0.5-1.1,1-1.6,1.4c-0.3,0.2-0.5,0.4-0.7,0.6c-0.2,0.2-0.5,0.4-0.6,0.5c-0.2,0.2-0.5,0.4-0.8,0.6
		c-0.5,0.4-1,0.8-1.5,1.3c-0.6,0.5-1.2,1.1-1.9,1.7v0c-0.3,0.3-0.7,0.6-1.1,0.8c-1.2,0.8-2.5,1.4-3.5,1.7c-0.3,0.1-0.6,0.2-1,0.3
		c-0.3,0.1-0.6,0.1-1,0.2l-0.3,0c-0.1,0-0.2,0-0.3,0c-0.2,0-0.4,0-0.6,0c-0.8,0-1.7-0.1-2.5-0.1l-0.2,0c0,0-0.1,0-0.1,0
		c-0.4,0-0.9-0.1-1.3-0.1c-0.8-0.1-1.5-0.1-2.2-0.2c-0.3,0-0.6-0.1-0.9-0.1c-0.2,0-0.4-0.1-0.5-0.1c-0.1-0.1-0.2-0.2-0.3-0.3
		l-0.2-0.2l-0.2-0.3c0-0.2,0-0.4,0-0.5c0-0.6,0.1-1.3,0.1-2.1c0-0.8,0-1.6,0-2.5h0c0-0.4,0-0.9,0-1.3c0-1.5-0.1-2.8-0.2-3.8
		c0-0.3-0.1-0.7-0.1-1C-44,7.3-44,5.6-44,3.9V3.7V3.6c0-0.4,0-0.9,0-1.3c0-0.8,0-1.5,0.1-2.2c0-0.3,0-0.6,0.1-0.9
		c0-0.3,0-0.6,0.1-0.8c0-0.3,0.1-0.6,0.1-1c0-0.6,0.1-1.3,0.1-2c0-0.8,0-1.6,0-2.5h0c0-0.4,0-0.9,0-1.3c0-1.5-0.1-2.8-0.2-3.8
		c0-0.3-0.1-0.7-0.1-1c0-0.3,0-0.6-0.1-1c0-0.2,0-0.4,0-0.6c0-0.2,0-0.4,0-0.6c0.1-0.9,0.5-1.8,1-2.5l0.1-0.1c0,0,0-0.1,0.1-0.1
		c0.3-0.4,0.6-0.7,1-1c0.6-0.5,1.3-0.9,1.9-1.2c0.3-0.1,0.6-0.3,0.9-0.3c0.3-0.1,0.6-0.2,0.8-0.2c0.3,0,0.6-0.1,1-0.1
		c0.6,0,1.3,0,2.1,0c0.4,0,0.8,0,1.2,0.1c0.4,0,0.9,0.1,1.3,0.2h0c0.2,0.1,0.3,0.3,0.4,0.5c0,0.2,0,0.4,0,0.7c0,1.5,0.1,2.8,0.2,3.8
		c0,0.3,0.1,0.7,0.1,1c0.1,1.2,0.1,3,0.1,4.6v0.2v0.1c0,0.4,0,0.9,0,1.3c0,0.4,0,0.7,0,1.1c0,0.3,0,0.7,0.1,1c0,0.3,0.1,0.6,0.2,0.8
		c0.1,0.3,0.2,0.5,0.3,0.7c0.1,0.2,0.2,0.6,0.4,0.8c0.3,0.5,0.8,1,1.4,1.4c0.7,0.4,1.5,0.8,2.3,0.9c0.4,0.1,0.9,0,1.3,0
		c1.5-0.1,2.8-0.6,3.6-1.1c0.3-0.2,0.5-0.3,0.8-0.5c1-0.6,2.4-1.6,3.7-2.7l0.1-0.1l0.1-0.1c0.3-0.3,0.6-0.6,1-0.8
		c0.5-0.5,1.1-0.9,1.6-1.4c0.3-0.2,0.5-0.4,0.7-0.6c0.2-0.2,0.5-0.4,0.6-0.5c0.3-0.2,0.5-0.4,0.8-0.6c0.5-0.4,1-0.8,1.6-1.3
		c0.6-0.5,1.2-1.1,1.9-1.7h0c0.3-0.3,0.7-0.6,1-0.9c1.1-1,2.1-1.9,2.9-2.5c0.3-0.2,0.5-0.4,0.8-0.6c0.5-0.3,1.2-0.7,1.9-1
		c0.8-0.3,1.7-0.5,2.6-0.5h0.2c0,0,0.1,0,0.1,0c0.5,0,0.9,0.1,1.4,0.2c0.8,0.2,1.5,0.5,2.1,0.8C4-17.3,4.2-17.2,4.5-17
		c0.2,0.2,0.5,0.3,0.7,0.5c0.3,0.2,0.5,0.4,0.8,0.6c0.5,0.4,1,0.8,1.6,1.3c0.6,0.6,1.3,1.1,1.9,1.7c0.3,0.3,0.7,0.6,1,0.9
		c1.1,1,2.2,1.8,2.9,2.4c0.3,0.2,0.5,0.4,0.8,0.6c0.9,0.7,2.2,1.9,3.5,3l0.1,0.1c0,0,0,0,0.1,0.1c0.3,0.3,0.7,0.5,1,0.8
		c0.6,0.5,1.2,0.9,1.7,1.3c0.3,0.2,0.5,0.3,0.8,0.5c0.2,0.1,0.5,0.3,0.7,0.4c0.2,0.1,0.5,0.3,0.9,0.5c0.5,0.2,1.2,0.5,1.9,0.6
		c0.8,0.2,1.6,0.2,2.5,0.1l0,0c0.4-0.1,0.9-0.2,1.3-0.3c0.7-0.3,1.3-0.7,1.7-1.1c0.5-0.4,0.8-0.9,1-1.3c0.1-0.3,0.2-0.5,0.3-0.9
		c0.2-0.5,0.3-1.2,0.3-2c0-0.8,0-1.7,0-2.5l0-0.2c0,0,0-0.1,0-0.1c0-0.4,0-0.9,0-1.3c0-0.8,0-1.5,0.1-2.2c0-0.3,0-0.6,0.1-0.9
		c0-0.3,0-0.6,0.1-0.8c0.1-0.3,0.2-0.6,0.3-1c0.2-0.5,0.6-1.2,1.1-1.7c0.5-0.6,1.2-1.1,1.9-1.6l0,0c0.4-0.2,0.8-0.4,1.2-0.6
		c0.7-0.3,1.4-0.5,2-0.6c0.6-0.1,1.2-0.2,1.7-0.2c0.3,0,0.6-0.1,1-0.1c0.1,0,0.3,0,0.5,0l0.3,0l0.3,0c0.2,0,0.4,0,0.7,0.1
		c0.2,0,0.5,0.1,0.6,0.3c0.3,0.4,0.3,0.9,0.3,1.4c0,0.4,0,0.9,0,1.3v0.2v0.1c0,0.4,0,0.9,0,1.3c0,0.8,0,1.5-0.1,2.2
		c0,0.3,0,0.6-0.1,0.9c0,0.3,0,0.6-0.1,0.8c0,0.3-0.1,0.6-0.1,1c0,0.6-0.1,1.3-0.1,2c0,0.8,0,1.6,0,2.5h0c0,0.4,0,0.9,0,1.3
		c0,1.5,0.1,2.8,0.2,3.8c0,0.3,0.1,0.7,0.1,1C44,0.3,44,2.1,44,3.7v0.2V4c0,0.4,0,0.9,0,1.3c0,0.8,0,1.5-0.1,2.2
		c0,0.3,0,0.6-0.1,0.9c0,0.3,0,0.6-0.1,0.8c0,0.3-0.1,0.6-0.1,1c0,0.6-0.1,1.3-0.1,2c0,0.8,0,1.6,0,2.5h-0.1
		C43.5,14.3,43.5,13.8,43.5,13.4"/>
	<path class="st1" d="M42.5,13.4c0-1.5-0.1-2.8-0.2-3.8c0-0.3-0.1-0.7-0.1-1c-0.1-1.2-0.1-3-0.1-4.6c0,0,0-0.1,0-0.1
		c0-0.1,0-0.1,0-0.2c0-0.4,0-0.9,0-1.3c0-0.8,0-1.5,0.1-2.2c0-0.3,0-0.6,0.1-0.9c0-0.3,0-0.6,0.1-0.8c0-0.3,0.1-0.6,0.1-1
		c0-0.6,0.1-1.3,0.1-2c0-0.8,0-1.7,0-2.5c0-0.4,0-0.9,0-1.3c0-1.5-0.1-2.8-0.2-3.8c0-0.3-0.1-0.7-0.1-1c-0.1-1.2-0.1-3-0.1-4.6
		c0,0,0-0.1,0-0.1c0-0.1,0-0.1,0-0.2c0-0.2,0-0.4,0-0.7l0-0.3l0-0.2l0,0c0,0,0-0.1,0-0.1c0,0-0.1-0.1-0.1-0.1l0,0c0,0,0,0-0.1,0
		c-0.1,0-0.3,0-0.4-0.1c-0.2,0-0.5-0.1-0.8-0.1c-0.3,0-0.6-0.1-1-0.1c-0.5,0-1.1,0-1.7,0.1c-0.7,0.2-1.4,0.5-2,0.8
		c-0.3,0.2-0.7,0.4-0.9,0.7c-0.5,0.4-0.9,0.9-1.1,1.4c-0.3,0.5-0.4,0.9-0.4,1.2c0,0.3,0,0.4,0,0.7c0.1,1.2,0.1,3,0.1,4.6v0.1v0.2
		c0,0.4,0,0.9,0,1.3c0,0.4,0,0.7,0,1.1c0,0.5-0.1,0.9-0.2,1.3c-0.1,0.4-0.2,0.8-0.3,1.1c-0.1,0.3-0.3,0.7-0.5,0.9
		c-0.2,0.3-0.4,0.6-0.7,1c-0.5,0.5-1.1,1.1-1.8,1.6c-0.8,0.5-1.8,0.9-2.8,1v0c-0.3,0-0.5,0.1-0.8,0.1c-0.3,0-0.5,0-0.7,0
		c-1.6-0.1-3.1-0.5-4.1-0.8c-0.4-0.1-0.6-0.2-1-0.4c-1.2-0.5-2.8-1.5-4.2-2.7c0,0,0,0-0.1-0.1c0,0-0.1-0.1-0.1-0.1
		c-0.3-0.3-0.7-0.6-1-0.9C14.8-6,14.2-6.5,13.8-7c-0.2-0.2-0.4-0.5-0.6-0.7c-0.2-0.2-0.4-0.4-0.5-0.6c-0.2-0.2-0.4-0.5-0.7-0.7
		c-0.4-0.4-0.9-0.9-1.5-1.4c-0.6-0.6-1.2-1.1-1.8-1.7c-0.3-0.3-0.7-0.6-1-0.9c-1.1-0.9-2.2-1.7-3-2.1c-0.3-0.1-0.5-0.2-0.8-0.4
		c-0.5-0.2-1.1-0.5-1.7-0.7c-0.6-0.2-1.3-0.3-2-0.3l-0.1,0h-0.1c-0.3,0-0.7,0-1,0.1c-0.6,0.1-1.2,0.3-1.8,0.5
		c-0.3,0.1-0.5,0.2-0.7,0.3c-0.2,0.1-0.5,0.2-0.7,0.3c-0.2,0.1-0.5,0.3-0.8,0.4c-0.5,0.3-1,0.7-1.6,1.1c-0.6,0.5-1.3,1-1.9,1.6l0,0
		c-0.3,0.3-0.7,0.6-1,0.9c-0.5,0.5-1,1-1.5,1.5c-0.5,0.5-0.9,0.9-1.2,1.2c-0.2,0.2-0.4,0.5-0.6,0.7c-0.8,0.9-2,2.1-3.4,3.3l-0.1,0.1
		l-0.1,0.1c-0.3,0.3-0.7,0.6-1.1,0.8c-0.6,0.5-1.3,0.9-2,1.3c-0.3,0.2-0.6,0.3-0.9,0.4c-0.3,0.1-0.6,0.3-0.8,0.3
		c-0.3,0.1-0.7,0.2-1,0.3c-0.6,0.2-1.4,0.4-2.2,0.5c-0.4,0.1-0.9,0.1-1.4,0.1c-0.2,0-0.5,0-0.7,0c-0.3,0-0.5,0-0.8-0.1
		c-0.5-0.1-1.1-0.2-1.5-0.4c-0.8-0.3-1.6-0.7-2.1-1.2c-0.6-0.5-1.1-1-1.4-1.5c-0.2-0.3-0.4-0.6-0.6-1c-0.3-0.7-0.6-1.5-0.6-2.5
		c0-0.4,0-0.9,0-1.3c0-0.4,0-0.8,0-1.3v-0.1V-10c0-0.4,0-0.9,0-1.3c0-0.8,0-1.5,0.1-2.2c0-0.3,0-0.6,0.1-0.9c0-0.3,0-0.6,0.1-0.8
		c0-0.3,0.1-0.6,0.1-1c0-0.6,0.1-1.3,0.1-2c0-0.2,0-0.4,0-0.6l0-0.3l0-0.1c0-0.1,0-0.3-0.1-0.4l0,0c-0.1,0-0.2,0-0.2-0.1l-0.1,0
		l-0.2,0c-0.7,0-1.4,0-2,0l-0.2,0l-0.2,0c-0.1,0-0.2,0-0.4,0.1c-0.2,0-0.5,0.1-0.6,0.2c-0.3,0.1-0.5,0.2-0.8,0.3
		c-0.5,0.2-1,0.5-1.6,0.9c-0.5,0.4-1.1,0.9-1.5,1.4l0,0.1l-0.1,0.1c-0.2,0.3-0.4,0.6-0.5,0.8c-0.1,0.2-0.2,0.5-0.2,0.7
		c0,0.1,0,0.2-0.1,0.4c0,0.1,0,0.3,0,0.5c0,0.3,0,0.6-0.1,0.9c0,0.3,0,0.6-0.1,0.8c0,0.3-0.1,0.6-0.1,1c0,0.6-0.1,1.3-0.1,2
		c0,0.8,0,1.7,0,2.5h0c0,0.4,0,0.9,0,1.3c0,1.5,0.1,2.8,0.2,3.8c0,0.3,0.1,0.7,0.1,1c0.1,1.2,0.1,3,0.1,4.6l0,0.1c0,0.1,0,0.1,0,0.2
		c0,0.4,0,0.9,0,1.3c0,0.8,0,1.5-0.1,2.2c0,0.3,0,0.6-0.1,0.9c0,0.3,0,0.6-0.1,0.8c0,0.3-0.1,0.6-0.1,1c0,0.6-0.1,1.3-0.1,2
		c0,0.8,0,1.7,0,2.5h0c0,0.4,0,0.9,0,1.3c0,0.7,0,1.4,0.1,2c0,0.3,0,0.6,0,0.9l0,0.1l0,0l0,0.1c0,0,0,0.1,0,0.1l-0.1-0.1
		c-0.1-0.1,0-0.1,0-0.1l0.1,0l0.1,0l0,0l0,0c0,0,0.1,0,0.1,0c0.2,0,0.3,0,0.5,0c0.4,0,0.8,0,1.1,0c0.8,0,1.7,0.1,2.5,0.1
		c0,0,0.1,0,0.1,0c0.1,0,0.1,0,0.2,0c0.4,0,0.9,0.1,1.3,0.1c0.4,0,0.7,0.1,1.1,0.1c0.2,0,0.4,0,0.5,0.1l0.2,0c0,0,0,0,0,0l0.1,0
		c0.3,0,0.6,0,0.8,0c0.3,0,0.5,0,0.7,0c0.2,0,0.6-0.1,0.9-0.1c0.5-0.1,1.1-0.3,1.7-0.6c0.7-0.3,1.3-0.7,1.9-1.2v0
		c0.2-0.1,0.3-0.3,0.5-0.4c0.2-0.2,0.3-0.3,0.5-0.5c1.1-1,2-2,2.7-2.7c0.2-0.2,0.4-0.5,0.6-0.7c0.8-0.9,2.1-2.1,3.3-3.3l0.1-0.1
		l0.1-0.1c0.3-0.3,0.6-0.6,0.9-0.9c0.5-0.5,1.1-1,1.6-1.5c0.3-0.2,0.5-0.4,0.8-0.6c0.2-0.2,0.5-0.4,0.7-0.5c0.3-0.2,0.6-0.4,0.9-0.6
		c0.5-0.3,1.1-0.7,1.8-1.1c0.7-0.4,1.5-0.8,2.3-1.2c0.4-0.2,0.8-0.4,1.3-0.6C-9,2.1-7.6,1.6-6.7,1.3c0.3-0.1,0.6-0.2,1-0.3
		c1.2-0.4,3.1-0.7,4.8-0.7l0.1,0c0.1,0,0.1,0,0.2,0c0.5,0,0.9,0,1.4,0c0.8,0,1.6,0.1,2.3,0.2c0.3,0.1,0.7,0.1,1,0.2
		c0.3,0.1,0.6,0.1,0.8,0.2c0.3,0.1,0.7,0.2,1,0.3c0.6,0.2,1.3,0.4,2,0.6C8.7,2,9.5,2.4,10.3,2.7v0c0.4,0.2,0.9,0.4,1.3,0.6
		c1.4,0.6,2.6,1.4,3.5,1.9c0.3,0.2,0.6,0.3,0.9,0.5C16.5,6,17.2,6.5,17.8,7c0.6,0.6,1.2,1.1,1.9,1.7c0,0,0,0,0.1,0.1l0.1,0.1
		c0.3,0.3,0.6,0.6,0.9,0.9c0.5,0.5,1.1,1.1,1.5,1.5c0.2,0.2,0.4,0.5,0.6,0.7c0.2,0.2,0.4,0.4,0.5,0.6c0.2,0.2,0.4,0.5,0.7,0.7
		c0.4,0.4,0.9,0.9,1.4,1.5c0.6,0.6,1.2,1.2,1.8,1.7c0.3,0.3,0.7,0.6,1,0.9c0.5,0.4,0.9,0.8,1.4,1.2c0.2,0.2,0.4,0.4,0.6,0.5
		c0.1,0.1,0.2,0.2,0.3,0.2c0.1,0,0.1,0,0.1,0.1l0.1,0c0,0,0,0,0,0l0.1,0c0.2,0,0.3,0.1,0.5,0.1l-0.5-0.1c0.2,0,0.3,0,0.5,0
		c1.2-0.1,3-0.1,4.6-0.1h0.1h0.2c0.4,0,0.8,0,1.2,0c0.6,0,1.1-0.1,1.6-0.3c0.2-0.1,0.5-0.2,0.7-0.3c0.2-0.1,0.4-0.2,0.6-0.3
		c0.2-0.1,0.4-0.3,0.6-0.5c0.3-0.3,0.7-0.8,1-1.3c0.3-0.6,0.5-1.3,0.4-2h0.1c0,0.4,0,0.8-0.1,1.1C42.2,17,41.5,18,41,18.7
		c-0.2,0.2-0.4,0.4-0.6,0.6c-0.4,0.3-1,0.6-1.7,0.8c-0.3,0.1-0.7,0.2-1.1,0.2c-0.4,0-0.8,0-1.2,0l-0.2,0l-0.1,0c-0.4,0-0.9,0-1.3,0
		c-0.8,0-1.5,0-2.2-0.1c-0.3,0-0.6,0-0.9-0.1c-0.3,0-0.5,0-0.7-0.1c0.1,0,0.2,0,0.3,0.1c0,0-0.1,0-0.1,0C31,20,30.9,20,30.8,19.9
		l-0.1,0l-0.1,0l-0.1-0.1l0-0.1l0,0l0,0l0,0l-0.2-0.2c-0.1-0.1-0.2-0.2-0.3-0.4c-0.3-0.3-0.5-0.5-0.8-0.8c-0.6-0.6-1.2-1.2-1.8-1.7
		h0c-0.3-0.3-0.7-0.6-1-0.9c-1.1-1-2.1-1.9-2.9-2.5c-0.3-0.2-0.5-0.4-0.8-0.6c-0.9-0.7-2.3-1.9-3.5-3.1l-0.1-0.1l-0.1-0.1
		c-0.3-0.3-0.6-0.6-0.9-0.9c-0.5-0.5-1.1-1.1-1.6-1.5c-0.2-0.2-0.5-0.4-0.7-0.6c-0.2-0.2-0.4-0.4-0.6-0.6c-0.2-0.2-0.5-0.4-0.8-0.6
		c-0.5-0.4-1.1-0.8-1.8-1.2c-0.7-0.4-1.5-0.8-2.3-1.2v0C9.9,2.6,9.4,2.4,9,2.3C7.5,1.8,6.1,1.5,5.1,1.4c-0.4,0-0.6,0-1-0.1
		c-1.2-0.1-3-0.2-4.7-0.2l-0.2,0l-0.1,0c-0.4,0-0.9,0-1.3,0.1C-3,1.3-3.7,1.3-4.4,1.4c-0.3,0-0.6,0.1-0.9,0.1
		c-0.3,0-0.6,0.1-0.8,0.1c-0.3,0-0.6,0.1-1,0.2c-0.6,0.1-1.3,0.3-2,0.6c-0.8,0.3-1.6,0.6-2.4,1v0c-0.4,0.2-0.8,0.4-1.2,0.6
		c-1.3,0.8-2.5,1.6-3.2,2.3c-0.3,0.2-0.4,0.4-0.7,0.7c-0.4,0.4-1,1-1.5,1.6c-0.6,0.6-1.2,1.2-1.8,1.7l-0.1,0.1c0,0,0,0-0.1,0.1
		c-0.3,0.3-0.6,0.6-0.9,0.9c-0.6,0.5-1.1,1-1.6,1.4c-0.3,0.2-0.5,0.4-0.7,0.6c-0.2,0.2-0.5,0.4-0.6,0.5c-0.2,0.2-0.5,0.4-0.8,0.6
		c-0.5,0.4-1,0.8-1.5,1.3c-0.3,0.3-0.6,0.6-0.9,0.8c-0.2,0.1-0.3,0.3-0.5,0.4c-0.2,0.1-0.3,0.3-0.4,0.4h0c-0.3,0.3-0.6,0.5-1,0.7
		c-1.1,0.7-2.3,1.2-3.1,1.5c-0.3,0.1-0.5,0.2-0.9,0.3c-0.3,0.1-0.6,0.1-0.9,0.2l-0.3,0c-0.1,0-0.1,0-0.2,0c-0.2,0-0.4,0-0.6,0
		c-0.8,0-1.7-0.1-2.5-0.1l-0.2,0c0,0-0.1,0-0.1,0c-0.4,0-0.9-0.1-1.3-0.1c-0.8-0.1-1.5-0.1-2.2-0.2c-0.2,0-0.3,0-0.5-0.1
		c-0.1,0-0.3,0-0.4-0.1c-0.1,0-0.2,0-0.2-0.1c0-0.1-0.1-0.1-0.1-0.2l-0.1-0.1c0,0,0,0,0.1,0c0-0.1,0-0.2,0-0.2l0-0.1
		c0-0.1,0-0.2,0-0.2c0-0.2,0-0.3,0-0.5c0-0.4,0-0.7,0-1.1c0-0.8,0-1.6,0-2.5h0c0-0.4,0-0.9,0-1.3c0-1.5-0.1-2.8-0.2-3.8
		c0-0.3-0.1-0.7-0.1-1c-0.1-1.2-0.1-3-0.1-4.6V3.7V3.6c0-0.4,0-0.9,0-1.3c0-0.8,0-1.5,0.1-2.2c0-0.3,0-0.6,0.1-0.9
		c0-0.3,0-0.6,0.1-0.8c0-0.3,0.1-0.6,0.1-1c0-0.6,0.1-1.3,0.1-2c0-0.8,0-1.6,0-2.5h0c0-0.4,0-0.9,0-1.3c0-1.5-0.1-2.8-0.2-3.8
		c0-0.3-0.1-0.7-0.1-1c0-0.3,0-0.6-0.1-1c0-0.2,0-0.4,0-0.6c0-0.2,0-0.3,0-0.5c0.1-0.7,0.4-1.4,0.8-2l0.1-0.1l0.1-0.1
		c0.2-0.3,0.5-0.6,0.8-0.9c0.5-0.5,1.1-0.8,1.7-1.1c0.3-0.1,0.6-0.2,0.8-0.3c0.3-0.1,0.5-0.1,0.7-0.2c0.2,0,0.6-0.1,0.9-0.1
		c0.3,0,0.5,0,0.8,0c0.4,0,0.7,0,1.1,0c0.4,0,0.8,0,1.2,0.1l0.2,0l0.1,0c0.1,0,0.2,0,0.2,0.1h0c0.2,0.1,0.2,0.3,0.2,0.5
		c0,0.3,0,0.6,0,0.9c0,0.3,0,0.7,0,1c0,0.6,0.1,1.2,0.1,1.7c0,0.3,0.1,0.7,0.1,1c0.1,1.2,0.1,3,0.1,4.6v0.2v0.1c0,0.4,0,0.9,0,1.3
		c0,0.4,0,0.7,0,1.1c0,0.4,0,0.8,0.1,1.2c0.1,0.4,0.1,0.7,0.2,1c0.1,0.3,0.2,0.6,0.3,0.9c0.1,0.3,0.3,0.6,0.5,1
		c0.4,0.6,1,1.2,1.7,1.6c0.8,0.5,1.7,0.9,2.7,1c0.3,0,0.5,0,0.8,0c0.2,0,0.5,0,0.7,0c1.6-0.1,3-0.7,3.9-1.1c0.3-0.2,0.6-0.3,0.9-0.5
		c1.1-0.6,2.6-1.7,3.9-2.8l0.1-0.1l0.1-0.1c0.3-0.3,0.7-0.6,1-0.9c0.5-0.5,1.1-0.9,1.7-1.4c0.3-0.2,0.5-0.4,0.7-0.6
		c0.2-0.2,0.5-0.4,0.6-0.5c0.3-0.2,0.5-0.4,0.8-0.6c0.5-0.4,1-0.8,1.6-1.3c0.6-0.5,1.2-1.1,1.9-1.7h0c0.3-0.3,0.7-0.6,1-0.9
		c1.1-1,2.1-1.8,2.8-2.4c0.3-0.2,0.4-0.4,0.7-0.6c0.5-0.3,1.1-0.7,1.8-0.9c0.7-0.3,1.5-0.4,2.2-0.4h0.2c0,0,0.1,0,0.1,0
		c0.4,0,0.8,0.1,1.2,0.1c0.7,0.1,1.3,0.4,1.9,0.7c0.3,0.1,0.5,0.3,0.7,0.4c0.2,0.2,0.5,0.3,0.6,0.5c0.2,0.2,0.5,0.4,0.7,0.6
		c0.4,0.4,1,0.8,1.5,1.3c0.6,0.6,1.2,1.1,1.8,1.6l0,0c0.3,0.3,0.7,0.6,1,0.9c1.1,1,2.2,1.9,2.9,2.4c0.3,0.2,0.5,0.4,0.8,0.6
		c0.9,0.7,2.2,1.9,3.5,3L17-5.1c0,0,0.1,0,0.1,0.1c0.3,0.3,0.7,0.6,1,0.8c0.6,0.5,1.2,0.9,1.8,1.3c0.3,0.2,0.6,0.4,0.8,0.5
		c0.2,0.1,0.5,0.3,0.7,0.4c0.2,0.1,0.6,0.3,0.9,0.5c0.6,0.3,1.3,0.5,2.1,0.7c0.4,0.1,0.9,0.1,1.3,0.2c0.2,0,0.5,0,0.7,0
		c0.3,0,0.5,0,0.8-0.1l0,0c0.5-0.1,1-0.2,1.5-0.4c0.8-0.3,1.5-0.8,2-1.3c0.5-0.5,0.9-1.1,1.2-1.6c0.2-0.3,0.3-0.6,0.4-1
		c0.2-0.6,0.4-1.5,0.4-2.3c0-0.8,0-1.7,0-2.5V-10c0,0,0-0.1,0-0.1c0-0.4,0-0.9,0-1.3c0-0.8,0-1.5,0.1-2.2c0-0.3,0-0.6,0.1-0.9
		c0-0.3,0-0.5,0.1-0.7c0.1-0.2,0.2-0.5,0.3-0.8c0.2-0.4,0.5-0.9,0.9-1.4c0.5-0.5,1-1,1.7-1.4l0,0c0.3-0.2,0.7-0.4,1-0.6
		c0.6-0.3,1.2-0.5,1.8-0.6c0.3-0.1,0.5-0.1,0.8-0.1c0.2,0,0.5,0,0.8-0.1c0.3,0,0.6-0.1,1-0.1c0.2,0,0.3,0,0.5,0c0.1,0,0.3,0,0.4,0
		c0.1,0,0.2,0,0.3,0c0.1,0,0.2,0,0.3,0.1c0.2,0.2,0.1,0.5,0.2,0.7c0,0.4,0,0.8,0,1.2l0,0.2c0,0,0,0.1,0,0.1c0,0.4,0,0.9,0,1.3
		c0,0.8,0,1.5-0.1,2.2c0,0.3,0,0.6-0.1,0.9c0,0.3,0,0.6-0.1,0.8c0,0.3-0.1,0.6-0.1,1c0,0.6-0.1,1.3-0.1,2c0,0.8,0,1.6,0,2.5h0
		c0,0.4,0,0.9,0,1.3c0,1.5,0.1,2.8,0.2,3.8c0,0.3,0.1,0.7,0.1,1c0.1,1.2,0.1,3,0.1,4.6l0,0.2c0,0,0,0.1,0,0.1c0,0.4,0,0.9,0,1.3
		c0,0.8,0,1.5-0.1,2.2c0,0.3,0,0.6-0.1,0.9c0,0.3,0,0.6-0.1,0.8c0,0.3-0.1,0.6-0.1,1c0,0.6-0.1,1.3-0.1,2c0,0.8,0,1.6,0,2.5h-0.1
		C42.5,14.3,42.5,13.8,42.5,13.4"/>
</symbol>
<linearGradient id="SVGID_1_" gradientUnits="userSpaceOnUse" x1="-1343.2086" y1="664.7436" x2="-1342.5016" y2="665.4507">
	<stop  offset="0" style="stop-color:#DDDEE2"/>
	<stop  offset="0.1791" style="stop-color:#D9DADE"/>
	<stop  offset="0.3627" style="stop-color:#CDCED2"/>
	<stop  offset="0.5483" style="stop-color:#B8BBBE"/>
	<stop  offset="0.7355" style="stop-color:#9B9FA1"/>
	<stop  offset="0.922" style="stop-color:#777C7D"/>
	<stop  offset="1" style="stop-color:#656B6C"/>
</linearGradient>
<g id="images">
</g>
<g id="frames">
</g>
<g id="Layer_35">
	<g id="Video_Masked">
	</g>
	
		<use xlink:href="#Vibrant_M"  width="90.4" height="45" x="-45.2" y="-22.5" transform="matrix(1 0 0 -1 45.2012 22.5)" style="overflow:visible;"/>
	<g id="video_x5F_purple_x5F_pos">
	</g>
	<g id="simulator_x5F_purple_x5F_pos">
	</g>
</g>
<g id="Layer_3">
</g>
</svg>
