<?xml version="1.0" encoding="utf-8"?>
<!-- Generator: Adobe Illustrator 19.2.0, SVG Export Plug-In . SVG Version: 6.00 Build 0)  -->
<svg version="1.1" xmlns="http://www.w3.org/2000/svg" xmlns:xlink="http://www.w3.org/1999/xlink" x="0px" y="0px"
	 viewBox="0 0 36.2 35" style="enable-background:new 0 0 36.2 35;" xml:space="preserve">
<style type="text/css">
	.st0{fill:#58A528;}
	.st1{fill:#7E8083;}
	.st2{fill:#7E8081;stroke:#7E8081;stroke-width:0.2678;stroke-miterlimit:10;}
	.Drop_x0020_Shadow{fill:none;}
	.Round_x0020_Corners_x0020_2_x0020_pt{fill:#FFFFFF;stroke:#231F20;stroke-miterlimit:10;}
	.Live_x0020_Reflect_x0020_X{fill:none;}
	.Bevel_x0020_Soft{fill:url(#SVGID_1_);}
	.Dusk{fill:#FFFFFF;}
	.Foliage_GS{fill:#FFDC00;}
	.Pompadour_GS{fill-rule:evenodd;clip-rule:evenodd;fill:#44ACE1;}
	.Graphic_x0020_Style{fill-rule:evenodd;clip-rule:evenodd;fill:#262A33;}
	.st3{fill:#95D4D1;}
	.st4{fill:none;stroke:#FFFFFF;stroke-miterlimit:10;}
	.st5{fill:none;stroke:#FFFFFF;stroke-width:1.0032;stroke-miterlimit:10;}
	.st6{fill:#FFFFFF;stroke:#503291;stroke-width:0.875;stroke-miterlimit:10;}
	.st7{fill:none;stroke:#503291;stroke-linecap:round;stroke-miterlimit:10;}
	.st8{fill:#FFFFFF;}
	.st9{fill:#503291;}
	.st10{clip-path:url(#SVGID_21_);fill:#503291;}
	.st11{clip-path:url(#SVGID_21_);}
	.st12{fill:#A5CD50;}
	.st13{fill:#7E8081;}
	.st14{fill:none;stroke:#503291;stroke-width:2;stroke-miterlimit:10;}
	.st15{fill:none;stroke:#95D4D1;stroke-miterlimit:10;}
	.st16{fill:none;stroke:#503291;stroke-width:1.1713;stroke-miterlimit:10;}
	.st17{opacity:0.2;}
	.st18{fill:#231F20;}
	.st19{fill-rule:evenodd;clip-rule:evenodd;fill:#00B4AE;}
	.st20{fill:#DCDCDC;}
	.st21{fill:#8C8C8C;}
	.st22{fill:#6B6D70;}
	.st23{fill:none;}
	.st24{fill:#E50278;}
	.st25{fill:none;stroke:#503291;stroke-width:0.5667;stroke-miterlimit:10;}
	.st26{fill:#16BECF;}
	.st27{fill:#FFFFFF;stroke:#503291;stroke-miterlimit:10;}
	.st28{fill:none;stroke:#503291;stroke-miterlimit:10;}
	.st29{opacity:0.2;fill:#FFFFFF;}
	.st30{fill:none;stroke:#FFFFFF;stroke-width:3;stroke-linecap:round;stroke-miterlimit:10;}
	.st31{opacity:0.3;fill:none;stroke:#FFFFFF;stroke-width:5;stroke-miterlimit:10;}
	.st32{fill:none;stroke:#FFFFFF;stroke-width:2;stroke-miterlimit:10;}
	.st33{fill:none;stroke:#FFFFFF;stroke-width:2;stroke-miterlimit:10;stroke-dasharray:5.0187,5.0187;}
	.st34{fill:none;stroke:#A5CD50;stroke-width:8;stroke-miterlimit:10;}
	.st35{clip-path:url(#SVGID_37_);fill:#95D4D1;}
	.st36{clip-path:url(#SVGID_37_);fill:#A5CD50;}
	.st37{fill:url(#SVGID_38_);}
	.st38{fill:#F2F2F2;}
</style>
<symbol  id="geri_x5F_connect_x5F_logo" viewBox="-38.8 -37.6 77.7 75.1">
	<path class="st0" d="M20.3-0.3c1.5,1.1,4.3,2.9,6.8,4.1l0.4,0.2l-0.7,5l-0.6-0.3c-2.1-0.9-4.3-2.1-6.2-3.5l-0.2,3H15v-25.9h5.3
		V-0.3z"/>
	<path class="st0" d="M9.3-6.4v5.7c0,6.6-3.3,9.9-9.9,9.9c-6.7,0-10.3-3.4-10.3-9.8V-8c0-6.5,3.4-9.7,10.4-9.7c3.1,0,6.5,0.5,9,1.5
		l0.4,0.2l-0.7,4.4l-0.6-0.1C4.7-12.6,2.1-13-0.1-13c-4.6,0-5.4,1.5-5.4,5v1.6H9.3z M-5.5-0.3c0,3.5,1.4,4.9,4.9,4.9
		c3.4,0,4.7-1.3,4.7-4.9v-1.5h-9.6V-0.3z"/>
	<rect x="33" y="11.1" class="st0" width="5.3" height="7.2"/>
	<rect x="33" y="-17.7" class="st0" width="5.3" height="25.9"/>
	<path class="st0" d="M-16.7-2h-0.9h-4.5h-4.4v-4.5h4.4v-5.7c-2.1-0.4-4-0.5-5.2-0.5c-5.1,0-5.9,1.5-5.9,5.2V5.9
		c0,3.6,0.9,5.2,6.1,5.2c2.5,0,5.3-0.3,8.4-0.8l0.7-0.1l0.7,4.9l-0.6,0.1c-2.9,0.7-6.1,1-9,1c-8.2,0-11.8-3.1-11.8-10.1v-14
		c0-6.9,3.5-10,11.3-10c3.5,0,7.2,0.5,10.3,1.4l0.5,0.1V-2z"/>
	<path class="st0" d="M-23.1,37.3H-32c2.6-2.1,4.3-5.2,4.3-8.6c0-3.5-1.7-6.6-4.5-8.7h9.1c0.8,0,1.5,0.7,1.5,1.5v14.3
		C-21.5,36.6-22.2,37.3-23.1,37.3 M-34.7,20h-2.6c-0.8,0-1.5,0.7-1.5,1.5v14.3c0,0.8,0.7,1.5,1.5,1.5h2.9c3.2-1.9,5.3-5,5.3-8.6
		C-29.1,25.1-31.3,21.8-34.7,20"/>
	<path class="st1" d="M13.7,30.6h-1.8c-0.8,0-1-0.2-1-0.9c0-0.7,0.1-1,1-1c0.6,0,1.3,0.2,1.8,0.6V30.6z M14.9,27.8h-1l-0.1,0.5
		c-0.6-0.4-1.4-0.7-2.3-0.7c-1.3,0-1.9,0.8-1.9,2c0,1.5,0.7,2,2.2,2h1.9v1.1c0,0.9-0.4,1.2-1.5,1.2c-0.7,0-1.6-0.1-2.1-0.2l-0.1,1
		c0.7,0.2,1.6,0.3,2.3,0.3c2,0,2.7-0.8,2.7-2.3V27.8z M4.4,31.8h3v0.6c0,1-0.3,1.5-1.5,1.5s-1.6-0.6-1.6-1.5V31.8z M6.1,28.7
		c0.7,0,1.5,0.1,2.2,0.3l0.2-1c-0.7-0.2-1.6-0.4-2.5-0.4c-2.1,0-2.8,1-2.8,2.6v2.1C3.2,33.8,3.9,35,6,35c2.1,0,2.7-1.2,2.7-2.7v-1.5
		H4.4v-0.6C4.4,29.1,4.7,28.7,6.1,28.7 M0.7,27.8v5.4c0,0.5-0.2,0.7-0.7,0.7c-0.5,0-1.6-0.3-2.4-0.7v-5.3h-1.2v7.1h1l0.1-0.6
		c0.8,0.4,2,0.8,2.8,0.8c1.1,0,1.5-0.7,1.5-1.8v-5.4H0.7z M-9.1,31.8h3v0.6c0,1-0.3,1.5-1.5,1.5c-1.1,0-1.6-0.6-1.6-1.5V31.8z
		 M-7.4,28.7c0.7,0,1.5,0.1,2.2,0.3l0.2-1c-0.7-0.2-1.6-0.4-2.5-0.4c-2.1,0-2.8,1-2.8,2.6v2.1c0,1.5,0.7,2.6,2.8,2.6
		c2.1,0,2.7-1.2,2.7-2.7v-1.5h-4.2v-0.6C-9.1,29.1-8.8,28.7-7.4,28.7 M-16.6,30.5c0-1.2,0.4-1.8,2-1.8c0.5,0,1.1,0,1.8,0.2v3.3h1.2
		V28c-0.9-0.3-2.1-0.4-3.1-0.4c-2.5,0-3.2,1.1-3.2,2.8v4.2c0,2,1,2.9,3.4,2.9c0.8,0,1.8-0.1,2.7-0.3l-0.1-1.1
		c-0.9,0.2-1.8,0.2-2.6,0.2c-1.6,0-2.1-0.5-2.1-1.8V30.5z"/>
	<g>
		<path class="st0" d="M-17.8,20v6h2.3c0.9,0,1.4-0.4,1.4-1.2v-0.7c0-0.5-0.2-0.8-0.7-1c0.5-0.1,0.9-0.4,0.9-1.1v-0.7
			c0-0.8-0.6-1.3-1.5-1.3H-17.8z M-14.9,24.8c0,0.4-0.2,0.6-0.7,0.6h-1.5v-2h1.4c0.6,0,0.8,0.3,0.8,0.7V24.8z M-14.7,22
			c0,0.5-0.3,0.7-0.9,0.7h-1.5v-2.1h1.6c0.6,0,0.8,0.2,0.8,0.7V22z"/>
		<path class="st0" d="M-12.1,20h-0.8v6h0.8V20z"/>
		<path class="st0" d="M-6.6,21.7c0-1-0.6-1.8-2.2-1.8c-1.6,0-2.2,0.8-2.2,1.8v2.6c0,1,0.6,1.8,2.2,1.8c1.6,0,2.2-0.8,2.2-1.8V21.7z
			 M-10.2,21.8c0-0.7,0.5-1.2,1.4-1.2c1,0,1.4,0.4,1.4,1.2v2.5c0,0.7-0.5,1.2-1.4,1.2c-1,0-1.4-0.4-1.4-1.2V21.8z"/>
		<polygon class="st0" points="-1.1,26 -2.8,21.4 -4.6,26 -5.5,26 -5.5,20 -4.8,20 -4.8,20 -4.8,24.6 -3.3,20.8 -2.3,20.8 
			-0.9,24.6 -0.9,20 -0.8,20 -0.1,20 -0.1,26 		"/>
		<path class="st0" d="M1.1,26h3.5v-0.7H1.9v-1.9h2.6v-0.7H1.9v-2h2.8V20H1.1V26z"/>
		<path class="st0" d="M7.7,26c1.5,0,1.9-0.8,1.9-1.7v-2.6c0-1-0.5-1.7-1.9-1.7H5.6v6H7.7z M6.4,20.7h1.3c0.9,0,1.2,0.4,1.2,1.1v2.5
			c0,0.7-0.3,1.1-1.2,1.1H6.4V20.7z"/>
		<path class="st0" d="M12.1,23.1l-1.9,3h0.8l1.5-2.4l1.5,2.4h0.8l-1.9-3l2-3.1h-0.8l-1.6,2.4L11,20h-0.8L12.1,23.1z"/>
	</g>
	<g>
		<path class="st2" d="M-35.6-32.6c0-2.2,0.9-3,3.6-3c1,0,2.6,0.1,3.8,0.3L-28-37c-1.2-0.3-2.9-0.4-4.1-0.4c-4,0-5.6,1.7-5.6,4.7
			v7.1c0,3,1.6,4.7,5.6,4.7c1.2,0,2.9-0.2,4.1-0.4l-0.2-1.8c-1.3,0.2-2.8,0.3-3.8,0.3c-2.7,0-3.6-0.7-3.6-3V-32.6z"/>
		<path class="st2" d="M-21-37.4c-3.5,0-4.9,1.9-4.9,4.4v3.4c0,2.5,1.4,4.4,4.9,4.4s4.9-1.9,4.9-4.4V-33
			C-16.2-35.5-17.5-37.4-21-37.4z M-21-27c-1.9,0-2.8-0.9-2.8-2.6v-3.5c0-1.7,0.9-2.6,2.8-2.6c1.9,0,2.8,0.9,2.8,2.6v3.5
			C-18.2-27.9-19.1-27-21-27z"/>
		<path class="st2" d="M-6.3-37.2v8.9c0,0.8-0.4,1.1-1.2,1.1c-0.9,0-2.7-0.5-4-1.2v-8.8h-2.1v11.7h1.7l0.2-1
			c1.3,0.6,3.4,1.2,4.8,1.2c1.9,0,2.6-1.2,2.6-3v-9H-6.3z"/>
		<path class="st2" d="M6.1-37.2v8.9c0,0.8-0.4,1.1-1.2,1.1c-0.9,0-2.7-0.5-4-1.2v-8.8h-2.1v11.7h1.7l0.2-1c1.3,0.6,3.4,1.2,4.8,1.2
			c1.9,0,2.6-1.2,2.6-3v-9H6.1z"/>
		<path class="st2" d="M15.7-35.7c1.2,0,2.5,0.2,3.8,0.6l0.3-1.6c-1.1-0.4-2.7-0.7-4.2-0.7c-3.5,0-4.7,1.7-4.7,4.3v3.5
			c0,2.4,1.1,4.4,4.7,4.4c3.5,0,4.5-2,4.5-4.4v-2.5h-7.1v-1C12.9-35,13.4-35.7,15.7-35.7z M12.9-30.4H18v1c0,1.6-0.6,2.5-2.5,2.5
			s-2.6-0.9-2.6-2.5V-30.4z"/>
		<path class="st2" d="M22.1-33.2v3.7c0,2.7,1,4.3,4.8,4.3c1.1,0,2.2-0.2,2.8-0.4l-0.2-1.7c-0.9,0.2-1.8,0.3-2.6,0.3
			c-2.1,0-2.7-0.6-2.7-2.4v-3.8c0-1.8,0.7-2.4,2.7-2.4c0.8,0,1.7,0.1,2.6,0.3l0.2-1.7c-0.6-0.2-1.8-0.4-2.9-0.4
			C23-37.4,22.1-35.9,22.1-33.2z"/>
		<path class="st2" d="M38.7-37c-0.7-0.3-1.6-0.4-2.5-0.4c-2,0-3,0.7-3,2.7v7.6h-2.1v1.7h2.1v2.9l2.1,0.3v-3.2h3.4l-0.2-1.7h-3.2
			v-7.3c0-0.9,0.1-1.3,1.2-1.3c0.6,0,1.2,0.1,1.9,0.3L38.7-37z"/>
	</g>
</symbol>
<linearGradient id="SVGID_1_" gradientUnits="userSpaceOnUse" x1="-2097.9216" y1="686.6676" x2="-2097.2146" y2="687.3748">
	<stop  offset="0" style="stop-color:#DDDEE2"/>
	<stop  offset="0.1791" style="stop-color:#D9DADE"/>
	<stop  offset="0.3627" style="stop-color:#CDCED2"/>
	<stop  offset="0.5483" style="stop-color:#B8BBBE"/>
	<stop  offset="0.7355" style="stop-color:#9B9FA1"/>
	<stop  offset="0.922" style="stop-color:#777C7D"/>
	<stop  offset="1" style="stop-color:#656B6C"/>
</linearGradient>
<g id="images">
</g>
<g id="frames">
</g>
<g id="Layer_35">
	<g id="Video_Masked">
	</g>
	<g id="video_x5F_purple_x5F_pos">
	</g>
	<g id="simulator_x5F_purple_x5F_pos">
	</g>
	
		<use xlink:href="#geri_x5F_connect_x5F_logo"  width="77.7" height="75.1" x="-38.8" y="-37.6" transform="matrix(0.4658 0 0 -0.4658 18.0932 17.5)" style="overflow:visible;"/>
</g>
<g id="Layer_3">
</g>
</svg>
