<?xml version="1.0" encoding="utf-8"?>
<!-- Generator: Adobe Illustrator 19.2.0, SVG Export Plug-In . SVG Version: 6.00 Build 0)  -->
<svg version="1.1" xmlns="http://www.w3.org/2000/svg" xmlns:xlink="http://www.w3.org/1999/xlink" x="0px" y="0px"
	 viewBox="0 0 112 17.6" style="enable-background:new 0 0 112 17.6;" xml:space="preserve">
<style type="text/css">
	.st0{fill:#503291;}
	.Drop_x0020_Shadow{fill:none;}
	.Round_x0020_Corners_x0020_2_x0020_pt{fill:#FFFFFF;stroke:#231F20;stroke-miterlimit:10;}
	.Live_x0020_Reflect_x0020_X{fill:none;}
	.Bevel_x0020_Soft{fill:url(#SVGID_1_);}
	.Dusk{fill:#FFFFFF;}
	.Foliage_GS{fill:#FFDC00;}
	.Pompadour_GS{fill-rule:evenodd;clip-rule:evenodd;fill:#44ACE1;}
	.Graphic_x0020_Style{fill-rule:evenodd;clip-rule:evenodd;fill:#262A33;}
	.st1{fill:#95D4D1;}
	.st2{fill:none;stroke:#FFFFFF;stroke-miterlimit:10;}
	.st3{fill:none;stroke:#FFFFFF;stroke-width:1.0032;stroke-miterlimit:10;}
	.st4{fill:#FFFFFF;stroke:#503291;stroke-width:0.875;stroke-miterlimit:10;}
	.st5{fill:none;stroke:#503291;stroke-linecap:round;stroke-miterlimit:10;}
	.st6{fill:#FFFFFF;}
	.st7{clip-path:url(#SVGID_21_);fill:#503291;}
	.st8{clip-path:url(#SVGID_21_);}
	.st9{fill:#A5CD50;}
	.st10{fill:#58A528;}
	.st11{fill:#7E8081;}
	.st12{fill:#7E8083;}
	.st13{fill:none;stroke:#503291;stroke-width:2;stroke-miterlimit:10;}
	.st14{fill:none;stroke:#95D4D1;stroke-miterlimit:10;}
	.st15{fill:none;stroke:#503291;stroke-width:1.1713;stroke-miterlimit:10;}
	.st16{opacity:0.2;}
	.st17{fill:#231F20;}
	.st18{fill-rule:evenodd;clip-rule:evenodd;fill:#00B4AE;}
	.st19{fill:#DCDCDC;}
	.st20{fill:#8C8C8C;}
	.st21{fill:#6B6D70;}
	.st22{fill:none;}
	.st23{fill:#E50278;}
	.st24{fill:none;stroke:#503291;stroke-width:0.5667;stroke-miterlimit:10;}
	.st25{fill:#16BECF;}
	.st26{fill:#FFFFFF;stroke:#503291;stroke-miterlimit:10;}
	.st27{fill:none;stroke:#503291;stroke-miterlimit:10;}
	.st28{opacity:0.2;fill:#FFFFFF;}
	.st29{fill:none;stroke:#FFFFFF;stroke-width:3;stroke-linecap:round;stroke-miterlimit:10;}
	.st30{opacity:0.3;fill:none;stroke:#FFFFFF;stroke-width:5;stroke-miterlimit:10;}
	.st31{fill:none;stroke:#FFFFFF;stroke-width:2;stroke-miterlimit:10;}
	.st32{fill:none;stroke:#FFFFFF;stroke-width:2;stroke-miterlimit:10;stroke-dasharray:5.0187,5.0187;}
	.st33{fill:none;stroke:#A5CD50;stroke-width:8;stroke-miterlimit:10;}
	.st34{clip-path:url(#SVGID_37_);fill:#95D4D1;}
	.st35{clip-path:url(#SVGID_37_);fill:#A5CD50;}
	.st36{fill:url(#SVGID_38_);}
	.st37{fill:#7E8081;stroke:#7E8081;stroke-width:0.2678;stroke-miterlimit:10;}
	.st38{fill:#F2F2F2;}
</style>
<symbol  id="Merck_logo_-_purple" viewBox="-56 -8.8 112 17.6">
	<g>
		<path class="st0" d="M39.9-8.6c1.1,0,2.1,0.5,2.8,1.3c0,0,0.5,0.5,1.1,1.1c0.4,0.4,0.8,0.6,1.4,0.7c0.1,0,0.4,0,0.4,0
			c0.2,0,0.4,0,0.6,0c0.6-0.1,1.1-0.2,1.7-0.5l4.9-2c0,0,1.2-0.5,2.2-0.5h0.7c0.2,0,0.4,0.2,0.4,0.4v1.8c0,1.2-0.7,2.4-1.9,2.9L53-3
			c-0.9,0.3-1.9,1-2.3,1.4c0,0-1,1.2,0.2,2.3l4.3,4.3C55.7,5.7,56,6.4,56,7.2c0,0,0,0.3-0.1,0.6c-0.1,0.2-0.2,0.4-0.3,0.6
			c-0.3,0.3-0.7,0.4-1.1,0.4h-0.7c-1.1,0-2.1-0.5-2.8-1.2c0,0-2.8-2.9-3.6-3.6l-4-4v6.3c0,1.4-1.1,2.6-2.6,2.6h-1.1
			c-0.3,0-0.7,0-0.9-0.1c-0.2-0.1-0.2-0.3-0.2-0.4V-8.2c0-0.2,0.2-0.4,0.4-0.4H39.9z"/>
		<path class="st0" d="M19.4-6.4c0,0-0.9,0.3-2.7,1.7c-0.9,0.7-1.6,1.3-1.9,1.5c0.3,0.2,1.4,0.7,2.4,1.8c0.6,0.7,0.9,1.6,0.9,2.7
			c0,1-0.3,2-0.9,2.9c-0.6,0.9-1.4,1.7-2.3,2.4c-0.9,0.7-2,1.2-3.2,1.6c-1.2,0.4-2.3,0.6-3.5,0.6c0,0-7,0-7,0C1,8.8,0.8,8.6,0.8,8.4
			V-3.3v-2.6v-0.9V-8c0-0.2,0-0.3,0.2-0.4c0.2-0.1,0.7-0.1,1-0.1c0.4,0,0.8,0,1.2,0.2c0.6,0.2,1.1,0.6,1.5,1.1
			c0.7,0.9,0.8,1.9,0.8,2.9v7.1c0,0.1,0,0.3,0.1,0.5c0,0.2,0.1,0.3,0.1,0.3C6.2,4.5,8,4.9,10,4.4c2.6-0.7,3.4-2.5,3.1-3.2
			c-0.3-0.8-1.2-1.4-2.4-1.4c-0.6,0-1.1,0.1-1.7,0.3c0,0-0.4,0.1-0.7,0.2c-0.1,0-0.4,0.2-0.6,0.2C7.4,0.5,7.3,0.3,7.3,0v-1.9
			c0-0.6,0.3-1.2,0.6-1.5c0,0,5.7-4.5,5.7-4.5c0.6-0.4,1.2-0.6,1.8-0.6l3.8,0c0.3,0,0.4,0.2,0.4,0.5v1.2C19.7-6.7,19.6-6.5,19.4-6.4
			"/>
		<path class="st0" d="M-3.4-4.1h-5c-0.7,0-1.4,0.2-2,0.5c-0.5,0.2-1.4,1-1.6,1.2c-0.5,0.5-0.8,1.1-1.1,1.8
			c-0.3,0.7-0.4,1.4-0.4,2.1c0,0.9,0.3,1.6,0.8,2.1c0.1,0.1,0.3,0.2,0.5,0.4c0.3,0.2,0.5,0.2,0.7,0.3c0.3,0.1,0.6,0.1,1,0.1
			c0.3,0,0.7,0,1-0.1C-9,4.1-8.4,3.9-7.9,3.6c0.8-0.5,1.6-1.3,2.2-2l-5.2,0c-0.3,0-0.5-0.1-0.5-0.4c0-0.5,0.1-0.9,0.3-1.3
			c0.2-0.4,1.2-2,3.3-2l4.9,0c0.9,0,1.4,0.2,1.8,0.7C-0.9-1-0.8-0.6-0.8,0c0,1-0.3,2-0.8,3c-0.5,1.1-1.2,2-2.1,2.9
			C-4.6,6.7-5.7,7.4-6.8,8C-8,8.5-9.3,8.8-10.6,8.8h-7.2c-0.2,0-0.4-0.2-0.4-0.4V1.3c0-1.3,0.3-2.6,0.8-3.8c0.5-1.2,1.2-2.2,2.1-3.1
			c0.9-0.9,1.9-1.6,3.1-2.1c1.2-0.5,2.4-0.8,3.8-0.8h7.2c0.2,0,0.4,0.2,0.4,0.4v1.4c0,0.8-0.2,1.5-0.7,2C-2-4.3-2.6-4.1-3.4-4.1"/>
		<path class="st0" d="M-19.7,6.3c0,1.4-1.1,2.6-2.6,2.6H-25c-0.1,0-0.3-0.1-0.3-0.1l-5.4-5.1c-1.9-1.7-4.4-2.7-7.1-2.7
			c-2.9,0-5.5,1.1-7.3,2.9c0,0-4,3.7-4,3.8c-0.8,0.7-1.8,1.2-3,1.2h-3.2c-0.3,0-0.5-0.2-0.5-0.5V-6c0-1.4,1.1-2.6,2.6-2.6h1l0.7,0
			c0.3,0,0.5,0.2,0.5,0.5l0,5.1c0,1.3,1.1,2.4,2.4,2.4c2.4,0,4.2-2.1,5.8-3.5c1.9-1.7,3.4-3.4,5.3-3.4c1.8,0,3.3,1.6,5.3,3.4
			c1.6,1.4,3.3,3.5,5.8,3.5c1.3,0,2.4-1.1,2.4-2.4V-6c0-1.4,1.1-2.6,2.6-2.6h1.1c0.3,0,0.6,0,0.6,0l0,0c0.3,0,0.5,0.2,0.5,0.5
			C-19.7-8-19.7,6.1-19.7,6.3"/>
		<path class="st0" d="M36.7-1.3h-2.6c-1,0-1.6-0.4-1.9-1.3c-0.2-0.5-0.5-1-0.9-1.3c-0.4-0.3-0.9-0.5-1.6-0.5
			c-0.6,0-1.2,0.2-1.9,0.5c-0.6,0.3-1.2,0.8-1.7,1.4c-0.5,0.6-0.9,1.2-1.2,1.9c-0.3,0.7-0.5,1.4-0.5,2.1c0,0.9,0.3,1.6,0.8,2.1
			c0.5,0.5,1.2,0.8,2,0.8c0.9,0,1.8-0.3,2.7-1c0.4-0.3,0.7-0.4,1.1-0.4c0.4,0,0.8,0.2,1.3,0.7L34,5.4c0.1,0.1,0.2,0.2,0.1,0.3
			c0,0.1-0.1,0.2-0.2,0.3c-1,0.9-2,1.6-3.2,2.1c-1.1,0.5-2.3,0.7-3.6,0.7h-7c-0.3,0-0.4-0.2-0.4-0.5v-7c0-1.4,0.3-2.6,0.8-3.9
			c0.5-1.2,1.3-2.3,2.2-3.2c0.9-0.9,2-1.7,3.2-2.2c1.2-0.6,2.4-0.8,3.7-0.8c1,0,2,0.2,2.9,0.5c0.9,0.3,1.6,0.8,2.3,1.5
			c0.7,0.6,1.2,1.4,1.5,2.2c0.4,0.9,0.6,1.8,0.7,2.8C37.1-1.5,37-1.3,36.7-1.3"/>
	</g>
</symbol>
<linearGradient id="SVGID_1_" gradientUnits="userSpaceOnUse" x1="-1332.4099" y1="778.8284" x2="-1331.7028" y2="779.5355">
	<stop  offset="0" style="stop-color:#DDDEE2"/>
	<stop  offset="0.1791" style="stop-color:#D9DADE"/>
	<stop  offset="0.3627" style="stop-color:#CDCED2"/>
	<stop  offset="0.5483" style="stop-color:#B8BBBE"/>
	<stop  offset="0.7355" style="stop-color:#9B9FA1"/>
	<stop  offset="0.922" style="stop-color:#777C7D"/>
	<stop  offset="1" style="stop-color:#656B6C"/>
</linearGradient>
<g id="images">
</g>
<g id="frames">
</g>
<g id="Layer_35">
	<g id="Video_Masked">
	</g>
	<g id="video_x5F_purple_x5F_pos">
	</g>
	<g id="simulator_x5F_purple_x5F_pos">
	</g>
	
		<use xlink:href="#Merck_logo_-_purple"  width="112" height="17.6" x="-56" y="-8.8" transform="matrix(1 0 0 -1 56 8.8143)" style="overflow:visible;"/>
</g>
<g id="Layer_3">
</g>
</svg>
