<?xml version="1.0" encoding="utf-8"?>
<!-- Generator: Adobe Illustrator 19.2.0, SVG Export Plug-In . SVG Version: 6.00 Build 0)  -->
<svg version="1.1" xmlns="http://www.w3.org/2000/svg" xmlns:xlink="http://www.w3.org/1999/xlink" x="0px" y="0px"
	 viewBox="0 0 61.4 35" style="enable-background:new 0 0 61.4 35;" xml:space="preserve">
<style type="text/css">
	.st0{fill:#58A528;}
	.st1{fill:#6B6D70;}
	.st2{fill:none;}
	.Drop_x0020_Shadow{fill:none;}
	.Round_x0020_Corners_x0020_2_x0020_pt{fill:#FFFFFF;stroke:#231F20;stroke-miterlimit:10;}
	.Live_x0020_Reflect_x0020_X{fill:none;}
	.Bevel_x0020_Soft{fill:url(#SVGID_1_);}
	.Dusk{fill:#FFFFFF;}
	.Foliage_GS{fill:#FFDC00;}
	.Pompadour_GS{fill-rule:evenodd;clip-rule:evenodd;fill:#44ACE1;}
	.Graphic_x0020_Style{fill-rule:evenodd;clip-rule:evenodd;fill:#262A33;}
	.st3{fill:#95D4D1;}
	.st4{fill:none;stroke:#FFFFFF;stroke-miterlimit:10;}
	.st5{fill:none;stroke:#FFFFFF;stroke-width:1.0032;stroke-miterlimit:10;}
	.st6{fill:#FFFFFF;stroke:#503291;stroke-width:0.875;stroke-miterlimit:10;}
	.st7{fill:none;stroke:#503291;stroke-linecap:round;stroke-miterlimit:10;}
	.st8{fill:#FFFFFF;}
	.st9{fill:#503291;}
	.st10{clip-path:url(#SVGID_21_);fill:#503291;}
	.st11{clip-path:url(#SVGID_21_);}
	.st12{fill:#A5CD50;}
	.st13{fill:#7E8081;}
	.st14{fill:#7E8083;}
	.st15{fill:none;stroke:#503291;stroke-width:2;stroke-miterlimit:10;}
	.st16{fill:none;stroke:#95D4D1;stroke-miterlimit:10;}
	.st17{fill:none;stroke:#503291;stroke-width:1.1713;stroke-miterlimit:10;}
	.st18{opacity:0.2;}
	.st19{fill:#231F20;}
	.st20{fill-rule:evenodd;clip-rule:evenodd;fill:#00B4AE;}
	.st21{fill:#DCDCDC;}
	.st22{fill:#8C8C8C;}
	.st23{fill:#E50278;}
	.st24{fill:none;stroke:#503291;stroke-width:0.5667;stroke-miterlimit:10;}
	.st25{fill:#16BECF;}
	.st26{fill:#FFFFFF;stroke:#503291;stroke-miterlimit:10;}
	.st27{fill:none;stroke:#503291;stroke-miterlimit:10;}
	.st28{opacity:0.2;fill:#FFFFFF;}
	.st29{fill:none;stroke:#FFFFFF;stroke-width:3;stroke-linecap:round;stroke-miterlimit:10;}
	.st30{opacity:0.3;fill:none;stroke:#FFFFFF;stroke-width:5;stroke-miterlimit:10;}
	.st31{fill:none;stroke:#FFFFFF;stroke-width:2;stroke-miterlimit:10;}
	.st32{fill:none;stroke:#FFFFFF;stroke-width:2;stroke-miterlimit:10;stroke-dasharray:5.0187,5.0187;}
	.st33{fill:none;stroke:#A5CD50;stroke-width:8;stroke-miterlimit:10;}
	.st34{clip-path:url(#SVGID_37_);fill:#95D4D1;}
	.st35{clip-path:url(#SVGID_37_);fill:#A5CD50;}
	.st36{fill:url(#SVGID_38_);}
	.st37{fill:#7E8081;stroke:#7E8081;stroke-width:0.2678;stroke-miterlimit:10;}
	.st38{fill:#F2F2F2;}
</style>
<symbol  id="gems_x5F_logo" viewBox="-30.7 -17.5 61.4 35">
	<path class="st0" d="M-19.1,17.3h-6.5c1.9-1.6,3.1-3.8,3.1-6.3c0-2.5-1.3-4.8-3.3-6.4h6.7c0.6,0,1.1,0.5,1.1,1.1v10.5
		C-18,16.8-18.5,17.3-19.1,17.3 M-27.6,4.6h-1.9c-0.6,0-1.1,0.5-1.1,1.1v10.5c0,0.6,0.5,1.1,1.1,1.1h2.1c2.4-1.4,3.9-3.7,3.9-6.3
		C-23.5,8.4-25.2,6-27.6,4.6"/>
	<path class="st1" d="M7.7,12.4H6.4c-0.6,0-0.8-0.2-0.8-0.7c0-0.5,0.1-0.7,0.7-0.7c0.4,0,0.9,0.2,1.3,0.4V12.4z M8.6,10.3H7.9
		l-0.1,0.4c-0.5-0.3-1.1-0.5-1.7-0.5c-1,0-1.4,0.6-1.4,1.5c0,1.1,0.5,1.5,1.6,1.5h1.4V14c0,0.6-0.3,0.9-1.1,0.9
		c-0.5,0-1.1-0.1-1.5-0.2L5,15.4c0.5,0.1,1.1,0.2,1.7,0.2c1.5,0,2-0.6,2-1.7V10.3z M1,13.3h2.2v0.4c0,0.7-0.2,1.1-1.1,1.1
		c-0.8,0-1.1-0.4-1.1-1.1V13.3z M2.2,11c0.5,0,1.1,0.1,1.6,0.2l0.1-0.7c-0.5-0.2-1.2-0.3-1.8-0.3c-1.5,0-2,0.7-2,1.9v1.5
		c0,1.1,0.5,1.9,2,1.9c1.5,0,1.9-0.9,1.9-2v-1.1H1v-0.4C1,11.3,1.2,11,2.2,11 M-1.8,10.3v3.9c0,0.3-0.2,0.5-0.5,0.5
		c-0.4,0-1.2-0.2-1.7-0.5v-3.9h-0.9v5.2h0.7l0.1-0.4c0.6,0.3,1.5,0.6,2.1,0.6c0.8,0,1.1-0.5,1.1-1.3v-4H-1.8z M-8.9,13.3h2.2v0.4
		c0,0.7-0.2,1.1-1.1,1.1c-0.8,0-1.1-0.4-1.1-1.1V13.3z M-7.7,11c0.5,0,1.1,0.1,1.6,0.2l0.1-0.7c-0.5-0.2-1.2-0.3-1.8-0.3
		c-1.5,0-2,0.7-2,1.9v1.5c0,1.1,0.5,1.9,2,1.9c1.5,0,1.9-0.9,1.9-2v-1.1h-3.1v-0.4C-8.9,11.3-8.7,11-7.7,11 M-14.4,12.4
		c0-0.9,0.3-1.3,1.5-1.3c0.4,0,0.8,0,1.3,0.1v2.4h0.9v-3c-0.7-0.2-1.5-0.3-2.2-0.3c-1.8,0-2.4,0.8-2.4,2.1v3.1
		c0,1.4,0.7,2.1,2.5,2.1c0.6,0,1.3-0.1,2-0.2l-0.1-0.8c-0.7,0.1-1.3,0.2-1.9,0.2c-1.2,0-1.5-0.4-1.5-1.3V12.4z"/>
	<path class="st0" d="M-15.3,4.7v4.4h1.7c0.7,0,1-0.3,1-0.9V7.7c0-0.3-0.1-0.6-0.5-0.7c0.4-0.1,0.6-0.3,0.6-0.8V5.6
		c0-0.6-0.4-0.9-1.1-0.9H-15.3z M-13.1,8.2c0,0.3-0.2,0.4-0.5,0.4h-1.1V7.1h1c0.4,0,0.6,0.2,0.6,0.5V8.2z M-13,6.1
		c0,0.4-0.2,0.5-0.6,0.5h-1.1V5.1h1.1c0.4,0,0.6,0.2,0.6,0.5V6.1z"/>
	<rect x="-11.7" y="4.7" class="st0" width="0.6" height="4.4"/>
	<path class="st0" d="M-7.1,5.9c0-0.7-0.5-1.3-1.6-1.3c-1.1,0-1.6,0.6-1.6,1.3v1.9c0,0.7,0.5,1.3,1.6,1.3c1.1,0,1.6-0.6,1.6-1.3V5.9
		z M-9.7,5.9c0-0.5,0.3-0.8,1-0.8c0.7,0,1,0.3,1,0.8v1.8c0,0.5-0.3,0.8-1,0.8c-0.7,0-1-0.3-1-0.8V5.9z"/>
	<polygon class="st0" points="-3.1,9.1 -4.3,5.7 -5.6,9.1 -6.3,9.1 -6.3,4.7 -5.8,4.7 -5.8,4.7 -5.8,8 -4.7,5.2 -4,5.2 -2.9,8 
		-2.9,4.7 -2.9,4.7 -2.3,4.7 -2.3,9.1 	"/>
	<polygon class="st0" points="-1.5,9.1 1.1,9.1 1.1,8.6 -0.9,8.6 -0.9,7.2 1,7.2 1,6.7 -0.9,6.7 -0.9,5.2 1.1,5.2 1.1,4.7 -1.5,4.7 
			"/>
	<path class="st0" d="M3.4,9.1c1.1,0,1.4-0.6,1.4-1.3V5.9c0-0.7-0.3-1.3-1.4-1.3H1.9v4.4H3.4z M2.4,5.2h1C4,5.2,4.2,5.4,4.2,6v1.8
		c0,0.5-0.2,0.8-0.9,0.8h-1V5.2z"/>
	<polygon class="st0" points="8,9.1 6.9,7.3 5.8,9.1 5.2,9.1 6.6,6.9 5.2,4.7 5.8,4.7 6.9,6.4 8.1,4.7 8.7,4.7 7.2,6.9 8.6,9.1 	"/>
	<path class="st0" d="M-9.9-2c-3.8,0-5.9-1.9-5.9-5.6v-4.3c0-3.7,1.9-5.5,5.9-5.5c1.8,0,3.7,0.3,5.1,0.8l0.2,0.1l-0.4,2.5L-5.2-14
		c-1.7-0.4-3.1-0.7-4.4-0.7c-2.7,0-3.1,0.8-3.1,2.9v0.9h8.5v3.3C-4.2-3.9-6.1-2-9.9-2 M-9.9-4.6c2,0,2.7-0.8,2.7-2.8v-0.9h-5.5v0.9
		C-12.7-5.4-11.9-4.6-9.9-4.6"/>
	<path class="st0" d="M15-2.3c-1.8,0-4.1-0.7-5.7-1.4C8.8-2.8,7.8-2.3,6.5-2.3C4.8-2.3,2.5-3,1-3.7L0.8-2.6h-2.5v-14.8h3.1v10.9
		c1.4,0.7,3.5,1.3,4.5,1.3c0.8,0,1.1-0.3,1.1-1v-11.2h3.1v10.9c1.5,0.7,3.4,1.3,4.5,1.3c0.8,0,1.1-0.3,1.1-1v-11.2h3.1v11.2
		C18.4-3.6,17.3-2.3,15-2.3"/>
	<path class="st0" d="M26.1-8.3c-2.2,0.5-2.2,0.7-2.2,2.2c0,1.1,0.1,1.5,2.1,1.5c1.1,0,2.6-0.2,3.9-0.4l0.3-0.1l0.2,2.6l-0.2,0.1
		C29-2.2,27.5-2,26.1-2c-3.7,0-5.2-1.2-5.2-4.1c0-3.1,0.4-3.9,4.1-4.9c2.7-0.7,2.7-0.8,2.7-2.1c0-1.2-0.1-1.6-2.3-1.6
		c-1.2,0-2.8,0.2-4,0.6L21.1-14l-0.4-2.5l0.2-0.1c1.2-0.5,3.1-0.8,4.6-0.8c4.4,0,5.2,1.6,5.2,4.4C30.7-9.9,30.2-9.3,26.1-8.3"/>
	<path class="st0" d="M-23.7-8.4V-11h2.5v-3.3c-1.2-0.2-2.3-0.3-3-0.3c-2.9,0-3.4,0.9-3.4,3v7.8c0,2,0.5,3,3.5,3
		c1.4,0,3-0.2,4.8-0.5l0.4-0.1l0.4,2.8l-0.4,0.1C-20.5,1.8-22.3,2-24,2c-4.7,0-6.8-1.8-6.8-5.8v-8c0-4,2-5.8,6.5-5.8
		c2,0,4.1,0.3,5.9,0.8l0.3,0.1v8.2l-3.1,0H-23.7z"/>
	<rect x="-30.7" y="-17.5" class="st2" width="61.4" height="35"/>
</symbol>
<linearGradient id="SVGID_1_" gradientUnits="userSpaceOnUse" x1="-2085.2927" y1="845.4478" x2="-2084.5854" y2="846.155">
	<stop  offset="0" style="stop-color:#DDDEE2"/>
	<stop  offset="0.1791" style="stop-color:#D9DADE"/>
	<stop  offset="0.3627" style="stop-color:#CDCED2"/>
	<stop  offset="0.5483" style="stop-color:#B8BBBE"/>
	<stop  offset="0.7355" style="stop-color:#9B9FA1"/>
	<stop  offset="0.922" style="stop-color:#777C7D"/>
	<stop  offset="1" style="stop-color:#656B6C"/>
</linearGradient>
<g id="images">
</g>
<g id="frames">
</g>
<g id="Layer_35">
	<g id="Video_Masked">
	</g>
	
		<use xlink:href="#gems_x5F_logo"  width="61.4" height="35" id="XMLID_24_" x="-30.7" y="-17.5" transform="matrix(1 0 0 -1 30.7222 17.5)" style="overflow:visible;"/>
	<g id="video_x5F_purple_x5F_pos">
	</g>
	<g id="simulator_x5F_purple_x5F_pos">
	</g>
</g>
<g id="Layer_3">
</g>
</svg>
