<?xml version="1.0" encoding="utf-8"?>
<!-- Generator: Adobe Illustrator 18.0.0, SVG Export Plug-In . SVG Version: 6.00 Build 0)  -->
<!DOCTYPE svg PUBLIC "-//W3C//DTD SVG 1.1//EN" "http://www.w3.org/Graphics/SVG/1.1/DTD/svg11.dtd">
<svg version="1.1" id="Layer_1" xmlns="http://www.w3.org/2000/svg" xmlns:xlink="http://www.w3.org/1999/xlink" x="0px" y="0px"
	 width="320px" height="320px" viewBox="0 0 320 320" enable-background="new 0 0 320 320" xml:space="preserve">
<path fill="#ED1C24" d="M106,245c-51.8-21.5-76.5-81.1-55.1-132.9S132,35.5,183.8,57s76.5,81.1,55.1,132.9S157.8,266.5,106,245z
	 M181.4,63C132.8,42.9,77,66,56.9,114.6s3,104.4,51.5,124.5s104.4-3,124.5-51.5S229.9,83.1,181.4,63z"/>
<g>
	<path fill="#ED1C24" d="M107.4,215.8c14.2,0,25.8,11.5,25.8,25.7c0,14.2-11.5,25.8-25.7,25.8s-25.8-11.5-25.8-25.7
		C81.6,227.4,93.1,215.9,107.4,215.8z"/>
	<path fill="#FFFFFF" d="M114.9,232c-1.3,0.8-6.3,4.7-7.5,5.6c-0.2-0.1-0.4-0.3-0.6-0.4c-1.3-0.9-6.8-5.1-7-5.3
		c-0.8-0.6-2-0.2-2.3,0.8c-0.2,0.5,0,0.9,0.3,1.4c0.8,1.3,4.7,6.2,5.6,7.5c-0.1,0.2-5.5,7.3-5.7,7.5c-1,1.4,0.7,3.1,2.1,2.1
		c1.3-0.8,6.3-4.7,7.5-5.6c0.2,0.1,0.4,0.3,0.6,0.4c1.3,0.9,6.2,4.7,6.5,4.9c0.2,0.1,0.3,0.2,0.5,0.4c0.8,0.6,2,0.2,2.3-0.8
		c0.2-0.5,0-0.9-0.3-1.4c-0.8-1.3-4.7-6.2-5.6-7.5c0,0,0-0.1,0.1-0.1c0.9-1.3,4.7-6.2,5.6-7.5C117.9,232.7,116.3,231,114.9,232z"/>
</g>
</svg>
