<?xml version="1.0" encoding="utf-8"?>
<!-- Generator: Adobe Illustrator 18.0.0, SVG Export Plug-In . SVG Version: 6.00 Build 0)  -->
<!DOCTYPE svg PUBLIC "-//W3C//DTD SVG 1.1//EN" "http://www.w3.org/Graphics/SVG/1.1/DTD/svg11.dtd">
<svg version="1.1" id="Layer_1" xmlns="http://www.w3.org/2000/svg" xmlns:xlink="http://www.w3.org/1999/xlink" x="0px" y="0px"
	 width="320px" height="320px" viewBox="0 0 320 320" enable-background="new 0 0 320 320" xml:space="preserve">
<path fill="#ED1C24" d="M73,110C94.5,58.1,154.1,33.4,206,54.9S282.5,136,261,187.8s-81.1,76.5-132.9,55.1S51.6,161.8,73,110z
	 M255,185.4c20.1-48.5-3-104.4-51.5-124.5S99.1,63.9,79,112.5s3,104.4,51.5,124.5S234.9,233.9,255,185.4z"/>
<g>
	<path fill="#ED1C24" d="M76.4,85.7c14.2,0,25.8,11.5,25.8,25.7s-11.5,25.8-25.7,25.8s-25.8-11.5-25.8-25.7
		C50.6,97.3,62.1,85.8,76.4,85.7z"/>
	<path fill="#FFFFFF" d="M83.9,101.9c-1.3,0.8-6.3,4.7-7.5,5.6c-0.2-0.1-0.4-0.3-0.6-0.4c-1.3-0.9-6.8-5.1-7-5.3
		c-0.8-0.6-2-0.2-2.3,0.8c-0.2,0.5,0,0.9,0.3,1.4c0.8,1.3,4.7,6.2,5.6,7.5c-0.1,0.2-5.5,7.3-5.7,7.5c-1,1.4,0.7,3.1,2.1,2.1
		c1.3-0.8,6.3-4.7,7.5-5.6c0.2,0.1,0.4,0.3,0.6,0.4c1.3,0.9,6.2,4.7,6.5,4.9c0.2,0.1,0.3,0.2,0.5,0.4c0.8,0.6,2,0.2,2.3-0.8
		c0.2-0.5,0-0.9-0.3-1.4c-0.8-1.3-4.7-6.2-5.6-7.5c0,0,0-0.1,0.1-0.1c0.9-1.3,4.7-6.2,5.6-7.5C86.9,102.6,85.3,100.9,83.9,101.9z"/>
</g>
</svg>
