<?xml version="1.0" encoding="utf-8"?>
<!-- Generator: Adobe Illustrator 18.0.0, SVG Export Plug-In . SVG Version: 6.00 Build 0)  -->
<!DOCTYPE svg PUBLIC "-//W3C//DTD SVG 1.1//EN" "http://www.w3.org/Graphics/SVG/1.1/DTD/svg11.dtd">
<svg version="1.1" id="Layer_1" xmlns="http://www.w3.org/2000/svg" xmlns:xlink="http://www.w3.org/1999/xlink" x="0px" y="0px"
	 width="320px" height="320px" viewBox="0 0 320 320" enable-background="new 0 0 320 320" xml:space="preserve">
<path fill="#ED1C24" d="M106,75c51.8-21.5,111.5,3.2,132.9,55.1s-3.2,111.5-55.1,132.9S72.4,259.8,50.9,208S54.1,96.5,106,75z
	 M181.4,257c48.5-20.1,71.6-75.9,51.5-124.5S157,60.9,108.5,81S36.8,157,56.9,205.5S132.8,277.1,181.4,257z"/>
<g>
	<path fill="#ED1C24" d="M107.4,52.7c14.2,0,25.8,11.5,25.8,25.7s-11.5,25.8-25.7,25.8S81.7,92.7,81.7,78.5
		C81.6,64.3,93.1,52.8,107.4,52.7z"/>
	<path fill="#FFFFFF" d="M114.9,68.9c-1.3,0.8-6.3,4.7-7.5,5.6c-0.2-0.1-0.4-0.3-0.6-0.4c-1.3-0.9-6.8-5.1-7-5.3
		c-0.8-0.6-2-0.2-2.3,0.8c-0.2,0.5,0,0.9,0.3,1.4c0.8,1.3,4.7,6.2,5.6,7.5c-0.1,0.2-5.5,7.3-5.7,7.5c-1,1.4,0.7,3.1,2.1,2.1
		c1.3-0.8,6.3-4.7,7.5-5.6c0.2,0.1,0.4,0.3,0.6,0.4c1.3,0.9,6.2,4.7,6.5,4.9c0.2,0.1,0.3,0.2,0.5,0.4c0.8,0.6,2,0.2,2.3-0.8
		c0.2-0.5,0-0.9-0.3-1.4c-0.8-1.3-4.7-6.2-5.6-7.5c0,0,0-0.1,0.1-0.1c0.9-1.3,4.7-6.2,5.6-7.5C117.9,69.6,116.3,67.9,114.9,68.9z"/>
</g>
</svg>
