<?xml version="1.0" encoding="utf-8"?>
<!-- Generator: Adobe Illustrator 18.0.0, SVG Export Plug-In . SVG Version: 6.00 Build 0)  -->
<!DOCTYPE svg PUBLIC "-//W3C//DTD SVG 1.1//EN" "http://www.w3.org/Graphics/SVG/1.1/DTD/svg11.dtd">
<svg version="1.1" id="Layer_1" xmlns="http://www.w3.org/2000/svg" xmlns:xlink="http://www.w3.org/1999/xlink" x="0px" y="0px"
	 width="320px" height="320px" viewBox="0 0 320 320" enable-background="new 0 0 320 320" xml:space="preserve">
<path fill="#ED1C24" d="M101.2,160c0-56.1,45.6-101.8,101.8-101.8S304.7,103.9,304.7,160S259.1,261.7,203,261.7
	S101.2,216.1,101.2,160z M298.2,160c0-52.5-42.7-95.3-95.3-95.3s-95.3,42.7-95.3,95.3s42.7,95.3,95.3,95.3S298.2,212.5,298.2,160z"
	/>
<g>
	<path fill="#ED1C24" d="M105,134.2c14.2,0,25.8,11.5,25.8,25.7s-11.5,25.8-25.7,25.8S79.3,174.2,79.3,160
		C79.2,145.8,90.7,134.3,105,134.2z"/>
	<path fill="#FFFFFF" d="M112.5,150.4c-1.3,0.8-6.3,4.7-7.5,5.6c-0.2-0.1-0.4-0.3-0.6-0.4c-1.3-0.9-6.8-5.1-7-5.3
		c-0.8-0.6-2-0.2-2.3,0.8c-0.2,0.5,0,0.9,0.3,1.4c0.8,1.3,4.7,6.2,5.6,7.5c-0.1,0.2-5.5,7.3-5.7,7.5c-1,1.4,0.7,3.1,2.1,2.1
		c1.3-0.8,6.3-4.7,7.5-5.6c0.2,0.1,0.4,0.3,0.6,0.4c1.3,0.9,6.2,4.7,6.5,4.9c0.2,0.1,0.3,0.2,0.5,0.4c0.8,0.6,2,0.2,2.3-0.8
		c0.2-0.5,0-0.9-0.3-1.4c-0.8-1.3-4.7-6.2-5.6-7.5c0,0,0-0.1,0.1-0.1c0.9-1.3,4.7-6.2,5.6-7.5C115.5,151.1,113.9,149.4,112.5,150.4z
		"/>
</g>
</svg>
