<?xml version="1.0" encoding="utf-8"?>
<!-- Generator: Adobe Illustrator 18.0.0, SVG Export Plug-In . SVG Version: 6.00 Build 0)  -->
<!DOCTYPE svg PUBLIC "-//W3C//DTD SVG 1.1//EN" "http://www.w3.org/Graphics/SVG/1.1/DTD/svg11.dtd">
<svg version="1.1" id="Layer_1" xmlns="http://www.w3.org/2000/svg" xmlns:xlink="http://www.w3.org/1999/xlink" x="0px" y="0px"
	 width="320px" height="320px" viewBox="0 0 320 320" enable-background="new 0 0 320 320" xml:space="preserve">
<path fill="#ED1C24" d="M83.3,87.3c39.7-39.7,104.2-39.7,143.9,0s39.7,104.2,0,143.9s-104.2,39.7-143.9,0S43.6,127,83.3,87.3z
	 M222.6,226.6c37.1-37.1,37.1-97.6,0-134.7s-97.6-37.1-134.7,0s-37.1,97.6,0,134.7S185.4,263.7,222.6,226.6z"/>
<g>
	<path fill="#ED1C24" d="M85.9,64.2c14.2,0,25.8,11.5,25.8,25.7s-11.5,25.8-25.7,25.8S60.2,104.2,60.2,90
		C60.1,75.8,71.6,64.3,85.9,64.2z"/>
	<path fill="#FFFFFF" d="M93.4,80.4c-1.3,0.8-6.3,4.7-7.5,5.6c-0.2-0.1-0.4-0.3-0.6-0.4c-1.3-0.9-6.8-5.1-7-5.3
		c-0.8-0.6-2-0.2-2.3,0.8c-0.2,0.5,0,0.9,0.3,1.4c0.8,1.3,4.7,6.2,5.6,7.5c-0.1,0.2-5.5,7.3-5.7,7.5c-1,1.4,0.7,3.1,2.1,2.1
		c1.3-0.8,6.3-4.7,7.5-5.6c0.2,0.1,0.4,0.3,0.6,0.4c1.3,0.9,6.2,4.7,6.5,4.9c0.2,0.1,0.3,0.2,0.5,0.4c0.8,0.6,2,0.2,2.3-0.8
		c0.2-0.5,0-0.9-0.3-1.4c-0.8-1.3-4.7-6.2-5.6-7.5c0,0,0-0.1,0.1-0.1c0.9-1.3,4.7-6.2,5.6-7.5C96.4,81.1,94.8,79.4,93.4,80.4z"/>
</g>
</svg>
