<?xml version="1.0" encoding="utf-8"?>
<!-- Generator: Adobe Illustrator 18.0.0, SVG Export Plug-In . SVG Version: 6.00 Build 0)  -->
<!DOCTYPE svg PUBLIC "-//W3C//DTD SVG 1.1//EN" "http://www.w3.org/Graphics/SVG/1.1/DTD/svg11.dtd">
<svg version="1.1" id="Layer_1" xmlns="http://www.w3.org/2000/svg" xmlns:xlink="http://www.w3.org/1999/xlink" x="0px" y="0px"
	 width="320px" height="320px" viewBox="0 0 320 320" enable-background="new 0 0 320 320" xml:space="preserve">
<path fill="#ED1C24" d="M160,216.7c-56.1,0-101.8-45.6-101.8-101.8S103.9,13.2,160,13.2S261.7,58.9,261.7,115S216.1,216.7,160,216.7
	z M160,19.7c-52.5,0-95.3,42.7-95.3,95.3s42.7,95.3,95.3,95.3s95.3-42.7,95.3-95.3S212.5,19.7,160,19.7z"/>
<g>
	<path fill="#ED1C24" d="M160,187.2c14.2,0,25.8,11.5,25.8,25.7s-11.5,25.8-25.7,25.8s-25.8-11.5-25.8-25.7
		C134.2,198.8,145.7,187.3,160,187.2z"/>
	<path fill="#FFFFFF" d="M167.5,203.4c-1.3,0.8-6.3,4.7-7.5,5.6c-0.2-0.1-0.4-0.3-0.6-0.4c-1.3-0.9-6.8-5.1-7-5.3
		c-0.8-0.6-2-0.2-2.3,0.8c-0.2,0.5,0,0.9,0.3,1.4c0.8,1.3,4.7,6.2,5.6,7.5c-0.1,0.2-5.5,7.3-5.7,7.5c-1,1.4,0.7,3.1,2.1,2.1
		c1.3-0.8,6.3-4.7,7.5-5.6c0.2,0.1,0.4,0.3,0.6,0.4c1.3,0.9,6.2,4.7,6.5,4.9c0.2,0.1,0.3,0.2,0.5,0.4c0.8,0.6,2,0.2,2.3-0.8
		c0.2-0.5,0-0.9-0.3-1.4c-0.8-1.3-4.7-6.2-5.6-7.5c0,0,0-0.1,0.1-0.1c0.9-1.3,4.7-6.2,5.6-7.5C170.5,204.1,168.9,202.4,167.5,203.4z
		"/>
</g>
</svg>
