<?xml version="1.0" encoding="utf-8"?>
<!-- Generator: Adobe Illustrator 18.0.0, SVG Export Plug-In . SVG Version: 6.00 Build 0)  -->
<!DOCTYPE svg PUBLIC "-//W3C//DTD SVG 1.1//EN" "http://www.w3.org/Graphics/SVG/1.1/DTD/svg11.dtd">
<svg version="1.1" id="Layer_1" xmlns="http://www.w3.org/2000/svg" xmlns:xlink="http://www.w3.org/1999/xlink" x="0px" y="0px"
	 width="320px" height="320px" viewBox="0 0 320 320" enable-background="new 0 0 320 320" xml:space="preserve">
<path fill="#ED1C24" d="M218.8,160c0,56.1-45.6,101.8-101.8,101.8S15.3,216.1,15.3,160S60.9,58.2,117,58.2S218.8,103.9,218.8,160z
	 M21.8,160c0,52.5,42.7,95.3,95.3,95.3s95.3-42.7,95.3-95.3S169.5,64.7,117,64.7S21.8,107.5,21.8,160z"/>
<g>
	<path fill="#ED1C24" d="M215,134.3c14.2,0,25.8,11.5,25.8,25.7s-11.5,25.8-25.7,25.8s-25.8-11.5-25.8-25.7
		C189.2,145.9,200.7,134.4,215,134.3z"/>
	<path fill="#FFFFFF" d="M222.5,150.5c-1.3,0.8-6.3,4.7-7.5,5.6c-0.2-0.1-0.4-0.3-0.6-0.4c-1.3-0.9-6.8-5.1-7-5.3
		c-0.8-0.6-2-0.2-2.3,0.8c-0.2,0.5,0,0.9,0.3,1.4c0.8,1.3,4.7,6.2,5.6,7.5c-0.1,0.2-5.5,7.3-5.7,7.5c-1,1.4,0.7,3.1,2.1,2.1
		c1.3-0.8,6.3-4.7,7.5-5.6c0.2,0.1,0.4,0.3,0.6,0.4c1.3,0.9,6.2,4.7,6.5,4.9c0.2,0.1,0.3,0.2,0.5,0.4c0.8,0.6,2,0.2,2.3-0.8
		c0.2-0.5,0-0.9-0.3-1.4c-0.8-1.3-4.7-6.2-5.6-7.5c0,0,0-0.1,0.1-0.1c0.9-1.3,4.7-6.2,5.6-7.5C225.5,151.2,223.9,149.5,222.5,150.5z
		"/>
</g>
</svg>
