<?xml version="1.0" encoding="utf-8"?>
<!-- Generator: Adobe Illustrator 18.0.0, SVG Export Plug-In . SVG Version: 6.00 Build 0)  -->
<!DOCTYPE svg PUBLIC "-//W3C//DTD SVG 1.1//EN" "http://www.w3.org/Graphics/SVG/1.1/DTD/svg11.dtd">
<svg version="1.1" id="Layer_1" xmlns="http://www.w3.org/2000/svg" xmlns:xlink="http://www.w3.org/1999/xlink" x="0px" y="0px"
	 width="320px" height="320px" viewBox="0 0 320 320" enable-background="new 0 0 320 320" xml:space="preserve">
<path fill="#ED1C24" d="M247,110c21.5,51.8-3.2,111.5-55.1,132.9S80.4,239.7,59,187.8S62.2,76.4,114,54.9S225.5,58.1,247,110z
	 M65,185.4c20.1,48.5,75.9,71.6,124.5,51.5S261.1,161,241,112.5S165,40.8,116.5,60.9S44.9,136.8,65,185.4z"/>
<g>
	<path fill="#ED1C24" d="M243.5,85.7c14.2,0,25.8,11.5,25.8,25.7s-11.5,25.8-25.7,25.8c-14.2,0-25.8-11.5-25.8-25.7
		C217.7,97.3,229.2,85.8,243.5,85.7z"/>
	<path fill="#FFFFFF" d="M251,101.9c-1.3,0.8-6.3,4.7-7.5,5.6c-0.2-0.1-0.4-0.3-0.6-0.4c-1.3-0.9-6.8-5.1-7-5.3
		c-0.8-0.6-2-0.2-2.3,0.8c-0.2,0.5,0,0.9,0.3,1.4c0.8,1.3,4.7,6.2,5.6,7.5c-0.1,0.2-5.5,7.3-5.7,7.5c-1,1.4,0.7,3.1,2.1,2.1
		c1.3-0.8,6.3-4.7,7.5-5.6c0.2,0.1,0.4,0.3,0.6,0.4c1.3,0.9,6.2,4.7,6.5,4.9c0.2,0.1,0.3,0.2,0.5,0.4c0.8,0.6,2,0.2,2.3-0.8
		c0.2-0.5,0-0.9-0.3-1.4c-0.8-1.3-4.7-6.2-5.6-7.5c0,0,0-0.1,0.1-0.1c0.9-1.3,4.7-6.2,5.6-7.5C254,102.6,252.4,100.9,251,101.9z"/>
</g>
</svg>
