<?xml version="1.0" encoding="utf-8"?>
<!-- Generator: Adobe Illustrator 18.0.0, SVG Export Plug-In . SVG Version: 6.00 Build 0)  -->
<!DOCTYPE svg PUBLIC "-//W3C//DTD SVG 1.1//EN" "http://www.w3.org/Graphics/SVG/1.1/DTD/svg11.dtd">
<svg version="1.1" id="Layer_1" xmlns="http://www.w3.org/2000/svg" xmlns:xlink="http://www.w3.org/1999/xlink" x="0px" y="0px"
	 width="320px" height="320px" viewBox="0 0 320 320" enable-background="new 0 0 320 320" xml:space="preserve">
<path fill="#0D3651" d="M83.3,232.7c-39.7-39.7-39.7-104.2,0-143.9s104.2-39.7,143.9,0s39.7,104.2,0,143.9S123,272.4,83.3,232.7z
	 M222.6,93.4c-37.1-37.1-97.6-37.1-134.7,0s-37.1,97.6,0,134.7s97.6,37.1,134.7,0S259.7,130.6,222.6,93.4z"/>
<g>
	<path fill="#0D3651" d="M111.7,230.1c0,14.2-11.6,25.7-25.8,25.7S60.2,244.2,60.2,230s11.6-25.7,25.8-25.7
		C100.2,204.4,111.7,215.9,111.7,230.1z"/>
	<path fill="#FFFFFF" d="M85.8,218.2c6.6,0,11.9,5.3,11.9,11.9S92.4,242,85.8,242c-6.6,0-11.9-5.3-11.9-11.9S79.2,218.2,85.8,218.2
		 M85.8,216.2c-7.7,0-13.9,6.2-13.9,13.9S78.1,244,85.8,244s13.9-6.2,13.9-13.9S93.6,216.2,85.8,216.2L85.8,216.2z"/>
</g>
</svg>
