<?xml version="1.0" encoding="utf-8"?>
<!-- Generator: Adobe Illustrator 18.0.0, SVG Export Plug-In . SVG Version: 6.00 Build 0)  -->
<!DOCTYPE svg PUBLIC "-//W3C//DTD SVG 1.1//EN" "http://www.w3.org/Graphics/SVG/1.1/DTD/svg11.dtd">
<svg version="1.1" id="Layer_1" xmlns="http://www.w3.org/2000/svg" xmlns:xlink="http://www.w3.org/1999/xlink" x="0px" y="0px"
	 width="320px" height="320px" viewBox="0 0 320 320" enable-background="new 0 0 320 320" xml:space="preserve">
<path fill="#0D3651" d="M236.7,87.3c39.7,39.7,39.7,104.2,0,143.9s-104.2,39.7-143.9,0S53.1,127,92.8,87.3S197,47.6,236.7,87.3z
	 M97.4,226.6c37.1,37.1,97.6,37.1,134.7,0s37.1-97.6,0-134.7s-97.6-37.1-134.7,0S60.3,189.4,97.4,226.6z"/>
<g>
	<path fill="#0D3651" d="M259.8,90c0,14.2-11.6,25.7-25.8,25.7s-25.7-11.6-25.7-25.8s11.6-25.7,25.8-25.7
		C248.3,64.3,259.8,75.8,259.8,90z"/>
	<path fill="#FFFFFF" d="M233.9,78.1c6.6,0,11.9,5.3,11.9,11.9s-5.3,11.9-11.9,11.9c-6.6,0-11.9-5.3-11.9-11.9
		S227.3,78.1,233.9,78.1 M233.9,76.1c-7.7,0-13.9,6.2-13.9,13.9s6.2,13.9,13.9,13.9s13.9-6.2,13.9-13.9S241.7,76.1,233.9,76.1
		L233.9,76.1z"/>
</g>
</svg>
