<?xml version="1.0" encoding="utf-8"?>
<!-- Generator: Adobe Illustrator 18.0.0, SVG Export Plug-In . SVG Version: 6.00 Build 0)  -->
<!DOCTYPE svg PUBLIC "-//W3C//DTD SVG 1.1//EN" "http://www.w3.org/Graphics/SVG/1.1/DTD/svg11.dtd">
<svg version="1.1" id="Layer_1" xmlns="http://www.w3.org/2000/svg" xmlns:xlink="http://www.w3.org/1999/xlink" x="0px" y="0px"
	 width="320px" height="320px" viewBox="0 0 320 320" enable-background="new 0 0 320 320" xml:space="preserve">
<path fill="#0D3651" d="M160,216.7c-56.1,0-101.8-45.6-101.8-101.8S103.9,13.2,160,13.2S261.7,58.9,261.7,115S216.1,216.7,160,216.7
	z M160,19.7c-52.5,0-95.3,42.7-95.3,95.3s42.7,95.3,95.3,95.3s95.3-42.7,95.3-95.3S212.5,19.7,160,19.7z"/>
<g>
	<path fill="#0D3651" d="M185.8,213c0,14.2-11.6,25.7-25.8,25.7s-25.7-11.6-25.7-25.8s11.6-25.7,25.8-25.7
		C174.3,187.3,185.8,198.8,185.8,213z"/>
	<path fill="#FFFFFF" d="M159.9,201.1c6.6,0,11.9,5.3,11.9,11.9s-5.3,11.9-11.9,11.9c-6.6,0-11.9-5.3-11.9-11.9
		S153.3,201.1,159.9,201.1 M159.9,199.1c-7.7,0-13.9,6.2-13.9,13.9s6.2,13.9,13.9,13.9s13.9-6.2,13.9-13.9S167.7,199.1,159.9,199.1
		L159.9,199.1z"/>
</g>
</svg>
