<?xml version="1.0" encoding="utf-8"?>
<!-- Generator: Adobe Illustrator 18.0.0, SVG Export Plug-In . SVG Version: 6.00 Build 0)  -->
<!DOCTYPE svg PUBLIC "-//W3C//DTD SVG 1.1//EN" "http://www.w3.org/Graphics/SVG/1.1/DTD/svg11.dtd">
<svg version="1.1" id="Layer_1" xmlns="http://www.w3.org/2000/svg" xmlns:xlink="http://www.w3.org/1999/xlink" x="0px" y="0px"
	 width="320px" height="320px" viewBox="0 0 320 320" enable-background="new 0 0 320 320" xml:space="preserve">
<path fill="#0D3651" d="M101.2,160c0-56.1,45.6-101.8,101.8-101.8S304.7,103.9,304.7,160S259.1,261.7,203,261.7
	S101.2,216.1,101.2,160z M298.2,160c0-52.5-42.7-95.3-95.3-95.3s-95.3,42.7-95.3,95.3s42.7,95.3,95.3,95.3S298.2,212.5,298.2,160z"
	/>
<g>
	<path fill="#0D3651" d="M130.7,160c0,14.2-11.6,25.7-25.8,25.7s-25.7-11.6-25.7-25.8s11.6-25.7,25.8-25.7
		C119.2,134.3,130.7,145.8,130.7,160z"/>
	<path fill="#FFFFFF" d="M104.8,148.1c6.6,0,11.9,5.3,11.9,11.9s-5.3,11.9-11.9,11.9c-6.6,0-11.9-5.3-11.9-11.9
		S98.2,148.1,104.8,148.1 M104.8,146.1c-7.7,0-13.9,6.2-13.9,13.9s6.2,13.9,13.9,13.9s13.9-6.2,13.9-13.9S112.6,146.1,104.8,146.1
		L104.8,146.1z"/>
</g>
</svg>
