<?xml version="1.0" encoding="utf-8"?>
<!-- Generator: Adobe Illustrator 18.0.0, SVG Export Plug-In . SVG Version: 6.00 Build 0)  -->
<!DOCTYPE svg PUBLIC "-//W3C//DTD SVG 1.1//EN" "http://www.w3.org/Graphics/SVG/1.1/DTD/svg11.dtd">
<svg version="1.1" id="Layer_1" xmlns="http://www.w3.org/2000/svg" xmlns:xlink="http://www.w3.org/1999/xlink" x="0px" y="0px"
	 width="320px" height="320px" viewBox="0 0 320 320" enable-background="new 0 0 320 320" xml:space="preserve">
<path fill="#0D3651" d="M106,245c-51.8-21.5-76.5-81.1-55.1-132.9S132,35.5,183.8,57s76.5,81.1,55.1,132.9S157.8,266.5,106,245z
	 M181.4,63C132.8,42.9,77,66,56.9,114.6s3,104.4,51.5,124.5s104.4-3,124.5-51.5S229.9,83.1,181.4,63z"/>
<g>
	<path fill="#0D3651" d="M133.1,241.6c0,14.2-11.6,25.7-25.8,25.7s-25.7-11.6-25.7-25.8s11.6-25.7,25.8-25.7
		C121.6,215.9,133.1,227.4,133.1,241.6z"/>
	<path fill="#FFFFFF" d="M107.2,229.7c6.6,0,11.9,5.3,11.9,11.9s-5.3,11.9-11.9,11.9c-6.6,0-11.9-5.3-11.9-11.9
		S100.6,229.7,107.2,229.7 M107.2,227.7c-7.7,0-13.9,6.2-13.9,13.9s6.2,13.9,13.9,13.9s13.9-6.2,13.9-13.9S115,227.7,107.2,227.7
		L107.2,227.7z"/>
</g>
</svg>
