<?xml version="1.0" encoding="utf-8"?>
<!-- Generator: Adobe Illustrator 18.0.0, SVG Export Plug-In . SVG Version: 6.00 Build 0)  -->
<!DOCTYPE svg PUBLIC "-//W3C//DTD SVG 1.1//EN" "http://www.w3.org/Graphics/SVG/1.1/DTD/svg11.dtd">
<svg version="1.1" id="Layer_1" xmlns="http://www.w3.org/2000/svg" xmlns:xlink="http://www.w3.org/1999/xlink" x="0px" y="0px"
	 width="320px" height="320px" viewBox="0 0 320 320" enable-background="new 0 0 320 320" xml:space="preserve">
<path fill="#0D3651" d="M214,75c51.8,21.5,76.5,81.1,55.1,132.9c-21.5,51.8-81.1,76.5-132.9,55.1s-76.5-81.1-55.1-132.9
	S162.2,53.6,214,75z M138.6,257c48.5,20.1,104.4-3,124.5-51.5c20.1-48.5-3-104.4-51.5-124.5s-104.4,3-124.5,51.5
	S90.1,236.9,138.6,257z"/>
<g>
	<path fill="#0D3651" d="M238.3,78.5c0,14.2-11.6,25.7-25.8,25.7s-25.7-11.6-25.7-25.8s11.6-25.7,25.8-25.7
		C226.8,52.8,238.3,64.3,238.3,78.5z"/>
	<path fill="#FFFFFF" d="M212.4,66.6c6.6,0,11.9,5.3,11.9,11.9s-5.3,11.9-11.9,11.9c-6.6,0-11.9-5.3-11.9-11.9
		S205.8,66.6,212.4,66.6 M212.4,64.6c-7.7,0-13.9,6.2-13.9,13.9s6.2,13.9,13.9,13.9s13.9-6.2,13.9-13.9S220.2,64.6,212.4,64.6
		L212.4,64.6z"/>
</g>
</svg>
