<?xml version="1.0" encoding="utf-8"?>
<!-- Generator: Adobe Illustrator 18.0.0, SVG Export Plug-In . SVG Version: 6.00 Build 0)  -->
<!DOCTYPE svg PUBLIC "-//W3C//DTD SVG 1.1//EN" "http://www.w3.org/Graphics/SVG/1.1/DTD/svg11.dtd">
<svg version="1.1" id="Layer_1" xmlns="http://www.w3.org/2000/svg" xmlns:xlink="http://www.w3.org/1999/xlink" x="0px" y="0px"
	 width="320px" height="320px" viewBox="0 0 320 320" enable-background="new 0 0 320 320" xml:space="preserve">
<path fill="#0D3651" d="M236.7,232.7c-39.7,39.7-104.2,39.7-143.9,0s-39.7-104.2,0-143.9s104.2-39.7,143.9,0S276.4,193,236.7,232.7z
	 M97.4,93.4c-37.1,37.1-37.1,97.6,0,134.7s97.6,37.1,134.7,0s37.1-97.6,0-134.7S134.6,56.3,97.4,93.4z"/>
<g>
	<path fill="#0D3651" d="M259.8,230.1c0,14.2-11.6,25.7-25.8,25.7s-25.7-11.6-25.7-25.8s11.6-25.7,25.8-25.7
		C248.3,204.4,259.8,215.9,259.8,230.1z"/>
	<path fill="#FFFFFF" d="M233.9,218.2c6.6,0,11.9,5.3,11.9,11.9s-5.3,11.9-11.9,11.9c-6.6,0-11.9-5.3-11.9-11.9
		S227.3,218.2,233.9,218.2 M233.9,216.2c-7.7,0-13.9,6.2-13.9,13.9s6.2,13.9,13.9,13.9s13.9-6.2,13.9-13.9S241.7,216.2,233.9,216.2
		L233.9,216.2z"/>
</g>
</svg>
