<?xml version="1.0" encoding="utf-8"?>
<!-- Generator: Adobe Illustrator 18.0.0, SVG Export Plug-In . SVG Version: 6.00 Build 0)  -->
<!DOCTYPE svg PUBLIC "-//W3C//DTD SVG 1.1//EN" "http://www.w3.org/Graphics/SVG/1.1/DTD/svg11.dtd">
<svg version="1.1" id="Layer_1" xmlns="http://www.w3.org/2000/svg" xmlns:xlink="http://www.w3.org/1999/xlink" x="0px" y="0px"
	 width="320px" height="320px" viewBox="0 0 320 320" enable-background="new 0 0 320 320" xml:space="preserve">
<path fill="#0D3651" d="M247,210c-21.5,51.8-81.1,76.5-132.9,55.1C62.2,243.6,37.5,184,59,132.2s81.1-76.5,132.9-55.1
	S268.4,158.2,247,210z M65,134.6c-20.1,48.5,3,104.4,51.5,124.5c48.5,20.1,104.4-3,124.5-51.5s-3-104.4-51.5-124.5
	S85.1,86.1,65,134.6z"/>
<g>
	<path fill="#0D3651" d="M269.3,208.6c0,14.2-11.6,25.7-25.8,25.7c-14.2,0-25.7-11.6-25.7-25.8s11.6-25.7,25.8-25.7
		C257.8,182.9,269.3,194.4,269.3,208.6z"/>
	<path fill="#FFFFFF" d="M243.4,196.7c6.6,0,11.9,5.3,11.9,11.9s-5.3,11.9-11.9,11.9c-6.6,0-11.9-5.3-11.9-11.9
		S236.8,196.7,243.4,196.7 M243.4,194.7c-7.7,0-13.9,6.2-13.9,13.9s6.2,13.9,13.9,13.9s13.9-6.2,13.9-13.9S251.2,194.7,243.4,194.7
		L243.4,194.7z"/>
</g>
</svg>
