<?xml version="1.0" encoding="utf-8"?>
<!-- Generator: Adobe Illustrator 18.0.0, SVG Export Plug-In . SVG Version: 6.00 Build 0)  -->
<!DOCTYPE svg PUBLIC "-//W3C//DTD SVG 1.1//EN" "http://www.w3.org/Graphics/SVG/1.1/DTD/svg11.dtd">
<svg version="1.1" id="Layer_1" xmlns="http://www.w3.org/2000/svg" xmlns:xlink="http://www.w3.org/1999/xlink" x="0px" y="0px"
	 width="320px" height="320px" viewBox="0 0 320 320" enable-background="new 0 0 320 320" xml:space="preserve">
<path fill="#0D3651" d="M214,245c-51.8,21.5-111.5-3.2-132.9-55.1S84.3,78.4,136.2,57s111.5,3.2,132.9,55.1S265.9,223.5,214,245z
	 M138.6,63C90.1,83.1,67,138.9,87.1,187.4S163,259.1,211.5,239s71.6-75.9,51.5-124.5S187.2,42.9,138.6,63z"/>
<g>
	<path fill="#0D3651" d="M238.3,241.6c0,14.2-11.6,25.7-25.8,25.7s-25.7-11.6-25.7-25.8s11.6-25.7,25.8-25.7
		C226.8,215.9,238.3,227.4,238.3,241.6z"/>
	<path fill="#FFFFFF" d="M212.4,229.7c6.6,0,11.9,5.3,11.9,11.9s-5.3,11.9-11.9,11.9c-6.6,0-11.9-5.3-11.9-11.9
		S205.8,229.7,212.4,229.7 M212.4,227.7c-7.7,0-13.9,6.2-13.9,13.9s6.2,13.9,13.9,13.9s13.9-6.2,13.9-13.9S220.2,227.7,212.4,227.7
		L212.4,227.7z"/>
</g>
</svg>
