<?xml version="1.0" encoding="utf-8"?>
<!-- Generator: Adobe Illustrator 18.0.0, SVG Export Plug-In . SVG Version: 6.00 Build 0)  -->
<!DOCTYPE svg PUBLIC "-//W3C//DTD SVG 1.1//EN" "http://www.w3.org/Graphics/SVG/1.1/DTD/svg11.dtd">
<svg version="1.1" id="Layer_1" xmlns="http://www.w3.org/2000/svg" xmlns:xlink="http://www.w3.org/1999/xlink" x="0px" y="0px"
	 width="320px" height="320px" viewBox="0 0 320 320" enable-background="new 0 0 320 320" xml:space="preserve">
<path fill="#0D3651" d="M73,210c-21.5-51.8,3.2-111.5,55.1-132.9s111.5,3.2,132.9,55.1s-3.2,111.5-55.1,132.9S94.5,261.9,73,210z
	 M255,134.6C234.9,86.1,179.1,63,130.6,83.1S58.9,159,79,207.5s75.9,71.6,124.5,51.5S275.1,183.2,255,134.6z"/>
<g>
	<path fill="#0D3651" d="M102.1,208.7c0,14.2-11.6,25.7-25.8,25.7s-25.7-11.6-25.7-25.8c0-14.2,11.6-25.7,25.8-25.7
		C90.6,183,102.1,194.5,102.1,208.7z"/>
	<path fill="#FFFFFF" d="M76.2,196.8c6.6,0,11.9,5.3,11.9,11.9c0,6.6-5.3,11.9-11.9,11.9c-6.6,0-11.9-5.3-11.9-11.9
		C64.3,202.1,69.6,196.8,76.2,196.8 M76.2,194.8c-7.7,0-13.9,6.2-13.9,13.9c0,7.7,6.2,13.9,13.9,13.9s13.9-6.2,13.9-13.9
		C90.1,201,84,194.8,76.2,194.8L76.2,194.8z"/>
</g>
</svg>
