<?xml version="1.0" encoding="utf-8"?>
<!-- Generator: Adobe Illustrator 18.0.0, SVG Export Plug-In . SVG Version: 6.00 Build 0)  -->
<!DOCTYPE svg PUBLIC "-//W3C//DTD SVG 1.1//EN" "http://www.w3.org/Graphics/SVG/1.1/DTD/svg11.dtd">
<svg version="1.1" id="Layer_1" xmlns="http://www.w3.org/2000/svg" xmlns:xlink="http://www.w3.org/1999/xlink" x="0px" y="0px"
	 width="320px" height="320px" viewBox="0 0 320 320" enable-background="new 0 0 320 320" xml:space="preserve">
<path fill="#0D3651" d="M106,75c51.8-21.5,111.5,3.2,132.9,55.1s-3.2,111.5-55.1,132.9S72.4,259.8,50.9,208S54.1,96.5,106,75z
	 M181.4,257c48.5-20.1,71.6-75.9,51.5-124.5S157,60.9,108.5,81S36.8,157,56.9,205.5S132.8,277.1,181.4,257z"/>
<g>
	<path fill="#0D3651" d="M133.2,78.5c0,14.2-11.6,25.7-25.8,25.7S81.7,92.6,81.7,78.4s11.6-25.7,25.8-25.7
		C121.7,52.8,133.2,64.3,133.2,78.5z"/>
	<path fill="#FFFFFF" d="M107.3,66.6c6.6,0,11.9,5.3,11.9,11.9s-5.3,11.9-11.9,11.9c-6.6,0-11.9-5.3-11.9-11.9
		S100.7,66.6,107.3,66.6 M107.3,64.6c-7.7,0-13.9,6.2-13.9,13.9s6.2,13.9,13.9,13.9s13.9-6.2,13.9-13.9S115.1,64.6,107.3,64.6
		L107.3,64.6z"/>
</g>
</svg>
