<?xml version="1.0" encoding="utf-8"?>
<!-- Generator: Adobe Illustrator 18.0.0, SVG Export Plug-In . SVG Version: 6.00 Build 0)  -->
<!DOCTYPE svg PUBLIC "-//W3C//DTD SVG 1.1//EN" "http://www.w3.org/Graphics/SVG/1.1/DTD/svg11.dtd">
<svg version="1.1" id="Layer_1" xmlns="http://www.w3.org/2000/svg" xmlns:xlink="http://www.w3.org/1999/xlink" x="0px" y="0px"
	 width="320px" height="320px" viewBox="0 0 320 320" enable-background="new 0 0 320 320" xml:space="preserve">
<path fill="#0D3651" d="M247,110c21.5,51.8-3.2,111.5-55.1,132.9S80.4,239.7,59,187.8S62.2,76.4,114,54.9S225.5,58.1,247,110z
	 M65,185.4c20.1,48.5,75.9,71.6,124.5,51.5S261.1,161,241,112.5S165,40.8,116.5,60.9S44.9,136.8,65,185.4z"/>
<g>
	<path fill="#0D3651" d="M269.3,111.5c0,14.2-11.6,25.7-25.8,25.7c-14.2,0-25.7-11.6-25.7-25.8s11.6-25.7,25.8-25.7
		C257.8,85.8,269.3,97.3,269.3,111.5z"/>
	<path fill="#FFFFFF" d="M243.4,99.6c6.6,0,11.9,5.3,11.9,11.9s-5.3,11.9-11.9,11.9c-6.6,0-11.9-5.3-11.9-11.9
		S236.8,99.6,243.4,99.6 M243.4,97.6c-7.7,0-13.9,6.2-13.9,13.9s6.2,13.9,13.9,13.9s13.9-6.2,13.9-13.9S251.2,97.6,243.4,97.6
		L243.4,97.6z"/>
</g>
</svg>
