<?xml version="1.0" encoding="utf-8"?>
<!-- Generator: Adobe Illustrator 18.0.0, SVG Export Plug-In . SVG Version: 6.00 Build 0)  -->
<!DOCTYPE svg PUBLIC "-//W3C//DTD SVG 1.1//EN" "http://www.w3.org/Graphics/SVG/1.1/DTD/svg11.dtd">
<svg version="1.1" id="Layer_1" xmlns="http://www.w3.org/2000/svg" xmlns:xlink="http://www.w3.org/1999/xlink" x="0px" y="0px"
	 width="320px" height="320px" viewBox="0 0 320 320" enable-background="new 0 0 320 320" xml:space="preserve">
<path fill="#0D3651" d="M83.3,87.3c39.7-39.7,104.2-39.7,143.9,0s39.7,104.2,0,143.9s-104.2,39.7-143.9,0S43.6,127,83.3,87.3z
	 M222.6,226.6c37.1-37.1,37.1-97.6,0-134.7s-97.6-37.1-134.7,0s-37.1,97.6,0,134.7S185.4,263.7,222.6,226.6z"/>
<g>
	<path fill="#0D3651" d="M111.7,90c0,14.2-11.6,25.7-25.8,25.7s-25.7-11.6-25.7-25.8S71.8,64.2,86,64.2
		C100.2,64.3,111.7,75.8,111.7,90z"/>
	<path fill="#FFFFFF" d="M85.8,78.1c6.6,0,11.9,5.3,11.9,11.9s-5.3,11.9-11.9,11.9c-6.6,0-11.9-5.3-11.9-11.9S79.2,78.1,85.8,78.1
		 M85.8,76.1c-7.7,0-13.9,6.2-13.9,13.9s6.2,13.9,13.9,13.9S99.7,97.7,99.7,90S93.6,76.1,85.8,76.1L85.8,76.1z"/>
</g>
</svg>
