<?xml version="1.0" encoding="utf-8"?>
<!-- Generator: Adobe Illustrator 18.0.0, SVG Export Plug-In . SVG Version: 6.00 Build 0)  -->
<!DOCTYPE svg PUBLIC "-//W3C//DTD SVG 1.1//EN" "http://www.w3.org/Graphics/SVG/1.1/DTD/svg11.dtd">
<svg version="1.1" id="Layer_1" xmlns="http://www.w3.org/2000/svg" xmlns:xlink="http://www.w3.org/1999/xlink" x="0px" y="0px"
	 width="320px" height="320px" viewBox="0 0 320 320" enable-background="new 0 0 320 320" xml:space="preserve">
<path fill="#0D3651" d="M73,110C94.5,58.1,154.1,33.4,206,54.9S282.5,136,261,187.8s-81.1,76.5-132.9,55.1S51.6,161.8,73,110z
	 M255,185.4c20.1-48.5-3-104.4-51.5-124.5S99.1,63.9,79,112.5s3,104.4,51.5,124.5S234.9,233.9,255,185.4z"/>
<g>
	<path fill="#0D3651" d="M102.2,111.5c0,14.2-11.6,25.7-25.8,25.7s-25.7-11.6-25.7-25.8s11.6-25.7,25.8-25.7
		C90.7,85.8,102.2,97.3,102.2,111.5z"/>
	<path fill="#FFFFFF" d="M76.3,99.6c6.6,0,11.9,5.3,11.9,11.9s-5.3,11.9-11.9,11.9c-6.6,0-11.9-5.3-11.9-11.9S69.7,99.6,76.3,99.6
		 M76.3,97.6c-7.7,0-13.9,6.2-13.9,13.9s6.2,13.9,13.9,13.9s13.9-6.2,13.9-13.9S84.1,97.6,76.3,97.6L76.3,97.6z"/>
</g>
</svg>
