<?xml version="1.0" encoding="utf-8"?>
<!-- Generator: Adobe Illustrator 18.0.0, SVG Export Plug-In . SVG Version: 6.00 Build 0)  -->
<!DOCTYPE svg PUBLIC "-//W3C//DTD SVG 1.1//EN" "http://www.w3.org/Graphics/SVG/1.1/DTD/svg11.dtd">
<svg version="1.1" id="Layer_1" xmlns="http://www.w3.org/2000/svg" xmlns:xlink="http://www.w3.org/1999/xlink" x="0px" y="0px"
	 width="320px" height="320px" viewBox="0 0 320 320" enable-background="new 0 0 320 320" xml:space="preserve">
<path fill="#0D3651" d="M160,103.2c56.1,0,101.8,45.6,101.8,101.7S216.1,306.7,160,306.7S58.3,261.1,58.3,205S103.9,103.2,160,103.2
	z M160,300.2c52.5,0,95.3-42.7,95.3-95.3s-42.7-95.2-95.3-95.2S64.8,152.5,64.8,205S107.5,300.2,160,300.2z"/>
<g>
	<path fill="#0D3651" d="M185.8,107c0,14.2-11.6,25.7-25.8,25.7s-25.7-11.6-25.7-25.8s11.6-25.7,25.8-25.7
		C174.3,81.3,185.8,92.8,185.8,107z"/>
	<path fill="#FFFFFF" d="M159.9,95.1c6.6,0,11.9,5.3,11.9,11.9s-5.3,11.9-11.9,11.9c-6.6,0-11.9-5.3-11.9-11.9
		S153.3,95.1,159.9,95.1 M159.9,93.1c-7.7,0-13.9,6.2-13.9,13.9s6.2,13.9,13.9,13.9s13.9-6.2,13.9-13.9S167.7,93.1,159.9,93.1
		L159.9,93.1z"/>
</g>
</svg>
