<?xml version="1.0" encoding="utf-8"?>
<!-- Generator: Adobe Illustrator 18.0.0, SVG Export Plug-In . SVG Version: 6.00 Build 0)  -->
<!DOCTYPE svg PUBLIC "-//W3C//DTD SVG 1.1//EN" "http://www.w3.org/Graphics/SVG/1.1/DTD/svg11.dtd">
<svg version="1.1" id="Layer_1" xmlns="http://www.w3.org/2000/svg" xmlns:xlink="http://www.w3.org/1999/xlink" x="0px" y="0px"
	 width="320px" height="320px" viewBox="0 0 320 320" enable-background="new 0 0 320 320" xml:space="preserve">
<path fill="#28BBED" d="M247,210c-21.5,51.8-81.1,76.5-132.9,55.1C62.2,243.6,37.5,184,59,132.2s81.1-76.5,132.9-55.1
	S268.4,158.2,247,210z M65,134.6c-20.1,48.5,3,104.4,51.5,124.5c48.5,20.1,104.4-3,124.5-51.5s-3-104.4-51.5-124.5
	S85.1,86.1,65,134.6z"/>
<g>
	<path fill-rule="evenodd" clip-rule="evenodd" fill="#28BBED" d="M219.7,198.8c5.4-13.2,20.5-19.4,33.6-14
		c13.2,5.4,19.4,20.5,14,33.6c-5.4,13.2-20.5,19.4-33.6,14C220.5,227,214.3,211.9,219.7,198.8z"/>
	<g>
		<g>
			<path fill="#FFFFFF" d="M258.2,213.6l-3.2-1.5l2.1-1.9c0.1-0.1,0.2-0.2,0.3-0.4c0.2-0.5,0-1-0.5-1.2c-0.3-0.1-0.6-0.1-0.8,0.1
				l-3.8,2.2l-5.6-2.7l4.8-4.2l4.1,1c0.3,0.1,0.6,0,0.8-0.2c0.4-0.3,0.5-0.9,0.2-1.3c-0.1-0.1-0.2-0.2-0.4-0.3l-2.5-1.2l2.7-2.4
				c0.4-0.3,0.5-1,0.2-1.4c-0.3-0.4-0.9-0.5-1.4-0.2l-2.9,2.1l-0.5-2.8c0-0.2-0.1-0.3-0.2-0.5c-0.3-0.4-0.9-0.5-1.3-0.2
				c-0.2,0.2-0.4,0.5-0.4,0.8l-0.1,4.4l-5.2,3.6l-1.1-6.2l3-3.2c0.2-0.2,0.3-0.5,0.3-0.8c-0.1-0.5-0.5-0.9-1-0.8
				c-0.2,0-0.3,0.1-0.4,0.2l-2.3,1.6l-0.6-3.5c-0.1-0.5-0.5-0.9-1.1-0.8c-0.5,0.1-0.9,0.6-0.8,1.1l0.2,3.6l-2.6-0.9
				c-0.1-0.1-0.3-0.1-0.5-0.1c-0.5,0.1-0.9,0.6-0.8,1.1c0,0.3,0.2,0.5,0.5,0.7l3.6,2.2l0.4,6.3l-5.9-2l-1.1-4.2
				c-0.1-0.3-0.2-0.5-0.5-0.6c-0.5-0.2-1,0-1.2,0.5c-0.1,0.2-0.1,0.3-0.1,0.5l0.2,2.8l-3.3-1.1c-0.5-0.2-1.1,0-1.3,0.6
				c-0.2,0.5,0,1.1,0.5,1.3l3.2,1.5l-2.1,1.9c-0.1,0.1-0.2,0.2-0.3,0.4c-0.2,0.5,0,1,0.5,1.2c0.3,0.1,0.6,0.1,0.8-0.1l3.8-2.2
				l5.6,2.7l-4.8,4.2l-4.1-1c-0.3-0.1-0.6,0-0.8,0.2c-0.4,0.3-0.5,0.9-0.2,1.3c0.1,0.1,0.2,0.2,0.4,0.3l2.5,1.2l-2.7,2.4
				c-0.4,0.3-0.5,1-0.2,1.4c0.3,0.4,0.9,0.5,1.4,0.2l2.9-2.1l0.5,2.8c0,0.2,0.1,0.3,0.2,0.5c0.3,0.4,0.9,0.5,1.3,0.2
				c0.2-0.2,0.4-0.5,0.4-0.8l0.1-4.4l5.2-3.6l1.1,6.2l-3,3.2c-0.2,0.2-0.3,0.5-0.3,0.8c0.1,0.5,0.5,0.9,1,0.8c0.2,0,0.3-0.1,0.4-0.2
				l2.3-1.6l0.6,3.5c0.1,0.5,0.5,0.9,1.1,0.8c0.5-0.1,0.9-0.6,0.8-1.1l-0.2-3.6l2.6,0.9c0.1,0.1,0.3,0.1,0.5,0.1
				c0.5-0.1,0.9-0.6,0.8-1.1c0-0.3-0.2-0.5-0.5-0.7l-3.6-2.2l-0.4-6.3l5.9,2l1.1,4.2c0.1,0.3,0.2,0.5,0.5,0.6c0.5,0.2,1,0,1.2-0.5
				c0.1-0.2,0.1-0.3,0.1-0.5l-0.2-2.8l3.3,1.1c0.5,0.2,1.1,0,1.3-0.6C258.9,214.4,258.7,213.8,258.2,213.6z"/>
		</g>
	</g>
</g>
</svg>
