<?xml version="1.0" encoding="utf-8"?>
<!-- Generator: Adobe Illustrator 18.0.0, SVG Export Plug-In . SVG Version: 6.00 Build 0)  -->
<!DOCTYPE svg PUBLIC "-//W3C//DTD SVG 1.1//EN" "http://www.w3.org/Graphics/SVG/1.1/DTD/svg11.dtd">
<svg version="1.1" id="Layer_1" xmlns="http://www.w3.org/2000/svg" xmlns:xlink="http://www.w3.org/1999/xlink" x="0px" y="0px"
	 width="320px" height="320px" viewBox="0 0 320 320" enable-background="new 0 0 320 320" xml:space="preserve">
<path fill="#28BBED" d="M73,110C94.5,58.1,154.1,33.4,206,54.9S282.5,136,261,187.8s-81.1,76.5-132.9,55.1S51.6,161.8,73,110z
	 M255,185.4c20.1-48.5-3-104.4-51.5-124.5S99.1,63.9,79,112.5s3,104.4,51.5,124.5S234.9,233.9,255,185.4z"/>
<g>
	<path fill-rule="evenodd" clip-rule="evenodd" fill="#28BBED" d="M100.3,121.2c-5.4,13.2-20.5,19.4-33.6,14
		c-13.2-5.4-19.4-20.5-14-33.6c5.4-13.2,20.5-19.4,33.6-14C99.5,93,105.7,108.1,100.3,121.2z"/>
	<g>
		<g>
			<path fill="#FFFFFF" d="M91.2,116.4l-3.2-1.5l2.1-1.9c0.1-0.1,0.2-0.2,0.3-0.4c0.2-0.5,0-1-0.5-1.2c-0.3-0.1-0.6-0.1-0.8,0.1
				l-3.8,2.2l-5.6-2.7l4.8-4.2l4.1,1c0.3,0.1,0.6,0,0.8-0.2c0.4-0.3,0.5-0.9,0.2-1.3c-0.1-0.1-0.2-0.2-0.4-0.3l-2.5-1.2l2.7-2.4
				c0.4-0.3,0.5-1,0.2-1.4c-0.3-0.4-0.9-0.5-1.4-0.2l-2.9,2.1l-0.5-2.8c0-0.2-0.1-0.3-0.2-0.5c-0.3-0.4-0.9-0.5-1.3-0.2
				c-0.2,0.2-0.4,0.5-0.4,0.8l-0.1,4.4l-5.2,3.6l-1.1-6.2l3-3.2c0.2-0.2,0.3-0.5,0.3-0.8c-0.1-0.5-0.5-0.9-1-0.8
				c-0.2,0-0.3,0.1-0.4,0.2L76.2,99l-0.6-3.5c-0.1-0.5-0.5-0.9-1.1-0.8c-0.5,0.1-0.9,0.6-0.8,1.1l0.2,3.6l-2.6-0.9
				c-0.1-0.1-0.3-0.1-0.5-0.1c-0.5,0.1-0.9,0.6-0.8,1.1c0,0.3,0.2,0.5,0.5,0.7l3.6,2.2l0.4,6.3l-5.9-2l-1.1-4.2
				c-0.1-0.3-0.2-0.5-0.5-0.6c-0.5-0.2-1,0-1.2,0.5c-0.1,0.2-0.1,0.3-0.1,0.5l0.2,2.8l-3.3-1.1c-0.5-0.2-1.1,0-1.3,0.6
				c-0.2,0.5,0,1.1,0.5,1.3l3.2,1.5l-2.1,1.9c-0.1,0.1-0.2,0.2-0.3,0.4c-0.2,0.5,0,1,0.5,1.2c0.3,0.1,0.6,0.1,0.8-0.1l3.8-2.2
				l5.6,2.7l-4.8,4.2l-4.1-1c-0.3-0.1-0.6,0-0.8,0.2c-0.4,0.3-0.5,0.9-0.2,1.3c0.1,0.1,0.2,0.2,0.4,0.3l2.5,1.2l-2.7,2.4
				c-0.4,0.3-0.5,1-0.2,1.4c0.3,0.4,0.9,0.5,1.4,0.2l2.9-2.1l0.5,2.8c0,0.2,0.1,0.3,0.2,0.5c0.3,0.4,0.9,0.5,1.3,0.2
				c0.2-0.2,0.4-0.5,0.4-0.8l0.1-4.4l5.2-3.6l1.1,6.2l-3,3.2c-0.2,0.2-0.3,0.5-0.3,0.8c0.1,0.5,0.5,0.9,1,0.8c0.2,0,0.3-0.1,0.4-0.2
				l2.3-1.6l0.6,3.5c0.1,0.5,0.5,0.9,1.1,0.8c0.5-0.1,0.9-0.6,0.8-1.1l-0.2-3.6l2.6,0.9c0.1,0.1,0.3,0.1,0.5,0.1
				c0.5-0.1,0.9-0.6,0.8-1.1c0-0.3-0.2-0.5-0.5-0.7l-3.6-2.2l-0.4-6.3l5.9,2l1.1,4.2c0.1,0.3,0.2,0.5,0.5,0.6c0.5,0.2,1,0,1.2-0.5
				c0.1-0.2,0.1-0.3,0.1-0.5l-0.2-2.8l3.3,1.1c0.5,0.2,1.1,0,1.3-0.6C91.9,117.2,91.7,116.6,91.2,116.4z"/>
		</g>
	</g>
</g>
</svg>
