<?xml version="1.0" encoding="utf-8"?>
<!-- Generator: Adobe Illustrator 18.0.0, SVG Export Plug-In . SVG Version: 6.00 Build 0)  -->
<!DOCTYPE svg PUBLIC "-//W3C//DTD SVG 1.1//EN" "http://www.w3.org/Graphics/SVG/1.1/DTD/svg11.dtd">
<svg version="1.1" id="Layer_1" xmlns="http://www.w3.org/2000/svg" xmlns:xlink="http://www.w3.org/1999/xlink" x="0px" y="0px"
	 width="320px" height="320px" viewBox="0 0 320 320" enable-background="new 0 0 320 320" xml:space="preserve">
<path fill="#2ABDEE" d="M160,216.7c-56.1,0-101.8-45.6-101.8-101.8S103.9,13.2,160,13.2S261.7,58.9,261.7,115S216.1,216.7,160,216.7
	z M160,19.7c-52.5,0-95.3,42.7-95.3,95.3s42.7,95.3,95.3,95.3s95.3-42.7,95.3-95.3S212.5,19.7,160,19.7z"/>
<g>
	<path fill="#2ABDEE" d="M160,187.2c14.2,0,25.8,11.5,25.8,25.7s-11.5,25.8-25.7,25.8s-25.8-11.5-25.8-25.7
		C134.2,198.8,145.7,187.3,160,187.2z"/>
	<g>
		<g>
			<path fill="#FFFFFF" d="M174.4,219.9l-3-1.9l2.4-1.5c0.1-0.1,0.3-0.2,0.4-0.3c0.3-0.4,0.1-1-0.3-1.3c-0.3-0.2-0.6-0.1-0.8,0
				l-4.1,1.6l-5.3-3.4l5.4-3.4l4.1,1.6c0.3,0.1,0.6,0.1,0.8,0c0.5-0.3,0.6-0.8,0.3-1.3c-0.1-0.1-0.2-0.2-0.4-0.3l-2.4-1.5l3-1.9
				c0.5-0.3,0.6-0.9,0.4-1.3c-0.3-0.5-0.9-0.6-1.4-0.4l-3.2,1.6l-0.2-2.8c0-0.2,0-0.3-0.1-0.5c-0.3-0.4-0.8-0.6-1.3-0.3
				c-0.3,0.1-0.4,0.4-0.5,0.7l-0.6,4.2l-5.7,2.8l-0.4-6.2l3.4-2.6c0.2-0.2,0.4-0.4,0.4-0.7c0-0.5-0.4-0.9-1-0.9
				c-0.2,0-0.3,0.1-0.5,0.1l-2.6,1.3l-0.2-3.5c0-0.5-0.4-1-1-1s-1,0.4-1,1l-0.2,3.5l-2.6-1.3c-0.1-0.1-0.3-0.1-0.5-0.1
				c-0.5,0-1,0.4-1,0.9c0,0.3,0.2,0.6,0.4,0.7l3.4,2.6l-0.4,6.2l-5.7-2.8l-0.6-4.2c0-0.3-0.2-0.5-0.5-0.7c-0.5-0.3-1-0.1-1.3,0.3
				c-0.1,0.1-0.1,0.3-0.1,0.5l-0.2,2.8l-3.2-1.6c-0.5-0.3-1.1-0.1-1.4,0.4c-0.3,0.5-0.1,1.1,0.4,1.3l3,1.9l-2.4,1.5
				c-0.1,0.1-0.3,0.2-0.4,0.3c-0.3,0.4-0.1,1,0.3,1.3c0.3,0.1,0.6,0.1,0.8,0l4.1-1.6l5.3,3.4l-5.4,3.4l-4.1-1.6
				c-0.3-0.1-0.6-0.1-0.8,0c-0.5,0.3-0.6,0.8-0.3,1.3c0.1,0.1,0.2,0.2,0.4,0.3l2.4,1.5l-3,1.9c-0.5,0.3-0.6,0.9-0.4,1.3
				c0.3,0.5,0.9,0.6,1.4,0.4l3.2-1.6l0.2,2.8c0,0.2,0,0.3,0.1,0.5c0.3,0.4,0.8,0.6,1.3,0.3c0.3-0.1,0.4-0.4,0.5-0.7l0.6-4.2l5.7-2.8
				l0.4,6.2l-3.4,2.6c-0.2,0.2-0.4,0.4-0.4,0.7c0,0.5,0.4,0.9,1,0.9c0.2,0,0.3-0.1,0.5-0.1l2.6-1.3l0.2,3.5c0,0.5,0.4,1,1,1
				s1-0.4,1-1l0.2-3.5l2.6,1.3c0.1,0.1,0.3,0.1,0.5,0.1c0.5,0,1-0.4,1-0.9c0-0.3-0.2-0.6-0.4-0.7l-3.4-2.6l0.4-6.2l5.7,2.8l0.6,4.2
				c0,0.3,0.2,0.5,0.5,0.7c0.5,0.3,1,0.1,1.3-0.3c0.1-0.1,0.1-0.3,0.1-0.5l0.2-2.8l3.2,1.6c0.5,0.3,1.1,0.1,1.4-0.4
				C175,220.8,174.8,220.2,174.4,219.9z"/>
		</g>
	</g>
</g>
</svg>
