<?xml version="1.0" encoding="utf-8"?>
<!-- Generator: Adobe Illustrator 18.0.0, SVG Export Plug-In . SVG Version: 6.00 Build 0)  -->
<!DOCTYPE svg PUBLIC "-//W3C//DTD SVG 1.1//EN" "http://www.w3.org/Graphics/SVG/1.1/DTD/svg11.dtd">
<svg version="1.1" id="Layer_1" xmlns="http://www.w3.org/2000/svg" xmlns:xlink="http://www.w3.org/1999/xlink" x="0px" y="0px"
	 width="320px" height="320px" viewBox="0 0 320 320" enable-background="new 0 0 320 320" xml:space="preserve">
<path fill="#28BBED" d="M214,245c-51.8,21.5-111.5-3.2-132.9-55.1S84.3,78.4,136.2,57s111.5,3.2,132.9,55.1S265.9,223.5,214,245z
	 M138.6,63C90.1,83.1,67,138.9,87.1,187.4S163,259.1,211.5,239s71.6-75.9,51.5-124.5S187.2,42.9,138.6,63z"/>
<g>
	<path fill-rule="evenodd" clip-rule="evenodd" fill="#28BBED" d="M202.7,217.7c13.1-5.5,28.2,0.8,33.7,13.9
		c5.5,13.1-0.8,28.2-13.9,33.7c-13.1,5.5-28.2-0.8-33.7-13.9C183.4,238.3,189.6,223.2,202.7,217.7z"/>
	<g>
		<g>
			<path fill="#FFFFFF" d="M228.5,242.4l-3.5-0.6l1.6-2.3c0.1-0.1,0.2-0.3,0.2-0.4c0.1-0.5-0.3-1-0.8-1c-0.3,0-0.6,0.1-0.8,0.3
				l-3.2,3l-6.2-1.1l3.6-5.2l4.4-0.1c0.3,0,0.6-0.1,0.8-0.4c0.3-0.4,0.3-1-0.2-1.3c-0.1-0.1-0.3-0.1-0.5-0.2l-2.8-0.5l2.1-2.9
				c0.3-0.4,0.3-1-0.2-1.4c-0.4-0.3-1.1-0.2-1.4,0.2l-2.4,2.7l-1.2-2.5c-0.1-0.1-0.1-0.3-0.3-0.4c-0.4-0.3-1-0.2-1.3,0.2
				c-0.2,0.2-0.2,0.5-0.2,0.8l1,4.1l-4.2,4.8l-2.7-5.6l2.2-3.7c0.1-0.2,0.2-0.5,0.1-0.8c-0.2-0.5-0.7-0.7-1.2-0.5
				c-0.2,0.1-0.3,0.2-0.4,0.3l-1.9,2.1l-1.5-3.2c-0.2-0.5-0.8-0.7-1.3-0.5c-0.5,0.2-0.8,0.8-0.6,1.3l1.1,3.3l-2.9-0.2
				c-0.2,0-0.3,0-0.5,0.1c-0.5,0.2-0.7,0.7-0.5,1.2c0.1,0.3,0.4,0.5,0.6,0.5l4.2,1.1l2,5.8l-6.4-0.4l-2.2-3.6
				c-0.1-0.2-0.4-0.4-0.7-0.5c-0.5-0.1-1,0.3-1.1,0.8c0,0.2,0,0.3,0.1,0.5l0.9,2.6l-3.6-0.2c-0.5-0.1-1,0.3-1.1,0.9
				c-0.1,0.5,0.3,1,0.8,1.1l3.5,0.6l-1.6,2.3c-0.1,0.1-0.2,0.3-0.2,0.4c-0.1,0.5,0.3,1,0.8,1c0.3,0,0.6-0.1,0.8-0.3l3.2-3l6.2,1.1
				l-3.6,5.2l-4.4,0.1c-0.3,0-0.6,0.1-0.8,0.4c-0.3,0.4-0.3,1,0.2,1.3c0.1,0.1,0.3,0.1,0.5,0.2l2.8,0.5l-2.1,2.9
				c-0.3,0.4-0.3,1,0.2,1.4c0.4,0.3,1.1,0.2,1.4-0.2l2.4-2.7l1.2,2.5c0.1,0.1,0.1,0.3,0.3,0.4c0.4,0.3,1,0.2,1.3-0.2
				c0.2-0.2,0.2-0.5,0.2-0.8l-1-4.1l4.2-4.8l2.7,5.6l-2.2,3.7c-0.1,0.2-0.2,0.5-0.1,0.8c0.2,0.5,0.7,0.7,1.2,0.5
				c0.2-0.1,0.3-0.2,0.4-0.3l1.9-2.1l1.5,3.2c0.2,0.5,0.8,0.7,1.3,0.5c0.5-0.2,0.8-0.8,0.6-1.3l-1.1-3.3l2.9,0.2
				c0.2,0,0.3,0,0.5-0.1c0.5-0.2,0.7-0.7,0.5-1.2c-0.1-0.3-0.4-0.5-0.6-0.5l-4.2-1.1l-2-5.8l6.4,0.4l2.2,3.6
				c0.1,0.2,0.4,0.4,0.7,0.5c0.5,0.1,1-0.3,1.1-0.8c0-0.2,0-0.3-0.1-0.5l-0.9-2.6l3.6,0.2c0.5,0.1,1-0.3,1.1-0.9
				C229.4,242.9,229,242.5,228.5,242.4z"/>
		</g>
	</g>
</g>
</svg>
