<?xml version="1.0" encoding="utf-8"?>
<!-- Generator: Adobe Illustrator 18.0.0, SVG Export Plug-In . SVG Version: 6.00 Build 0)  -->
<!DOCTYPE svg PUBLIC "-//W3C//DTD SVG 1.1//EN" "http://www.w3.org/Graphics/SVG/1.1/DTD/svg11.dtd">
<svg version="1.1" id="Layer_1" xmlns="http://www.w3.org/2000/svg" xmlns:xlink="http://www.w3.org/1999/xlink" x="0px" y="0px"
	 width="320px" height="320px" viewBox="0 0 320 320" enable-background="new 0 0 320 320" xml:space="preserve">
<path fill="#28BBED" d="M247,110c21.5,51.8-3.2,111.5-55.1,132.9S80.4,239.7,59,187.8S62.2,76.4,114,54.9S225.5,58.1,247,110z
	 M65,185.4c20.1,48.5,75.9,71.6,124.5,51.5S261.1,161,241,112.5S165,40.8,116.5,60.9S44.9,136.8,65,185.4z"/>
<g>
	<path fill-rule="evenodd" clip-rule="evenodd" fill="#28BBED" d="M219.7,121.3c-5.5-13.1,0.8-28.2,13.9-33.7
		c13.1-5.5,28.2,0.8,33.7,13.9c5.5,13.1-0.8,28.2-13.9,33.7C240.3,140.6,225.2,134.4,219.7,121.3z"/>
	<g>
		<g>
			<path fill="#FFFFFF" d="M258.7,105.1c-0.2-0.5-0.8-0.8-1.3-0.6l-3.3,1.1l0.2-2.9c0-0.2,0-0.3-0.1-0.5c-0.2-0.5-0.7-0.7-1.2-0.5
				c-0.3,0.1-0.5,0.4-0.5,0.6l-1.1,4.2l-5.8,2l0.4-6.4l3.6-2.2c0.2-0.1,0.4-0.4,0.5-0.7c0.1-0.5-0.3-1-0.8-1.1c-0.2,0-0.3,0-0.5,0.1
				l-2.6,0.9l0.2-3.6c0.1-0.5-0.3-1-0.9-1.1c-0.5-0.1-1,0.3-1.1,0.8l-0.6,3.5l-2.3-1.6c-0.1-0.1-0.3-0.2-0.4-0.2
				c-0.5-0.1-1,0.3-1,0.8c0,0.3,0.1,0.6,0.3,0.8l3,3.2l-1.1,6.2l-5.2-3.6l-0.1-4.4c0-0.3-0.1-0.6-0.4-0.8c-0.4-0.3-1-0.3-1.3,0.2
				c-0.1,0.1-0.1,0.3-0.2,0.5l-0.5,2.8l-2.9-2.1c-0.4-0.3-1-0.3-1.4,0.2c-0.3,0.4-0.2,1.1,0.2,1.4l2.7,2.4l-2.5,1.2
				c-0.1,0.1-0.3,0.1-0.4,0.3c-0.3,0.4-0.2,1,0.2,1.3c0.2,0.2,0.5,0.2,0.8,0.2l4.1-1l4.8,4.2l-5.6,2.7l-3.7-2.2
				c-0.2-0.1-0.5-0.2-0.8-0.1c-0.5,0.2-0.7,0.7-0.5,1.2c0.1,0.2,0.2,0.3,0.3,0.4l2.1,1.9l-3.2,1.5c-0.5,0.2-0.7,0.8-0.5,1.3
				c0.2,0.5,0.8,0.8,1.3,0.6l3.3-1.1l-0.2,2.9c0,0.2,0,0.3,0.1,0.5c0.2,0.5,0.7,0.7,1.2,0.5c0.3-0.1,0.5-0.4,0.5-0.6l1.1-4.2l5.8-2
				l-0.4,6.4l-3.6,2.2c-0.2,0.1-0.4,0.4-0.5,0.7c-0.1,0.5,0.3,1,0.8,1.1c0.2,0,0.3,0,0.5-0.1l2.6-0.9l-0.2,3.6
				c-0.1,0.5,0.3,1,0.9,1.1c0.5,0.1,1-0.3,1.1-0.8l0.6-3.5l2.3,1.6c0.1,0.1,0.3,0.2,0.4,0.2c0.5,0.1,1-0.3,1-0.8
				c0-0.3-0.1-0.6-0.3-0.8l-3-3.2l1.1-6.2l5.2,3.6l0.1,4.4c0,0.3,0.1,0.6,0.4,0.8c0.4,0.3,1,0.3,1.3-0.2c0.1-0.1,0.1-0.3,0.2-0.5
				l0.5-2.8l2.9,2.1c0.4,0.3,1,0.3,1.4-0.2c0.3-0.4,0.2-1.1-0.2-1.4l-2.7-2.4l2.5-1.2c0.1-0.1,0.3-0.1,0.4-0.3
				c0.3-0.4,0.2-1-0.2-1.3c-0.2-0.2-0.5-0.2-0.8-0.2l-4.1,1l-4.8-4.2l5.6-2.7l3.7,2.2c0.2,0.1,0.5,0.2,0.8,0.1
				c0.5-0.2,0.7-0.7,0.5-1.2c-0.1-0.2-0.2-0.3-0.3-0.4l-2.1-1.9l3.2-1.5C258.7,106.2,258.9,105.6,258.7,105.1z"/>
		</g>
	</g>
</g>
</svg>
