<?xml version="1.0" encoding="utf-8"?>
<!-- Generator: Adobe Illustrator 18.0.0, SVG Export Plug-In . SVG Version: 6.00 Build 0)  -->
<!DOCTYPE svg PUBLIC "-//W3C//DTD SVG 1.1//EN" "http://www.w3.org/Graphics/SVG/1.1/DTD/svg11.dtd">
<svg version="1.1" id="Layer_1" xmlns="http://www.w3.org/2000/svg" xmlns:xlink="http://www.w3.org/1999/xlink" x="0px" y="0px"
	 width="320px" height="320px" viewBox="0 0 320 320" enable-background="new 0 0 320 320" xml:space="preserve">
<path fill="#28BBED" d="M218.8,160c0,56.1-45.6,101.8-101.8,101.8S15.3,216.1,15.3,160S60.9,58.2,117,58.2S218.8,103.9,218.8,160z
	 M21.8,160c0,52.5,42.7,95.3,95.3,95.3s95.3-42.7,95.3-95.3S169.5,64.7,117,64.7S21.8,107.5,21.8,160z"/>
<g>
	<path fill-rule="evenodd" clip-rule="evenodd" fill="#28BBED" d="M189.2,160c0-14.2,11.5-25.8,25.7-25.8
		c14.2,0,25.8,11.5,25.8,25.7c0,14.2-11.5,25.8-25.7,25.8C200.8,185.8,189.3,174.3,189.2,160z"/>
	<g>
		<g>
			<path fill="#FFFFFF" d="M230.5,159l-3.5-0.2l1.3-2.6c0.1-0.1,0.1-0.3,0.1-0.5c0-0.5-0.4-1-0.9-1c-0.3,0-0.6,0.2-0.7,0.4l-2.6,3.4
				l-6.2-0.4l2.8-5.7l4.2-0.6c0.3,0,0.5-0.2,0.7-0.5c0.3-0.5,0.1-1-0.3-1.3c-0.1-0.1-0.3-0.1-0.5-0.1l-2.8-0.2l1.6-3.2
				c0.3-0.5,0.1-1.1-0.4-1.4c-0.5-0.3-1.1-0.1-1.3,0.4l-1.9,3l-1.5-2.4c-0.1-0.1-0.2-0.3-0.3-0.4c-0.4-0.3-1-0.1-1.3,0.3
				c-0.2,0.3-0.1,0.6,0,0.8l1.6,4.1l-3.4,5.3l-3.4-5.4l1.6-4.1c0.1-0.3,0.1-0.6,0-0.8c-0.3-0.5-0.8-0.6-1.3-0.3
				c-0.1,0.1-0.2,0.2-0.3,0.4l-1.5,2.4l-1.9-3c-0.3-0.5-0.9-0.6-1.3-0.4c-0.5,0.3-0.6,0.9-0.4,1.4l1.6,3.2l-2.8,0.2
				c-0.2,0-0.3,0-0.5,0.1c-0.4,0.3-0.6,0.8-0.3,1.3c0.1,0.3,0.4,0.4,0.7,0.5l4.2,0.6l2.8,5.7l-6.2,0.4l-2.6-3.4
				c-0.2-0.2-0.4-0.4-0.7-0.4c-0.5,0-0.9,0.4-0.9,1c0,0.2,0.1,0.3,0.1,0.5l1.3,2.6l-3.5,0.2c-0.5,0-1,0.4-1,1c0,0.6,0.4,1,1,1
				l3.5,0.2l-1.3,2.6c-0.1,0.1-0.1,0.3-0.1,0.5c0,0.5,0.4,1,0.9,1c0.3,0,0.6-0.2,0.7-0.4l2.6-3.4l6.2,0.4l-2.8,5.7l-4.2,0.6
				c-0.3,0-0.5,0.2-0.7,0.5c-0.3,0.5-0.1,1,0.3,1.3c0.1,0.1,0.3,0.1,0.5,0.1l2.8,0.2l-1.6,3.2c-0.3,0.5-0.1,1.1,0.4,1.4
				c0.5,0.3,1.1,0.1,1.3-0.4l1.9-3l1.5,2.4c0.1,0.1,0.2,0.3,0.3,0.4c0.4,0.3,1,0.1,1.3-0.3c0.1-0.3,0.1-0.6,0-0.8l-1.6-4.1l3.4-5.3
				l3.4,5.4l-1.6,4.1c-0.1,0.3-0.1,0.6,0,0.8c0.3,0.5,0.8,0.6,1.3,0.3c0.1-0.1,0.2-0.2,0.3-0.4l1.5-2.4l1.9,3
				c0.3,0.5,0.9,0.6,1.3,0.4c0.5-0.3,0.6-0.9,0.4-1.4l-1.6-3.2l2.8-0.2c0.2,0,0.3,0,0.5-0.1c0.4-0.3,0.6-0.8,0.3-1.3
				c-0.1-0.3-0.4-0.4-0.7-0.5l-4.2-0.6l-2.8-5.7l6.2-0.4l2.6,3.4c0.2,0.2,0.4,0.4,0.7,0.4c0.5,0,0.9-0.4,0.9-1
				c0-0.2-0.1-0.3-0.1-0.5l-1.3-2.6l3.5-0.2c0.5,0,1-0.4,1-1C231.5,159.4,231,159,230.5,159z"/>
		</g>
	</g>
</g>
</svg>
