<?xml version="1.0" encoding="utf-8"?>
<!-- Generator: Adobe Illustrator 18.0.0, SVG Export Plug-In . SVG Version: 6.00 Build 0)  -->
<!DOCTYPE svg PUBLIC "-//W3C//DTD SVG 1.1//EN" "http://www.w3.org/Graphics/SVG/1.1/DTD/svg11.dtd">
<svg version="1.1" id="Layer_1" xmlns="http://www.w3.org/2000/svg" xmlns:xlink="http://www.w3.org/1999/xlink" x="0px" y="0px"
	 width="320px" height="320px" viewBox="0 0 320 320" enable-background="new 0 0 320 320" xml:space="preserve">
<path fill="#28BBED" d="M214,75c51.8,21.5,76.5,81.1,55.1,132.9c-21.5,51.8-81.1,76.5-132.9,55.1s-76.5-81.1-55.1-132.9
	S162.2,53.6,214,75z M138.6,257c48.5,20.1,104.4-3,124.5-51.5c20.1-48.5-3-104.4-51.5-124.5s-104.4,3-124.5,51.5
	S90.1,236.9,138.6,257z"/>
<g>
	<path fill-rule="evenodd" clip-rule="evenodd" fill="#28BBED" d="M202.8,102.3c-13.2-5.4-19.4-20.5-14-33.6
		c5.4-13.2,20.5-19.4,33.6-14c13.2,5.4,19.4,20.5,14,33.6C231,101.5,215.9,107.7,202.8,102.3z"/>
	<g>
		<g>
			<path fill="#FFFFFF" d="M228.2,75.7l-3.6,0.2l0.9-2.6c0.1-0.1,0.1-0.3,0.1-0.5c-0.1-0.5-0.6-0.9-1.1-0.8c-0.3,0-0.5,0.2-0.7,0.5
				l-2.2,3.6l-6.3,0.4l2-5.9l4.2-1.1c0.3-0.1,0.5-0.2,0.6-0.5c0.2-0.5,0-1-0.5-1.2c-0.2-0.1-0.3-0.1-0.5-0.1l-2.8,0.2l1.1-3.3
				c0.2-0.5,0-1.1-0.6-1.3c-0.5-0.2-1.1,0-1.3,0.5l-1.5,3.2l-1.9-2.1c-0.1-0.1-0.2-0.2-0.4-0.3c-0.5-0.2-1,0-1.2,0.5
				c-0.1,0.3-0.1,0.6,0.1,0.8l2.2,3.8l-2.7,5.6l-4.2-4.8l1-4.1c0.1-0.3,0-0.6-0.2-0.8c-0.3-0.4-0.9-0.5-1.3-0.2
				c-0.1,0.1-0.2,0.2-0.3,0.4l-1.2,2.5l-2.4-2.7c-0.3-0.4-1-0.5-1.4-0.2c-0.4,0.3-0.5,0.9-0.2,1.4l2.1,2.9l-2.8,0.5
				c-0.2,0-0.3,0.1-0.5,0.2c-0.4,0.3-0.5,0.9-0.2,1.3c0.2,0.2,0.5,0.4,0.8,0.4l4.4,0.1l3.6,5.2l-6.2,1.1l-3.2-3
				c-0.2-0.2-0.5-0.3-0.8-0.3c-0.5,0.1-0.9,0.5-0.8,1c0,0.2,0.1,0.3,0.2,0.4l1.6,2.3l-3.5,0.6c-0.5,0.1-0.9,0.5-0.8,1.1
				c0.1,0.5,0.6,0.9,1.1,0.8l3.6-0.2l-0.9,2.6c-0.1,0.1-0.1,0.3-0.1,0.5c0.1,0.5,0.6,0.9,1.1,0.8c0.3,0,0.5-0.2,0.7-0.5l2.2-3.6
				l6.3-0.4l-2,5.9l-4.2,1.1c-0.3,0.1-0.5,0.2-0.6,0.5c-0.2,0.5,0,1,0.5,1.2c0.2,0.1,0.3,0.1,0.5,0.1l2.8-0.2l-1.1,3.3
				c-0.2,0.5,0,1.1,0.6,1.3c0.5,0.2,1.1,0,1.3-0.5l1.5-3.2l1.9,2.1c0.1,0.1,0.2,0.2,0.4,0.3c0.5,0.2,1,0,1.2-0.5
				c0.1-0.3,0.1-0.6-0.1-0.8l-2.2-3.8l2.7-5.6l4.2,4.8l-1,4.1c-0.1,0.3,0,0.6,0.2,0.8c0.3,0.4,0.9,0.5,1.3,0.2
				c0.1-0.1,0.2-0.2,0.3-0.4l1.2-2.5l2.4,2.7c0.3,0.4,1,0.5,1.4,0.2c0.4-0.3,0.5-0.9,0.2-1.4l-2.1-2.9l2.8-0.5
				c0.2,0,0.3-0.1,0.5-0.2c0.4-0.3,0.5-0.9,0.2-1.3c-0.2-0.2-0.5-0.4-0.8-0.4l-4.4-0.1l-3.6-5.2l6.2-1.1l3.2,3
				c0.2,0.2,0.5,0.3,0.8,0.3c0.5-0.1,0.9-0.5,0.8-1c0-0.2-0.1-0.3-0.2-0.4l-1.6-2.3l3.5-0.6c0.5-0.1,0.9-0.5,0.8-1.1
				C229.3,76,228.8,75.6,228.2,75.7z"/>
		</g>
	</g>
</g>
</svg>
