<?xml version="1.0" encoding="utf-8"?>
<!-- Generator: Adobe Illustrator 18.0.0, SVG Export Plug-In . SVG Version: 6.00 Build 0)  -->
<!DOCTYPE svg PUBLIC "-//W3C//DTD SVG 1.1//EN" "http://www.w3.org/Graphics/SVG/1.1/DTD/svg11.dtd">
<svg version="1.1" id="Layer_1" xmlns="http://www.w3.org/2000/svg" xmlns:xlink="http://www.w3.org/1999/xlink" x="0px" y="0px"
	 width="320px" height="320px" viewBox="0 0 320 320" enable-background="new 0 0 320 320" xml:space="preserve">
<path fill="#28BBED" d="M83.3,232.7c-39.7-39.7-39.7-104.2,0-143.9s104.2-39.7,143.9,0s39.7,104.2,0,143.9S123,272.4,83.3,232.7z
	 M222.6,93.4c-37.1-37.1-97.6-37.1-134.7,0s-37.1,97.6,0,134.7s97.6,37.1,134.7,0S259.7,130.6,222.6,93.4z"/>
<g>
	<path fill-rule="evenodd" clip-rule="evenodd" fill="#28BBED" d="M104.1,211.8c10.1,10,10.1,26.3,0.1,36.4
		c-10,10.1-26.3,10.1-36.4,0.1c-10.1-10-10.1-26.3-0.1-36.4C77.7,201.8,94,201.8,104.1,211.8z"/>
	<g>
		<g>
			<path fill="#FFFFFF" d="M101.5,233.4l-3.4-1.2l1.9-2.1c0.1-0.1,0.2-0.2,0.2-0.4c0.1-0.5-0.2-1-0.7-1.2c-0.3-0.1-0.6,0-0.8,0.2
				l-3.4,2.5l-6-2.1l4.1-4.6l4.3,0.6c0.3,0,0.6,0,0.8-0.2c0.4-0.4,0.4-1,0-1.3c-0.1-0.1-0.3-0.2-0.4-0.2l-2.7-0.9l2.3-2.6
				c0.4-0.4,0.4-1,0-1.4c-0.4-0.4-1-0.4-1.4,0l-2.6,2.3l-0.9-2.7c0-0.2-0.1-0.3-0.2-0.4c-0.4-0.4-1-0.4-1.3,0
				c-0.2,0.2-0.3,0.5-0.2,0.8l0.6,4.3l-4.6,4.1l-2.1-6l2.5-3.4c0.2-0.2,0.2-0.5,0.2-0.8c-0.1-0.5-0.7-0.8-1.2-0.7
				c-0.2,0-0.3,0.1-0.4,0.2l-2.1,1.9l-1.2-3.4c-0.1-0.5-0.7-0.8-1.2-0.7c-0.5,0.1-0.8,0.7-0.7,1.2l0.8,3.5l-2.8-0.6
				c-0.2,0-0.3-0.1-0.5,0c-0.5,0.1-0.8,0.6-0.6,1.1c0.1,0.3,0.3,0.5,0.6,0.6l4,1.8l1.4,6.2l-6.2-1.4l-1.8-4
				c-0.1-0.3-0.3-0.5-0.6-0.6c-0.5-0.1-1,0.1-1.1,0.6c0,0.2,0,0.3,0,0.5l0.6,2.8l-3.5-0.8c-0.5-0.1-1.1,0.2-1.2,0.7
				c-0.1,0.5,0.2,1.1,0.7,1.2l3.4,1.2L72,230c-0.1,0.1-0.2,0.2-0.2,0.4c-0.1,0.5,0.2,1,0.7,1.2c0.3,0.1,0.6,0,0.8-0.2l3.4-2.5l6,2.1
				l-4.1,4.6l-4.3-0.6c-0.3,0-0.6,0-0.8,0.2c-0.4,0.4-0.4,1,0,1.3c0.1,0.1,0.3,0.2,0.4,0.2l2.7,0.9l-2.3,2.6c-0.4,0.4-0.4,1,0,1.4
				c0.4,0.4,1,0.4,1.4,0l2.6-2.3l0.9,2.7c0,0.2,0.1,0.3,0.2,0.4c0.4,0.4,1,0.4,1.3,0c0.2-0.2,0.3-0.5,0.2-0.8l-0.6-4.3l4.6-4.1
				l2.1,6l-2.5,3.4c-0.2,0.2-0.2,0.5-0.2,0.8c0.1,0.5,0.7,0.8,1.2,0.7c0.2,0,0.3-0.1,0.4-0.2l2.1-1.9l1.2,3.4
				c0.1,0.5,0.7,0.8,1.2,0.7c0.5-0.1,0.8-0.7,0.7-1.2l-0.8-3.5l2.8,0.6c0.2,0,0.3,0.1,0.5,0c0.5-0.1,0.8-0.6,0.6-1.1
				c-0.1-0.3-0.3-0.5-0.6-0.6l-4-1.8l-1.4-6.2l6.2,1.4l1.8,4c0.1,0.3,0.3,0.5,0.6,0.6c0.5,0.1,1-0.1,1.1-0.6c0-0.2,0-0.3,0-0.5
				l-0.6-2.8l3.5,0.8c0.5,0.1,1.1-0.2,1.2-0.7C102.3,234.1,102,233.6,101.5,233.4z"/>
		</g>
	</g>
</g>
</svg>
