<?xml version="1.0" encoding="utf-8"?>
<!-- Generator: Adobe Illustrator 18.0.0, SVG Export Plug-In . SVG Version: 6.00 Build 0)  -->
<!DOCTYPE svg PUBLIC "-//W3C//DTD SVG 1.1//EN" "http://www.w3.org/Graphics/SVG/1.1/DTD/svg11.dtd">
<svg version="1.1" id="Layer_1" xmlns="http://www.w3.org/2000/svg" xmlns:xlink="http://www.w3.org/1999/xlink" x="0px" y="0px"
	 width="320px" height="320px" viewBox="0 0 320 320" enable-background="new 0 0 320 320" xml:space="preserve">
<path fill="#28BBED" d="M236.7,232.7c-39.7,39.7-104.2,39.7-143.9,0s-39.7-104.2,0-143.9s104.2-39.7,143.9,0S276.4,193,236.7,232.7z
	 M97.4,93.4c-37.1,37.1-37.1,97.6,0,134.7s97.6,37.1,134.7,0s37.1-97.6,0-134.7S134.6,56.3,97.4,93.4z"/>
<g>
	<path fill-rule="evenodd" clip-rule="evenodd" fill="#28BBED" d="M215.8,211.9c10-10.1,26.3-10.1,36.4-0.1
		c10.1,10,10.1,26.3,0.1,36.4c-10,10.1-26.3,10.1-36.4,0.1C205.8,238.3,205.8,222,215.8,211.9z"/>
	<g>
		<g>
			<path fill="#FFFFFF" d="M250.3,225.5c-0.1-0.5-0.7-0.8-1.2-0.7l-3.5,0.8l0.6-2.8c0-0.2,0.1-0.3,0-0.5c-0.1-0.5-0.6-0.8-1.1-0.6
				c-0.3,0.1-0.5,0.3-0.6,0.6l-1.8,4l-6.2,1.4l1.4-6.2l4-1.8c0.3-0.1,0.5-0.3,0.6-0.6c0.1-0.5-0.1-1-0.6-1.1c-0.2,0-0.3,0-0.5,0
				l-2.8,0.6l0.8-3.5c0.1-0.5-0.2-1.1-0.7-1.2c-0.5-0.1-1.1,0.2-1.2,0.7l-1.2,3.4l-2.1-1.9c-0.1-0.1-0.2-0.2-0.4-0.2
				c-0.5-0.1-1,0.2-1.2,0.7c-0.1,0.3,0,0.6,0.2,0.8l2.5,3.4l-2.1,6l-4.6-4.1l0.6-4.3c0-0.3,0-0.6-0.2-0.8c-0.4-0.4-1-0.4-1.3,0
				c-0.1,0.1-0.2,0.3-0.2,0.4l-0.9,2.7l-2.6-2.3c-0.4-0.4-1-0.4-1.4,0c-0.4,0.4-0.4,1,0,1.4l2.3,2.6l-2.7,0.9
				c-0.2,0-0.3,0.1-0.4,0.2c-0.4,0.4-0.4,1,0,1.3c0.2,0.2,0.5,0.3,0.8,0.2l4.3-0.6l4.1,4.6l-6,2.1l-3.4-2.5
				c-0.2-0.2-0.5-0.2-0.8-0.2c-0.5,0.1-0.8,0.7-0.7,1.2c0,0.2,0.1,0.3,0.2,0.4l1.9,2.1l-3.4,1.2c-0.5,0.1-0.8,0.7-0.7,1.2
				c0.1,0.5,0.7,0.8,1.2,0.7l3.5-0.8l-0.6,2.8c0,0.2-0.1,0.3,0,0.5c0.1,0.5,0.6,0.8,1.1,0.6c0.3-0.1,0.5-0.3,0.6-0.6l1.8-4l6.2-1.4
				l-1.4,6.2l-4,1.8c-0.3,0.1-0.5,0.3-0.6,0.6c-0.1,0.5,0.1,1,0.6,1.1c0.2,0,0.3,0,0.5,0l2.8-0.6l-0.8,3.5c-0.1,0.5,0.2,1.1,0.7,1.2
				c0.5,0.1,1.1-0.2,1.2-0.7l1.2-3.4l2.1,1.9c0.1,0.1,0.2,0.2,0.4,0.2c0.5,0.1,1-0.2,1.2-0.7c0.1-0.3,0-0.6-0.2-0.8l-2.5-3.4l2.1-6
				l4.6,4.1l-0.6,4.3c0,0.3,0,0.6,0.2,0.8c0.4,0.4,1,0.4,1.3,0c0.1-0.1,0.2-0.3,0.2-0.4l0.9-2.7l2.6,2.3c0.4,0.4,1,0.4,1.4,0
				c0.4-0.4,0.4-1,0-1.4l-2.3-2.6l2.7-0.9c0.2,0,0.3-0.1,0.4-0.2c0.4-0.4,0.4-1,0-1.3c-0.2-0.2-0.5-0.3-0.8-0.2l-4.3,0.6l-4.1-4.6
				l6-2.1l3.4,2.5c0.2,0.2,0.5,0.2,0.8,0.2c0.5-0.1,0.8-0.7,0.7-1.2c0-0.2-0.1-0.3-0.2-0.4l-1.9-2.1l3.4-1.2
				C250.1,226.5,250.4,226,250.3,225.5z"/>
		</g>
	</g>
</g>
</svg>
