<?xml version="1.0" encoding="utf-8"?>
<!-- Generator: Adobe Illustrator 18.0.0, SVG Export Plug-In . SVG Version: 6.00 Build 0)  -->
<!DOCTYPE svg PUBLIC "-//W3C//DTD SVG 1.1//EN" "http://www.w3.org/Graphics/SVG/1.1/DTD/svg11.dtd">
<svg version="1.1" id="Layer_1" xmlns="http://www.w3.org/2000/svg" xmlns:xlink="http://www.w3.org/1999/xlink" x="0px" y="0px"
	 width="320px" height="320px" viewBox="0 0 320 320" enable-background="new 0 0 320 320" xml:space="preserve">
<path fill-rule="evenodd" clip-rule="evenodd" fill="#52879F" d="M22.3,213.9c34,22.7,70.7,42.4,109.9,58.6
	c39.2,16.2,79.1,28.3,119.1,36.3l0.3,0l46.8-235.2l0,0c-25.1-5-50-12.5-74.5-22.7s-47.4-22.5-68.7-36.6L22.1,213.6L22.3,213.9z
	 M212.8,78c50.3,20.8,74.1,78.4,53.3,128.7c-20.8,50.3-78.4,74.1-128.7,53.3s-74.1-78.4-53.3-128.7C104.9,81.1,162.5,57.2,212.8,78z
	"/>
</svg>
