<?xml version="1.0" encoding="utf-8"?>
<!-- Generator: Adobe Illustrator 18.0.0, SVG Export Plug-In . SVG Version: 6.00 Build 0)  -->
<!DOCTYPE svg PUBLIC "-//W3C//DTD SVG 1.1//EN" "http://www.w3.org/Graphics/SVG/1.1/DTD/svg11.dtd">
<svg version="1.1" id="Layer_1" xmlns="http://www.w3.org/2000/svg" xmlns:xlink="http://www.w3.org/1999/xlink" x="0px" y="0px"
	 width="320px" height="320px" viewBox="0 0 320 320" enable-background="new 0 0 320 320" xml:space="preserve">
<path fill-rule="evenodd" clip-rule="evenodd" fill="#52879F" d="M13.2,72.6c8,40.1,20.1,80,36.3,119.2
	c16.2,39.2,35.9,75.9,58.6,109.9l0.3,0.2l199.4-133.2l0,0c-14.2-21.3-26.5-44.2-36.6-68.7s-17.7-49.4-22.7-74.5L13.2,72.3L13.2,72.6
	z M244,111.2c20.8,50.3-3,107.9-53.3,128.7c-50.3,20.8-107.9-3-128.7-53.3s3-107.9,53.3-128.7C165.5,37.1,223.1,61,244,111.2z"/>
</svg>
