<?xml version="1.0" encoding="utf-8"?>
<!-- Generator: Adobe Illustrator 18.0.0, SVG Export Plug-In . SVG Version: 6.00 Build 0)  -->
<!DOCTYPE svg PUBLIC "-//W3C//DTD SVG 1.1//EN" "http://www.w3.org/Graphics/SVG/1.1/DTD/svg11.dtd">
<svg version="1.1" id="Layer_1" xmlns="http://www.w3.org/2000/svg" xmlns:xlink="http://www.w3.org/1999/xlink" x="0px" y="0px"
	 width="320px" height="320px" viewBox="0 0 320 320" enable-background="new 0 0 320 320" xml:space="preserve">
<path fill-rule="evenodd" clip-rule="evenodd" fill="#52879F" d="M17.1,36C9.2,76.1,5,117.6,5,160c0,42.4,4.2,83.9,12.1,124l0.2,0.3
	l235.2-46.8l0,0c-5-25.1-7.6-51-7.6-77.5s2.6-52.4,7.6-77.5L17.2,35.7L17.1,36z M215.5,160c0,54.4-44.1,98.5-98.5,98.5
	c-54.4,0-98.5-44.1-98.5-98.5S62.6,61.5,117,61.5C171.4,61.5,215.5,105.6,215.5,160z"/>
</svg>
