<?xml version="1.0" encoding="utf-8"?>
<!-- Generator: Adobe Illustrator 18.0.0, SVG Export Plug-In . SVG Version: 6.00 Build 0)  -->
<!DOCTYPE svg PUBLIC "-//W3C//DTD SVG 1.1//EN" "http://www.w3.org/Graphics/SVG/1.1/DTD/svg11.dtd">
<svg version="1.1" id="Layer_1" xmlns="http://www.w3.org/2000/svg" xmlns:xlink="http://www.w3.org/1999/xlink" x="0px" y="0px"
	 width="320px" height="320px" viewBox="0 0 320 320" enable-background="new 0 0 320 320" xml:space="preserve">
<path fill-rule="evenodd" clip-rule="evenodd" fill="#52879F" d="M306.8,247.4c-8-40.1-20.1-80-36.3-119.2
	C254.3,89,234.6,52.3,211.9,18.3l-0.3-0.2L12.3,151.3l0,0c14.2,21.3,26.5,44.2,36.6,68.7s17.7,49.4,22.7,74.5l235.2-46.8
	L306.8,247.4z M76,208.8c-20.8-50.3,3-107.9,53.3-128.7c50.3-20.8,107.9,3,128.7,53.3s-3,107.9-53.3,128.7
	C154.5,282.9,96.9,259,76,208.8z"/>
</svg>
