<?xml version="1.0" encoding="utf-8"?>
<!-- Generator: Adobe Illustrator 18.0.0, SVG Export Plug-In . SVG Version: 6.00 Build 0)  -->
<!DOCTYPE svg PUBLIC "-//W3C//DTD SVG 1.1//EN" "http://www.w3.org/Graphics/SVG/1.1/DTD/svg11.dtd">
<svg version="1.1" id="Layer_1" xmlns="http://www.w3.org/2000/svg" xmlns:xlink="http://www.w3.org/1999/xlink" x="0px" y="0px"
	 width="320px" height="320px" viewBox="0 0 320 320" enable-background="new 0 0 320 320" xml:space="preserve">
<path fill-rule="evenodd" clip-rule="evenodd" fill="#52879F" d="M251.4,11.2c-40.1,8-80,20.1-119.2,36.3
	C93,63.7,56.3,83.4,22.3,106.1l-0.2,0.3l133.2,199.4l0,0c21.3-14.2,44.2-26.5,68.7-36.6s49.4-17.7,74.5-22.7L251.7,11.2L251.4,11.2z
	 M212.8,242c-50.3,20.8-107.9-3-128.7-53.3c-20.8-50.3,3-107.9,53.3-128.7s107.9,3,128.7,53.3C286.9,163.5,263,221.1,212.8,242z"/>
</svg>
