<?xml version="1.0" encoding="utf-8"?>
<!-- Generator: Adobe Illustrator 18.0.0, SVG Export Plug-In . SVG Version: 6.00 Build 0)  -->
<!DOCTYPE svg PUBLIC "-//W3C//DTD SVG 1.1//EN" "http://www.w3.org/Graphics/SVG/1.1/DTD/svg11.dtd">
<svg version="1.1" id="Layer_1" xmlns="http://www.w3.org/2000/svg" xmlns:xlink="http://www.w3.org/1999/xlink" x="0px" y="0px"
	 width="320px" height="320px" viewBox="0 0 320 320" enable-background="new 0 0 320 320" xml:space="preserve">
<path fill-rule="evenodd" clip-rule="evenodd" fill="#52879F" d="M36,304.9c40.1,7.9,81.6,12.1,124,12.1c42.4,0,83.9-4.2,124-12.1
	l0.3-0.2L237.5,69.6l0,0c-25.1,5-51,7.6-77.5,7.6s-52.4-2.6-77.5-7.6L35.7,304.8L36,304.9z M160,106.5c54.4,0,98.5,44.1,98.5,98.5
	c0,54.4-44.1,98.5-98.5,98.5S61.5,259.4,61.5,205C61.5,150.6,105.6,106.5,160,106.5z"/>
</svg>
