<?xml version="1.0" encoding="utf-8"?>
<!-- Generator: Adobe Illustrator 18.0.0, SVG Export Plug-In . SVG Version: 6.00 Build 0)  -->
<!DOCTYPE svg PUBLIC "-//W3C//DTD SVG 1.1//EN" "http://www.w3.org/Graphics/SVG/1.1/DTD/svg11.dtd">
<svg version="1.1" id="Layer_1" xmlns="http://www.w3.org/2000/svg" xmlns:xlink="http://www.w3.org/1999/xlink" x="0px" y="0px"
	 width="320px" height="320px" viewBox="0 0 320 320" enable-background="new 0 0 320 320" xml:space="preserve">
<path fill-rule="evenodd" clip-rule="evenodd" fill="#52879F" d="M181.8,2.4c-34,22.8-66.2,49.1-96.2,79.1
	c-30,30-56.4,62.2-79.1,96.2l-0.1,0.3l199.4,133.2l0,0c14.2-21.2,30.7-41.4,49.4-60.1s38.9-35.2,60.1-49.4L182.1,2.4L181.8,2.4z
	 M234.4,230.4c-38.5,38.5-100.8,38.5-139.3,0c-38.5-38.5-38.5-100.8,0-139.3s100.8-38.5,139.3,0C272.9,129.6,272.9,192,234.4,230.4z
	"/>
</svg>
