<?xml version="1.0" encoding="utf-8"?>
<!-- Generator: Adobe Illustrator 18.0.0, SVG Export Plug-In . SVG Version: 6.00 Build 0)  -->
<!DOCTYPE svg PUBLIC "-//W3C//DTD SVG 1.1//EN" "http://www.w3.org/Graphics/SVG/1.1/DTD/svg11.dtd">
<svg version="1.1" id="Layer_1" xmlns="http://www.w3.org/2000/svg" xmlns:xlink="http://www.w3.org/1999/xlink" x="0px" y="0px"
	 width="320px" height="320px" viewBox="0 0 320 320" enable-background="new 0 0 320 320" xml:space="preserve">
<path fill-rule="evenodd" clip-rule="evenodd" fill="#5288A0" d="M297.7,106.1c-34-22.7-70.7-42.4-109.9-58.6
	c-39.2-16.2-79.1-28.3-119.1-36.3l-0.3,0L21.5,246.4l0,0c25.1,5,50,12.5,74.5,22.7s47.4,22.5,68.7,36.6l133.2-199.4L297.7,106.1z
	 M107.2,242C57,221.2,33.1,163.6,53.9,113.3C74.7,63.1,132.3,39.2,182.6,60s74.1,78.4,53.3,128.7C215.1,239,157.5,262.8,107.2,242z"
	/>
</svg>
