<?xml version="1.0" encoding="utf-8"?>
<!-- Generator: Adobe Illustrator 18.0.0, SVG Export Plug-In . SVG Version: 6.00 Build 0)  -->
<!DOCTYPE svg PUBLIC "-//W3C//DTD SVG 1.1//EN" "http://www.w3.org/Graphics/SVG/1.1/DTD/svg11.dtd">
<svg version="1.1" id="Layer_1" xmlns="http://www.w3.org/2000/svg" xmlns:xlink="http://www.w3.org/1999/xlink" x="0px" y="0px"
	 width="320px" height="320px" viewBox="0 0 320 320" enable-background="new 0 0 320 320" xml:space="preserve">
<path fill-rule="evenodd" clip-rule="evenodd" fill="#52879F" d="M68.6,308.8c40.1-8,80-20.1,119.2-36.3
	c39.2-16.2,75.9-35.9,109.9-58.6l0.2-0.3L164.7,14.3l0,0C143.4,28.5,120.5,40.8,96,50.9S46.6,68.6,21.5,73.6l46.8,235.2L68.6,308.8z
	 M107.2,78c50.3-20.8,107.9,3,128.7,53.3c20.8,50.3-3,107.9-53.3,128.7s-107.9-3-128.7-53.3C33.1,156.5,57,98.9,107.2,78z"/>
</svg>
