<?xml version="1.0" encoding="utf-8"?>
<!-- Generator: Adobe Illustrator 18.0.0, SVG Export Plug-In . SVG Version: 6.00 Build 0)  -->
<!DOCTYPE svg PUBLIC "-//W3C//DTD SVG 1.1//EN" "http://www.w3.org/Graphics/SVG/1.1/DTD/svg11.dtd">
<svg version="1.1" id="Layer_1" xmlns="http://www.w3.org/2000/svg" xmlns:xlink="http://www.w3.org/1999/xlink" x="0px" y="0px"
	 width="320px" height="320px" viewBox="0 0 320 320" enable-background="new 0 0 320 320" xml:space="preserve">
<path fill-rule="evenodd" clip-rule="evenodd" fill="#52879F" d="M108.1,18.3C85.4,52.3,65.7,89,49.5,128.2
	c-16.2,39.2-28.3,79.1-36.3,119.1l0,0.3l235.2,46.8l0,0c5-25.1,12.5-50,22.7-74.5s22.5-47.4,36.6-68.7L108.4,18.1L108.1,18.3z
	 M244,208.8c-20.8,50.3-78.4,74.1-128.7,53.3C65,241.3,41.1,183.7,62,133.4s78.4-74.1,128.7-53.3C240.9,100.9,264.8,158.5,244,208.8
	z"/>
</svg>
