<?xml version="1.0" encoding="utf-8"?>
<!-- Generator: Adobe Illustrator 18.0.0, SVG Export Plug-In . SVG Version: 6.00 Build 0)  -->
<!DOCTYPE svg PUBLIC "-//W3C//DTD SVG 1.1//EN" "http://www.w3.org/Graphics/SVG/1.1/DTD/svg11.dtd">
<svg version="1.1" id="Layer_1" xmlns="http://www.w3.org/2000/svg" xmlns:xlink="http://www.w3.org/1999/xlink" x="0px" y="0px"
	 width="320px" height="320px" viewBox="0 0 320 320" enable-background="new 0 0 320 320" xml:space="preserve">
<path fill-rule="evenodd" clip-rule="evenodd" fill="#52879F" d="M211.9,301.7c22.7-34,42.4-70.7,58.6-109.9
	c16.2-39.2,28.3-79.1,36.3-119.1l0-0.3L71.6,25.5l0,0c-5,25.1-12.5,50-22.7,74.5s-22.5,47.4-36.6,68.7l199.4,133.2L211.9,301.7z
	 M76,111.2C96.9,61,154.5,37.1,204.7,57.9c50.3,20.8,74.1,78.4,53.3,128.7c-20.8,50.3-78.4,74.1-128.7,53.3
	C79.1,219.1,55.2,161.5,76,111.2z"/>
</svg>
