<?xml version="1.0" encoding="utf-8"?>
<!-- Generator: Adobe Illustrator 18.0.0, SVG Export Plug-In . SVG Version: 6.00 Build 0)  -->
<!DOCTYPE svg PUBLIC "-//W3C//DTD SVG 1.1//EN" "http://www.w3.org/Graphics/SVG/1.1/DTD/svg11.dtd">
<svg version="1.1" id="Layer_1" xmlns="http://www.w3.org/2000/svg" xmlns:xlink="http://www.w3.org/1999/xlink" x="0px" y="0px"
	 width="320px" height="320px" viewBox="0 0 320 320" enable-background="new 0 0 320 320" xml:space="preserve">
<path fill-rule="evenodd" clip-rule="evenodd" fill="#52879F" d="M138.2,317.6c34-22.8,66.2-49.1,96.2-79.1
	c30-30,56.4-62.2,79.1-96.2l0.1-0.3L114.3,8.7l0,0c-14.2,21.2-30.7,41.4-49.4,60.1s-38.9,35.2-60.1,49.4l133.2,199.4L138.2,317.6z
	 M85.6,89.6c38.5-38.5,100.8-38.5,139.3,0c38.5,38.5,38.5,100.8,0,139.3s-100.8,38.5-139.3,0C47.1,190.4,47.1,128,85.6,89.6z"/>
</svg>
