<?xml version="1.0" encoding="utf-8"?>
<!-- Generator: Adobe Illustrator 18.0.0, SVG Export Plug-In . SVG Version: 6.00 Build 0)  -->
<!DOCTYPE svg PUBLIC "-//W3C//DTD SVG 1.1//EN" "http://www.w3.org/Graphics/SVG/1.1/DTD/svg11.dtd">
<svg version="1.1" id="Layer_1" xmlns="http://www.w3.org/2000/svg" xmlns:xlink="http://www.w3.org/1999/xlink" x="0px" y="0px"
	 width="320px" height="320px" viewBox="0 0 320 320" enable-background="new 0 0 320 320" xml:space="preserve">
<path fill-rule="evenodd" clip-rule="evenodd" fill="#52879F" d="M313.6,177.8c-22.8-34-49.1-66.2-79.1-96.2
	c-30-30-62.2-56.4-96.2-79.1l-0.3-0.1L4.7,201.7l0,0c21.2,14.2,41.4,30.7,60.1,49.4s35.2,38.9,49.4,60.1l199.4-133.2L313.6,177.8z
	 M85.6,230.4c-38.5-38.5-38.5-100.8,0-139.3c38.5-38.5,100.8-38.5,139.3,0s38.5,100.8,0,139.3C186.4,268.9,124,268.9,85.6,230.4z"/>
</svg>
