<?xml version="1.0" encoding="utf-8"?>
<!-- Generator: Adobe Illustrator 18.0.0, SVG Export Plug-In . SVG Version: 6.00 Build 0)  -->
<!DOCTYPE svg PUBLIC "-//W3C//DTD SVG 1.1//EN" "http://www.w3.org/Graphics/SVG/1.1/DTD/svg11.dtd">
<svg version="1.1" id="Layer_1" xmlns="http://www.w3.org/2000/svg" xmlns:xlink="http://www.w3.org/1999/xlink" x="0px" y="0px"
	 width="320px" height="320px" viewBox="0 0 320 320" enable-background="new 0 0 320 320" xml:space="preserve">
<path fill="#81C341" d="M106,245c-51.8-21.5-76.5-81.1-55.1-132.9S132,35.5,183.8,57s76.5,81.1,55.1,132.9S157.8,266.5,106,245z
	 M181.4,63C132.8,42.9,77,66,56.9,114.6s3,104.4,51.5,124.5s104.4-3,124.5-51.5S229.9,83.1,181.4,63z"/>
<g>
	<g>
		<circle fill="#81C341" cx="107.4" cy="241.5" r="25.8"/>
	</g>
	<path fill="#FFFFFF" d="M120,227.8c-0.5,0-0.9,0.2-1.2,0.6c0,0-14.5,15.3-17.6,18.7l0,0c-0.4,0.4-1,0.4-1.4,0.1
		c-1.6-1.2-5.2-3.8-5.4-3.9c-0.4-0.3-0.8-0.4-1.3-0.4c-1.3,0-2.3,1.1-2.3,2.4c0,0.5,0.2,1,0.4,1.4l6.5,9.3c0.8,1.2,2,1.9,3.5,1.9
		s2.8-0.8,3.5-2l16.6-25.1c0.3-0.5,0.5-0.7,0.5-1.2C121.6,228.6,120.9,227.8,120,227.8z"/>
</g>
</svg>
