<?xml version="1.0" encoding="utf-8"?>
<!-- Generator: Adobe Illustrator 18.0.0, SVG Export Plug-In . SVG Version: 6.00 Build 0)  -->
<!DOCTYPE svg PUBLIC "-//W3C//DTD SVG 1.1//EN" "http://www.w3.org/Graphics/SVG/1.1/DTD/svg11.dtd">
<svg version="1.1" id="Layer_1" xmlns="http://www.w3.org/2000/svg" xmlns:xlink="http://www.w3.org/1999/xlink" x="0px" y="0px"
	 width="320px" height="320px" viewBox="0 0 320 320" enable-background="new 0 0 320 320" xml:space="preserve">
<path fill="#81C341" d="M106,75c51.8-21.5,111.5,3.2,132.9,55.1s-3.2,111.5-55.1,132.9S72.4,259.8,50.9,208S54.1,96.5,106,75z
	 M181.4,257c48.5-20.1,71.6-75.9,51.5-124.5S157,60.9,108.5,81S36.8,157,56.9,205.5S132.8,277.1,181.4,257z"/>
<g>
	<g>
		<circle fill="#81C341" cx="107.4" cy="78.5" r="25.8"/>
	</g>
	<path fill="#FFFFFF" d="M120,64.8c-0.5,0-0.9,0.2-1.2,0.6c0,0-14.5,15.3-17.6,18.7l0,0c-0.4,0.4-1,0.4-1.4,0.1
		c-1.6-1.2-5.2-3.8-5.4-3.9c-0.4-0.3-0.8-0.4-1.3-0.4c-1.3,0-2.3,1.1-2.3,2.4c0,0.5,0.2,1,0.4,1.4l6.5,9.3c0.8,1.2,2,1.9,3.5,1.9
		s2.8-0.8,3.5-2l16.6-25.1c0.3-0.5,0.5-0.7,0.5-1.2C121.6,65.6,120.9,64.8,120,64.8z"/>
</g>
</svg>
