<?xml version="1.0" encoding="utf-8"?>
<!-- Generator: Adobe Illustrator 18.0.0, SVG Export Plug-In . SVG Version: 6.00 Build 0)  -->
<!DOCTYPE svg PUBLIC "-//W3C//DTD SVG 1.1//EN" "http://www.w3.org/Graphics/SVG/1.1/DTD/svg11.dtd">
<svg version="1.1" id="Layer_1" xmlns="http://www.w3.org/2000/svg" xmlns:xlink="http://www.w3.org/1999/xlink" x="0px" y="0px"
	 width="320px" height="320px" viewBox="0 0 320 320" enable-background="new 0 0 320 320" xml:space="preserve">
<path fill="#81C341" d="M214,245c-51.8,21.5-111.5-3.2-132.9-55.1S84.3,78.4,136.2,57s111.5,3.2,132.9,55.1S265.9,223.5,214,245z
	 M138.6,63C90.1,83.1,67,138.9,87.1,187.4S163,259.1,211.5,239s71.6-75.9,51.5-124.5S187.2,42.9,138.6,63z"/>
<g>
	<g>
		<circle fill="#81C341" cx="212.6" cy="241.5" r="25.8"/>
	</g>
	<path fill="#FFFFFF" d="M225.2,227.8c-0.5,0-0.9,0.2-1.2,0.6c0,0-14.5,15.3-17.6,18.7l0,0c-0.4,0.4-1,0.4-1.4,0.1
		c-1.6-1.2-5.2-3.8-5.4-3.9c-0.4-0.3-0.8-0.4-1.3-0.4c-1.3,0-2.3,1.1-2.3,2.4c0,0.5,0.2,1,0.4,1.4l6.5,9.3c0.8,1.2,2,1.9,3.5,1.9
		s2.8-0.8,3.5-2l16.6-25.1c0.3-0.5,0.5-0.7,0.5-1.2C226.8,228.6,226.1,227.8,225.2,227.8z"/>
</g>
</svg>
