<?xml version="1.0" encoding="utf-8"?>
<!-- Generator: Adobe Illustrator 18.0.0, SVG Export Plug-In . SVG Version: 6.00 Build 0)  -->
<!DOCTYPE svg PUBLIC "-//W3C//DTD SVG 1.1//EN" "http://www.w3.org/Graphics/SVG/1.1/DTD/svg11.dtd">
<svg version="1.1" id="Layer_1" xmlns="http://www.w3.org/2000/svg" xmlns:xlink="http://www.w3.org/1999/xlink" x="0px" y="0px"
	 width="320px" height="320px" viewBox="0 0 320 320" enable-background="new 0 0 320 320" xml:space="preserve">
<path fill="#81C341" d="M247,110c21.5,51.8-3.2,111.5-55.1,132.9S80.4,239.7,59,187.8S62.2,76.4,114,54.9S225.5,58.1,247,110z
	 M65,185.4c20.1,48.5,75.9,71.6,124.5,51.5S261.1,161,241,112.5S165,40.8,116.5,60.9S44.9,136.8,65,185.4z"/>
<g>
	<g>
		<circle fill="#81C341" cx="243.5" cy="111.4" r="25.8"/>
	</g>
	<path fill="#FFFFFF" d="M256.1,97.7c-0.5,0-0.9,0.2-1.2,0.6c0,0-14.5,15.3-17.6,18.7l0,0c-0.4,0.4-1,0.4-1.4,0.1
		c-1.6-1.2-5.2-3.8-5.4-3.9c-0.4-0.3-0.8-0.4-1.3-0.4c-1.3,0-2.3,1.1-2.3,2.4c0,0.5,0.2,1,0.4,1.4l6.5,9.3c0.8,1.2,2,1.9,3.5,1.9
		s2.8-0.8,3.5-2l16.6-25.1c0.3-0.5,0.5-0.7,0.5-1.2C257.7,98.5,257,97.7,256.1,97.7z"/>
</g>
</svg>
