<?xml version="1.0" encoding="utf-8"?>
<!-- Generator: Adobe Illustrator 18.0.0, SVG Export Plug-In . SVG Version: 6.00 Build 0)  -->
<!DOCTYPE svg PUBLIC "-//W3C//DTD SVG 1.1//EN" "http://www.w3.org/Graphics/SVG/1.1/DTD/svg11.dtd">
<svg version="1.1" id="Layer_1" xmlns="http://www.w3.org/2000/svg" xmlns:xlink="http://www.w3.org/1999/xlink" x="0px" y="0px"
	 width="320px" height="320px" viewBox="0 0 320 320" enable-background="new 0 0 320 320" xml:space="preserve">
<path fill="#81C341" d="M101.2,160c0-56.1,45.6-101.8,101.8-101.8S304.7,103.9,304.7,160S259.1,261.7,203,261.7
	S101.2,216.1,101.2,160z M298.2,160c0-52.5-42.7-95.3-95.3-95.3s-95.3,42.7-95.3,95.3s42.7,95.3,95.3,95.3S298.2,212.5,298.2,160z"
	/>
<g>
	<g>
		<circle fill="#81C341" cx="105" cy="160" r="25.8"/>
	</g>
	<path fill="#FFFFFF" d="M117.6,146.3c-0.5,0-0.9,0.2-1.2,0.6c0,0-14.5,15.3-17.6,18.7l0,0c-0.4,0.4-1,0.4-1.4,0.1
		c-1.6-1.2-5.2-3.8-5.4-3.9c-0.4-0.3-0.8-0.4-1.3-0.4c-1.3,0-2.3,1.1-2.3,2.4c0,0.5,0.2,1,0.4,1.4l6.5,9.3c0.8,1.2,2,1.9,3.5,1.9
		s2.8-0.8,3.5-2l16.6-25.1c0.3-0.5,0.5-0.7,0.5-1.2C119.2,147.1,118.5,146.3,117.6,146.3z"/>
</g>
</svg>
