<?xml version="1.0" encoding="utf-8"?>
<!-- Generator: Adobe Illustrator 18.0.0, SVG Export Plug-In . SVG Version: 6.00 Build 0)  -->
<!DOCTYPE svg PUBLIC "-//W3C//DTD SVG 1.1//EN" "http://www.w3.org/Graphics/SVG/1.1/DTD/svg11.dtd">
<svg version="1.1" id="Layer_1" xmlns="http://www.w3.org/2000/svg" xmlns:xlink="http://www.w3.org/1999/xlink" x="0px" y="0px"
	 width="320px" height="320px" viewBox="0 0 320 320" enable-background="new 0 0 320 320" xml:space="preserve">
<path fill="#81C341" d="M160,103.2c56.1,0,101.8,45.6,101.8,101.7S216.1,306.7,160,306.7S58.3,261.1,58.3,205S103.9,103.2,160,103.2
	z M160,300.2c52.5,0,95.3-42.7,95.3-95.3s-42.7-95.2-95.3-95.2S64.8,152.5,64.8,205S107.5,300.2,160,300.2z"/>
<g>
	<g>
		<circle fill="#81C341" cx="160" cy="107" r="25.8"/>
	</g>
	<path fill="#FFFFFF" d="M172.6,93.3c-0.5,0-0.9,0.2-1.2,0.6c0,0-14.5,15.3-17.6,18.7l0,0c-0.4,0.4-1,0.4-1.4,0.1
		c-1.6-1.2-5.2-3.8-5.4-3.9c-0.4-0.3-0.8-0.4-1.3-0.4c-1.3,0-2.3,1.1-2.3,2.4c0,0.5,0.2,1,0.4,1.4l6.5,9.3c0.8,1.2,2,1.9,3.5,1.9
		s2.8-0.8,3.5-2l16.6-25.1c0.3-0.5,0.5-0.7,0.5-1.2C174.2,94.1,173.5,93.3,172.6,93.3z"/>
</g>
</svg>
