<?xml version="1.0" encoding="utf-8"?>
<!-- Generator: Adobe Illustrator 18.0.0, SVG Export Plug-In . SVG Version: 6.00 Build 0)  -->
<!DOCTYPE svg PUBLIC "-//W3C//DTD SVG 1.1//EN" "http://www.w3.org/Graphics/SVG/1.1/DTD/svg11.dtd">
<svg version="1.1" id="Layer_1" xmlns="http://www.w3.org/2000/svg" xmlns:xlink="http://www.w3.org/1999/xlink" x="0px" y="0px"
	 width="128px" height="128px" viewBox="0 0 128 128" enable-background="new 0 0 128 128" xml:space="preserve">
<g>
	<g id="Edit_1_">
		<path fill="#52879F" d="M120,128H8c-4.4,0-8-3.6-8-8V8c0-4.4,3.6-8,8-8h112c4.4,0,8,3.6,8,8v112C128,124.4,124.4,128,120,128z"/>
	</g>
	<g>
		<path fill="#FFFFFF" d="M82,35.9c0.2,0,0.4,0,0.6,0.3l8.8,8.8c0.2,0.2,0.3,0.5,0.3,0.6c0,0.2,0,0.4-0.3,0.6l-7.2,7.2L74.2,43.4
			l7.2-7.2C81.6,36,81.8,35.9,82,35.9 M82,31.8c-1.3,0-2.6,0.5-3.6,1.5L68.3,43.4l15.9,15.9l10.1-10.1c2-2,2-5.1,0-7.1l-8.8-8.8
			C84.6,32.3,83.3,31.8,82,31.8L82,31.8z"/>
		<g>
			<polygon fill="#FFFFFF" points="66.2,45.6 82.1,61.5 58.2,85.4 42.2,69.6 			"/>
		</g>
		<path fill="#FFFFFF" d="M44,67.8l-5.9,5.9l-6,22.6l22-6.7l5.8-5.8L44,67.8z M42.4,88.8l-3.2-3.2l2.2-8.4l2-2l9.2,9.1l-2.1,2
			L42.4,88.8z"/>
	</g>
</g>
</svg>
