<?xml version="1.0" encoding="utf-8"?>
<!-- Generator: Adobe Illustrator 18.0.0, SVG Export Plug-In . SVG Version: 6.00 Build 0)  -->
<!DOCTYPE svg PUBLIC "-//W3C//DTD SVG 1.1//EN" "http://www.w3.org/Graphics/SVG/1.1/DTD/svg11.dtd">
<svg version="1.1" id="Layer_1" xmlns="http://www.w3.org/2000/svg" xmlns:xlink="http://www.w3.org/1999/xlink" x="0px" y="0px"
	 viewBox="0 0 128 128" enable-background="new 0 0 128 128" xml:space="preserve">
<path fill="#52879F" d="M120,128H8c-4.4,0-8-3.6-8-8V8c0-4.4,3.6-8,8-8h112c4.4,0,8,3.6,8,8v112C128,124.4,124.4,128,120,128z"/>
<g>
	<path fill="#FFFFFF" d="M77.1,54.8c-0.9,0-1.8-0.4-2.4-1.2L64,39.5L53.3,53.6c-1,1.3-2.9,1.6-4.3,0.6c-1.3-1-1.6-2.9-0.6-4.3
		l11.9-15.8c1.2-1.7,2.8-2,3.6-2l0,0c0.8,0,2.4,0.3,3.6,2l12,15.8c1,1.3,0.7,3.2-0.6,4.3C78.4,54.6,77.8,54.8,77.1,54.8z"/>
	<path fill="#FFFFFF" d="M64,76.4c-1.7,0-3-1.4-3-3V35.2c0-1.7,1.4-3,3-3s3,1.4,3,3v38.2C67,75,65.7,76.4,64,76.4z"/>
	<path fill="#FFFFFF" d="M87.4,95.8H40.6c-3.3,0-6-2.7-6-6V56c0-1.7,1.4-3,3-3s3,1.4,3,3v33.8h46.8V56c0-1.7,1.4-3,3-3s3,1.4,3,3
		v33.8C93.4,93.1,90.7,95.8,87.4,95.8z"/>
</g>
</svg>
