<?xml version="1.0" encoding="utf-8"?>
<!-- Generator: Adobe Illustrator 18.0.0, SVG Export Plug-In . SVG Version: 6.00 Build 0)  -->
<!DOCTYPE svg PUBLIC "-//W3C//DTD SVG 1.1//EN" "http://www.w3.org/Graphics/SVG/1.1/DTD/svg11.dtd">
<svg version="1.1" id="Layer_1" xmlns="http://www.w3.org/2000/svg" xmlns:xlink="http://www.w3.org/1999/xlink" x="0px" y="0px"
	 width="128px" height="128px" viewBox="0 0 128 128" enable-background="new 0 0 128 128" xml:space="preserve">
<g id="Back_1_">
	<path fill="#285884" d="M120,128H8c-4.4,0-8-3.6-8-8V8c0-4.4,3.6-8,8-8h112c4.4,0,8,3.6,8,8v112C128,124.4,124.4,128,120,128z"/>
</g>
<path fill="#FFFFFF" d="M84.6,62.6h-0.6c-2,0-3.7,1.6-3.7,3.7h0v1.9h0c0,0.2-0.2,0.4-0.4,0.4c-0.2,0-0.4-0.2-0.4-0.4h0v-7.5
	c-0.2-1.9-1.7-3.3-3.7-3.3h-0.6c-2,0-3.7,1.6-3.7,3.7h0v2.7h0c0,0.2-0.2,0.3-0.4,0.3s-0.4-0.1-0.4-0.3h0v-6
	c-0.2-1.8-1.8-3.3-3.7-3.3h-0.6c-2,0-3.7,1.6-3.7,3.7v3.3c0,0.2-0.2,0.4-0.4,0.4c-0.2,0-0.4-0.2-0.4-0.4V35.8c0-2.2-1.8-4-4-4h-0.6
	c-2.2,0-4,1.8-4,4v29.3c0,1.6-0.3,2-0.6,2.1c-0.2,0.1-0.4,0.1-0.6,0l-0.1-0.1l-4.7-7.7c-1.1-1.9-3.6-2.5-5.5-1.3l-0.5,0.3
	c-1.8,1.1-2.4,3.4-1.4,5.3c0.2,0.6,0.6,1.2,1.3,2.2l6,9.8c5.6,9.2,8.4,18.8,8.9,20.6h26.4c0,0,0-0.1,0.1-0.1
	c1.3-1.6,5.4-7.5,5.4-16.4V66.3C88.3,64.3,86.7,62.6,84.6,62.6z"/>
</svg>
