<?xml version="1.0" encoding="utf-8"?>
<!-- Generator: Adobe Illustrator 18.0.0, SVG Export Plug-In . SVG Version: 6.00 Build 0)  -->
<!DOCTYPE svg PUBLIC "-//W3C//DTD SVG 1.1//EN" "http://www.w3.org/Graphics/SVG/1.1/DTD/svg11.dtd">
<svg version="1.1" id="Layer_1" xmlns="http://www.w3.org/2000/svg" xmlns:xlink="http://www.w3.org/1999/xlink" x="0px" y="0px"
	 width="128px" height="128px" viewBox="0 0 128 128" enable-background="new 0 0 128 128" xml:space="preserve">
<g id="Back_1_">
	<path fill="#285884" d="M120,128H8c-4.4,0-8-3.6-8-8V8c0-4.4,3.6-8,8-8h112c4.4,0,8,3.6,8,8v112C128,124.4,124.4,128,120,128z"/>
</g>
<g>
	<path fill-rule="evenodd" clip-rule="evenodd" fill="#FFFFFF" d="M64,25.6c-21.2,0-38.4,17.2-38.4,38.4c0,21.2,17.2,38.4,38.4,38.4
		s38.4-17.2,38.4-38.4C102.4,42.8,85.2,25.6,64,25.6z M96.5,50.3c1.1,2.7-0.1,5.7-2.8,6.9c-2.7,1.1-5.7-0.1-6.9-2.8
		c-1.1-2.7,0.1-5.7,2.8-6.9C92.3,46.3,95.4,47.6,96.5,50.3z M89,39c2.1,2,2.1,5.4,0,7.4s-5.4,2-7.4,0c-2.1-2-2.1-5.4,0-7.4
		C83.6,37,86.9,37,89,39z M80.7,64c0,0.5-0.2,1.3-1.3,2.1l-0.1,0L57.4,78c-0.5,0.2-0.9,0.4-1.4,0.4c-1.4,0-2.4-1.2-2.4-2.8l0-23.2
		c0-1.6,1-2.8,2.4-2.8c0.5,0,0.9,0.1,1.4,0.4l22,11.9C80.6,62.6,80.7,63.5,80.7,64z M70.4,34.2c1.1-2.7,4.2-4,6.8-2.9
		c2.7,1.1,4,4.2,2.9,6.8c-1.1,2.7-4.2,4-6.8,2.9C70.7,39.9,69.4,36.9,70.4,34.2z M64,28.7c2.9,0,5.3,2.4,5.3,5.3
		c0,2.9-2.3,5.3-5.3,5.3c-2.9,0-5.3-2.4-5.3-5.3C58.7,31,61.1,28.7,64,28.7z M50.3,31.5c2.7-1.1,5.8,0.1,6.9,2.8
		c1.1,2.7-0.1,5.7-2.8,6.9c-2.7,1.1-5.7-0.1-6.9-2.8C46.3,35.7,47.6,32.6,50.3,31.5z M39,39c2-2,5.4-2,7.4,0c2.1,2,2.1,5.4,0,7.4
		c-2,2-5.4,2-7.4,0S37,41.1,39,39z M31.3,50.7c1.1-2.7,4.2-4,6.8-2.9c2.7,1.1,4,4.2,2.9,6.8c-1.1,2.7-4.2,4-6.8,2.9
		C31.5,56.5,30.2,53.4,31.3,50.7z M28.7,64c0-2.9,2.4-5.3,5.3-5.3c2.9,0,5.3,2.4,5.3,5.3c0,2.9-2.4,5.3-5.3,5.3
		C31,69.3,28.7,66.9,28.7,64z M31.5,77.7c-1.1-2.7,0.1-5.7,2.8-6.9c2.7-1.1,5.7,0.1,6.9,2.8c1.1,2.7-0.1,5.7-2.8,6.9
		C35.7,81.7,32.6,80.4,31.5,77.7z M39,89c-2-2-2-5.4,0-7.4c2-2,5.4-2,7.4,0c2.1,2,2.1,5.4,0,7.4C44.4,91,41.1,91,39,89z M57.6,93.8
		c-1.1,2.7-4.2,4-6.8,2.9c-2.7-1.1-4-4.2-2.9-6.8c1.1-2.7,4.2-4,6.8-2.9C57.3,88.1,58.6,91.1,57.6,93.8z M64,99.3
		c-2.9,0-5.3-2.4-5.3-5.3s2.4-5.3,5.3-5.3c2.9,0,5.3,2.4,5.3,5.3S66.9,99.3,64,99.3z M77.7,96.5c-2.7,1.1-5.8-0.1-6.9-2.8
		c-1.1-2.7,0.1-5.7,2.8-6.9c2.7-1.1,5.7,0.1,6.9,2.8C81.7,92.3,80.4,95.4,77.7,96.5z M89,89c-2.1,2-5.4,2-7.4,0
		c-2.1-2-2.1-5.4,0-7.4c2-2,5.4-2,7.4,0C91,83.6,91,86.9,89,89z M96.7,77.3c-1.1,2.7-4.2,4-6.8,2.9c-2.7-1.1-4-4.2-2.9-6.8
		c1.1-2.7,4.2-4,6.8-2.9C96.5,71.5,97.8,74.6,96.7,77.3z M94.1,69.3c-2.9,0-5.3-2.4-5.3-5.3c0-2.9,2.4-5.3,5.3-5.3
		c2.9,0,5.3,2.4,5.3,5.3C99.3,66.9,97,69.3,94.1,69.3z"/>
</g>
</svg>
