<?xml version="1.0" encoding="utf-8"?>
<!-- Generator: Adobe Illustrator 18.0.0, SVG Export Plug-In . SVG Version: 6.00 Build 0)  -->
<!DOCTYPE svg PUBLIC "-//W3C//DTD SVG 1.1//EN" "http://www.w3.org/Graphics/SVG/1.1/DTD/svg11.dtd">
<svg version="1.1" id="Layer_1" xmlns="http://www.w3.org/2000/svg" xmlns:xlink="http://www.w3.org/1999/xlink" x="0px" y="0px"
	 viewBox="0 0 128 128" enable-background="new 0 0 128 128" xml:space="preserve">
<path id="VidBut_2_" fill="#52879F" d="M120,128H8c-4.4,0-8-3.6-8-8V8c0-4.4,3.6-8,8-8h112c4.4,0,8,3.6,8,8v112
	C128,124.4,124.4,128,120,128z"/>
<g>
	<path fill="#FFFFFF" d="M90,72.1c-3.1-3.2-6.8-4.9-10.3-5.9c-2.8,1.7-6.1,2.8-9.6,2.8c-3.5,0-6.8-1-9.6-2.8
		c-3.4,1-7.2,2.7-10.3,5.9c-5.6,5.8-6,12.3-6,12.3s6.5,7.9,25.9,7.9S96,84.3,96,84.3S95.6,77.9,90,72.1z"/>
	<circle fill="#FFFFFF" cx="70.1" cy="50.6" r="14.7"/>
	<path fill="#FFFFFF" d="M45.7,61H29.6c-1.3,0-2.4-1.1-2.4-2.4c0-1.3,1.1-2.4,2.4-2.4h16.1c1.3,0,2.4,1.1,2.4,2.4
		C48.2,59.9,47.1,61,45.7,61z"/>
	<path fill="#FFFFFF" d="M37.7,69c-1.3,0-2.4-1.1-2.4-2.4V50.5c0-1.3,1.1-2.4,2.4-2.4c1.3,0,2.4,1.1,2.4,2.4v16.1
		C40.1,68,39,69,37.7,69z"/>
</g>
</svg>
