<?xml version="1.0" encoding="utf-8"?>
<!-- Generator: Adobe Illustrator 18.0.0, SVG Export Plug-In . SVG Version: 6.00 Build 0)  -->
<!DOCTYPE svg PUBLIC "-//W3C//DTD SVG 1.1//EN" "http://www.w3.org/Graphics/SVG/1.1/DTD/svg11.dtd">
<svg version="1.1" id="Layer_1" xmlns="http://www.w3.org/2000/svg" xmlns:xlink="http://www.w3.org/1999/xlink" x="0px" y="0px"
	 width="128px" height="128px" viewBox="0 0 128 128" enable-background="new 0 0 128 128" xml:space="preserve">
<g id="Back_1_">
	<path fill="#5288A0" d="M120,128H8c-4.4,0-8-3.6-8-8V8c0-4.4,3.6-8,8-8h112c4.4,0,8,3.6,8,8v112C128,124.4,124.4,128,120,128z"/>
</g>
<g>
	<g>
		<path fill="#FFFFFF" d="M64.1,87.3l3.4-3.4l-3.4-3.4c-3.5-3.5-3.5-9.2,0-12.7c0.3-0.3,0.6-0.5,0.9-0.8c-0.7,0.1-1.4,0.1-2.1,0.1
			c-4,0-7.7-1.1-10.8-3.1c-3.9,1.1-8.1,3.1-11.5,6.6c-6.3,6.5-6.8,13.8-6.8,13.8s7,8.4,27.7,8.8C61.6,91.1,62.5,89,64.1,87.3z"/>
		<path fill="#FFFFFF" d="M86.1,83.9l4.6-4.6c-0.8-2.2-2.2-4.8-4.4-7.4L80.2,78l-6.8-6.8c-0.8-0.8-1.9-1.2-3-1.2
			c-1.1,0-2.1,0.4-3,1.2c-1.6,1.6-1.6,4.3,0,5.9l6.8,6.8l-6.8,6.8c-0.7,0.7-1.1,1.6-1.2,2.5c4.9-0.2,9-0.9,12.3-1.8l1.6-1.6l0.9,0.9
			c3.7-1.2,6.3-2.6,8-3.8L86.1,83.9z"/>
		<path fill="#FFFFFF" d="M76.8,67.8l3.4,3.4l2.6-2.6c-2.9-2.3-6.1-3.6-9.2-4.5c-0.7,0.4-1.5,0.8-2.2,1.2
			C73.5,65.5,75.4,66.4,76.8,67.8z"/>
	</g>
	<circle fill="#FFFFFF" cx="62.9" cy="46.6" r="16.5"/>
	<path fill="#FFFFFF" d="M73.4,96.6l6.8-6.8l6.8,6.8c0.8,0.8,1.9,1.2,3,1.2c1.1,0,2.1-0.4,3-1.2c1.6-1.6,1.6-4.3,0-5.9l-6.8-6.8
		l6.8-6.8c1.6-1.6,1.6-4.3,0-5.9c-0.8-0.8-1.9-1.2-3-1.2c-1.1,0-2.1,0.4-3,1.2L80.2,78l-6.8-6.8c-0.8-0.8-1.9-1.2-3-1.2
		c-1.1,0-2.1,0.4-3,1.2c-1.6,1.6-1.6,4.3,0,5.9l6.8,6.8l-6.8,6.8c-1.6,1.6-1.6,4.3,0,5.9c0.8,0.8,1.9,1.2,3,1.2
		C71.5,97.9,72.6,97.5,73.4,96.6z"/>
</g>
</svg>
