<?xml version="1.0" encoding="utf-8"?>
<!-- Generator: Adobe Illustrator 18.0.0, SVG Export Plug-In . SVG Version: 6.00 Build 0)  -->
<!DOCTYPE svg PUBLIC "-//W3C//DTD SVG 1.1//EN" "http://www.w3.org/Graphics/SVG/1.1/DTD/svg11.dtd">
<svg version="1.1" id="Layer_1" xmlns="http://www.w3.org/2000/svg" xmlns:xlink="http://www.w3.org/1999/xlink" x="0px" y="0px"
	 viewBox="0 0 128 128" enable-background="new 0 0 128 128" xml:space="preserve">
<path id="VidBut_2_" fill="#295985" d="M120,128H8c-4.4,0-8-3.6-8-8V8c0-4.4,3.6-8,8-8h112c4.4,0,8,3.6,8,8v112
	C128,124.4,124.4,128,120,128z"/>
<g>
	<g>
		<path fill="#FFFFFF" d="M68,85.5H32c-3.5,0-6.3-2.9-6.3-6.5V48.9c0-3.6,2.8-6.5,6.3-6.5h36c3.5,0,6.3,2.9,6.3,6.5v30.2
			C74.3,82.6,71.4,85.5,68,85.5z M32,47.3c-0.8,0-1.5,0.7-1.5,1.7v30.2c0,0.9,0.7,1.7,1.5,1.7h36c0.8,0,1.5-0.7,1.5-1.7V48.9
			c0-0.9-0.7-1.7-1.5-1.7H32z M98.5,83.6c-0.7,0-1.4-0.2-2-0.6l0,0c-1.8-0.8-6.4-3.2-19.6-9.8l-1.3-0.7V55.6l1.3-0.7
			c13.2-6.7,17.8-9,19.6-9.8l0,0c0.6-0.4,1.3-0.6,2-0.6c2.1,0,3.8,1.7,3.8,3.8v31.6C102.3,81.9,100.6,83.6,98.5,83.6z M80.5,69.5
			c3.6,1.8,13.4,6.8,17,8.6V49.9c-3.7,1.9-13.5,6.8-17,8.6V69.5z"/>
	</g>
	<g>
		<path fill="#FFFFFF" d="M50,73.8c-5.4,0-9.8-4.4-9.8-9.8s4.4-9.8,9.8-9.8s9.8,4.4,9.8,9.8S55.4,73.8,50,73.8z"/>
	</g>
</g>
</svg>
