<?xml version="1.0" encoding="utf-8"?>
<!-- Generator: Adobe Illustrator 18.0.0, SVG Export Plug-In . SVG Version: 6.00 Build 0)  -->
<!DOCTYPE svg PUBLIC "-//W3C//DTD SVG 1.1//EN" "http://www.w3.org/Graphics/SVG/1.1/DTD/svg11.dtd">
<svg version="1.1" id="Layer_1" xmlns="http://www.w3.org/2000/svg" xmlns:xlink="http://www.w3.org/1999/xlink" x="0px" y="0px"
	 width="128px" height="128px" viewBox="0 0 128 128" enable-background="new 0 0 128 128" xml:space="preserve">
<g>
	<path fill="#285884" d="M120,128H8c-4.4,0-8-3.6-8-8L0,8c0-4.4,3.6-8,8-8l112,0c4.4,0,8,3.6,8,8v112C128,124.4,124.4,128,120,128z"
		/>
</g>
<g>
	<path fill="#F3F3F3" d="M94.5,41l-7.3-7.4c-0.9-0.9-2.1-1.4-3.4-1.4h-2.4v13.1c0,3.1-2.5,5.6-5.6,5.6H52.1c-3.1,0-5.6-2.5-5.6-5.6
		V32.1h-9.6c-2.6,0-4.8,2.1-4.8,4.8v54.2c0,2.6,2.1,4.8,4.8,4.8h54.2c2.6,0,4.8-2.1,4.8-4.8V44.3C95.9,43.1,95.4,41.9,94.5,41z
		 M89.9,86.3c0,2.9-2.3,5.2-5.2,5.2H43.3c-2.9,0-5.2-2.3-5.2-5.2V63.8c0-2.9,2.3-5.2,5.2-5.2h41.4c2.9,0,5.2,2.3,5.2,5.2V86.3z"/>
	<path fill="#F3F3F3" d="M50.5,32.1v13.1c0,0.9,0.7,1.6,1.6,1.6h23.7c0.9,0,1.6-0.7,1.6-1.6V32.1H50.5z M58.7,43.8
		c0,0.4-0.4,0.8-0.8,0.8h-4.1c-0.4,0-0.8-0.4-0.8-0.8v-8.6c0-0.4,0.4-0.8,0.8-0.8h4.1c0.4,0,0.8,0.4,0.8,0.8V43.8z"/>
</g>
</svg>
