<?xml version="1.0" encoding="utf-8"?>
<!-- Generator: Adobe Illustrator 18.0.0, SVG Export Plug-In . SVG Version: 6.00 Build 0)  -->
<!DOCTYPE svg PUBLIC "-//W3C//DTD SVG 1.1//EN" "http://www.w3.org/Graphics/SVG/1.1/DTD/svg11.dtd">
<svg version="1.1" id="Layer_1" xmlns="http://www.w3.org/2000/svg" xmlns:xlink="http://www.w3.org/1999/xlink" x="0px" y="0px"
	 width="128px" height="128px" viewBox="0 0 128 128" enable-background="new 0 0 128 128" xml:space="preserve">
<g id="Back_1_">
	<path fill="#285884" d="M120,128H8c-4.4,0-8-3.6-8-8V8c0-4.4,3.6-8,8-8h112c4.4,0,8,3.6,8,8v112C128,124.4,124.4,128,120,128z"/>
</g>
<path fill="#FFFFFF" d="M76.4,64c0,6.8-5.5,12.4-12.4,12.4S51.6,70.8,51.6,64c0-6.8,5.5-12.4,12.4-12.4S76.4,57.2,76.4,64z
	 M94.7,59.4L88.1,58c-0.6-2.5-1.6-4.8-2.8-6.9l3.6-5.6c0.4-0.6,0.3-1.4-0.2-1.9l-4.3-4.3c-0.5-0.5-1.3-0.6-1.9-0.2l-5.6,3.6
	c-2.1-1.3-4.4-2.2-6.9-2.8l-1.4-6.5c-0.1-0.7-0.8-1.2-1.5-1.2h-6.1c-0.7,0-1.3,0.5-1.5,1.2L58,39.9c-2.5,0.6-4.8,1.6-6.9,2.8
	l-5.6-3.6c-0.6-0.4-1.4-0.3-1.9,0.2l-4.3,4.3c-0.5,0.5-0.6,1.3-0.2,1.9l3.6,5.6c-1.3,2.1-2.2,4.4-2.8,6.9l-6.5,1.4
	c-0.7,0.1-1.2,0.8-1.2,1.5v6.1c0,0.7,0.5,1.3,1.2,1.5l6.5,1.4c0.6,2.5,1.6,4.8,2.8,6.9l-3.6,5.6c-0.4,0.6-0.3,1.4,0.2,1.9l4.3,4.3
	c0.5,0.5,1.3,0.6,1.9,0.2l5.6-3.6c2.1,1.3,4.4,2.2,6.9,2.8l1.4,6.5c0.1,0.7,0.8,1.2,1.5,1.2h6.1c0.7,0,1.3-0.5,1.5-1.2l1.4-6.5
	c2.5-0.6,4.8-1.6,6.9-2.8l5.6,3.6c0.6,0.4,1.4,0.3,1.9-0.2l4.3-4.3c0.5-0.5,0.6-1.3,0.2-1.9l-3.6-5.6c1.3-2.1,2.2-4.4,2.8-6.9
	l6.5-1.4c0.7-0.1,1.2-0.8,1.2-1.5v-6.1C95.9,60.3,95.3,59.6,94.7,59.4z"/>
</svg>
