<?xml version="1.0" encoding="utf-8"?>
<!-- Generator: Adobe Illustrator 18.0.0, SVG Export Plug-In . SVG Version: 6.00 Build 0)  -->
<!DOCTYPE svg PUBLIC "-//W3C//DTD SVG 1.1//EN" "http://www.w3.org/Graphics/SVG/1.1/DTD/svg11.dtd">
<svg version="1.1" id="Layer_1" xmlns="http://www.w3.org/2000/svg" xmlns:xlink="http://www.w3.org/1999/xlink" x="0px" y="0px"
	 width="128px" height="128px" viewBox="0 0 128 128" enable-background="new 0 0 128 128" xml:space="preserve">
<path id="VidBut_2_" fill="#295985" d="M120,128H8c-4.4,0-8-3.6-8-8V8c0-4.4,3.6-8,8-8h112c4.4,0,8,3.6,8,8v112
	C128,124.4,124.4,128,120,128z"/>
<g>
	<path fill="#FFFFFF" d="M87.9,85.9c0,1.1-0.9,2-2,2H42.1c-1.1,0-2-0.9-2-2V42.1c0-1.1,0.9-2,2-2h43.8c1.1,0,2,0.9,2,2V85.9z"/>
</g>
</svg>
